<svg width="32" height="32" viewBox="0 0 32 32" fill="none" xmlns="http://www.w3.org/2000/svg">
<path d="M22.5312 8.40625C22.5312 5.68119 20.8535 3.341 18.4769 2.36331C18.4579 2.35394 18.4381 2.34581 18.4175 2.339C17.6694 2.03988 16.8536 1.875 16 1.875C15.1464 1.875 14.3306 2.03988 13.5825 2.339C13.5619 2.34581 13.5422 2.35394 13.5231 2.36331C11.1465 3.341 9.46875 5.68119 9.46875 8.40625C9.46875 12.0076 12.3986 14.9375 16 14.9375C19.6014 14.9375 22.5312 12.0076 22.5312 8.40625ZM17.6929 3.07463C17.4069 3.7375 16.7469 4.1875 16 4.1875C15.2531 4.1875 14.5931 3.7375 14.3071 3.07463C14.8414 2.90456 15.4101 2.8125 16 2.8125C16.5899 2.8125 17.1586 2.90456 17.6929 3.07463ZM16 14C12.9156 14 10.4062 11.4907 10.4062 8.40625C10.4062 6.24337 11.6403 4.36344 13.4411 3.43306C13.8698 4.44019 14.8688 5.125 16 5.125C17.1312 5.125 18.1302 4.44019 18.5589 3.43306C20.3597 4.36344 21.5938 6.24337 21.5938 8.40625C21.5938 11.4907 19.0844 14 16 14Z" fill="#442751"/>
<path d="M17.4071 9.66282C17.1631 9.57626 16.8951 9.70358 16.8084 9.94751C16.6871 10.2887 16.3623 10.518 16.0001 10.518C15.6379 10.518 15.313 10.2887 15.1918 9.94751C15.105 9.70358 14.8369 9.57626 14.5931 9.66282C14.3491 9.74957 14.2217 10.0176 14.3084 10.2615C14.5623 10.9756 15.2421 11.4555 16.0001 11.4555C16.7581 11.4555 17.4379 10.9756 17.6918 10.2615C17.7784 10.0176 17.651 9.74957 17.4071 9.66282Z" fill="#442751"/>
<path d="M14.5938 8.01074V7.54199C14.5938 7.28312 14.3839 7.07324 14.125 7.07324H12.875C12.6161 7.07324 12.4062 7.28312 12.4062 7.54199C12.4062 7.80087 12.6161 8.01074 12.875 8.01074H13.6562C13.6562 8.26962 13.8661 8.47949 14.125 8.47949C14.3839 8.47949 14.5938 8.26962 14.5938 8.01074Z" fill="#442751"/>
<path d="M19.125 7.07324H17.875C17.6161 7.07324 17.4062 7.28312 17.4062 7.54199V8.01074C17.4062 8.26962 17.6161 8.47949 17.875 8.47949C18.1339 8.47949 18.3438 8.26962 18.3438 8.01074H19.125C19.3839 8.01074 19.5938 7.80087 19.5938 7.54199C19.5938 7.28312 19.3839 7.07324 19.125 7.07324Z" fill="#442751"/>
<path d="M16 0C11.3647 0 7.59375 3.771 7.59375 8.40625V23.5938C7.59375 28.229 11.3647 32 16 32C20.6353 32 24.4062 28.229 24.4062 23.5938V8.40625C24.4062 3.771 20.6353 0 16 0ZM16 31.0625C13.0551 31.0625 10.5031 29.349 9.28775 26.8668C12.2629 26.7801 15.1843 25.9757 17.7687 24.5267C19.9851 23.2839 21.9325 21.5838 23.4688 19.5616V23.5938C23.4688 27.7121 20.1183 31.0625 16 31.0625ZM23.4688 17.9321C20.2461 22.9031 14.8223 25.8841 8.90794 25.9363C8.71081 25.3411 8.58688 24.7129 8.54638 24.0625H8.75C11.0309 24.0625 13.2312 23.582 15.2898 22.6343C15.5249 22.526 15.6278 22.2476 15.5195 22.0124C15.4113 21.7773 15.1328 21.6744 14.8977 21.7827C12.963 22.6734 10.8946 23.125 8.75 23.125H8.53125V8.40625C8.53125 4.28794 11.8817 0.9375 16 0.9375C20.1183 0.9375 23.4688 4.28794 23.4688 8.40625C23.4688 13.4602 20.9213 18.1026 16.6542 20.8244C16.4359 20.9636 16.3718 21.2534 16.5111 21.4716C16.6005 21.6118 16.7519 21.6884 16.9067 21.6884C16.993 21.6884 17.0802 21.6646 17.1584 21.6147C19.3361 20.2256 21.1542 18.3016 22.4161 16.0506C22.8299 15.3125 23.1814 14.5419 23.4688 13.7482V17.9321H23.4688Z" fill="#442751"/>
</svg>
