<svg width="32" height="32" viewBox="0 0 32 32" fill="none" xmlns="http://www.w3.org/2000/svg">
<g clip-path="url(#clip0)">
<path d="M26.3227 25.5484C26.0714 25.5484 25.8282 25.5819 25.5943 25.6381L23.4396 23.4839L26.274 20.6492C29.679 18.819 32.0001 15.2248 32.0001 11.0968C32.0001 5.11995 27.1377 0.258057 21.1614 0.258057C20.8758 0.258057 20.6452 0.489407 20.6452 0.774186V10.5806H18.2783L12.236 4.5383C12.1395 4.44127 12.0084 4.38709 11.8711 4.38709H6.70976C5.85619 4.38709 5.16138 5.0819 5.16138 5.93548C5.16138 6.78905 5.85619 7.48386 6.70976 7.48386H10.6251L13.7219 10.5806H10.8388C10.5533 10.5806 10.3227 10.812 10.3227 11.0968C10.3227 15.2248 12.6437 18.819 16.048 20.6492L18.8832 23.4839L16.7284 25.6381C16.4945 25.5819 16.2513 25.5484 16.0001 25.5484C14.2922 25.5484 12.9033 26.9372 12.9033 28.6452C12.9033 30.3531 14.2922 31.7419 16.0001 31.7419C17.708 31.7419 19.0969 30.3531 19.0969 28.6452C19.0969 28.3939 19.0633 28.1507 19.0066 27.9168L21.1614 25.7621L23.3161 27.9168C23.2594 28.1507 23.2259 28.3939 23.2259 28.6452C23.2259 30.3531 24.6148 31.7419 26.3227 31.7419C28.0306 31.7419 29.4194 30.3531 29.4194 28.6452C29.4194 26.9372 28.0306 25.5484 26.3227 25.5484ZM30.9426 10.5806H21.6775V1.30367C26.6742 1.56426 30.6808 5.58442 30.9426 10.5806ZM11.2037 6.60281C11.1072 6.50579 10.9761 6.4516 10.8388 6.4516H6.70976C6.42499 6.4516 6.19363 6.21975 6.19363 5.93548C6.19363 5.6512 6.42499 5.41935 6.70976 5.41935H11.6573L16.8186 10.5806H15.1815L11.2037 6.60281ZM11.3683 11.6129H30.9416C30.6704 16.78 26.3945 20.9032 21.1614 20.9032C15.9273 20.9032 11.6377 16.781 11.3683 11.6129ZM16.0001 30.7097C14.8615 30.7097 13.9356 29.7838 13.9356 28.6452C13.9356 27.5065 14.8615 26.5806 16.0001 26.5806C17.1387 26.5806 18.0646 27.5065 18.0646 28.6452C18.0646 29.7838 17.1387 30.7097 16.0001 30.7097ZM21.5263 24.6673C21.3244 24.4655 20.9983 24.4655 20.7965 24.6673L18.5596 26.9042C18.3403 26.5827 18.0621 26.3049 17.741 26.0857L19.9779 23.8488C20.0749 23.7523 20.1291 23.6207 20.1291 23.4839C20.1291 23.347 20.0749 23.2155 19.9779 23.1189L18.4331 21.5741C19.0664 21.7394 19.7203 21.8493 20.393 21.8967L20.797 22.3009C20.897 22.4009 21.0293 22.4516 21.1614 22.4516C21.2934 22.4516 21.4257 22.4009 21.5263 22.3004L21.9305 21.8962C22.6029 21.8488 23.2569 21.7389 23.8902 21.5736L22.3453 23.1184C22.2478 23.2155 22.1936 23.347 22.1936 23.4839C22.1936 23.6207 22.2478 23.7523 22.3448 23.8488L24.5817 26.0857C24.2602 26.3049 23.9824 26.5827 23.7632 26.9042L21.5263 24.6673ZM26.3227 30.7097C25.1841 30.7097 24.2582 29.7838 24.2582 28.6452C24.2582 27.5065 25.1841 26.5806 26.3227 26.5806C27.4613 26.5806 28.3872 27.5065 28.3872 28.6452C28.3872 29.7838 27.4613 30.7097 26.3227 30.7097Z" fill="#442751"/>
<path d="M3.79167 24.5159V23.875H4.66667V23.25H3.79167V22.9375C3.79167 22.4207 3.39903 22 2.91667 22C2.43431 22 2.04167 22.4207 2.04167 22.9375C2.04167 23.4543 2.43431 23.875 2.91667 23.875H3.20833V24.5159C1.41461 24.6756 0 26.2879 0 28.25C0 30.3179 1.56999 32 3.5 32C5.43001 32 7 30.3179 7 28.25C7 26.2879 5.58539 24.6756 3.79167 24.5159ZM2.91667 23.25C2.75574 23.25 2.625 23.1096 2.625 22.9375C2.625 22.7654 2.75574 22.625 2.91667 22.625C3.0776 22.625 3.20833 22.7654 3.20833 22.9375V23.25H2.91667ZM3.5 31.375C1.8917 31.375 0.583333 29.9732 0.583333 28.25C0.583333 26.5268 1.8917 25.125 3.5 25.125C5.1083 25.125 6.41667 26.5268 6.41667 28.25C6.41667 29.9732 5.1083 31.375 3.5 31.375Z" fill="#442751"/>
<path d="M1.66667 27.75C1.66667 27.6123 1.81608 27.5 2 27.5C2.18392 27.5 2.33333 27.6123 2.33333 27.75V28H3V27.75C3 27.3365 2.55127 27 2 27C1.44873 27 1 27.3365 1 27.75V28H1.66667V27.75Z" fill="#442751"/>
<path d="M5 27C4.44873 27 4 27.3365 4 27.75V28H4.66667V27.75C4.66667 27.6123 4.81608 27.5 5 27.5C5.18392 27.5 5.33333 27.6123 5.33333 27.75V28H6V27.75C6 27.3365 5.55127 27 5 27Z" fill="#442751"/>
<path d="M3.5 30.5C3.00386 30.5 2 29.6615 2 29H1.5C1.5 30.1027 2.67295 31 3.5 31C4.32705 31 5.5 30.1027 5.5 29H5C5 29.6615 3.99614 30.5 3.5 30.5Z" fill="#442751"/>
<path d="M10.7917 20.5159V19.875H11.6667V19.25H10.7917V18.9375C10.7917 18.4207 10.399 18 9.91667 18C9.43431 18 9.04167 18.4207 9.04167 18.9375C9.04167 19.4543 9.43431 19.875 9.91667 19.875H10.2083V20.5159C8.41461 20.6756 7 22.2879 7 24.25C7 26.3179 8.56999 28 10.5 28C12.43 28 14 26.3179 14 24.25C14 22.2879 12.5854 20.6756 10.7917 20.5159ZM9.91667 19.25C9.75574 19.25 9.625 19.1096 9.625 18.9375C9.625 18.7654 9.75574 18.625 9.91667 18.625C10.0776 18.625 10.2083 18.7654 10.2083 18.9375V19.25H9.91667ZM10.5 27.375C8.8917 27.375 7.58333 25.9732 7.58333 24.25C7.58333 22.5268 8.8917 21.125 10.5 21.125C12.1083 21.125 13.4167 22.5268 13.4167 24.25C13.4167 25.9732 12.1083 27.375 10.5 27.375Z" fill="#442751"/>
<path d="M8.66667 23.75C8.66667 23.6123 8.81608 23.5 9 23.5C9.18392 23.5 9.33333 23.6123 9.33333 23.75V24H10V23.75C10 23.3365 9.55127 23 9 23C8.44873 23 8 23.3365 8 23.75V24H8.66667V23.75Z" fill="#442751"/>
<path d="M12 23C11.4487 23 11 23.3365 11 23.75V24H11.6667V23.75C11.6667 23.6123 11.8161 23.5 12 23.5C12.1839 23.5 12.3333 23.6123 12.3333 23.75V24H13V23.75C13 23.3365 12.5513 23 12 23Z" fill="#442751"/>
<path d="M10.5 26.5C10.0039 26.5 9 25.6615 9 25H8.5C8.5 26.1027 9.67295 27 10.5 27C11.3271 27 12.5 26.1027 12.5 25H12C12 25.6615 10.9961 26.5 10.5 26.5Z" fill="#442751"/>
</g>
<defs>
<clipPath id="clip0">
<rect width="32" height="32" fill="white"/>
</clipPath>
</defs>
</svg>
