<svg width="30" height="30" viewBox="0 0 30 30" fill="none" xmlns="http://www.w3.org/2000/svg">
<path d="M26.6016 29.7656H3.39844C1.65375 29.7656 0.234375 28.3463 0.234375 26.6016V3.39844C0.234375 1.65375 1.65375 0.234375 3.39844 0.234375H26.6016C28.3463 0.234375 29.7656 1.65375 29.7656 3.39844V26.6016C29.7656 28.3463 28.3463 29.7656 26.6016 29.7656ZM3.39844 0.703125C1.91215 0.703125 0.703125 1.91227 0.703125 3.39844V26.6016C0.703125 28.0877 1.91215 29.2969 3.39844 29.2969H26.6016C28.0879 29.2969 29.2969 28.0877 29.2969 26.6016V3.39844C29.2969 1.91227 28.0879 0.703125 26.6016 0.703125H3.39844Z" fill="#442751"/>
<path d="M3.56683 29.7656C3.43746 29.7656 3.33246 29.6606 3.33246 29.5312V0.46875C3.33246 0.339375 3.43746 0.234375 3.56683 0.234375C3.69621 0.234375 3.80121 0.339375 3.80121 0.46875V29.5312C3.80121 29.6606 3.69621 29.7656 3.56683 29.7656Z" fill="#442751"/>
<path d="M7.37788 29.7656C7.24851 29.7656 7.14351 29.6606 7.14351 29.5312V0.46875C7.14351 0.339375 7.24851 0.234375 7.37788 0.234375C7.50726 0.234375 7.61226 0.339375 7.61226 0.46875V29.5312C7.61226 29.6606 7.50738 29.7656 7.37788 29.7656Z" fill="#442751"/>
<path d="M11.1889 29.7656C11.0596 29.7656 10.9546 29.6606 10.9546 29.5312V0.46875C10.9546 0.339375 11.0596 0.234375 11.1889 0.234375C11.3183 0.234375 11.4233 0.339375 11.4233 0.46875V29.5312C11.4233 29.6606 11.3183 29.7656 11.1889 29.7656Z" fill="#442751"/>
<path d="M15 29.7656C14.8706 29.7656 14.7656 29.6606 14.7656 29.5312V0.46875C14.7656 0.339375 14.8706 0.234375 15 0.234375C15.1294 0.234375 15.2344 0.339375 15.2344 0.46875V29.5312C15.2344 29.6606 15.1294 29.7656 15 29.7656Z" fill="#442751"/>
<path d="M18.8111 29.7656C18.6817 29.7656 18.5767 29.6606 18.5767 29.5312V0.46875C18.5767 0.339375 18.6817 0.234375 18.8111 0.234375C18.9404 0.234375 19.0454 0.339375 19.0454 0.46875V29.5312C19.0454 29.6606 18.9405 29.7656 18.8111 29.7656Z" fill="#442751"/>
<path d="M22.6221 29.7656C22.4927 29.7656 22.3877 29.6606 22.3877 29.5312V0.46875C22.3877 0.339375 22.4927 0.234375 22.6221 0.234375C22.7515 0.234375 22.8565 0.339375 22.8565 0.46875V29.5312C22.8565 29.6606 22.7515 29.7656 22.6221 29.7656Z" fill="#442751"/>
<path d="M26.4332 29.7656C26.3038 29.7656 26.1988 29.6606 26.1988 29.5312V0.46875C26.1988 0.339375 26.3038 0.234375 26.4332 0.234375C26.5625 0.234375 26.6675 0.339375 26.6675 0.46875V29.5312C26.6675 29.6606 26.5627 29.7656 26.4332 29.7656Z" fill="#442751"/>
<path d="M29.5312 26.6676H0.46875C0.339375 26.6676 0.234375 26.5626 0.234375 26.4332C0.234375 26.3039 0.339375 26.1989 0.46875 26.1989H29.5312C29.6606 26.1989 29.7656 26.3039 29.7656 26.4332C29.7656 26.5626 29.6606 26.6676 29.5312 26.6676Z" fill="#442751"/>
<path d="M29.5312 22.8564H0.46875C0.339375 22.8564 0.234375 22.7514 0.234375 22.6221C0.234375 22.4927 0.339375 22.3877 0.46875 22.3877H29.5312C29.6606 22.3877 29.7656 22.4927 29.7656 22.6221C29.7656 22.7514 29.6606 22.8564 29.5312 22.8564Z" fill="#442751"/>
<path d="M29.5312 19.0454H0.46875C0.339375 19.0454 0.234375 18.9404 0.234375 18.811C0.234375 18.6817 0.339375 18.5767 0.46875 18.5767H29.5312C29.6606 18.5767 29.7656 18.6817 29.7656 18.811C29.7656 18.9404 29.6606 19.0454 29.5312 19.0454Z" fill="#442751"/>
<path d="M29.5312 15.2344H0.46875C0.339375 15.2344 0.234375 15.1294 0.234375 15C0.234375 14.8706 0.339375 14.7656 0.46875 14.7656H29.5312C29.6606 14.7656 29.7656 14.8706 29.7656 15C29.7656 15.1294 29.6606 15.2344 29.5312 15.2344Z" fill="#442751"/>
<path d="M29.5312 11.4233H0.46875C0.339375 11.4233 0.234375 11.3183 0.234375 11.189C0.234375 11.0596 0.339375 10.9546 0.46875 10.9546H29.5312C29.6606 10.9546 29.7656 11.0596 29.7656 11.189C29.7656 11.3183 29.6606 11.4233 29.5312 11.4233Z" fill="#442751"/>
<path d="M29.5312 7.6123H0.46875C0.339375 7.6123 0.234375 7.5073 0.234375 7.37793C0.234375 7.24855 0.339375 7.14355 0.46875 7.14355H29.5312C29.6606 7.14355 29.7656 7.24855 29.7656 7.37793C29.7656 7.5073 29.6606 7.6123 29.5312 7.6123Z" fill="#442751"/>
<path d="M29.5312 3.80115H0.46875C0.339375 3.80115 0.234375 3.69615 0.234375 3.56677C0.234375 3.4374 0.339375 3.3324 0.46875 3.3324H29.5312C29.6606 3.3324 29.7656 3.4374 29.7656 3.56677C29.7656 3.69615 29.6606 3.80115 29.5312 3.80115Z" fill="#442751"/>
<path d="M21.7189 14.1085H16.0896V15.5572L21.3629 16.9163C22.2657 17.1491 23.1454 16.4673 23.1454 15.535C23.1455 14.7472 22.5068 14.1085 21.7189 14.1085Z" fill="#FFEFEA"/>
<path d="M15 12.9164C15.8893 12.9164 16.6102 12.1955 16.6102 11.3062C16.6102 10.4169 15.8893 9.69604 15 9.69604C14.1107 9.69604 13.3898 10.4169 13.3898 11.3062C13.3898 12.1955 14.1107 12.9164 15 12.9164Z" fill="#FFEFEA"/>
<path d="M15 21.0996C14.3982 21.0996 13.9103 20.6117 13.9103 20.0098V14.0059C13.9103 13.4041 14.3981 12.9161 15 12.9161C15.6018 12.9161 16.0896 13.404 16.0896 14.0059V20.0098C16.0896 20.6117 15.6018 21.0996 15 21.0996Z" fill="#FFEFEA"/>
<path d="M15.0013 12.9163H14.9987C14.8801 12.9163 14.7662 12.9358 14.6595 12.9709C15.0942 13.1135 15.4085 13.5221 15.4085 14.0046V20.011C15.4085 20.4936 15.0942 20.9021 14.6595 21.0447C14.7663 21.0798 14.8801 21.0993 14.9987 21.0993H15.0013C15.6025 21.0993 16.0897 20.6121 16.0897 20.0109V14.0045C16.0896 13.4035 15.6023 12.9163 15.0013 12.9163Z" fill="#FFEFEA"/>
<path d="M15 9.69604C14.883 9.69604 14.7693 9.70917 14.6595 9.73296C15.385 9.88929 15.9291 10.5339 15.9291 11.3062C15.9291 12.0785 15.3851 12.7231 14.6595 12.8794C14.7694 12.9031 14.883 12.9162 15 12.9162C15.8892 12.9162 16.6102 12.1953 16.6102 11.3061C16.6102 10.417 15.8892 9.69604 15 9.69604Z" fill="#FFEFEA"/>
<path d="M8.28105 14.1085H13.9104V15.5572L8.63707 16.9163C7.73425 17.1491 6.85464 16.4673 6.85464 15.535C6.85453 14.7472 7.4932 14.1085 8.28105 14.1085Z" fill="#FFEFEA"/>
<path d="M21.7189 14.1085H20.5836C21.3715 14.1085 22.01 14.7472 22.01 15.5349C22.01 16.1439 21.6338 16.644 21.1218 16.8541L21.3628 16.9162C22.2656 17.1489 23.1452 16.4672 23.1452 15.5349C23.1455 14.7472 22.5068 14.1085 21.7189 14.1085Z" fill="#FFEFEA"/>
<path d="M8.28106 14.1085H9.41637C8.62852 14.1085 7.98996 14.7472 7.98996 15.5349C7.98996 16.1439 8.36625 16.644 8.87825 16.8541L8.63719 16.9162C7.73438 17.1489 6.85477 16.4672 6.85477 15.5349C6.85453 14.7472 7.49321 14.1085 8.28106 14.1085Z" fill="#FFEFEA"/>
<path d="M15 21.3341C14.2699 21.3341 13.6759 20.7402 13.6759 20.0101V14.0061C13.6759 13.276 14.2698 12.6821 15 12.6821C15.7302 12.6821 16.3241 13.276 16.3241 14.0061V20.0101C16.3241 20.7401 15.7301 21.3341 15 21.3341ZM15 13.1508C14.5284 13.1508 14.1447 13.5344 14.1447 14.006V20.01C14.1447 20.4815 14.5283 20.8652 15 20.8652C15.4717 20.8652 15.8554 20.4815 15.8554 20.01V14.006C15.8554 13.5344 15.4716 13.1508 15 13.1508Z" fill="#442751"/>
<path d="M15 13.1507C13.9829 13.1507 13.1555 12.3233 13.1555 11.3062C13.1555 10.2891 13.983 9.46167 15 9.46167C16.017 9.46167 16.8445 10.2891 16.8445 11.3062C16.8445 12.3233 16.0171 13.1507 15 13.1507ZM15 9.93042C14.2413 9.93042 13.6242 10.5476 13.6242 11.3062C13.6242 12.0649 14.2414 12.682 15 12.682C15.7586 12.682 16.3758 12.0648 16.3758 11.3062C16.3758 10.5476 15.7587 9.93042 15 9.93042Z" fill="#442751"/>
<path d="M8.27718 17.1967C7.9139 17.1967 7.55929 17.0769 7.26375 16.8478C6.85476 16.5308 6.62027 16.0523 6.62027 15.535C6.62027 14.6192 7.36535 13.8741 8.28117 13.8741H13.9104C14.0398 13.8741 14.1448 13.9791 14.1448 14.1085V15.5572C14.1448 15.6641 14.0725 15.7575 13.9689 15.7842L8.69554 17.1433C8.55679 17.1791 8.41629 17.1967 8.27718 17.1967ZM8.28105 14.3429C7.62375 14.3429 7.0889 14.8776 7.0889 15.535C7.0889 15.9063 7.2573 16.2498 7.55074 16.4772C7.84429 16.7048 8.21918 16.7819 8.57859 16.6895L13.6759 15.3757V14.3429H8.28105Z" fill="#442751"/>
<path d="M7.76273 15.7694C7.63335 15.7694 7.52835 15.6644 7.52835 15.535C7.52835 15.12 7.86597 14.7823 8.28105 14.7823C8.41042 14.7823 8.51542 14.8873 8.51542 15.0167C8.51542 15.1461 8.41042 15.2511 8.28105 15.2511C8.12448 15.2511 7.9971 15.3785 7.9971 15.535C7.9971 15.6644 7.89222 15.7694 7.76273 15.7694Z" fill="#442751"/>
<path d="M21.7228 17.1967C21.5836 17.1967 21.4432 17.1791 21.3044 17.1432L16.0312 15.7842C15.9277 15.7575 15.8553 15.6642 15.8553 15.5572V14.1085C15.8553 13.9791 15.9603 13.8741 16.0897 13.8741H21.7189C22.6346 13.8741 23.3798 14.6192 23.3798 15.535C23.3798 16.0524 23.1453 16.5309 22.7364 16.8478C22.4407 17.0769 22.086 17.1967 21.7228 17.1967ZM16.3241 15.3757L21.4214 16.6895C21.7811 16.782 22.1558 16.7049 22.4493 16.4772C22.7428 16.2498 22.9111 15.9063 22.9111 15.535C22.9111 14.8777 22.3764 14.3429 21.7189 14.3429H16.3241V15.3757Z" fill="#442751"/>
<path d="M19.2621 22.3569C19.1668 22.3569 19.0773 22.2984 19.0423 22.2039L18.8462 21.6745C18.6152 21.051 18.2366 20.4812 17.751 20.0269C17.0774 19.3969 16.6035 18.5907 16.3808 17.6956L15.8623 15.6137C15.8318 15.4916 15.9032 15.3674 16.0239 15.3321C16.1445 15.2972 16.2716 15.363 16.3118 15.4822C16.9366 17.3376 18.0834 18.0912 19.6706 19.1342C19.8674 19.2635 20.07 19.3966 20.2785 19.5364L20.6239 19.7681C20.7314 19.8402 20.7601 19.9857 20.688 20.0933C20.616 20.2009 20.4707 20.2296 20.3628 20.1574L20.0174 19.9257C19.8103 19.7869 19.6089 19.6544 19.4134 19.526C18.3704 18.8406 17.47 18.2489 16.7818 17.3659L16.8357 17.5824C17.0367 18.3895 17.4639 19.1163 18.0714 19.6846C18.61 20.1883 19.03 20.8201 19.286 21.5116L19.4821 22.041C19.5269 22.1624 19.465 22.2973 19.3436 22.3421C19.3167 22.3522 19.2892 22.3569 19.2621 22.3569Z" fill="#442751"/>
<path d="M10.7379 22.3569C10.7108 22.3569 10.6833 22.3522 10.6566 22.3423C10.5351 22.2973 10.4733 22.1625 10.518 22.0411L10.7141 21.5118C10.9703 20.8202 11.3903 20.1885 11.9287 19.6847C12.5362 19.1164 12.9634 18.3896 13.1644 17.5826L13.2183 17.366C12.5301 18.249 11.6297 18.8407 10.5867 19.5261C10.3912 19.6546 10.1897 19.787 9.98273 19.9259L9.63726 20.1575C9.52933 20.2296 9.38402 20.2009 9.31206 20.0934C9.23999 19.986 9.26871 19.8403 9.37617 19.7682L9.72163 19.5366C9.92999 19.3969 10.1327 19.2636 10.3295 19.1344C11.9167 18.0913 13.0635 17.3377 13.6883 15.4823C13.7285 15.363 13.8557 15.297 13.9762 15.3322C14.0969 15.3675 14.1683 15.4917 14.1378 15.6138L13.6193 17.6959C13.3966 18.5909 12.9227 19.397 12.2491 20.027C11.7635 20.4812 11.3849 21.051 11.1539 21.6746L10.9578 22.204C10.9227 22.2984 10.833 22.3569 10.7379 22.3569Z" fill="#442751"/>
<path d="M13.9103 14.5146C13.8124 14.5146 13.7211 14.4529 13.6881 14.355C13.0632 12.4996 11.9164 11.7461 10.3293 10.703C10.1325 10.5737 9.92988 10.4406 9.72141 10.3008L9.37594 10.0691C9.26848 9.99707 9.23976 9.85152 9.31184 9.74394C9.38379 9.63648 9.52922 9.60754 9.63703 9.67984L9.9825 9.91152C10.1896 10.0504 10.391 10.1828 10.5865 10.3112C12.1896 11.3646 13.4557 12.1968 14.1322 14.2054C14.1736 14.3281 14.1076 14.461 13.9849 14.5023C13.9603 14.5107 13.935 14.5146 13.9103 14.5146Z" fill="#442751"/>
<path d="M16.0897 14.5147C16.065 14.5147 16.0397 14.5107 16.0148 14.5024C15.8922 14.461 15.8263 14.3281 15.8675 14.2054C16.5439 12.1967 17.8102 11.3647 19.4133 10.3113C19.6088 10.1828 19.8103 10.0504 20.0173 9.91155L20.3627 9.67987C20.4704 9.60757 20.6159 9.6364 20.6879 9.74398C20.76 9.85144 20.7313 9.9971 20.6238 10.0692L20.2784 10.3009C20.07 10.4405 19.8673 10.5738 19.6705 10.703C18.0833 11.7461 16.9365 12.4998 16.3117 14.3551C16.2789 14.4529 16.1876 14.5147 16.0897 14.5147Z" fill="#442751"/>
</svg>
