<svg width="30" height="30" viewBox="0 0 30 30" fill="none" xmlns="http://www.w3.org/2000/svg">
<path d="M29.2471 14.6017L27.3152 13.3138C27.1917 13.2315 27.0372 13.211 26.8964 13.2586L23.2894 14.4776L22.2356 13.8765C22.0058 13.7454 21.7135 13.8254 21.5825 14.0551C21.4515 14.2847 21.5314 14.5771 21.7611 14.7081L22.2728 15L19.0962 16.8122L17.1518 15.6896V14.3105L19.0962 13.1878L20.098 13.7593C20.3275 13.8902 20.62 13.8104 20.7509 13.5807C20.8819 13.3511 20.802 13.0587 20.5723 12.9277L20.0565 12.6334L22.5822 11.1752L25.6894 12.0079C25.7309 12.019 25.7726 12.0243 25.8136 12.0243C26.025 12.0243 26.2184 11.8832 26.2757 11.6693C26.3441 11.4139 26.1926 11.1514 25.9372 11.0829L23.7548 10.4982L25.3916 9.55318L26.9595 9.9733C27.0009 9.98443 27.0427 9.98971 27.0837 9.98971C27.2951 9.98971 27.4885 9.84867 27.5457 9.63475C27.6142 9.37934 27.4627 9.11684 27.2072 9.0484L26.5642 8.87613L27.815 8.15396C28.044 8.02178 28.1224 7.72898 27.9902 7.50006C27.8581 7.27102 27.5652 7.19268 27.3363 7.32486L26.0855 8.04703L26.2577 7.40408C26.3262 7.14867 26.1747 6.88617 25.9192 6.81773C25.6638 6.74924 25.4013 6.90082 25.3329 7.15623L24.9128 8.72402L23.2763 9.66896L23.861 7.48664C23.9295 7.23123 23.7779 6.96873 23.5225 6.90029C23.2671 6.8318 23.0046 6.98338 22.9362 7.23879L22.1037 10.346L19.5779 11.8042L19.5972 8.0823L22.4564 5.56811C22.5679 5.47008 22.6276 5.32594 22.618 5.17781L22.4685 2.86078C22.4583 2.70105 22.3688 2.55703 22.2302 2.47705C22.0914 2.39695 21.9221 2.39156 21.7787 2.46252L19.6973 3.49166C19.5643 3.55746 19.4693 3.68121 19.4402 3.82676L18.6925 7.56006L15.4788 9.43775V6.52131L17.7536 4.2467C17.9405 4.05973 17.9405 3.75668 17.7536 3.56971C17.5666 3.38279 17.2635 3.38273 17.0765 3.56971L15.4787 5.16715V3.27715L16.6264 2.12941C16.8134 1.94244 16.8134 1.63934 16.6264 1.45236C16.4395 1.26545 16.1364 1.26539 15.9494 1.45236L15.4787 1.92305V0.478711C15.4787 0.214336 15.2644 0 15 0C14.7356 0 14.5213 0.214336 14.5213 0.478711V1.92305L14.0506 1.45236C13.8635 1.26533 13.5605 1.26545 13.3736 1.45236C13.1866 1.63934 13.1866 1.94244 13.3736 2.12941L14.5213 3.27715V5.16715L12.9237 3.56947C12.7366 3.3825 12.4336 3.3825 12.2466 3.56947C12.0597 3.75645 12.0597 4.05955 12.2466 4.24646L14.5213 6.52107V9.43752L11.3077 7.55988L10.5599 3.82658C10.5308 3.68104 10.4358 3.55729 10.3028 3.49148L8.22147 2.46234C8.07803 2.39145 7.90858 2.39684 7.76994 2.47688C7.63131 2.55691 7.5419 2.70094 7.53158 2.86061L7.38217 5.17764C7.37268 5.32576 7.43227 5.4699 7.54377 5.56793L10.403 8.08213L10.4222 11.8041L7.89645 10.3458L7.06389 7.23861C6.99551 6.9832 6.73301 6.83162 6.47754 6.90012C6.22213 6.96855 6.07061 7.23105 6.13904 7.48646L6.72381 9.66879L5.08699 8.72379L4.66688 7.156C4.5985 6.90059 4.336 6.749 4.08053 6.8175C3.82512 6.88594 3.67359 7.14844 3.74203 7.40385L3.9143 8.0468L2.6635 7.3248C2.43434 7.19256 2.1416 7.27107 2.00953 7.5C1.87735 7.72898 1.9558 8.02172 2.18473 8.15396L3.43553 8.87613L2.79252 9.0484C2.53711 9.11684 2.38559 9.37934 2.45402 9.63475C2.51127 9.84861 2.70475 9.98971 2.9161 9.98971C2.95711 9.98971 2.99883 9.98443 3.04031 9.9733L4.60817 9.55318L6.24498 10.4982L4.0626 11.0829C3.80719 11.1514 3.65567 11.4139 3.7241 11.6693C3.78135 11.8832 3.97483 12.0243 4.18617 12.0243C4.22725 12.0243 4.26891 12.019 4.31039 12.0079L7.41762 11.1752L9.9433 12.6334L6.71039 14.4777L3.10336 13.2586C2.96268 13.211 2.80805 13.2315 2.68453 13.3138L0.752989 14.6017C0.619806 14.6904 0.539825 14.8399 0.539825 15C0.539825 15.1601 0.619806 15.3096 0.752989 15.3983L2.68488 16.6862C2.76445 16.7393 2.85703 16.7667 2.95049 16.7667C3.00199 16.7667 3.05367 16.7583 3.10371 16.7415L6.71074 15.5224L9.94365 17.3667L7.41797 18.8248L4.31074 17.9922C4.05522 17.9239 3.79283 18.0753 3.7244 18.3308C3.65596 18.5862 3.80748 18.8486 4.06289 18.9171L6.24528 19.5019L4.6084 20.4469L3.04055 20.0268C2.78508 19.9585 2.52264 20.1098 2.4542 20.3653C2.38576 20.6207 2.53729 20.8832 2.7927 20.9516L3.4357 21.1239L2.1849 21.846C1.95592 21.9782 1.87752 22.271 2.00971 22.5C2.09836 22.6536 2.25926 22.7394 2.42473 22.7394C2.50594 22.7394 2.58832 22.7187 2.66367 22.6752L3.91453 21.953L3.74227 22.596C3.67383 22.8514 3.82535 23.1139 4.08076 23.1823C4.12225 23.1935 4.16402 23.1987 4.20498 23.1987C4.41639 23.1987 4.60981 23.0576 4.66705 22.8438L5.08717 21.276L6.72399 20.331L6.13922 22.5134C6.07078 22.7688 6.22231 23.0312 6.47772 23.0997C6.5192 23.1108 6.56098 23.1161 6.60193 23.1161C6.81334 23.1161 7.00676 22.9751 7.06401 22.7612L7.89656 19.654L10.4224 18.1957L10.4031 21.9176L7.54389 24.4318C7.43238 24.5299 7.37268 24.674 7.38229 24.8221L7.5317 27.1392C7.54195 27.2989 7.63149 27.4429 7.77006 27.5229C7.84395 27.5656 7.92662 27.5871 8.00942 27.5871C8.08201 27.5871 8.15455 27.5706 8.22158 27.5375L10.3029 26.5085C10.436 26.4427 10.5309 26.3189 10.5601 26.1734L11.3078 22.4401L14.5214 20.5624V23.4788L12.2467 25.7534C12.0597 25.9404 12.0597 26.2435 12.2467 26.4304C12.4337 26.6174 12.7368 26.6174 12.9237 26.4304L14.5213 24.8328V26.7228L13.3736 27.8705C13.1866 28.0575 13.1866 28.3606 13.3736 28.5475C13.5606 28.7345 13.8637 28.7345 14.0507 28.5475L14.5213 28.0768V29.5212C14.5213 29.7856 14.7356 29.9999 15.0001 29.9999C15.2645 29.9999 15.4788 29.7856 15.4788 29.5212V28.0769L15.9495 28.5476C16.043 28.641 16.1655 28.6878 16.288 28.6878C16.4105 28.6878 16.533 28.6411 16.6266 28.5476C16.8135 28.3606 16.8135 28.0575 16.6266 27.8706L15.4787 26.7229V24.8329L17.0763 26.4305C17.1698 26.5239 17.2923 26.5707 17.4149 26.5707C17.5374 26.5707 17.6599 26.524 17.7534 26.4305C17.9404 26.2435 17.9404 25.9404 17.7534 25.7535L15.4787 23.4789V20.5625L18.6923 22.4401L19.4401 26.1734C19.4692 26.319 19.5642 26.4427 19.6972 26.5085L21.7785 27.5377C21.8456 27.5708 21.9182 27.5872 21.9907 27.5872C22.0735 27.5872 22.1562 27.5658 22.2301 27.5231C22.3687 27.443 22.4581 27.299 22.4684 27.1393L22.6178 24.8222C22.6273 24.6742 22.5677 24.53 22.4562 24.432L19.597 21.9178L19.5778 18.1958L22.1036 19.6541L22.9361 22.7613C22.9934 22.9751 23.1868 23.1162 23.3982 23.1162C23.4392 23.1162 23.4809 23.111 23.5224 23.0998C23.7778 23.0314 23.9293 22.7689 23.8609 22.5135L23.2761 20.3311L24.9129 21.2761L25.333 22.8439C25.3903 23.0578 25.5837 23.1988 25.7951 23.1988C25.8362 23.1988 25.8778 23.1936 25.9193 23.1824C26.1747 23.114 26.3262 22.8515 26.2578 22.5961L26.0855 21.9531L27.3364 22.6753C27.4119 22.7188 27.4941 22.7395 27.5753 22.7395C27.7408 22.7395 27.9017 22.6536 27.9904 22.5001C28.1225 22.2711 28.0441 21.9784 27.8152 21.8462L26.5644 21.124L27.2074 20.9517C27.4628 20.8833 27.6143 20.6208 27.5459 20.3654C27.4774 20.11 27.2149 19.9587 26.9595 20.0269L25.3917 20.447L23.7548 19.502L25.9372 18.9172C26.1926 18.8488 26.3442 18.5863 26.2757 18.3309C26.2073 18.0755 25.9448 17.924 25.6894 17.9923L22.5822 18.8249L20.0565 17.3668L23.2894 15.5225L26.8964 16.7416C26.9464 16.7585 26.9981 16.7668 27.0496 16.7668C27.143 16.7668 27.2355 16.7395 27.3152 16.6863L29.2471 15.3984C29.3803 15.3097 29.4602 15.1603 29.4602 15.0001C29.4602 14.84 29.3803 14.6904 29.2471 14.6017ZM20.3327 4.24553L21.5593 3.63902L21.6473 5.00455L19.8671 6.57L20.3327 4.24553ZM8.35266 5.00455L8.44072 3.63902L9.66733 4.24553L10.1329 6.57L8.35266 5.00455ZM3.01998 15.7591L1.88151 15L3.02004 14.2409L5.26582 15L3.01998 15.7591ZM9.66733 25.7545L8.44072 26.361L8.35266 24.9954L10.1329 23.4299L9.66733 25.7545ZM15.4787 10.5465L18.6364 8.70152L18.6175 12.3587L16.6731 13.4813L15.4788 12.7918V10.5465H15.4787ZM14.5213 10.5465V12.7917L13.327 13.4812L11.3825 12.3586L11.3636 8.70147L14.5213 10.5465ZM10.9038 16.8122L7.72717 15L10.9038 13.1878L12.8482 14.3104V15.6895L10.9038 16.8122ZM11.3636 21.2985L11.3825 17.6413L13.327 16.5187L14.5212 17.2082V19.4535H14.5213L11.3636 21.2985ZM15 16.3791L13.8057 15.6896V14.3105L15 13.6209L16.1943 14.3104V15.6895L15 16.3791ZM15.4787 19.4535V17.2083L16.673 16.5188L18.6174 17.6414L18.6363 21.2985L15.4787 19.4535ZM21.6473 24.9954L21.5593 26.361L20.3327 25.7545L19.8671 23.4301L21.6473 24.9954ZM26.98 15.7591L24.7342 15L26.98 14.2409L28.1185 15L26.98 15.7591Z" fill="#442751"/>
</svg>
