<svg width="30" height="28" viewBox="0 0 30 28" fill="none" xmlns="http://www.w3.org/2000/svg">
<path d="M3.85574 27.2354H12.3396C12.6461 27.2354 12.8974 26.9841 12.8974 26.6776C12.8974 26.3711 12.6461 26.1197 12.3396 26.1197H3.85574C2.34164 26.1197 1.11565 24.8876 1.11565 23.3796V5.79894H4.90396V8.14671C4.90396 8.45321 5.15529 8.70454 5.46179 8.70454C5.76829 8.70454 6.01962 8.45321 6.01962 8.14671V5.79894H13.4491V8.14671C13.4491 8.45321 13.7004 8.70454 14.0069 8.70454C14.3134 8.70454 14.5648 8.45321 14.5648 8.14671V5.79894H18.3531V7.04945C18.3531 7.35595 18.6044 7.60727 18.9109 7.60727C19.2174 7.60727 19.4687 7.35595 19.4687 7.04945V5.24111C19.4687 4.93461 19.2174 4.68329 18.9109 4.68329H14.5648C14.4912 2.08418 12.358 0 9.7405 0C7.12301 0 4.98978 2.09031 4.91622 4.68329H0.557826C0.251328 4.68329 0 4.93461 0 5.24111V23.3796C0.00612995 25.5067 1.73478 27.2354 3.85574 27.2354ZM9.72824 1.11565C11.7266 1.11565 13.3633 2.70331 13.443 4.68942H6.01962C6.09317 2.70331 7.72987 1.11565 9.72824 1.11565Z" fill="#442751"/>
<path d="M18.1631 12.1924V12.9403H14.761C14.4545 12.9403 14.2031 13.1916 14.2031 13.4981V24.6362C14.2031 26.0706 15.3678 27.2415 16.8084 27.2415H27.3948C28.8292 27.2415 30 26.0768 30 24.6362V13.492C30 13.1855 29.7487 12.9341 29.4422 12.9341H26.0401V12.1863C26.0401 10.0163 24.2746 8.25085 22.1046 8.25085C19.9346 8.25085 18.1631 10.0224 18.1631 12.1924ZM28.8844 14.0498V24.6362C28.8844 25.4576 28.2162 26.1258 27.3948 26.1258H16.8084C15.9869 26.1258 15.3188 25.4576 15.3188 24.6362V14.0498H18.1631V15.6129C18.1631 15.9194 18.4144 16.1708 18.7209 16.1708C19.0274 16.1708 19.2787 15.9194 19.2787 15.6129V14.0498H24.9305V15.6129C24.9305 15.9194 25.1819 16.1708 25.4884 16.1708C25.7949 16.1708 26.0462 15.9194 26.0462 15.6129V14.0498H28.8844ZM22.0985 9.36651C23.6555 9.36651 24.9244 10.6354 24.9244 12.1924V12.9403H19.2726V12.1924C19.2787 10.6293 20.5415 9.36651 22.0985 9.36651Z" fill="#442751"/>
</svg>
