<svg width="28" height="28" viewBox="0 0 28 28" fill="none" xmlns="http://www.w3.org/2000/svg">
<g clip-path="url(#clip0)">
<path d="M26.1383 14.3627C26.0257 14.1322 26.0257 13.8678 26.1383 13.6374L27.1826 11.501C27.7641 10.3115 27.3034 8.89376 26.1338 8.27323L24.0333 7.1587C23.8067 7.0385 23.6513 6.82457 23.607 6.57197L23.1962 4.22977C22.9674 2.9257 21.7611 2.04939 20.4504 2.23483L18.096 2.56788C17.8418 2.60375 17.5906 2.52205 17.4062 2.34372L15.6972 0.690413C14.7456 -0.230192 13.2548 -0.230246 12.3032 0.690413L10.5941 2.34388C10.4097 2.52227 10.1585 2.60381 9.90438 2.56804L7.54993 2.235C6.23881 2.04944 5.03295 2.92586 4.8042 4.22993L4.39339 6.57202C4.34904 6.82468 4.19367 7.03856 3.9671 7.15881L1.86657 8.27334C0.697025 8.89382 0.23634 10.3117 0.817774 11.5012L1.86203 13.6375C1.97468 13.868 1.97468 14.1324 1.86203 14.3628L0.81772 16.4991C0.236285 17.6886 0.69697 19.1064 1.86651 19.7269L3.96705 20.8414C4.19367 20.9616 4.34904 21.1756 4.39339 21.4282L4.8042 23.7704C5.01245 24.9575 6.03039 25.7901 7.20031 25.79C7.31554 25.79 7.43246 25.7819 7.54998 25.7653L9.90443 25.4322C10.1583 25.3962 10.4098 25.478 10.5942 25.6564L12.3032 27.3097C12.7791 27.77 13.3895 28.0002 14.0002 28.0001C14.6106 28 15.2214 27.7699 15.6971 27.3097L17.4062 25.6564C17.5906 25.478 17.8419 25.3966 18.096 25.4322L20.4504 25.7653C21.7617 25.9508 22.9674 25.0744 23.1962 23.7703L23.607 21.4282C23.6514 21.1756 23.8067 20.9617 24.0333 20.8414L26.1338 19.7269C27.3034 19.1064 27.7641 17.6886 27.1826 16.4991L26.1383 14.3627ZM25.3769 18.3003L23.2764 19.4148C22.6067 19.7702 22.1474 20.4023 22.0164 21.1491L21.6056 23.4913C21.5282 23.9325 21.1203 24.2288 20.6766 24.1662L18.3222 23.8332C17.5713 23.7268 16.8283 23.9685 16.2834 24.4956L14.5743 26.1488C14.2524 26.4602 13.748 26.4602 13.426 26.1488L11.717 24.4955C11.2564 24.05 10.6543 23.8085 10.0257 23.8085C9.91056 23.8085 9.79446 23.8166 9.67819 23.8331L7.32374 24.1661C6.88045 24.2288 6.47221 23.9324 6.39477 23.4912L5.98391 21.149C5.85288 20.4022 5.39361 19.7701 4.72386 19.4148L2.62333 18.3002C2.22761 18.0903 2.07175 17.6106 2.26846 17.2082L3.31277 15.0718C3.6457 14.3906 3.6457 13.6094 3.31277 12.9282L2.26846 10.7918C2.07175 10.3894 2.22761 9.90974 2.62333 9.6998L4.72386 8.58527C5.39356 8.22986 5.85288 7.59779 5.98385 6.85098L6.39466 4.50884C6.4721 4.06762 6.87996 3.77122 7.32364 3.83389L9.67808 4.16693C10.4287 4.27319 11.1719 4.03164 11.7169 3.50451L13.426 1.8512C13.7478 1.53981 14.2522 1.53981 14.5742 1.8512L16.2833 3.50451C16.8282 4.03169 17.5714 4.27319 18.322 4.16693L20.6765 3.83389C21.1198 3.77116 21.5281 4.06762 21.6055 4.50884L22.0163 6.85103C22.1473 7.59784 22.6066 8.22997 23.2763 8.58527L25.3769 9.6998C25.7726 9.90974 25.9284 10.3894 25.7317 10.7918L24.6874 12.9281C24.3545 13.6093 24.3545 14.3906 24.6874 15.0718L25.7317 17.2081C25.9285 17.6106 25.7726 18.0903 25.3769 18.3003Z" fill="#FFEBE6"/>
<path d="M19.8999 8.10008C19.5846 7.78475 19.0733 7.78475 18.758 8.10008L8.10002 18.7581C7.78469 19.0734 7.78469 19.5847 8.10002 19.9C8.25768 20.0577 8.46435 20.1365 8.67095 20.1365C8.87756 20.1365 9.08428 20.0577 9.24189 19.9L19.8998 9.24206C20.2153 8.92668 20.2153 8.41546 19.8999 8.10008Z" fill="#FFEBE6"/>
<path d="M10.77 6.73291C9.13751 6.73291 7.80933 8.0611 7.80933 9.69362C7.80933 11.3261 9.13751 12.6543 10.77 12.6543C12.4026 12.6543 13.7307 11.3261 13.7307 9.69362C13.7307 8.0611 12.4026 6.73291 10.77 6.73291ZM10.77 11.0394C10.028 11.0394 9.42429 10.4357 9.42429 9.69357C9.42429 8.95151 10.028 8.34782 10.77 8.34782C11.5121 8.34782 12.1158 8.95151 12.1158 9.69357C12.1158 10.4357 11.5121 11.0394 10.77 11.0394Z" fill="#FFEBE6"/>
<path d="M17.23 15.3458C15.5975 15.3458 14.2693 16.674 14.2693 18.3065C14.2693 19.939 15.5975 21.2672 17.23 21.2672C18.8625 21.2672 20.1907 19.939 20.1907 18.3065C20.1907 16.674 18.8625 15.3458 17.23 15.3458ZM17.23 19.6522C16.4879 19.6522 15.8842 19.0485 15.8842 18.3065C15.8842 17.5644 16.4879 16.9607 17.23 16.9607C17.972 16.9607 18.5757 17.5644 18.5757 18.3065C18.5757 19.0485 17.972 19.6522 17.23 19.6522Z" fill="#FFEBE6"/>
</g>
<defs>
<clipPath id="clip0">
<rect width="28" height="28" fill="white"/>
</clipPath>
</defs>
</svg>
