<svg width="28" height="28" viewBox="0 0 28 28" fill="none" xmlns="http://www.w3.org/2000/svg">
<path d="M26.6775 11.984C26.2763 11.6888 25.9494 11.3042 25.7227 10.8607C25.6913 10.3429 25.783 9.82491 25.9901 9.3492C26.2514 8.53067 26.5216 7.68507 26.1254 7C25.7236 6.307 24.8477 6.1166 24.0007 5.93367C23.4932 5.87668 23.0064 5.7008 22.5797 5.42033C22.3003 4.99362 22.1254 4.50712 22.0691 4.00027C21.8862 3.1528 21.6972 2.2764 21.0023 1.8746C20.3177 1.4784 19.4721 1.7486 18.6531 2.00993C18.1772 2.21684 17.6591 2.30842 17.1411 2.27733C16.6979 2.05053 16.3134 1.72363 16.0183 1.32253C15.4299 0.672 14.8213 0 14 0C13.1787 0 12.5701 0.672 11.984 1.32253C11.6888 1.72375 11.3042 2.05065 10.8607 2.27733C10.3429 2.30831 9.82503 2.21673 9.3492 2.00993C8.5316 1.74907 7.68553 1.47793 7 1.8746C6.307 2.2764 6.1166 3.15233 5.93367 3.99933C5.87668 4.50677 5.7008 4.99362 5.42033 5.42033C4.99362 5.69969 4.50712 5.87457 4.00027 5.93087C3.1528 6.1138 2.2764 6.3028 1.8746 6.99767C1.4784 7.68227 1.7486 8.52833 2.00993 9.34687C2.21713 9.82269 2.30877 10.3408 2.27733 10.8589C2.05053 11.3021 1.72363 11.6866 1.32253 11.9817C0.672 12.5701 0 13.1787 0 14C0 14.8213 0.672 15.4299 1.32253 16.0183C1.72375 16.3135 2.05065 16.6981 2.27733 17.1416C2.30866 17.6595 2.21702 18.1774 2.00993 18.6531C1.7486 19.4717 1.4784 20.3173 1.8746 21.0023C2.2764 21.6953 3.15233 21.8857 3.99933 22.0687C4.5066 22.125 4.99339 22.3 5.42033 22.5797C5.69969 23.0064 5.87457 23.4929 5.93087 23.9997C6.1138 24.8472 6.3028 25.7236 6.99767 26.1254C7.68227 26.5216 8.52787 26.2514 9.34687 25.9901C9.82281 25.7832 10.3409 25.6916 10.8589 25.7227C11.3021 25.9495 11.6866 26.2764 11.9817 26.6775C12.5701 27.328 13.1787 28 14 28C14.8213 28 15.4299 27.328 16.0183 26.6775C16.3135 26.2763 16.6981 25.9494 17.1416 25.7227C17.6595 25.6917 18.1773 25.7833 18.6531 25.9901C19.4712 26.2514 20.3163 26.5221 21.0023 26.1254C21.6953 25.7236 21.8857 24.8477 22.0687 24.0007C22.125 23.4934 22.3 23.0066 22.5797 22.5797C23.0064 22.3003 23.4929 22.1254 23.9997 22.0691C24.8472 21.8862 25.7236 21.6972 26.1254 21.0023C26.5216 20.3177 26.2514 19.4717 25.9901 18.6531C25.7829 18.1773 25.6912 17.6592 25.7227 17.1411C25.9495 16.6979 26.2764 16.3134 26.6775 16.0183C27.328 15.4299 28 14.8213 28 14C28 13.1787 27.328 12.5701 26.6775 11.984ZM26.0512 15.3267C25.5042 15.7281 25.0785 16.2726 24.8211 16.9003C24.7251 17.592 24.822 18.2968 25.1011 18.9369C25.3008 19.5617 25.5047 20.2081 25.3181 20.5347C25.1225 20.8721 24.4515 21.0168 23.8028 21.1568C23.1 21.3085 22.3734 21.4653 21.9198 21.9198C21.4965 22.4654 21.2323 23.1174 21.1563 23.8037C21.0163 24.4519 20.8717 25.123 20.5352 25.3176C20.2071 25.5066 19.5613 25.3003 18.9369 25.1011C18.2968 24.8225 17.5923 24.7257 16.9008 24.8211C16.2728 25.0783 15.7281 25.504 15.3267 26.0512C14.8745 26.5505 14.4074 27.0667 14 27.0667C13.5926 27.0667 13.1255 26.5505 12.6733 26.0512C12.2719 25.5042 11.7274 25.0785 11.0997 24.8211C10.9451 24.781 10.7861 24.7613 10.6265 24.7623C10.0915 24.7962 9.56457 24.9097 9.06313 25.0992C8.43687 25.2989 7.79193 25.5029 7.46527 25.3162C7.12787 25.1207 6.9832 24.4496 6.8432 23.8009C6.69153 23.0981 6.53473 22.3715 6.0802 21.9179C5.53461 21.4947 4.88262 21.2304 4.19627 21.1545C3.54807 21.0145 2.877 20.8698 2.6824 20.5333C2.4934 20.2067 2.6992 19.5617 2.89893 18.9369C3.17794 18.2969 3.27483 17.5923 3.17893 16.9008C2.92174 16.2728 2.49603 15.7281 1.9488 15.3267C1.44947 14.8745 0.933333 14.4074 0.933333 14C0.933333 13.5926 1.44947 13.1255 1.95067 12.6733C2.49772 12.2719 2.92337 11.7274 3.1808 11.0997C3.27676 10.408 3.17987 9.70323 2.9008 9.06313C2.70107 8.43827 2.49713 7.79193 2.6838 7.46527C2.87933 7.12787 3.5504 6.9832 4.19907 6.8432C4.90187 6.69153 5.62847 6.53473 6.08207 6.0802C6.50533 5.53461 6.76958 4.88262 6.84553 4.19627C6.98553 3.54807 7.1302 2.877 7.46667 2.6824C7.79333 2.492 8.43827 2.6992 9.06313 2.89893C9.75427 3.12013 10.4701 3.34787 11.0992 3.17893C11.7272 2.92174 12.2719 2.49603 12.6733 1.9488C13.1255 1.44947 13.5926 0.933333 14 0.933333C14.4074 0.933333 14.8745 1.44947 15.3267 1.9488C15.7281 2.49585 16.2726 2.92151 16.9003 3.17893C17.592 3.2746 18.2967 3.17771 18.9369 2.89893C19.5627 2.6992 20.2081 2.49527 20.5347 2.68193C20.8721 2.87747 21.0168 3.54853 21.1568 4.1972C21.3085 4.9 21.4653 5.6266 21.9198 6.0802C22.4654 6.50347 23.1174 6.76772 23.8037 6.84367C24.4519 6.98367 25.123 7.12833 25.3176 7.4648C25.5066 7.79193 25.3008 8.43827 25.1011 9.06313C24.8221 9.70311 24.7252 10.4077 24.8211 11.0992C25.0783 11.7272 25.504 12.2719 26.0512 12.6733C26.5505 13.1255 27.0667 13.5926 27.0667 14C27.0667 14.4074 26.5505 14.8745 26.0512 15.3267Z" fill="#FFEBE6"/>
<path d="M14.0001 5.6C14.2578 5.6 14.4668 5.39105 14.4668 5.13334V4.2C14.4668 3.94229 14.2578 3.73334 14.0001 3.73334C13.7424 3.73334 13.5334 3.94229 13.5334 4.2V5.13334C13.5334 5.39105 13.7424 5.6 14.0001 5.6Z" fill="#FFEBE6"/>
<path d="M11.2542 5.55611C11.3089 5.75993 11.4935 5.90173 11.7045 5.90191C11.7457 5.90214 11.7867 5.89683 11.8263 5.88604C12.0751 5.81931 12.2228 5.56369 12.1563 5.31484L11.9145 4.41324C11.9125 4.40507 11.9104 4.39697 11.908 4.38892C11.8345 4.14187 11.5747 4.00117 11.3276 4.07467C11.0806 4.14817 10.9399 4.40799 11.0134 4.65503L11.2542 5.55611Z" fill="#FFEBE6"/>
<path d="M9.50375 5.27938C9.50276 5.27757 9.50171 5.27582 9.50066 5.27401C9.37035 5.05165 9.0844 4.9771 8.86209 5.10741C8.63972 5.23773 8.56517 5.52368 8.69549 5.74599L9.16215 6.55472C9.24557 6.69927 9.39986 6.78823 9.56675 6.78806C9.64854 6.788 9.7288 6.76641 9.79962 6.72552C10.0228 6.59666 10.0993 6.31124 9.97042 6.08806L9.50375 5.27938Z" fill="#FFEBE6"/>
<path d="M7.40046 8.06026C7.48796 8.14776 7.60661 8.197 7.73039 8.197C7.85412 8.197 7.97271 8.14782 8.06021 8.06038C8.2425 7.87815 8.2425 7.58269 8.06033 7.4004L7.39999 6.74007C7.39626 6.73616 7.39241 6.73237 7.3885 6.72857C7.20312 6.54955 6.90766 6.55468 6.72863 6.74007C6.54961 6.92545 6.55474 7.22091 6.74013 7.39993L7.40046 8.06026Z" fill="#FFEBE6"/>
<path d="M7.40046 19.9397L6.74013 20.6001C6.65269 20.6876 6.60352 20.8062 6.60352 20.9299C6.60346 21.1876 6.81235 21.3966 7.07007 21.3967C7.19385 21.3967 7.3125 21.3474 7.4 21.2599L8.06033 20.5996C8.23498 20.4188 8.23498 20.1321 8.06033 19.9512C7.88131 19.7658 7.58585 19.7607 7.40046 19.9397Z" fill="#FFEBE6"/>
<path d="M9.80156 21.2786C9.5792 21.1483 9.29331 21.2229 9.16299 21.4452L8.69632 22.2539C8.65543 22.3248 8.63391 22.405 8.63379 22.4868C8.6335 22.7445 8.84221 22.9537 9.09999 22.9539C9.26688 22.9541 9.42117 22.8652 9.50459 22.7206L9.97126 21.9119C10.0975 21.6899 10.0218 21.4078 9.80156 21.2786Z" fill="#FFEBE6"/>
<path d="M11.827 22.1164C11.5784 22.0486 11.3218 22.1952 11.254 22.4438L11.0128 23.345C11.0022 23.3844 10.9968 23.4251 10.9968 23.4659C10.9969 23.7236 11.2058 23.9326 11.4636 23.9325C11.6746 23.9323 11.8592 23.7905 11.9139 23.5867L12.1556 22.6851C12.2206 22.4375 12.074 22.1838 11.827 22.1164Z" fill="#FFEBE6"/>
<path d="M14.0001 22.4C13.7424 22.4 13.5334 22.609 13.5334 22.8667V23.8C13.5334 24.0577 13.7424 24.2667 14.0001 24.2667C14.2578 24.2667 14.4668 24.0577 14.4668 23.8V22.8667C14.4668 22.609 14.2578 22.4 14.0001 22.4Z" fill="#FFEBE6"/>
<path d="M16.7456 22.4438C16.6782 22.1969 16.4246 22.0503 16.1769 22.1153C15.9277 22.1807 15.7786 22.4358 15.844 22.6851L16.0858 23.5867C16.1404 23.7905 16.325 23.9323 16.5361 23.9325C16.5769 23.9325 16.6176 23.9271 16.657 23.9166C16.906 23.8499 17.0536 23.5939 16.9869 23.345L16.7456 22.4438Z" fill="#FFEBE6"/>
<path d="M18.8371 21.4452C18.836 21.4434 18.835 21.4416 18.8339 21.4398C18.7035 21.2175 18.4176 21.1429 18.1953 21.2733C17.9729 21.4037 17.8984 21.6896 18.0288 21.9119L18.4955 22.7207C18.5789 22.8652 18.7332 22.9542 18.9001 22.954C18.9818 22.9539 19.0621 22.9323 19.1329 22.8915C19.3561 22.7626 19.4326 22.4772 19.3037 22.254L18.8371 21.4452Z" fill="#FFEBE6"/>
<path d="M20.5995 19.9397C20.4187 19.765 20.1319 19.765 19.9511 19.9397C19.7657 20.1188 19.7605 20.4142 19.9396 20.5996L20.6 21.2599C20.6875 21.3474 20.8061 21.3967 20.9299 21.3967C21.0536 21.3967 21.1723 21.3475 21.2597 21.2601C21.442 21.0778 21.442 20.7824 21.2598 20.6001L20.5995 19.9397Z" fill="#FFEBE6"/>
<path d="M20.2695 8.19697C20.3933 8.19697 20.512 8.14773 20.5995 8.06023L21.2598 7.3999C21.2637 7.39617 21.2675 7.39232 21.2712 7.38847C21.4503 7.20308 21.4452 6.90768 21.2598 6.7286C21.0744 6.54958 20.779 6.55465 20.5999 6.74003L19.9396 7.40037C19.8522 7.48787 19.803 7.60652 19.803 7.73018C19.8029 7.98796 20.0118 8.19691 20.2695 8.19697Z" fill="#FFEBE6"/>
<path d="M18.4332 6.78815C18.6001 6.78833 18.7544 6.69937 18.8378 6.55482L19.3045 5.74609C19.3056 5.74428 19.3066 5.74247 19.3077 5.74066C19.435 5.5166 19.3567 5.2317 19.1325 5.10436C18.9085 4.97702 18.6236 5.05542 18.4962 5.27948L18.0296 6.08821C17.9887 6.15903 17.9672 6.2393 17.967 6.32108C17.9668 6.57874 18.1755 6.78786 18.4332 6.78815Z" fill="#FFEBE6"/>
<path d="M16.1742 5.88608C16.2138 5.89681 16.2546 5.90218 16.2956 5.90194C16.5066 5.90177 16.6913 5.75996 16.7459 5.55614L16.9872 4.65501C16.9896 4.64696 16.9917 4.63885 16.9937 4.63069C17.0537 4.38003 16.8992 4.1282 16.6486 4.06818C16.3979 4.00815 16.1461 4.16268 16.086 4.41333L15.8443 5.31494C15.7778 5.56373 15.9255 5.81934 16.1742 5.88608Z" fill="#FFEBE6"/>
<path d="M15.4 16.8H12.1333V14.4667H14.4666C14.7243 14.4667 14.9333 14.2577 14.9333 14C14.9333 13.7423 14.7243 13.5333 14.4666 13.5333H12.1333V11.2H15.4C15.6577 11.2 15.8666 10.991 15.8666 10.7333C15.8666 10.4756 15.6577 10.2667 15.4 10.2667H11.6666C11.4089 10.2667 11.2 10.4756 11.2 10.7333V17.2667C11.2 17.5244 11.4089 17.7333 11.6666 17.7333H15.4C15.6577 17.7333 15.8666 17.5244 15.8666 17.2667C15.8666 17.0089 15.6577 16.8 15.4 16.8Z" fill="#FFEBE6"/>
<path d="M8.9782 17.5579C9.01057 17.5968 9.04919 17.6301 9.09253 17.6563C9.10746 17.6674 9.12304 17.6774 9.1392 17.6867C9.19969 17.7164 9.26595 17.7323 9.33333 17.7333C9.38898 17.7322 9.44399 17.7211 9.49573 17.7007C9.51329 17.693 9.53044 17.6845 9.54706 17.675C9.56666 17.6667 9.58568 17.657 9.604 17.6461C9.61426 17.6391 9.6194 17.6279 9.62873 17.6195C9.65352 17.5983 9.67592 17.5746 9.69546 17.5485C9.73315 17.5045 9.7598 17.4522 9.7734 17.3959C9.78267 17.3655 9.78897 17.3343 9.79206 17.3026C9.79206 17.2895 9.79953 17.2783 9.79953 17.2653V10.7333C9.79953 10.4758 9.59087 10.2669 9.33333 10.2667C9.07561 10.2667 8.86666 10.4756 8.86666 10.7333V15.8107L5.04606 10.4622C5.03906 10.4519 5.02786 10.4468 5.01946 10.4375C4.9984 10.4127 4.9746 10.3903 4.94853 10.3707C4.92648 10.3531 4.90291 10.3375 4.87806 10.3241C4.85193 10.3115 4.8248 10.3014 4.79686 10.2937C4.76653 10.284 4.73526 10.2778 4.70353 10.2751C4.69093 10.2751 4.68019 10.2676 4.66713 10.2676C4.65138 10.2699 4.6358 10.2732 4.62046 10.2774C4.58879 10.2801 4.55746 10.2861 4.52713 10.2956C4.49679 10.3057 4.46757 10.3188 4.43986 10.3348C4.42493 10.3407 4.41029 10.3474 4.39599 10.3549C4.38573 10.3619 4.38059 10.3731 4.37126 10.3815C4.34647 10.4025 4.32407 10.4263 4.30453 10.4524C4.28685 10.4743 4.27122 10.4977 4.25786 10.5224C4.24491 10.5488 4.23459 10.5765 4.22706 10.605C4.21773 10.6354 4.21149 10.6667 4.20839 10.6983C4.20839 10.7114 4.20093 10.7226 4.20093 10.7357V17.2667C4.20093 17.5244 4.40988 17.7333 4.66759 17.7333C4.92531 17.7333 5.13426 17.5244 5.13426 17.2667V12.1893L8.95486 17.5378C8.96093 17.5467 8.9712 17.5499 8.9782 17.5579Z" fill="#FFEBE6"/>
<path d="M23.4328 10.2772C23.4324 10.2771 23.4319 10.2771 23.4315 10.2769C23.1795 10.2228 22.9313 10.3831 22.8771 10.6351C22.8771 10.6352 22.8771 10.6352 22.8771 10.6353L21.8355 15.4971L20.5092 11.5192C20.4287 11.2744 20.165 11.1411 19.9202 11.2216C19.7793 11.2679 19.6689 11.3783 19.6226 11.5192L18.2982 15.4971L17.2566 10.6353C17.2024 10.3833 16.9542 10.2228 16.7022 10.2769C16.4501 10.3311 16.2896 10.5793 16.3438 10.8313L17.7438 17.3647C17.788 17.5702 17.9641 17.7207 18.174 17.7324C18.383 17.7419 18.5733 17.6122 18.6407 17.4141L20.0668 13.1423L21.4911 17.4141C21.5546 17.6047 21.7327 17.7332 21.9335 17.7333H21.9596C22.1695 17.7217 22.3457 17.5711 22.3899 17.3656L23.7899 10.8323C23.8445 10.5804 23.6847 10.3319 23.4328 10.2772Z" fill="#FFEBE6"/>
</svg>
