<svg width="28" height="28" viewBox="0 0 28 28" fill="none" xmlns="http://www.w3.org/2000/svg">
<path d="M14 0C6.26811 0 0 6.26811 0 14C0 21.7319 6.26811 28 14 28C21.7319 28 28 21.7319 28 14C27.9916 6.27142 21.7286 0.00837956 14 0ZM14 27.0968C6.76692 27.0968 0.903226 21.2331 0.903226 14C0.903226 6.76692 6.76692 0.903226 14 0.903226C21.2331 0.903226 27.0968 6.76692 27.0968 14C27.0884 21.2296 21.2296 27.0884 14 27.0968Z" fill="#FFEBE6"/>
<path d="M14 2.25806C7.51511 2.25806 2.25806 7.51511 2.25806 14C2.25806 20.4849 7.51511 25.7419 14 25.7419C20.4849 25.7419 25.7419 20.4849 25.7419 14C25.7347 7.5182 20.4818 2.26533 14 2.25806ZM14 24.8387C8.01392 24.8387 3.16128 19.9861 3.16128 14C3.16128 8.01392 8.01392 3.16128 14 3.16128C19.9861 3.16128 24.8387 8.01392 24.8387 14C24.8316 19.9832 19.9832 24.8316 14 24.8387Z" fill="#FFEBE6"/>
<path d="M23.8903 13.0549C23.8671 12.8064 23.6468 12.6238 23.3985 12.6469C23.15 12.6701 22.9674 12.8904 22.9908 13.1387C23.0177 13.4256 23.0314 13.7151 23.0314 14C23.0314 14.2494 23.2336 14.4516 23.483 14.4516C23.7324 14.4516 23.9346 14.2494 23.9346 14C23.9355 13.6875 23.9205 13.3678 23.8903 13.0549Z" fill="#FFEBE6"/>
<path d="M23.321 12.1809C23.5633 12.1216 23.7117 11.8771 23.6524 11.6349C22.5712 7.18387 18.5804 4.0539 14.0001 4.06448C13.7507 4.06448 13.5485 4.26669 13.5485 4.51609C13.5485 4.76549 13.7507 4.96771 14.0001 4.96771C18.1638 4.95756 21.7919 7.80263 22.775 11.8488C22.8242 12.0508 23.005 12.1933 23.2129 12.1935C23.2493 12.1935 23.2855 12.1893 23.321 12.1809Z" fill="#FFEBE6"/>
<path d="M20.95 11.2903H15.9685L14.4296 6.55344C14.3685 6.36799 14.1956 6.24274 14.0005 6.24274C13.8053 6.24274 13.6324 6.36799 13.5713 6.55344L12.0315 11.2903H7.05007C6.85448 11.2903 6.68115 11.4162 6.62051 11.6023C6.56009 11.7884 6.62625 11.9922 6.78457 12.1073L10.8142 15.0351L9.27528 19.7719C9.21442 19.9583 9.28057 20.1622 9.4389 20.2776C9.59745 20.3927 9.81201 20.3927 9.97034 20.2774L14 17.3496L18.0297 20.2774C18.188 20.3922 18.4021 20.3922 18.5605 20.2774C18.7186 20.1627 18.785 19.9589 18.7248 19.773L17.1858 15.0351L21.2155 12.1073C21.3738 11.9922 21.4399 11.7884 21.3795 11.6023C21.3189 11.4162 21.1456 11.2903 20.95 11.2903ZM16.3886 14.4968C16.2305 14.6117 16.1644 14.8152 16.2246 15.0011L17.4354 18.7285L14.2651 16.4252C14.1067 16.3101 13.8924 16.3101 13.7341 16.4252L10.5637 18.7285L11.7744 15.0011C11.8348 14.8154 11.7689 14.6119 11.611 14.4968L8.43975 12.1935H12.3594C12.555 12.1935 12.7283 12.0676 12.7887 11.8815L14 8.15437L15.2113 11.8815C15.2717 12.0676 15.445 12.1935 15.6406 12.1935H19.5603L16.3886 14.4968Z" fill="#FFEBE6"/>
</svg>
