<svg width="21" height="25" viewBox="0 0 21 25" fill="none" xmlns="http://www.w3.org/2000/svg">
<path d="M20.5002 21.6104L19.0687 5.4908C19.0381 5.13292 18.7364 4.86196 18.3837 4.86196H15.4389C15.398 2.1728 13.1996 0 10.5002 0C7.80084 0 5.60248 2.1728 5.56158 4.86196H2.61679C2.25892 4.86196 1.9624 5.13292 1.93172 5.4908L0.50023 21.6104C0.50023 21.6309 0.495117 21.6513 0.495117 21.6718C0.495117 23.5072 2.17712 25 4.24767 25H16.7528C18.8233 25 20.5053 23.5072 20.5053 21.6718C20.5053 21.6513 20.5053 21.6309 20.5002 21.6104ZM10.5002 1.38037C12.4379 1.38037 14.0176 2.93456 14.0585 4.86196H6.94195C6.98285 2.93456 8.5626 1.38037 10.5002 1.38037ZM16.7528 23.6196H4.24767C2.94911 23.6196 1.89594 22.7607 1.87549 21.7025L3.24563 6.24744H5.55647V8.34356C5.55647 8.72699 5.86322 9.03374 6.24665 9.03374C6.63009 9.03374 6.93684 8.72699 6.93684 8.34356V6.24744H14.0585V8.34356C14.0585 8.72699 14.3653 9.03374 14.7487 9.03374C15.1321 9.03374 15.4389 8.72699 15.4389 8.34356V6.24744H17.7497L19.125 21.7025C19.1045 22.7607 18.0462 23.6196 16.7528 23.6196Z" fill="#FFEFEA"/>
</svg>
