<svg width="21" height="21" viewBox="0 0 21 21" fill="none" xmlns="http://www.w3.org/2000/svg">
<path d="M14.4719 10.5276H11.8928C11.7614 10.0224 11.366 9.62699 10.8608 9.49554V5.8331C10.8608 5.6334 10.699 5.47198 10.4996 5.47198C10.3003 5.47198 10.1385 5.6334 10.1385 5.8331V9.49554C9.5174 9.65696 9.05518 10.2174 9.05518 10.8887C9.05518 11.6854 9.70302 12.3332 10.4996 12.3332C11.1706 12.3332 11.7314 11.871 11.8928 11.2498H14.4719C14.6713 11.2498 14.833 11.0884 14.833 10.8887C14.833 10.689 14.6716 10.5276 14.4719 10.5276ZM10.4996 11.611C10.1013 11.611 9.77741 11.287 9.77741 10.8887C9.77741 10.4904 10.1013 10.1665 10.4996 10.1665C10.898 10.1665 11.2219 10.4904 11.2219 10.8887C11.2219 11.287 10.898 11.611 10.4996 11.611Z" fill="#331F3C"/>
<path d="M18.1237 3.52594L19.6029 5.00507C19.6707 5.07297 19.7625 5.11088 19.8582 5.11088C19.9539 5.11088 20.0459 5.07297 20.1135 5.00507C21.2571 3.86178 21.2571 2.00095 20.1135 0.857654C18.9698 -0.285641 17.1093 -0.285641 15.966 0.857654C15.8982 0.925544 15.8602 1.01691 15.8602 1.11296C15.8602 1.20902 15.8982 1.30074 15.966 1.36827L17.6131 3.01532L16.9996 3.62886C15.2734 2.08184 12.9951 1.1386 10.5002 1.1386C8.00524 1.1386 5.72695 2.08184 4.00082 3.62886L3.38692 3.01532L5.03397 1.36827C5.10186 1.30038 5.13978 1.20902 5.13978 1.11296C5.13978 1.01691 5.10186 0.925183 5.03397 0.857654C3.89068 -0.285641 2.03021 -0.285641 0.88655 0.857654C-0.257105 2.00095 -0.257105 3.86178 0.88655 5.00507C0.95444 5.07297 1.04616 5.11088 1.14186 5.11088C1.23756 5.11088 1.32964 5.07297 1.39717 5.00507L2.8763 3.52594L3.48153 4.13117C1.79187 5.88512 0.749687 8.26704 0.749687 10.8887C0.749687 14.4631 2.68419 17.5925 5.56012 19.2901L4.46666 20.3836C4.32546 20.5248 4.32546 20.753 4.46666 20.8942C4.53708 20.9646 4.62952 21 4.72197 21C4.81441 21 4.90686 20.9646 4.97728 20.8942L6.22313 19.6483C7.5152 20.2817 8.96653 20.6389 10.4998 20.6389C12.0331 20.6389 13.4845 20.2817 14.7765 19.6483L16.0224 20.8942C16.0928 20.9646 16.1852 21 16.2777 21C16.3701 21 16.4626 20.9646 16.533 20.8942C16.6742 20.753 16.6742 20.5248 16.533 20.3836L15.4395 19.2901C18.3155 17.5925 20.25 14.4631 20.25 10.8887C20.25 8.26704 19.2078 5.88512 17.5181 4.13117L18.1237 3.52594ZM19.6025 1.36827C20.3774 2.14323 20.4554 3.35513 19.8369 4.21856L16.7526 1.13391C17.6156 0.515316 18.8272 0.592956 19.6025 1.36827ZM1.1628 4.2182C0.544212 3.35513 0.622213 2.14323 1.39717 1.36827C2.17212 0.593317 3.38403 0.515677 4.2471 1.13391L1.1628 4.2182ZM10.4998 19.9167C5.52184 19.9167 1.47192 15.8667 1.47192 10.8887C1.47192 5.91076 5.52184 1.86083 10.4998 1.86083C15.4778 1.86083 19.5277 5.91076 19.5277 10.8887C19.5277 15.8667 15.4782 19.9167 10.4998 19.9167Z" fill="#331F3C"/>
<path d="M10.4998 3.62272C10.6991 3.62272 10.8609 3.4613 10.8609 3.2616V2.90048C10.8609 2.70079 10.6991 2.53937 10.4998 2.53937C10.3005 2.53937 10.1387 2.70079 10.1387 2.90048V3.2616C10.1387 3.46094 10.3005 3.62272 10.4998 3.62272Z" fill="#331F3C"/>
<path d="M10.4998 18.0674C10.3005 18.0674 10.1387 18.2288 10.1387 18.4285V18.7896C10.1387 18.9893 10.3005 19.1507 10.4998 19.1507C10.6991 19.1507 10.8609 18.9893 10.8609 18.7896V18.4285C10.8609 18.2288 10.6995 18.0674 10.4998 18.0674Z" fill="#331F3C"/>
<path d="M18.0833 11.2062H18.4444C18.6437 11.2062 18.8055 11.0448 18.8055 10.8451C18.8055 10.6454 18.6437 10.4839 18.4444 10.4839H18.0833C17.8839 10.4839 17.7222 10.6454 17.7222 10.8451C17.7222 11.0448 17.8839 11.2062 18.0833 11.2062Z" fill="#331F3C"/>
<path d="M2.91657 10.4839H2.55545C2.35612 10.4839 2.19434 10.6454 2.19434 10.8451C2.19434 11.0448 2.35612 11.2062 2.55545 11.2062H2.91657C3.1159 11.2062 3.27769 11.0448 3.27769 10.8451C3.27769 10.6454 3.11627 10.4839 2.91657 10.4839Z" fill="#331F3C"/>
<path d="M15.8622 4.97186L15.6069 5.22717C15.4657 5.36837 15.4657 5.5966 15.6069 5.73779C15.6773 5.80821 15.7697 5.8436 15.8622 5.8436C15.9546 5.8436 16.0471 5.80821 16.1175 5.73779L16.3728 5.48248C16.514 5.34129 16.514 5.11306 16.3728 4.97186C16.2316 4.83067 16.003 4.83067 15.8622 4.97186Z" fill="#331F3C"/>
<path d="M4.8822 15.952L4.62689 16.2073C4.4857 16.3485 4.4857 16.5767 4.62689 16.7179C4.69731 16.7883 4.78976 16.8237 4.8822 16.8237C4.97465 16.8237 5.06709 16.7883 5.13751 16.7179L5.39282 16.4626C5.53402 16.3214 5.53402 16.0932 5.39282 15.952C5.25162 15.8108 5.0234 15.8111 4.8822 15.952Z" fill="#331F3C"/>
<path d="M16.1175 15.952C15.9763 15.8108 15.7481 15.8108 15.6069 15.952C15.4657 16.0932 15.4657 16.3214 15.6069 16.4626L15.8622 16.7179C15.9326 16.7883 16.025 16.8237 16.1175 16.8237C16.2099 16.8237 16.3024 16.7883 16.3728 16.7179C16.514 16.5767 16.514 16.3485 16.3728 16.2073L16.1175 15.952Z" fill="#331F3C"/>
<path d="M5.13751 4.97186C4.99632 4.83067 4.76809 4.83067 4.62689 4.97186C4.4857 5.11306 4.4857 5.34129 4.62689 5.48248L4.8822 5.73779C4.95262 5.80821 5.04507 5.8436 5.13751 5.8436C5.22996 5.8436 5.3224 5.80821 5.39282 5.73779C5.53402 5.5966 5.53402 5.36837 5.39282 5.22717L5.13751 4.97186Z" fill="#331F3C"/>
</svg>
