<svg width="31" height="20" viewBox="0 0 31 20" fill="none" xmlns="http://www.w3.org/2000/svg">
<path d="M30.9135 10.4691L27.3757 0.906422C27.2473 0.558945 26.9911 0.282369 26.6544 0.127612C26.3179 -0.0271455 25.9412 -0.041677 25.5937 0.0869239L8.34298 6.4689C7.9955 6.59744 7.71893 6.85361 7.56411 7.19013C7.40935 7.52671 7.39488 7.90343 7.52342 8.25084L11.0612 17.8136C11.1897 18.161 11.4459 18.4376 11.7825 18.5924C11.9672 18.6774 12.1639 18.72 12.3613 18.72C12.5237 18.72 12.6864 18.6912 12.8433 18.6331L30.0941 12.2512H30.0942C30.8112 11.9858 31.1788 11.1864 30.9135 10.4691ZM24.6455 1.91652L19.2946 9.56622L10.2533 7.24093L24.6455 1.91652ZM12.1119 16.6567L9.0432 8.36182L16.1503 10.1898L12.1119 16.6567ZM13.6146 16.869L17.5593 10.5522L19.4146 11.0294C19.4722 11.044 19.5304 11.0516 19.5873 11.0516C19.8106 11.0516 20.0242 10.9434 20.1559 10.7555L21.2538 9.18465L28.3601 11.4139L13.6146 16.869ZM22.0881 7.99291L26.2939 1.97919L29.3638 10.2752L22.0881 7.99291Z" fill="#442751"/>
<path d="M8.07936 18.0035C7.94652 17.6443 7.54739 17.461 7.18841 17.5938L4.5751 18.5606C4.21588 18.6935 4.03248 19.0924 4.16532 19.4516C4.26886 19.7315 4.53381 19.9046 4.81577 19.9046C4.89564 19.9046 4.97701 19.8907 5.05633 19.8613L7.66952 18.8945C8.02886 18.7617 8.21226 18.3628 8.07936 18.0035Z" fill="#442751"/>
<path d="M4.54214 11.5657C4.40918 11.2064 4.01024 11.0232 3.65113 11.1559L2.03799 11.7527C1.67877 11.8856 1.49537 12.2845 1.62821 12.6437C1.73175 12.9235 1.99676 13.0967 2.27867 13.0967C2.35853 13.0967 2.4399 13.0828 2.51922 13.0534L4.13236 12.4566C4.49158 12.3238 4.67504 11.9249 4.54214 11.5657Z" fill="#442751"/>
<path d="M2.54268 16.8189C2.40972 16.4597 2.01077 16.2763 1.65167 16.4091L0.453032 16.8525C0.0938087 16.9855 -0.0895869 17.3844 0.0432523 17.7435C0.146787 18.0234 0.411739 18.1966 0.693704 18.1966C0.773565 18.1966 0.85494 18.1826 0.934256 18.1533L2.1329 17.7098C2.49218 17.577 2.67558 17.1781 2.54268 16.8189Z" fill="#442751"/>
</svg>
