<svg width="209" height="58" viewBox="0 0 209 58" fill="none" xmlns="http://www.w3.org/2000/svg">
<path d="M208.394 35.6615C208.259 20.2326 208.125 19.763 207.991 19.4276C207.79 18.891 207.454 18.6897 207.253 18.5556C206.582 18.2201 205.71 18.5556 204.704 18.891C203.698 19.2935 203.228 20.7022 203.027 21.4401C202.826 22.3122 202.692 23.9221 202.692 26.2029V28.8862C202.692 29.2216 202.423 29.49 202.088 29.5571L199.673 29.7583C197.728 29.8925 196.252 30.1608 195.178 30.5633C194.105 30.9658 192.898 31.7037 191.489 32.777C189.678 34.1187 188.403 36.064 187.732 38.4119C186.994 41.0281 186.927 43.5773 187.464 45.6568L187.531 45.8581C188.068 48.0047 188.47 49.4805 190.013 51.0234C191.086 52.0967 192.093 52.9688 192.83 53.3713C193.367 53.7067 195.313 54.5788 196.721 54.6458C199.27 54.78 201.216 54.1092 201.887 53.7738C202.088 53.7067 202.088 53.7067 202.557 53.975C202.692 54.0421 202.826 54.1763 203.027 54.2433C203.564 54.5788 204.503 54.6458 205.375 54.6458C205.979 54.6458 206.582 54.5788 206.851 54.5117C207.79 54.1763 207.991 53.1029 208.058 52.1638V52.0296C208.394 51.1576 208.461 44.7847 208.394 35.6615ZM202.692 45.6568C202.625 46.0593 202.557 46.1935 202.557 46.1935C202.49 46.3276 202.49 46.3947 202.423 46.5289C202.155 46.7972 202.088 47.0655 202.021 47.2668C201.954 47.5351 201.887 47.8034 201.417 48.1389C200.679 48.6755 199.74 48.6084 199.002 48.5413C198.801 48.5413 198.6 48.5413 198.465 48.5413C197.593 48.5413 196.386 47.8705 195.044 46.596C194.172 45.791 193.77 44.7177 193.434 43.6443C193.166 42.7723 193.099 41.6319 193.3 40.1561C193.568 38.1436 194.105 36.7349 194.843 36.1311C195.648 35.4603 197.325 34.9907 199.539 34.8566L200.88 34.7895C200.947 34.7895 200.947 34.7895 201.015 34.7895C201.484 34.7895 201.887 34.9236 202.222 35.2591C202.557 35.5945 202.759 36.064 202.759 36.5336V37.3386C202.759 38.1436 202.759 39.0827 202.759 40.2231C202.759 41.766 202.759 42.9064 202.826 43.7785C202.759 44.6506 202.759 45.2543 202.692 45.6568Z" fill="#442751"/>
<path d="M15.6578 2.52844C15.5383 2.52844 15.4188 2.76749 15.4188 2.88702L15.0602 8.38514L9.32305 8.14609C9.20352 8.14609 9.084 8.14609 9.084 8.26562C8.96447 8.38514 8.96447 8.38514 8.96447 8.50466L8.48638 14.2418L2.98825 13.8833C2.7492 13.8833 2.51015 13.8833 2.51015 14.1223C2.39063 14.2418 2.51015 14.4809 2.51015 14.6004L12.3112 20.6962C12.6697 20.9352 13.3869 20.9352 13.6259 20.5766C14.104 19.979 14.9407 18.9033 16.8531 17.23C18.7655 15.5566 19.9607 14.8395 20.5583 14.4809C20.9169 14.2418 21.0364 13.5247 20.7974 13.1661L16.0164 2.64797C16.0164 2.52844 15.7774 2.52844 15.6578 2.52844Z" fill="#FFCC65"/>
<path d="M15.2991 1.69181C15.7612 1.69181 16.1357 1.31721 16.1357 0.855134C16.1357 0.393053 15.7612 0.0184631 15.2991 0.0184631C14.837 0.0184631 14.4624 0.393053 14.4624 0.855134C14.4624 1.31721 14.837 1.69181 15.2991 1.69181Z" fill="#FFCC65"/>
<path d="M8.12744 8.02661C8.58952 8.02661 8.96411 7.65202 8.96411 7.18994C8.96411 6.72786 8.58952 6.35327 8.12744 6.35327C7.66536 6.35327 7.29077 6.72786 7.29077 7.18994C7.29077 7.65202 7.66536 8.02661 8.12744 8.02661Z" fill="#FFCC65"/>
<path d="M0.836671 14.3613C1.29875 14.3613 1.67334 13.9867 1.67334 13.5247C1.67334 13.0626 1.29875 12.688 0.836671 12.688C0.37459 12.688 0 13.0626 0 13.5247C0 13.9867 0.37459 14.3613 0.836671 14.3613Z" fill="#FFCC65"/>
<path d="M65.4412 36.1311C64.6362 31.7708 63.0263 29.0204 60.5442 27.9471C59.4038 27.4775 57.7268 27.1421 55.5131 26.9408C53.2323 26.7396 51.6223 26.8067 50.6831 27.1421C49.8111 27.4104 48.939 27.88 48.134 28.6179C47.329 29.2887 46.7253 30.0937 46.2557 30.9658C44.9811 33.582 44.3103 36.6678 44.3103 40.1561C44.3103 43.5772 44.9811 46.8643 46.3228 49.883C46.9265 51.4259 48.2682 52.8346 50.2135 54.1763C52.1589 55.4508 54.1043 56.1216 55.9826 56.1216C56.0497 56.1216 56.1168 56.1216 56.1168 56.1216C57.4584 56.1216 58.8001 55.7862 60.1417 55.1154C61.4834 54.4446 62.4896 53.5725 63.2946 52.4992C64.5021 50.7551 65.3741 48.4072 65.7096 45.4556C66.1121 42.5039 66.045 39.3511 65.4412 36.1311ZM60.6784 49.3463C60.6784 49.3463 59.8063 50.7551 59.0684 51.2246C58.3305 51.6271 57.2572 51.8284 56.5864 51.8284C55.8485 51.8284 54.9764 51.6271 53.836 51.2246C52.6956 50.8221 52.1589 50.4867 51.4881 49.9501C51.0185 49.6147 50.6831 49.2792 50.4819 48.9438C50.3477 48.7426 50.0123 48.2059 49.5427 47.1326C48.6036 44.986 48.4023 42.5039 48.4023 39.6865C48.4023 34.2528 49.4086 33.5149 49.8111 33.1795C50.616 32.5087 51.8235 31.7708 53.031 31.3683C53.836 31.3012 54.1714 31.0999 55.7814 31.3012C57.3243 31.5024 57.7268 31.7708 58.5318 32.0391C59.4709 32.3074 60.5442 33.3137 61.148 34.9907C61.8188 36.869 62.02 39.3511 62.02 42.3027C61.8188 45.791 61.5505 47.8034 60.6784 49.3463Z" fill="#442751"/>
<path d="M88.0479 27.9471C87.4441 27.4104 86.3708 27.075 84.8279 28.4837C83.8217 29.3558 82.7483 30.7645 81.8092 32.5757C81.5409 33.0453 81.2055 33.582 80.803 34.2528C80.4005 34.9236 79.9309 35.5274 79.5284 36.1311C79.1259 36.7349 78.7234 37.3386 78.3209 37.8082C78.0526 38.1436 77.8513 38.4119 77.6501 38.6802C77.5159 38.479 77.3818 38.2107 77.2476 37.9423C76.9793 37.4728 76.778 37.0703 76.5097 36.6678C74.6314 33.1795 73.3568 30.8987 72.6189 29.7583C71.8139 28.4837 71.1431 27.7458 70.5394 27.4104C69.8015 26.9408 69.3319 26.8067 68.9294 26.8067C68.5269 26.8738 68.1244 27.1421 67.5877 27.6787C66.984 28.2825 66.7828 29.0204 66.9169 29.8254C67.0511 30.5633 67.4536 31.2341 68.0573 31.8378L68.1244 31.9049C68.3257 32.0391 68.594 32.3745 68.9294 33.1124C69.2648 33.9174 69.5331 34.4541 69.8015 34.7895C70.271 35.4603 71.3444 37.2715 73.0214 40.2902C74.8997 43.6443 75.3693 44.6506 75.4364 44.986C75.5035 45.2543 75.6376 46.2605 75.5705 49.2792C75.4364 53.7738 75.6376 54.2433 75.7047 54.5117C75.8389 54.9142 76.2414 55.5179 77.3147 55.5179C77.3818 55.5179 77.4488 55.5179 77.5159 55.5179C78.2538 55.4508 78.9247 55.1825 79.3942 54.5787C79.7967 54.1092 80.0651 53.5725 80.1321 52.8346C80.1992 52.2309 80.1992 50.9563 80.1992 48.8768C80.1992 46.0593 80.1321 44.181 79.8638 43.2418C79.7967 43.0406 79.8638 42.7723 79.998 42.5039C80.1992 42.2356 80.6688 41.4306 82.1446 39.5523C83.0838 38.3448 84.09 36.869 85.0962 35.192C86.1025 33.582 86.9075 32.4416 87.377 31.7037C87.9137 31.0329 89.3895 29.0204 88.0479 27.9471Z" fill="#442751"/>
<path d="M107.77 51.2246C106.764 48.273 106.16 46.5959 105.959 46.0593C105.623 45.3885 105.422 44.7847 105.288 44.2481C105.087 43.5772 104.953 43.0406 104.684 42.571C104.148 41.6319 103.41 39.7536 102.404 37.0032C101.397 34.1857 100.659 32.3745 100.257 31.4354C99.6532 30.1608 99.1165 29.2216 98.714 28.6179C98.3115 28.0142 97.7749 27.3433 97.037 27.4104C96.1649 27.4775 95.427 27.8129 94.8232 28.4166C94.2195 29.0204 93.9512 29.8254 93.9512 30.6974C93.9512 31.3012 93.6158 32.9112 92.0729 36.8019C91.0666 39.284 90.1946 41.0952 89.3896 41.9673C88.6517 42.8393 88.2492 43.5772 88.2492 44.3152C88.2492 44.4493 88.1821 45.1201 87.0417 47.8705C86.2367 49.7488 85.7671 51.0905 85.5659 52.0296C85.2975 53.1029 85.3646 53.8408 85.8342 54.3775C86.0355 54.6458 86.505 54.9812 87.2429 54.9812C87.9138 54.9812 88.5175 54.5787 89.0542 53.7738C89.4567 53.17 90.0604 51.8955 90.9325 49.9501C91.8045 47.9376 92.207 46.9984 92.4754 46.596C92.6766 46.596 93.2803 46.596 94.5549 46.7972C97.7078 47.1997 99.7873 47.468 100.861 47.5351C101.33 48.5413 102.068 50.4867 103.007 53.3042C103.946 56.1887 104.416 56.9266 104.684 57.3291C105.02 57.7316 105.489 57.9999 105.959 57.9999C106.361 57.9999 106.764 57.8658 107.166 57.5975C108.374 56.8595 108.642 55.8533 108.709 55.1825C108.709 54.3104 108.374 53.0359 107.77 51.2246ZM96.2991 41.6319C96.232 41.6319 96.0307 41.6319 95.6953 41.5648H95.6282C95.2257 41.5648 94.8903 41.4977 94.6891 41.4977C94.6891 41.4306 94.7562 41.3635 94.7562 41.2964C95.1586 40.6927 95.6282 39.4852 96.3661 37.7411C96.5674 37.2715 96.7015 36.869 96.8357 36.6007C97.0369 37.0032 97.2382 37.674 97.5736 38.6802C97.7749 39.284 97.9761 39.9548 98.2444 40.8269C98.4457 41.3635 98.5128 41.6989 98.6469 41.9673C97.8419 41.8331 97.037 41.6989 96.2991 41.6319Z" fill="#442751"/>
<path d="M131.316 49.1451C131.249 48.7426 130.981 48.4072 130.645 48.2059C130.041 47.8705 128.901 47.6022 125.279 48.6755C123.937 49.078 120.784 49.6818 115.82 50.4197C114.21 40.1561 113.405 33.4478 113.405 30.6304C113.405 29.6912 113.405 28.9533 113.405 28.4167C113.338 27.8129 113.271 27.3433 113.07 27.0079C112.801 26.4042 112.265 26.1359 111.661 26.27C111.393 26.3371 111.057 26.4713 110.655 26.6054H110.588C110.118 26.8067 109.715 27.1421 109.38 27.5446L109.313 27.6117C109.045 27.9471 108.843 28.6179 108.91 31.7037C108.978 33.8503 109.179 35.997 109.447 38.2107C109.514 38.479 109.648 39.5523 110.051 43.0406C110.386 45.8581 110.722 48.5414 111.057 51.0234C111.527 54.3775 111.728 55.2496 111.929 55.585L111.996 55.7192L112.13 55.8533C112.332 55.9875 112.533 56.1217 112.935 56.1217C113.405 56.1217 114.009 56.0546 115.082 55.7862C115.954 55.585 117.43 55.3167 119.644 54.9813C121.857 54.6458 123.87 54.3104 125.681 53.9079C127.559 53.5054 128.901 53.17 129.773 52.7675C130.31 52.4992 130.779 51.8955 131.115 50.9563C131.316 50.2855 131.45 49.6818 131.316 49.1451Z" fill="#442751"/>
<path d="M174.785 49.3463C174.584 49.078 173.041 47.8705 171.096 46.8643C169.352 45.9922 168.144 44.6506 166.132 43.2418C163.381 41.3635 162.71 40.6256 162.375 40.2902C161.704 39.6865 160.765 39.0157 159.625 37.9423C159.289 37.6069 159.021 37.4057 158.753 37.1374C158.618 37.0032 158.417 36.869 158.417 36.6007C158.417 36.4665 158.753 36.1982 158.82 36.1982C158.954 36.1311 159.155 35.9299 159.49 35.6615C159.826 35.3932 160.094 35.192 160.295 35.0578L160.363 34.9907C165.327 31.2341 169.285 27.9471 172.035 25.1967C172.639 24.593 173.175 23.788 173.511 22.8488C173.913 21.7755 174.047 21.0376 173.779 20.5009C173.578 20.0985 173.108 19.4276 171.834 19.5618C171.029 19.6289 170.291 20.0314 169.687 20.6351C166.333 23.9892 163.717 26.4042 161.973 27.8129C160.43 29.0875 158.35 30.5633 155.734 32.2403C155.667 31.5695 155.6 30.4962 155.533 28.7521C155.063 18.9581 153.923 17.0127 152.38 17.0127C151.91 17.0127 151.105 17.0127 149.629 18.2872C149.227 18.6226 148.959 19.2935 149.026 19.8301C149.898 28.4837 149.965 31.4354 150.099 32.4416C150.166 33.8503 150.569 37.4057 150.77 39.1498C150.971 40.8269 151.105 42.571 151.172 43.9797C151.306 45.3885 151.374 46.7972 151.374 48.6755C151.374 52.2309 151.709 53.3042 151.843 53.7738C151.977 54.0421 152.514 55.0483 153.587 55.0483C153.856 55.0483 154.191 54.9813 154.593 54.8471C155.667 54.4446 156.069 53.9079 156.405 52.7675C156.673 51.7613 156.874 49.6817 156.874 47.1326C156.874 45.9251 156.136 42.1014 156.271 41.4306C156.606 41.8331 159.289 45.0531 161.235 46.5289C163.65 48.4072 164.79 49.5476 166.467 50.688C169.285 52.4992 171.498 53.8408 172.035 53.975C173.309 54.2433 174.718 53.7738 175.523 52.4321C175.792 51.6942 175.255 50.0842 174.785 49.3463Z" fill="#442751"/>
<path d="M42.0295 49.4134V49.2122C42.2978 48.0047 41.627 47.2668 41.0903 45.9922C40.2183 44.0468 40.2183 43.7114 38.2058 39.9548L36.1262 35.9299C35.8579 35.4603 36.0592 34.8566 36.5287 34.5212C36.9312 34.2528 36.9312 34.2528 37.6691 33.3137C38.7425 31.972 38.8766 29.3558 38.8095 27.7458C38.7425 26.4713 37.4679 23.3855 36.5958 22.5134C34.6504 20.5009 33.4429 19.2264 28.613 17.8847C23.5148 16.476 22.106 16.6773 21.6365 17.5493C21.6365 17.5493 21.4352 17.6164 21.1669 17.6164C20.8315 17.6164 20.4961 17.7506 20.0936 17.9518C19.8252 18.1531 19.4898 18.4214 19.1544 18.6897L18.4165 19.4276C18.2153 19.6289 17.9469 19.8972 17.6786 20.2326C17.209 20.7022 16.9407 21.0376 16.9407 21.0376C16.7395 21.2389 16.404 21.9097 16.4711 22.5805C16.6053 35.3261 16.5382 52.5663 16.6053 53.2371C16.7395 54.3775 17.9469 55.2496 18.4165 55.4508C19.3557 55.9204 20.9656 55.9204 21.8377 55.3837C22.1731 55.1825 22.4415 54.3775 22.3744 53.9079C22.2402 53.17 21.9048 52.1638 21.7706 51.6271C21.6365 51.0234 21.3681 50.0172 21.3681 50.0172C21.3681 50.0172 20.7644 46.3947 20.6973 45.5897C20.6973 44.986 20.6973 43.7114 20.8986 43.1077C21.3011 41.9673 21.3011 41.1623 21.7706 39.9548C21.9048 39.6194 21.9719 39.3511 22.039 39.0157C22.039 38.7473 22.1731 38.5461 22.2402 38.3448C22.3744 37.9423 22.3744 37.674 22.4415 37.4057C22.6427 36.6007 22.9781 35.997 23.5819 35.5945C23.8502 35.3932 24.1185 35.2591 24.1856 34.8566C24.3198 34.387 24.2527 33.8503 24.9906 34.5882C25.0577 34.6553 25.1247 34.6553 25.1918 34.7224C25.1918 34.6553 25.1918 34.5882 25.1918 34.5212C25.2589 34.0516 24.9906 33.6491 24.5881 33.5149C23.9843 33.1124 23.7831 32.8441 23.2464 32.3074C22.5756 31.7037 21.8377 31.1 21.4352 30.2279C20.9656 29.1546 20.7644 27.9471 20.8986 26.7396C21.0327 25.7334 21.4352 24.8613 22.3744 24.1905C22.6427 23.9892 22.7769 23.9221 22.911 23.7209C23.0452 23.5867 23.1794 23.4526 23.1794 23.1842C23.2464 22.5134 23.2464 22.4463 23.9173 22.5805C24.0514 22.5805 24.1185 22.6476 24.2527 22.6476C24.6552 22.7147 25.0577 22.7817 25.5272 22.7817C26.3993 22.6476 27.2043 22.5134 28.0764 22.3793C28.8143 22.2451 29.418 21.9097 30.0218 21.5072C30.1559 21.4401 30.1559 21.1718 30.3572 21.2389C30.5584 21.373 30.4242 21.5072 30.3572 21.6413C30.2901 21.8426 30.1559 21.9768 30.0218 22.178C29.7534 22.5134 29.7534 22.6476 30.223 22.7147C30.7597 22.8488 31.2963 22.8488 31.833 22.8488C31.9671 22.8488 32.1013 22.7817 32.1013 22.983C32.1684 23.1172 32.0342 23.1842 31.9001 23.2513C31.7659 23.3184 31.5646 23.3855 31.4305 23.5197C31.1622 23.6538 30.9609 23.7209 31.1622 23.8551C31.4305 23.9892 31.7659 24.1905 31.9001 24.3917C32.3696 24.8613 32.7721 25.3309 32.8392 26.0017C32.9063 26.6054 32.9063 26.9408 33.1075 27.5446C33.1746 27.8129 33.1746 28.2825 33.2417 28.6179C33.2417 28.7521 33.3759 28.8862 33.51 28.9533C33.9796 29.2887 33.9796 29.49 33.6442 29.9596C33.443 30.1608 33.3759 30.4291 33.51 30.6975C33.6442 30.8987 33.6442 31.167 33.51 31.2341C33.3088 31.3683 33.3088 31.3683 33.443 31.4354C33.5771 31.5024 33.51 31.8379 33.3759 32.0391C33.1746 32.3074 33.2417 32.7099 33.2417 32.9783C33.2417 33.1124 33.1075 33.2466 33.0405 33.3137C32.3026 33.7162 31.2963 34.1857 30.3572 34.0516C30.0888 34.0516 29.8205 34.1187 29.7534 34.387C29.6863 34.6553 29.6863 34.9236 29.6863 35.2591C29.7534 35.5274 30.223 36.1311 30.2901 36.1311C30.6926 36.7349 30.9609 37.2715 31.3634 37.674C31.6317 37.9423 31.9671 38.9486 32.3696 39.5523C32.5038 39.8207 33.2417 41.0281 33.3088 41.2294C33.5771 41.9673 34.5163 43.7114 34.6504 44.0468C35.6567 46.7972 36.4617 50.0172 36.5958 50.4197C36.6629 50.5538 36.9983 51.5601 37.4008 52.8346C37.4008 52.9017 37.4679 52.9688 37.4679 53.0359C37.6021 53.2371 37.7362 53.5054 37.8704 53.7067C39.212 56.1216 38.8766 55.7192 39.8158 56.39C40.1512 56.6583 40.4195 56.5912 40.6878 56.5912C41.0233 56.5912 41.4257 56.5241 41.9624 56.3229H42.0295H42.0966C43.304 55.7862 43.9749 54.4446 43.6395 53.1029C43.4382 52.4321 43.1699 51.8955 42.9016 51.6271C41.8282 50.1513 42.0295 49.4805 42.0295 49.4134Z" fill="#442751"/>
<path d="M183.506 34.2528C183.506 31.905 183.305 31.1671 183.103 30.7646C182.902 30.2279 182.5 29.8925 181.963 29.7583C181.091 29.5571 180.219 30.0267 179.682 30.4962C179.213 30.8316 178.877 31.2341 178.676 31.7037C178.609 31.972 178.475 32.3745 178.341 33.582C178.139 35.192 178.206 37.4057 178.475 40.0219C178.609 41.2294 178.676 43.6444 178.676 47.1997C178.676 50.8893 178.743 53.17 178.877 54.1763V54.4446L179.011 54.6459C179.213 54.9813 179.749 55.585 180.823 55.585C180.89 55.585 180.957 55.585 181.024 55.585C181.762 55.5179 182.433 55.2496 182.902 54.78C183.439 54.3104 183.707 53.7738 183.841 53.103C183.908 52.8346 183.908 52.1638 184.043 49.4134C184.11 47.6693 184.043 45.0531 183.774 41.2965C183.64 37.674 183.506 35.3262 183.506 34.2528Z" fill="#442751"/>
<path d="M180.823 27.075C182.433 27.075 183.707 25.8005 183.707 24.1905C183.707 22.5805 182.433 21.3059 180.823 21.3059C179.213 21.3059 177.938 22.5805 177.938 24.1905C177.938 25.8005 179.28 27.075 180.823 27.075Z" fill="#442751"/>
</svg>
