<svg width="24" height="24" viewBox="0 0 24 24" fill="none" xmlns="http://www.w3.org/2000/svg"><path fill-rule="evenodd" clip-rule="evenodd" d="M12 24C18.6274 24 24 18.6274 24 12 24 5.37258 18.6274.0 12 0 5.37258.0.0 5.37258.0 12 0 18.6274 5.37258 24 12 24zM11.5321 3.69231H11.1152C10.8289 3.78931 10.5435 3.9485 10.3807 4.22858 10.1289 4.63948 10.0939 5.1668 10.2525 5.62298 10.2301 5.63889 10.1853 5.67123 10.1629 5.68765 9.89011 5.46329 9.51284 5.57422 9.25169 5.76227 8.87255 6.06075 8.67016 6.54926 8.58621 7.0313 8.49947 7.43972 8.53818 7.85859 8.58481 8.269 8.44741 8.30434 8.30677 8.31481 8.16668 8.32523 8.14702 8.3267 8.12737 8.32816 8.10775 8.32969 8.04106 8.33268 7.95665 8.36053 7.94919 8.44311 7.92731 8.59107 7.92275 8.74088 7.91819 8.89066 7.91274 9.06975 7.90729 9.24881 7.87224 9.42461 7.83074 9.63156 7.80369 9.84149 7.81069 10.0534 7.98556 10.0947 8.16138 10.134 8.33719 10.1728 8.31282 10.1844 8.2877 10.1954 8.26242 10.2064 8.16337 10.2496 8.06185 10.2939 7.99349 10.3842 7.95104 10.6804 7.98984 10.9742 8.02871 11.2686 8.0586 11.4948 8.08852 11.7215 8.08163 11.9498 8.06641 11.9635 8.05054 11.977 8.03455 11.9906 7.95792 12.0559 7.87853 12.1236 7.85499 12.2293 7.82444 12.3144 7.83865 12.4004 7.85295 12.4868 7.86398 12.5534 7.87505 12.6204 7.86571 12.6875 7.84519 12.8551 7.88157 13.0223 7.93333 13.1795 7.97274 13.2866 7.95334 13.4 7.93443 13.5105 7.93006 13.536 7.92573 13.5613 7.92214 13.5864 7.91437 13.6338 7.90645 13.6813 7.89852 13.7287 7.84838 14.0288 7.79805 14.33 7.78597 14.6346 7.78171 14.7054 7.78805 14.777 7.79438 14.8486 7.80469 14.9651 7.81498 15.0814 7.77944 15.1932 7.69314 15.3985 7.5798 15.5881 7.46651 15.7775 7.33492 15.9975 7.2034 16.2174 7.11444 16.4618 7.08251 16.5531 7.0716 16.6501 7.06071 16.7469 7.04662 16.8721 7.03257 16.997 6.97313 17.109 6.95231 17.1504 6.93001 17.1917 6.90758 17.2332 6.809 17.4158 6.70805 17.6028 6.71944 17.8209 6.71395 17.9001 6.73739 17.9757 6.76068 18.0508 6.79079 18.148 6.82066 18.2443 6.78753 18.3467 6.70032 18.7168 6.61265 19.0874 6.51612 19.4555 6.45036 19.7003 6.43824 19.9679 6.51146 20.2122 6.59494 20.258 6.68756 20.2777 6.77952 20.2974 6.79544 20.3008 6.81134 20.3042 6.82717 20.3077H7.23942C7.3356 20.2984 7.43105 20.2836 7.52665 20.2688 7.56362 20.2631 7.60061 20.2574 7.63767 20.252 7.67591 20.06 7.63068 19.8729 7.56865 19.6943 7.49124 19.2441 7.56026 18.7655 7.77664 18.3686 7.80868 18.3244 7.85206 18.2918 7.89535 18.2593 7.95289 18.2161 8.01025 18.173 8.04059 18.1029 8.08412 18.0071 8.11514 17.9062 8.14616 17.8053 8.17199 17.7213 8.19782 17.6373 8.23086 17.5562 8.26459 17.4726 8.30235 17.3907 8.34011 17.3088 8.41723 17.1416 8.49436 16.9742 8.53725 16.7926 8.5581 16.7057 8.55264 16.6174 8.54718 16.529 8.54335 16.467 8.53952 16.405 8.54471 16.3434 8.58342 16.1777 8.65523 16.0151 8.77275 15.8957 8.84571 15.8247 8.89808 15.7363 8.95041 15.648 9.01114 15.5455 9.07179 15.4432 9.16448 15.3683 9.26364 15.2911 9.28312 15.1625 9.30163 15.0402 9.30506 15.0176 9.30845 14.9952 9.31231 14.9734 9.33563 14.7883 9.39345 14.6107 9.45781 14.4376 9.47665 14.3882 9.4943 14.3378 9.51199 14.2872 9.58015 14.0927 9.64897 13.8962 9.78891 13.7461 9.90083 13.6242 9.9568 13.4626 9.99783 13.3014 10.0128 13.3315 10.0271 13.3623 10.0415 13.3933 10.0943 13.5069 10.1478 13.622 10.2361 13.7088 10.2806 13.732 10.3322 13.7426 10.3837 13.7531 10.4783 13.7726 10.5728 13.792 10.6223 13.8889 10.7292 14.0579 10.8348 14.2282 10.9405 14.3984 11.0518 14.5779 11.1631 14.7574 11.2761 14.9355 11.3627 15.1127 11.5494 15.1085 11.7174 15.1047 11.7538 15.1039 11.7892 15.1031 11.8226 15.1042 11.9308 15.2584 11.9574 15.4499 11.9215 15.6365 11.9183 15.733 11.8806 15.8194 11.843 15.9055 11.7986 16.0072 11.7545 16.1084 11.7676 16.225 11.7863 16.6637 11.8175 17.106 11.9271 17.5308 11.942 17.608 11.9662 17.6827 11.9903 17.7573 12.0281 17.8743 12.0659 17.9911 12.0679 18.1168 12.0694 18.1933 12.0756 18.2703 12.0818 18.3474 12.095 18.5106 12.1081 18.6744 12.0768 18.8342 11.9649 19.1496 11.8884 19.4794 11.8739 19.8172 12.0212 19.9074 12.1811 19.8965 12.3416 19.8856 12.4697 19.8768 12.5983 19.8681 12.7213 19.9107 13.2119 20.0789 13.7402 20.0729 14.2453 19.9913 14.2457 19.9587 14.2489 19.9252 14.252 19.8916 14.2601 19.8067 14.2683 19.7205 14.2322 19.6436 14.1375 19.5272 14.0049 19.4794 13.8721 19.4315 13.7808 19.3986 13.6894 19.3656 13.6101 19.3103 13.4739 19.1827 13.3594 19.0311 13.2457 18.8806 13.2282 18.8575 13.2107 18.8343 13.1932 18.8113 13.0822 18.676 13.0734 18.4885 13.0692 18.3178L13.0693 18.2984C13.0706 18.0454 13.0719 17.7854 13.1615 17.5473 13.2296 17.3527 13.2067 17.1428 13.1699 16.9443 13.1362 16.7782 13.1645 16.6135 13.1927 16.449 13.2059 16.3722 13.219 16.2954 13.2259 16.2185 13.2571 15.8897 13.2795 15.5599 13.2995 15.2301 13.3113 15.0771 13.2725 14.9297 13.234 14.7837 13.2251 14.7502 13.2163 14.7168 13.2081 14.6833 13.1941 14.5927 13.143 14.5234 13.0918 14.4537 13.0476 14.3938 13.0034 14.3336 12.9824 14.2595 12.7175 13.5009 12.4349 12.7223 11.9136 12.1174 11.713 11.91 11.6118 11.5637 11.7336 11.2851 11.7763 11.2972 11.8189 11.3098 11.8616 11.3223 11.9316 11.343 12.0016 11.3636 12.0726 11.3821 12.1948 11.2115 12.3137 11.023 12.3333 10.8036 12.3436 10.6868 12.3503 10.5696 12.3569 10.4524 12.3631 10.343 12.3693 10.2336 12.3785 10.1246 12.3809 10.0575 12.3865 9.98998 12.392 9.92226 12.4069 9.74111 12.4219 9.55881 12.3771 9.38283 12.3439 9.24617 12.2306 9.17354 12.1235 9.10492 12.1012 9.09061 12.0791 9.07647 12.0581 9.06196L12.0611 9.05033C12.0895 8.93933 12.1178 8.82872 12.143 8.71672 12.2589 8.77537 12.3724 8.84165 12.486 8.90802 12.7655 9.07135 13.046 9.23517 13.3653 9.28682 13.3958 9.2916 13.4268 9.29904 13.4581 9.30654 13.5502 9.32865 13.6447 9.3513 13.7342 9.30821 13.8472 9.25184 13.9427 9.16639 14.038 9.08101 14.0815 9.04205 14.1251 9.00311 14.1702 8.96695 14.3522 8.81831 14.3896 8.58385 14.4266 8.35243 14.4426 8.25234 14.4585 8.15282 14.4859 8.06106 14.5417 8.03849 14.5983 8.01711 14.655 7.99567 14.6883 7.98308 14.7217 7.97047 14.755 7.95759 14.7411 7.89423 14.7247 7.8307 14.7083 7.76694 14.655 7.55937 14.6009 7.3493 14.6277 7.13428 14.686 7.05171 14.7524 6.97651 14.8189 6.90128 14.8757 6.83691 14.9326 6.77252 14.9844 6.70347 15.0646 6.58955 15.2041 6.5602 15.3309 6.56368 15.4986 6.56281 15.6663 6.56366 15.8341 6.56452 16.0486 6.5656 16.2631 6.56669 16.4777 6.56418 16.4903 6.50648 16.5028 6.44877 16.5164 6.39106 16.6936 6.4017 16.8708 6.38973 17.048 6.37776 17.2687 6.36286 17.4894 6.34795 17.7102 6.37664 17.9588 6.42091 18.2115 6.403 18.4615 6.3836 18.4489 6.30799 18.4424 6.23237 18.4391 6.15626 18.3818 6.15612 18.3245 6.15427 18.2672 6.15241 18.1219 6.14772 17.9766 6.14302 17.8329 6.16621 17.5746 6.21356 17.3122 6.20392 17.0513 6.19434 17.0107 6.19285 16.9701 6.19136 16.9295 6.19009 16.9262 6.12898 16.924 6.06819 16.9219 6.00746 16.9213 5.99206 16.9208 5.97665 16.9202 5.96125 16.9054 5.95929 16.8906 5.95757 16.8758 5.95586 16.8345 5.95105 16.7935 5.94628 16.7533 5.93638 16.716 5.79708 16.7166 5.65242 16.7172 5.50831 16.7174 5.45582 16.7176 5.40341 16.716 5.35136 16.6871 5.35086 16.6292 5.34987 16.6003 5.34887 16.5932 5.51716 16.5921 5.68545 16.5909 5.85373 16.5905 5.90732 16.5901 5.9609 16.5896 6.01448 16.5671 5.99544 16.5466 5.97094 16.5261 5.9463 16.4791 5.88983 16.4314 5.83264 16.3564 5.83888 15.7691 5.83679 15.1814 5.83738 14.5938 5.83798 14.202 5.83838 13.8102 5.83878 13.4185 5.83838 13.2924 5.85251 13.1888 5.78273 13.0874 5.71444 13.0639 5.69861 13.0405 5.68285 13.0169 5.66824 13.0048 5.56626 12.9894 5.46478 12.9703 5.36429 12.9029 5.4606 12.8824 5.57758 12.8621 5.69362 12.8558 5.72924 12.8496 5.76476 12.8421 5.79958 12.7745 5.81352 12.7073 5.829 12.64 5.84448 12.4744 5.88257 12.3089 5.92067 12.1397 5.93588 12.1373 5.9194 12.1349 5.90293 12.1325 5.88645 12.1138 5.76014 12.0951 5.63374 12.0819 5.50657 12.1154 5.48979 12.1499 5.47449 12.1846 5.45913 12.2805 5.41665 12.3773 5.37376 12.4541 5.29813 12.5554 4.98984 12.4762 4.67137 12.3999 4.36432 12.3838 4.29976 12.3679 4.23571 12.3538 4.17236 12.101 3.98183 11.8222 3.81369 11.5321 3.69231zM13.5192 7.12582C13.6274 7.06861 13.6619 6.95022 13.6759 6.83082 13.7626 6.82635 13.8498 6.82336 13.938 6.82137 13.9396 6.86515 13.9411 6.9088 13.9426 6.95245 13.9441 6.99611 13.9457 7.03976 13.9473 7.08354 13.8401 7.10851 13.7309 7.1142 13.6219 7.11987 13.5876 7.12166 13.5533 7.12344 13.5192 7.12582zM13.3557 7.20144C13.3649 7.189 13.3742 7.17656 13.3802 7.16811 13.5255 7.15208 13.6718 7.15956 13.8176 7.16701 13.8348 7.16789 13.8519 7.16876 13.8689 7.1696 13.7779 7.31637 13.6819 7.46015 13.5862 7.60353 13.5716 7.62538 13.5571 7.64722 13.5425 7.66906 13.5213 7.62961 13.497 7.59079 13.4727 7.55177 13.4104 7.45203 13.3473 7.35098 13.3312 7.23477 13.3373 7.22631 13.3465 7.21387 13.3557 7.20144z" fill="#39393e"/></svg>