<svg width="24" height="24" viewBox="0 0 24 24" fill="none" xmlns="http://www.w3.org/2000/svg"><path d="M24 5.57357C23.9061 1.10678 23.9002 2.0723 23.9917.68014 23.9972.597602 23.9352.526284 23.8531.520644 17.2374.0656869 16.9867.0132291 16.474.0132291 7.44881.0125014 12.187-.135775.140332.578681.058477.583593-.00407533.653941 207417e-9.736176.776591 15.7119.748241 13.2689.351634 23.2498.348799 23.3215.396874 23.3851.466363 23.4016 1.36797 23.6159 1.20818 23.5316 3.31137 23.5331 3.31481 23.5341 7.25277 23.1018 7.25633 23.1014 7.27491 23.1045 12.7019 24 12.7208 24 12.7249 24 12.729 23.9998 12.7332 23.9995 19.0934 23.4636 17.2704 23.5931 21.3737 23.3644L23.783 23.8544C23.8768 23.8733 23.9627 23.8005 23.9617 23.7058 23.9095 18.8289 24 5.57357 24 5.57357zM14.2197 5.21807C14.2376 5.2137 14.2633 5.20739 14.2952 5.19884L16.0101 4.81029C16.8886 4.589 17.0184 4.53509 17.7701 4.17977H17.7702C18.1173 4.30081 19.0689 4.83024 19.3101 5.1342 19.4695 5.33541 19.459 5.38017 19.4089 5.59564 19.3992 5.637 19.3882 5.68461 19.3766 5.74083 19.3758 5.74452 19.3752 5.74834 19.3747 5.7521L18.9976 8.71909C18.6244 8.73292 18.5933 8.70417 18.4901 8.60866 18.4475 8.56912 18.3945 8.51999 18.301 8.45698 17.7336 8.07407 15.8765 6.69264 15.2902 6.21713L14.1374 5.28599 14.1467 5.27695C14.1592 5.26446 14.1703 5.24766 14.1777 5.23159 14.1835 5.22704 14.2063 5.2214 14.2197 5.21807zM16.8921 20.1567C16.8584 20.1228 2.48137 4.79938 2.47081 4.77821L3.72686 3.80947 21.2795 15.4946C21.1344 15.9125 21.0765 16.3921 20.9893 16.7903 20.6809 18.1968 20.2844 18.8123 19.6643 20.1486 18.7767 20.1841 16.9533 20.1773 16.8921 20.1567zM3.81372 16.011C3.97532 15.6205 4.19748 14.9923 4.38423 14.6741 5.30231 15.2509 8.88872 18.8738 9.20063 19.3629 9.02788 19.4274 8.28582 19.5382 7.05293 20.0334 6.27178 20.3467 5.53418 20.6439 4.82174 20.4009 4.75068 20.3768 4.56127 20.2152 4.28042 19.9714 3.76746 19.5262 3.30293 19.2055 3.03281 19.0452 2.57209 18.7718 2.64387 18.8294 3.81372 16.011z" fill="#39393e"/></svg>