<svg width="23" height="24" viewBox="0 0 23 24" fill="none" xmlns="http://www.w3.org/2000/svg"><path d="M11.2604.00888435C10.8604.0373553 10.4112.122769 10.0197.280454L9.05497.659338C8.83891.744752 8.69987.827975 8.61644.889297L10.6058 1.68211C11.0187 1.84636 12.0284 1.80913 12.8177 1.49376L13.7718 1.1105C13.9814 1.02727 14.1162.944049 14.1953.884917L12.2209.0964876C12.0155.0154547 11.6604-.0173966 11.2604.00888435zM7.30943 1.5726C6.903 1.60107 6.4495 1.68868 6.04734 1.84855L5.07189 2.23401C4.83445 2.32599 4.69541 2.41359 4.61412 2.47492L6.62277 3.27649C7.03776 3.44074 8.06241 3.40132 8.86458 3.07938L9.83361 2.69173C10.0625 2.59975 10.1973 2.51434 10.2764 2.45302L8.28274 1.65802C8.07524 1.57479 7.71801 1.54413 7.30943 1.5726zM15.3055 1.62078C14.9076 1.64926 14.4606 1.73686 14.0712 1.89235L13.1172 2.27781C12.8926 2.3676 12.76 2.45083 12.6829 2.50996L14.6766 3.30496C15.0895 3.46921 16.0949 3.43198 16.8757 3.11223L17.8233 2.72459C18.0393 2.63698 18.1677 2.55595 18.2426 2.49682L16.2617 1.7062C16.0564 1.62516 15.7034 1.5945 15.3055 1.62078zM3.29641 3.16041C2.8857 3.18888 2.42364 3.27868 2.01507 3.44074L1.02251 3.83277C.774368 3.93132.628907 4.0233.547619 4.08682L2.57338 4.89496C2.99479 5.0614 4.03227 5.01979 4.84942 4.69347L5.83343 4.29706C6.07515 4.2007 6.21419 4.11091 6.29334 4.04739L4.28041 3.24583C4.07292 3.1626 3.70926 3.13194 3.29641 3.16041zM11.3888 3.19764C10.9823 3.22611 10.531 3.31372 10.1331 3.47359L9.16406 3.86343C8.92662 3.9576 8.78971 4.04521 8.71057 4.10872L10.7256 4.91248C11.1428 5.07673 12.1589 5.03512 12.9546 4.71318L13.9151 4.31896C14.144 4.22479 14.2787 4.13938 14.3557 4.08025L12.3557 3.28087C12.1482 3.19983 11.7931 3.16698 11.3888 3.19764zM19.3506 3.23268C18.9549 3.26116 18.5121 3.34876 18.1249 3.50644L17.1794 3.8919C16.9548 3.98388 16.8222 4.0693 16.7473 4.13062L18.7495 4.92781C19.1624 5.09206 20.1592 5.05045 20.9315 4.7307L21.8705 4.34306C22.0887 4.25107 22.2171 4.16785 22.2898 4.10872L20.3004 3.31591C20.0972 3.23487 19.7464 3.20421 19.3506 3.23268zM7.97256 4.7964C7.46987 4.7526 6.73828 4.83801 6.13291 5.08111L5.1489 5.47533C4.89862 5.57607 4.7553 5.66806 4.67829 5.73157L6.71047 6.54409C7.12974 6.71053 8.16081 6.66673 8.97154 6.33603L9.94699 5.93963C10.1887 5.84107 10.3278 5.75128 10.4048 5.68558L8.38542 4.87963C8.2806 4.8402 8.13942 4.81173 7.97256 4.7964zM15.4617 4.82049C15.0617 4.84897 14.6124 4.94095 14.221 5.10082L13.2584 5.49285C13.0209 5.5914 12.884 5.67901 12.8092 5.74033L14.8285 6.54628C15.2435 6.71272 16.2553 6.67111 17.0446 6.3426L17.9966 5.94839C18.2254 5.85202 18.3581 5.76661 18.4329 5.70529L16.4264 4.90591C16.2189 4.82268 15.8638 4.79202 15.4617 4.82049zM.14974 4.87963C.106957 4.87963.0748699 4.89277.0556178 4.9081.00641753 4.94533.0 5.03731.0 5.08987V7.39384C0 7.73987.280227 8.19541.603237 8.36624L1.82254 9.04954C1.97442 9.13057 2.09208 9.13057 2.14128 9.09553 2.18406 9.06268 2.19048 8.97508 2.19048 8.92471V6.47401C2.19048 6.10607 1.88458 5.64396 1.53376 5.48628L.312314 4.92124C.24814 4.89277.192523 4.88182.14974 4.87963zM22.8524 4.92343C22.8096 4.92343 22.7561 4.93657 22.6941 4.96285L21.4513 5.48409C21.1176 5.62863 20.8095 6.08198 20.8095 6.43677V8.85462C20.8095 8.90281 20.8159 8.98822 20.8587 9.02107 20.9058 9.05611 21.0234 9.05611 21.1753 8.97727L22.416 8.329C22.7262 8.16694 23 7.72673 23 7.38946V5.12711C23 5.07892 22.9936 4.98694 22.9465 4.94971 22.9273 4.93657 22.8952 4.92343 22.8524 4.92343zM3.48893 6.24405C3.4269 6.24405 3.38198 6.25938 3.35203 6.28128 3.30924 6.31413 3.28571 6.37983 3.28571 6.47401V8.92471C3.28571 9.26198 3.58947 9.78979 4.02158 10.0132L6.05804 11.0119C6.27195 11.1214 6.4388 11.1214 6.51153 11.071 6.55004 11.0403 6.57143 10.979 6.57143 10.887V8.27206C6.57143 7.86909 6.1928 7.35004 5.76284 7.16388L3.72852 6.30099C3.63225 6.25938 3.55097 6.24405 3.48893 6.24405zM19.5047 6.32508C19.4426 6.32508 19.3656 6.33822 19.2779 6.37545L17.2436 7.27777C16.8051 7.45954 16.4286 7.96545 16.4286 8.36405V10.9593C16.4286 11.0491 16.4478 11.1104 16.4885 11.1389 16.5612 11.1914 16.7323 11.1936 16.9462 11.0841L18.987 10.0329C19.4148 9.81826 19.7143 9.29921 19.7143 8.9707V6.55285C19.7143 6.46087 19.6929 6.39735 19.648 6.36231 19.6202 6.34041 19.5688 6.32508 19.5047 6.32508zM12.0776 6.43239C11.577 6.38859 10.8518 6.4762 10.2507 6.71929L9.2753 7.11789C9.03571 7.21644 8.88811 7.31062 8.80683 7.37851L10.8476 8.19103C11.2668 8.35967 12.2936 8.31367 13.0937 7.98078L14.0627 7.58C14.3044 7.47925 14.4413 7.38727 14.5162 7.32376L12.4904 6.51781C12.3856 6.4762 12.2444 6.44772 12.0776 6.43239zM7.9255 8.01582C7.84208 8.01582 7.78218 8.03772 7.74368 8.06619 7.72442 8.07934 7.66667 8.12314 7.66667 8.27206V10.887C7.66667 11.2528 8.0239 11.8463 8.5373 12.1091L10.285 13.018C10.5673 13.1625 10.7877 13.1581 10.8818 13.0902 10.901 13.0771 10.9524 13.0421 10.9524 12.8953V10.092C10.9524 9.69781 10.5566 9.08677 9.98763 8.84148L8.23995 8.0881C8.11589 8.03553 8.01107 8.01363 7.9255 8.01582zM15.0595 8.10343C14.9761 8.10343 14.8713 8.12533 14.7493 8.1757L13.0231 8.85681C12.4498 9.09553 12.0476 9.7 12.0476 10.092v2.8033C12.0476 13.0377 12.099 13.0749 12.1182 13.0881 12.2166 13.1603 12.4455 13.1625 12.7386 13.0158L14.4606 12.1682C14.9761 11.9076 15.3333 11.3228 15.3333 10.9593V8.36405C15.3333 8.21731 15.2756 8.17351 15.2563 8.15818 15.2157 8.12752 15.1494 8.10343 15.0595 8.10343zM22.4524 8.9707 22.3946 9.00574C22.3925 9.00793 22.3903 9.00793 22.3861 9.01012 22.3604 9.0364 22.3369 9.06487 22.3112 9.08458L21.4855 9.77665C21.4513 9.8095 21.4128 9.82483 21.3764 9.84673 21.3657 9.91024 21.3571 9.96938 21.3571 10.0219V12.4836C21.4085 12.442 21.4791 12.3741 21.5689 12.258L21.8684 11.9492C22.2128 11.4915 22.4524 10.7928 22.4524 10.4446V8.9707zM20.2619 10.8498C20.1763 10.8826 20.0523 10.9418 19.894 11.0447L19.464 11.3272C18.9356 11.6733 18.619 12.1879 18.619 12.7026V15.138C18.7324 15.0964 18.9121 15.0044 19.1453 14.8248L19.3357 14.7C19.9325 14.2291 20.2619 13.4472 20.2619 13.0837V10.8498zM.971168 10.8717C.870629 10.8717.780785 10.9024.712332 10.9615.609654 11.0491.551898 11.2002.551898 11.382L.547619 14.0429C.547619 14.5094.896298 15 1.30915 15.1183L3.79055 15.795C3.95954 15.8432 4.10928 15.8191 4.21624 15.7293 4.31892 15.6417 4.37667 15.4906 4.37881 15.3066L4.38095 12.615C4.38095 12.1857 3.95526 11.6601 3.50605 11.5375L1.12519 10.8936C1.07171 10.8783 1.02037 10.8717.971168 10.8717zM5.7992 12.0981C5.73717 12.1003 5.67513 12.1178 5.62593 12.1595 5.53181 12.2405 5.47833 12.4069 5.47833 12.6172L5.47619 15.3066C5.47619 15.7797 5.83557 16.2812 6.26125 16.4016L8.69345 17.1156C8.89453 17.1726 9.07422 17.1528 9.18118 17.063 9.26674 16.9908 9.30738 16.8725 9.30738 16.7126L9.30952 13.9904C9.30952 13.8086 9.24107 13.6071 9.13198 13.4209L8.06241 12.8712C7.90197 12.7902 7.75009 12.6829 7.60891 12.5624L5.97461 12.12C5.92327 12.1047 5.8591 12.0938 5.7992 12.0981zM22.4524 12.4135C22.4117 12.4464 22.3625 12.4923 22.3069 12.5581L21.9903 12.8493C21.6395 13.2567 21.3571 13.9728 21.3571 14.3211V16.3622C21.4235 16.3009 21.5069 16.2111 21.6031 16.0841L21.8449 15.7556C22.1978 15.2847 22.4524 14.4437 22.4524 14.1086V12.4135zM17.5238 12.8625C17.3677 12.8975 17.081 13.0136 16.7216 13.272L16.3173 13.5392C15.7077 13.9794 15.3333 14.6123 15.3333 15.2234V18.0836C15.421 18.0311 15.5472 17.9435 15.7141 17.8011L16.3002 17.3697C17.0489 16.728 17.5238 15.7578 17.5238 15.3679V12.8625zM12.7471 13.8677 11.6476 14.3386C11.6048 14.3561 11.5556 14.3671 11.5086 14.3671 11.4572 14.3671 11.4059 14.3561 11.3588 14.332L10.4133 13.894C10.4112 13.9269 10.4048 13.9575 10.4048 13.9904V16.7126C10.4048 17.1923 10.7748 17.7026 11.2134 17.8274L13.6028 18.4231C13.791 18.4757 13.9557 18.4516 14.0734 18.353 14.1782 18.2632 14.2381 18.1099 14.2381 17.9238v-2.753C14.2381 14.6846 13.8595 14.1721 13.4145 14.0517L12.7471 13.8677zM20.2619 15.0657C20.1892 15.1139 20.1015 15.1774 19.9988 15.2628L19.7913 15.4052C19.1346 15.9373 18.619 16.8068 18.619 17.2076V19.6233C18.6704 19.5816 18.726 19.5313 18.7902 19.4699L19.2244 19.0648C19.8341 18.4932 20.2619 17.6347 20.2619 17.2229V15.0657zM.962612 16.2593C.864211 16.2593.776507 16.2878.710193 16.3447.609654 16.4301.551898 16.579.551898 16.7608L.547619 19.424C.547619 19.8926.896298 20.392 1.31129 20.5146L3.69429 21.222C3.88253 21.279 4.07506 21.2439 4.20982 21.1322 4.28683 21.0687 4.37881 20.9483 4.37881 20.7468L4.38095 18.0508C4.38095 17.5777 4.02372 17.0784 3.60231 16.9579L1.12519 16.2834C1.06743 16.2681 1.01395 16.2593.962612 16.2593zM5.83129 17.5471C5.75856 17.558 5.69438 17.5865 5.63876 17.6325 5.53609 17.7201 5.47833 17.869 5.47833 18.053L5.47619 20.7468C5.47619 21.2636 5.77139 21.7411 6.16285 21.8571L8.59933 22.5799C8.83036 22.6478 9.05497 22.6215 9.18759 22.512 9.26888 22.4441 9.30952 22.3433 9.30952 22.2076V19.4831C9.30952 18.9838 8.91592 18.3968 8.50093 18.2807L6.06873 17.5668C5.98317 17.5427 5.90402 17.5361 5.83129 17.5471zM17.5238 17.5755C17.3912 17.6434 17.1944 17.7704 16.9355 17.9895L16.3344 18.4297C15.6029 19.0516 15.3333 19.8247 15.3333 20.3328V23.0464C15.4232 22.9719 15.543 22.8711 15.6906 22.7244L16.2168 22.2338C16.9527 21.5067 17.5238 20.4511 17.5238 20.0219V17.5755zM10.8433 18.9662C10.7342 18.9662 10.6422 18.9991 10.5695 19.0604 10.4647 19.148 10.4048 19.3013 10.4048 19.4853V22.2097C10.4048 22.7025 10.6828 23.1011 11.115 23.2303L13.607 23.9706C13.7932 24.0253 13.96 24.0034 14.0755 23.9071 14.1803 23.8173 14.2381 23.6683 14.2381 23.4822V20.7249C14.2381 20.2365 13.8573 19.7174 13.4081 19.5882L11.0337 18.9947C10.9674 18.9772 10.9032 18.9662 10.8433 18.9662z" fill="#39393e"/></svg>