<svg width="8" height="8" viewBox="0 0 8 8" fill="none" xmlns="http://www.w3.org/2000/svg">
<path d="M3.64098 0.61892C3.38586 0.066169 2.65827 -0.063597 2.22779 0.366878L0.366878 2.22779C-0.063597 2.65827 0.066169 3.38586 0.61892 3.64098L1.28263 3.94731C1.44766 4.02347 1.59791 4.12824 1.72643 4.25676C1.92804 4.45837 2.06975 4.71197 2.13579 4.98933L2.42795 6.2164C2.58651 6.88235 3.41384 7.1165 3.89788 6.63245L5 5.53035L6.85985 7.39015C7.0063 7.5366 7.2437 7.5366 7.39015 7.39015C7.5366 7.2437 7.5366 7.0063 7.39015 6.85985L5.53035 5L6.63245 3.89788C7.1165 3.41384 6.88235 2.5865 6.2164 2.42795L4.98934 2.13579C4.71197 2.06975 4.45837 1.92804 4.25676 1.72643C4.12824 1.59791 4.02347 1.44766 3.94731 1.28264L3.64098 0.61892Z" fill="white"/>
</svg>
