<svg width="9" height="11" viewBox="0 0 9 11" fill="none" xmlns="http://www.w3.org/2000/svg"><path fill-rule="evenodd" clip-rule="evenodd" d="M4.49955 9.96491C6.46099 9.96491 7.9613 8.59807 7.9613 6.85962 7.9613 5.83103 7.47496 5.33299 6.61783 4.48201 5.91275 3.782 5.03825 2.90304 4.67345 1.4396 4.47391 1.5979 4.27898 1.79479 4.1223 2.02557 3.78503 2.52237 3.62891 3.15601 4.04315 3.9816 4.37105 4.6351 4.50684 5.55742 3.85056 6.21142 3.45963 6.60098 2.79092 6.87512 2.06519 6.57213 1.73921 6.43604 1.46944 6.20903 1.24486 5.92479 1.11938 6.18675 1.0387 6.50653 1.0387 6.85964 1.03865 8.60532 2.53691 9.96491 4.49955 9.96491zM5.54964.303922C5.53846.113694 5.3832-.0394761 5.19829.00907438 4.01491.319789 1.91293 2.05053 3.11412 4.44451 3.35251 4.91963 3.31111 5.28515 3.11609 5.4795 2.79657 5.7979 2.18221 5.82248 1.67998 4.59887 1.60617 4.41903 1.40311 4.31797 1.23561 4.41744.472797 4.87041 240143e-10 5.84902 119783e-14 6.85962-575807e-10 9.28314 2.07593 11 4.49955 11 6.92317 11 9 9.27482 9 6.85962 9 5.38481 8.21948 4.61045 7.39983 3.79727 6.54761 2.95177 5.65309 2.0643 5.54964.303922z" fill="url(#paint0_linear)"/><defs><linearGradient id="paint0_linear" x1="8.38983" y1="-612758e-12" x2="-1.44887" y2="7.29944" gradientUnits="userSpaceOnUse"><stop stop-color="#fb6f43"/><stop offset="1" stop-color="#b41431"/></linearGradient></defs></svg>