<svg width="12" height="12" viewBox="0 0 12 12" fill="none" xmlns="http://www.w3.org/2000/svg"><path opacity=".32" d="M12 2.78678C11.953.553388 11.9501 1.03615 11.9959.34007 11.9986.298801 11.9676.263142 11.9266.260322 8.61868.0328434 8.49333.00661456 8.237.00661456 3.72441.00625069 6.09352-.0678876.0701659.289341.0292385.291797-.00203767.326971 103709e-9.368088.388296 7.85596.37412 6.63445.175817 11.6249.174399 11.6608.198437 11.6926.233182 11.7008.683986 11.808.604092 11.7658 1.65569 11.7665 1.65741 11.7671 3.62638 11.5509 3.62816 11.5507 3.63745 11.5523 6.35094 12 6.36038 12 6.36246 12 6.36451 11.9999 6.36659 11.9997 9.54671 11.7318 8.63518 11.7965 10.6868 11.6822L11.8915 11.9272C11.9384 11.9367 11.9814 11.9002 11.9808 11.8529 11.9548 9.41444 12 2.78678 12 2.78678zM7.10986 2.60903C7.11881 2.60685 7.13163 2.6037 7.14762 2.59942L8.00507 2.40515C8.44429 2.2945 8.5092 2.26754 8.88506 2.08988H8.88509C9.05863 2.15041 9.53443 2.41512 9.65505 2.5671 9.73476 2.66771 9.72951 2.69009 9.70445 2.79782 9.69962 2.8185 9.6941 2.8423 9.68831 2.87041 9.68792 2.87226 9.68762 2.87417 9.68735 2.87605L9.49879 4.35954C9.31221 4.36646 9.29665 4.35209 9.24505 4.30433 9.22375 4.28456 9.19724 4.26 9.1505 4.22849 8.86678 4.03704 7.93827 3.34632 7.64508 3.10856L7.06872 2.64299 7.07336 2.63848C7.07961 2.63223 7.08516 2.62383 7.08884 2.6158 7.09173 2.61352 7.10313 2.6107 7.10986 2.60903zM8.44607 10.0783C8.42921 10.0614 1.24068 2.39969 1.2354 2.38911L1.86343 1.90474 10.6397 7.74728C10.5672 7.95623 10.5383 8.19603 10.4946 8.39515 10.3405 9.09842 10.1422 9.40613 9.83215 10.0743 9.38837 10.0921 8.47663 10.0886 8.44607 10.0783zM1.90686 8.00548C1.98766 7.81023 2.09874 7.49615 2.19212 7.33705 2.65115 7.62545 4.44436 9.43688 4.60032 9.68146 4.51394 9.71369 4.14291 9.76912 3.52646 10.0167 3.13589 10.1733 2.76709 10.322 2.41087 10.2004 2.37534 10.1884 2.28064 10.1076 2.14021 9.98571 1.88373 9.76312 1.65146 9.60274 1.51641 9.5226 1.28604 9.38588 1.32193 9.41471 1.90686 8.00548z" fill="#fff"/></svg>