<svg width="16" height="16" viewBox="0 0 16 16" fill="none" xmlns="http://www.w3.org/2000/svg"><path fill-rule="evenodd" clip-rule="evenodd" d="M4.46967.21967C4.61032.0790176 4.80109.0 5 0h6C11.1989.0 11.3897.0790176 11.5303.21967l4.25 4.25C15.921 4.61032 16 4.80109 16 5v6C16 11.1989 15.921 11.3897 15.7803 11.5303l-4.25 4.25C11.3897 15.921 11.1989 16 11 16H5C4.80109 16 4.61032 15.921 4.46967 15.7803l-4.25-4.25C.0790176 11.3897.0 11.1989.0 11V5C0 4.80109.0790176 4.61032.21967 4.46967l4.25-4.25zM5.31066 1.5 1.5 5.31066V10.6893L5.31066 14.5H10.6893L14.5 10.6893V5.31066L10.6893 1.5H5.31066zM8 4C8.41421 4 8.75 4.33579 8.75 4.75v3.5C8.75 8.66421 8.41421 9 8 9 7.58579 9 7.25 8.66421 7.25 8.25V4.75C7.25 4.33579 7.58579 4 8 4zm0 8C8.55229 12 9 11.5523 9 11 9 10.4477 8.55229 10 8 10 7.44772 10 7 10.4477 7 11 7 11.5523 7.44772 12 8 12z" fill="#afafb3"/></svg>