<svg width="12" height="15" viewBox="0 0 12 15" fill="none" xmlns="http://www.w3.org/2000/svg"><path fill-rule="evenodd" clip-rule="evenodd" d="M2 4V6H1.75C1.28587 6 .84075 6.18437.51256 6.51256.18437 6.84075.0 7.28587.0 7.75v5.5C0 14.216.784 15 1.75 15h8.5C10.7141 15 11.1592 14.8156 11.4874 14.4874 11.8156 14.1592 12 13.7141 12 13.25V7.75C12 7.28587 11.8156 6.84075 11.4874 6.51256 11.1592 6.18437 10.7141 6 10.25 6H10V4C10 2.93913 9.5786 1.92172 8.8284 1.17157 8.0783.421427 7.06087.0 6 0 4.93913.0 3.92172.421427 3.17157 1.17157 2.42143 1.92172 2 2.93913 2 4zM8.5 6V4C8.5 3.33696 8.2366 2.70107 7.76777 2.23223 7.29893 1.76339 6.66304 1.5 6 1.5 5.33696 1.5 4.70107 1.76339 4.23223 2.23223 3.76339 2.70107 3.5 3.33696 3.5 4V6h5zM10 7.5h.25C10.3163 7.5 10.3799 7.52634 10.4268 7.57322 10.4737 7.62011 10.5 7.6837 10.5 7.75v5.5C10.5 13.3163 10.4737 13.3799 10.4268 13.4268 10.3799 13.4737 10.3163 13.5 10.25 13.5H1.75C1.6837 13.5 1.62011 13.4737 1.57322 13.4268 1.52634 13.3799 1.5 13.3163 1.5 13.25V7.75C1.5 7.6837 1.52634 7.62011 1.57322 7.57322 1.62011 7.52634 1.6837 7.5 1.75 7.5H10z" fill="#afafb3"/></svg>