<svg width="12" height="14" viewBox="0 0 12 14" fill="none" xmlns="http://www.w3.org/2000/svg"><path fill-rule="evenodd" clip-rule="evenodd" d="M8.49994 3.99998C8.49994 4.66302 8.23654 5.2989 7.76771 5.76774 7.29887 6.23659 6.66298 6.49998 5.99994 6.49998 5.3369 6.49998 4.70102 6.23659 4.23218 5.76774 3.76333 5.2989 3.49994 4.66302 3.49994 3.99998 3.49994 3.33694 3.76333 2.70105 4.23218 2.23221 4.70102 1.76337 5.3369 1.49998 5.99994 1.49998 6.66298 1.49998 7.29887 1.76337 7.76771 2.23221 8.23654 2.70105 8.49994 3.33694 8.49994 3.99998zM8.56094 7.07298C9.19224 6.54662 9.64604 5.83856 9.86074 5.04512 10.0753 4.25167 10.0402 3.41138 9.76034 2.63856 9.48044 1.86574 8.96924 1.19791 8.29634.725922 7.62339.253942 6.82139 732422e-9 5.99944 732422e-9 5.17749 732422e-9 4.37549.253942 3.70256.725922 3.02963 1.19791 2.51843 1.86574 2.23853 2.63856 1.95862 3.41138 1.92358 4.25167 2.13819 5.04512 2.3528 5.83856 2.80663 6.54662 3.43794 7.07298 2.45353 7.53838 1.61421 8.26273 1.00984 9.16848.405471 10.0743.0588009 11.1273.00694087 12.215.00212087 12.411.0742209 12.6011.207821 12.7445.341411 12.888.525871 12.9735.721711 12.9826.917541 12.9918 1.10917 12.9239 1.25556 12.7935 1.40195 12.6631 1.49147 12.4806 1.50494 12.285 1.55946 11.1295 2.05684 10.0394 2.89385 9.24098 3.73085 8.44251 4.84318 7.99705 5.99994 7.99705 7.1567 7.99705 8.26904 8.44251 9.10604 9.24098 9.94304 10.0394 10.4404 11.1295 10.4949 12.285 10.4974 12.3849 10.5197 12.4832 10.5607 12.5743 10.6017 12.6654 10.6605 12.7474 10.7336 12.8154 10.8067 12.8835 10.8927 12.9363 10.9864 12.9707 11.0802 13.0051 11.1799 13.0204 11.2797 13.0157 11.3795 13.0111 11.4773 12.9865 11.5675 12.9435 11.6576 12.9005 11.7383 12.84 11.8047 12.7654 11.8712 12.6908 11.922 12.6037 11.9543 12.5092 11.9867 12.4147 11.9998 12.3146 11.9929 12.215 11.9409 11.1272 11.5941 10.0741 10.9896 9.16828 10.385 8.26253 9.54554 7.53824 8.56094 7.07298z" fill="#afafb3"/></svg>