<svg width="46" height="47" viewBox="0 0 46 47" fill="none" xmlns="http://www.w3.org/2000/svg">
<path d="M43.9786 20.4826H43.3051V18.4615V11.2766C43.3051 8.92423 41.3907 7.01044 39.0376 7.01044H20.5317L8.04675 3.44458C8.04316 3.44359 8.03947 3.44305 8.03588 3.44206C8.0322 3.44108 8.02869 3.43964 8.02501 3.43874C8.01746 3.43686 8.01 3.43596 8.00255 3.43434C7.99096 3.43192 7.97937 3.4294 7.96778 3.42751C7.95727 3.42581 7.94693 3.42473 7.93642 3.42347C7.9242 3.42204 7.91207 3.42078 7.89995 3.42006C7.89006 3.41952 7.88027 3.41943 7.87039 3.41925C7.85781 3.41907 7.84532 3.41898 7.83283 3.41952C7.82358 3.41988 7.81432 3.42078 7.80516 3.4215C7.79231 3.42258 7.77947 3.42374 7.7668 3.42563C7.75817 3.42689 7.74964 3.4285 7.7411 3.43003C7.72799 3.43236 7.71505 3.43488 7.7022 3.43802C7.6942 3.44 7.68639 3.44224 7.67848 3.44449C7.66536 3.44826 7.65243 3.45212 7.63949 3.45661C7.63221 3.45922 7.62502 3.462 7.61775 3.46488C7.60472 3.46991 7.59178 3.4752 7.57911 3.48104C7.57238 3.48419 7.56582 3.4876 7.55917 3.49092C7.5465 3.4973 7.53401 3.50376 7.52179 3.51104C7.51542 3.51472 7.50931 3.51867 7.50302 3.52262C7.49098 3.53017 7.47912 3.53789 7.46762 3.54625C7.4616 3.55056 7.45576 3.55523 7.44983 3.55981C7.43878 3.56834 7.42782 3.57705 7.41731 3.5863C7.41138 3.59151 7.40572 3.59699 7.39997 3.60238C7.39008 3.61172 7.38029 3.62106 7.37095 3.63094C7.36511 3.63713 7.35963 3.6436 7.35397 3.65007C7.34543 3.65986 7.33699 3.66974 7.32899 3.68006C7.32324 3.68752 7.31785 3.69515 7.31237 3.70279C7.30527 3.71276 7.29826 3.72281 7.29179 3.73314C7.28622 3.74194 7.2811 3.7511 7.27598 3.76018C7.27032 3.77014 7.26466 3.7802 7.25954 3.79053C7.25451 3.80059 7.25002 3.81092 7.24544 3.82125C7.24094 3.8314 7.23654 3.84154 7.23259 3.85196C7.22846 3.86292 7.22486 3.87415 7.22118 3.88546C7.21884 3.89274 7.21597 3.89956 7.21381 3.90693C7.21273 3.91061 7.21228 3.9142 7.21129 3.91779C7.21031 3.92148 7.20887 3.92498 7.20797 3.92866L6.43747 7.01026H4.26802C1.9196 7.01026 0.0084453 8.91633 0.000718749 11.2622C0.000628905 11.267 0 11.2716 0 11.2764V34.6273C0 34.9991 0.302773 35.3009 0.673827 35.3009C1.04578 35.3009 1.34765 34.9991 1.34765 34.6273V14.3832C2.11168 15.1014 3.13896 15.5427 4.26802 15.5427H39.0376C39.0384 15.5427 39.0391 15.5426 39.0399 15.5426C40.6488 15.5439 41.9575 16.8528 41.9575 18.4615V23.177H34.5443C34.5439 23.177 34.5435 23.1771 34.5431 23.1771C34.5236 23.1771 34.5042 23.1783 34.4848 23.18C34.4634 23.1818 34.4422 23.1849 34.4213 23.1888C34.4182 23.1893 34.4151 23.1896 34.412 23.1902C34.3944 23.1937 34.3771 23.1984 34.36 23.2032C34.3562 23.2043 34.3523 23.205 34.3486 23.2062C34.3334 23.2109 34.3185 23.2164 34.3037 23.2221C34.2981 23.2242 34.2923 23.226 34.2866 23.2284C34.2742 23.2335 34.2623 23.2395 34.2503 23.2453C34.2424 23.2491 34.2344 23.2526 34.2267 23.2567C34.2174 23.2616 34.2086 23.2673 34.1996 23.2726C34.1896 23.2786 34.1795 23.2843 34.1698 23.2908C34.1632 23.2951 34.1572 23.3 34.1509 23.3046C34.1394 23.3129 34.1278 23.3211 34.1168 23.3301C34.1121 23.3341 34.1077 23.3385 34.1031 23.3425C34.0913 23.3528 34.0796 23.3629 34.0684 23.374C34.0619 23.3806 34.0559 23.3878 34.0497 23.3946C34.041 23.404 34.032 23.4133 34.0238 23.4233C34.0098 23.4403 33.9968 23.4579 33.9846 23.4762C33.9843 23.4764 33.9841 23.4768 33.9839 23.4771L30.3903 28.8659C30.3652 28.9034 30.344 28.9432 30.3272 28.9846C30.3209 29.0001 30.3157 29.0158 30.3106 29.0314C30.3091 29.0362 30.3071 29.0408 30.3057 29.0455C30.3006 29.0621 30.2968 29.0789 30.2931 29.0956C30.2921 29.1 30.2909 29.1044 30.29 29.1088C30.287 29.1238 30.285 29.139 30.2831 29.1542C30.2823 29.1607 30.2811 29.1671 30.2804 29.1737C30.2792 29.1862 30.2789 29.1986 30.2785 29.2111C30.278 29.2206 30.2772 29.2301 30.2772 29.2397C30.2772 29.2489 30.278 29.2582 30.2784 29.2675C30.2788 29.2802 30.2792 29.293 30.2804 29.3058C30.2811 29.312 30.2822 29.3182 30.283 29.3244C30.285 29.3398 30.287 29.3553 30.29 29.3706C30.2909 29.3749 30.2921 29.379 30.2931 29.3832C30.2968 29.4001 30.3007 29.417 30.3058 29.4338C30.3072 29.4385 30.3092 29.4431 30.3107 29.448C30.3158 29.4636 30.321 29.4793 30.3273 29.4948C30.3442 29.5361 30.3654 29.576 30.3906 29.6136L33.9841 35.0015C33.9842 35.0018 33.9844 35.002 33.9846 35.0023C33.9991 35.0237 34.0149 35.0442 34.0316 35.0639C34.0371 35.0703 34.0429 35.0763 34.0486 35.0825C34.06 35.0949 34.0718 35.107 34.0841 35.1186C34.0914 35.1254 34.0986 35.132 34.106 35.1384C34.1191 35.1496 34.1327 35.1601 34.1466 35.1704C34.1529 35.175 34.1589 35.18 34.1653 35.1843C34.1855 35.198 34.2064 35.2107 34.2281 35.2222C34.2335 35.2251 34.2392 35.2275 34.2447 35.2302C34.2619 35.2388 34.2795 35.2468 34.2976 35.2539C34.3046 35.2567 34.3116 35.2592 34.3187 35.2617C34.3359 35.2678 34.3533 35.2732 34.3711 35.278C34.3784 35.2799 34.3856 35.2818 34.3929 35.2836C34.4112 35.2879 34.4297 35.2911 34.4485 35.2938C34.4553 35.2948 34.462 35.2961 34.4688 35.2969C34.492 35.2995 34.5156 35.301 34.5395 35.3011C34.5414 35.3011 34.5432 35.3015 34.5452 35.3015C34.5456 35.3015 34.546 35.3014 34.5465 35.3014H41.9578V40.0172C41.9578 41.6268 40.6478 42.9363 39.0378 42.9363H4.26838C2.65838 42.9363 1.34846 41.6268 1.34846 40.0172C1.34846 40.0137 1.34801 40.0103 1.34792 40.0068V37.322C1.34792 36.9511 1.04605 36.6484 0.674096 36.6484C0.303042 36.6484 0.000269531 36.9511 0.000269531 37.322V40.0172C0.000269531 40.0242 0.00107812 40.0311 0.00134765 40.038C0.0125781 42.3808 1.9222 44.2834 4.26838 44.2834H39.0378C41.3908 44.2834 43.3051 42.37 43.3054 40.0179C43.3054 40.0179 43.3054 40.0178 43.3054 40.0176V35.3014H43.9789C45.0933 35.3014 46 34.395 46 33.281V22.503C45.9997 21.3889 45.093 20.4826 43.9786 20.4826ZM8.34647 4.93122L20.2363 8.32725C20.2368 8.32743 20.2374 8.32752 20.238 8.3277L28.2068 10.6037H6.9282L8.34647 4.93122ZM41.9574 15.3545C41.1935 14.6366 40.1664 14.1953 39.0376 14.1953C39.0364 14.1953 39.0353 14.1955 39.0341 14.1955H4.26802C2.65793 14.1955 1.34801 12.8861 1.34801 11.2766C1.34801 9.66706 2.65793 8.35761 4.26802 8.35761H6.10065L5.53913 10.6037H4.2682C3.89607 10.6037 3.59437 10.9053 3.59437 11.2773C3.59437 11.6493 3.89607 11.9509 4.2682 11.9509H6.06291C6.06381 11.9509 6.0648 11.951 6.06579 11.951C6.06651 11.951 6.06723 11.9509 6.06786 11.9509H33.0156C33.0165 11.9509 33.0173 11.951 33.0181 11.951C33.0189 11.951 33.0196 11.9509 33.0203 11.9509H38.1383C38.5105 11.9509 38.8122 11.6493 38.8122 11.2773C38.8122 10.9053 38.5105 10.6037 38.1383 10.6037H33.1122L25.2483 8.35761H39.0375C40.6475 8.35761 41.9574 9.66706 41.9574 11.2766V15.3545ZM44.6521 33.2807C44.6521 33.6519 44.3499 33.9539 43.9786 33.9539H34.9049L31.7605 29.2393L34.9049 24.5241H43.9786C43.988 24.5241 43.9972 24.523 44.0065 24.5226C44.2326 24.5195 44.4497 24.4793 44.6521 24.4076V33.2807ZM43.9786 23.1762C43.9739 23.1762 43.9694 23.1768 43.9647 23.1769H43.3051V21.8297H43.9786C44.3499 21.8297 44.6521 22.1318 44.6521 22.503C44.6521 22.8742 44.3499 23.1762 43.9786 23.1762Z" fill="#442751"/>
<path d="M37.2402 26.7704C35.8778 26.7704 34.7695 27.8784 34.7695 29.2403C34.7695 30.6022 35.8778 31.7101 37.2402 31.7101C38.6026 31.7101 39.7109 30.6022 39.7109 29.2403C39.7109 27.8784 38.6026 26.7704 37.2402 26.7704ZM37.2402 30.3629C36.6209 30.3629 36.1172 29.8593 36.1172 29.2403C36.1172 28.6212 36.6209 28.1175 37.2402 28.1175C37.8595 28.1175 38.3633 28.6212 38.3633 29.2403C38.3633 29.8593 37.8595 30.3629 37.2402 30.3629Z" fill="#442751"/>
</svg>
