<svg width="51" height="52" viewBox="0 0 51 52" fill="none" xmlns="http://www.w3.org/2000/svg">
<path d="M47.4298 23.8988L46.1091 18.6179C46.4702 18.5413 46.7411 18.221 46.7411 17.8374V16.9859C46.7411 15.1372 45.2365 13.6333 43.3873 13.6333H37.3716V11.877C37.3716 10.9673 36.6313 10.2273 35.7213 10.2273H5.05737C4.14734 10.2273 3.40704 10.9673 3.40704 11.877V26.352C3.40704 26.7928 3.76454 27.1503 4.20561 27.1503C4.64658 27.1503 5.00418 26.7929 5.00418 26.352V11.877C5.00418 11.8476 5.02798 11.8238 5.05737 11.8238H35.7212C35.7506 11.8238 35.7744 11.8476 35.7744 11.877V26.3522C35.7744 26.793 36.1319 27.1505 36.573 27.1505C37.0139 27.1505 37.3715 26.7931 37.3715 26.3522V25.4473H46.7915C46.7923 25.4473 46.7929 25.4475 46.7936 25.4475C46.7944 25.4475 46.7951 25.4474 46.7958 25.4474C47.9549 25.4482 48.9392 26.2087 49.2773 27.2567H46.7942C46.3532 27.2567 45.9956 27.6141 45.9956 28.055V29.7579C45.9956 31.1371 47.118 32.2591 48.4977 32.2591H49.4028V35.7714H47.3148C46.6288 33.7915 44.7461 32.3654 42.5353 32.3654C40.3245 32.3654 38.4417 33.7915 37.7558 35.7714H37.3713V29.7578C37.3713 29.317 37.0138 28.9595 36.5728 28.9595C36.1318 28.9595 35.7742 29.3169 35.7742 29.7578V35.7712H19.2064C18.5205 33.7913 16.6378 32.3652 14.4269 32.3652C12.2161 32.3652 10.3333 33.7913 9.64747 35.7712H5.05737C5.02798 35.7712 5.00418 35.7474 5.00418 35.718V33.9618H8.46451C8.90548 33.9618 9.26307 33.6044 9.26307 33.1635C9.26307 32.7226 8.90558 32.3652 8.46451 32.3652H0.798568C0.357598 32.3652 0 32.7226 0 33.1635C0 33.6044 0.357498 33.9618 0.798568 33.9618H3.40714V35.718C3.40714 36.6277 4.14744 37.3677 5.05747 37.3677H9.37095C9.37075 37.3854 9.36956 37.4031 9.36956 37.4209C9.36956 40.2085 11.6384 42.4764 14.4269 42.4764C17.2155 42.4764 19.4843 40.2085 19.4843 37.4209C19.4843 37.403 19.4831 37.3854 19.4829 37.3677H37.4793C37.4791 37.3854 37.4779 37.4031 37.4779 37.4209C37.4779 40.2085 39.7467 42.4764 42.5353 42.4764C45.3239 42.4764 47.5927 40.2085 47.5927 37.4209C47.5927 37.403 47.5915 37.3854 47.5913 37.3677H50.2013C50.6423 37.3677 50.9999 37.0103 50.9999 36.5694V28.0548C51 25.9526 49.4484 24.206 47.4298 23.8988ZM37.3716 15.2298H43.3873C44.356 15.2298 45.1441 16.0176 45.1441 16.9859V17.0391H37.3716V15.2298ZM37.3716 23.8508V18.6356H44.4673L45.7716 23.8508H37.3716ZM14.4269 40.8802C12.5189 40.8802 10.9666 39.3285 10.9666 37.4211C10.9666 35.5137 12.5189 33.962 14.4269 33.962C16.3349 33.962 17.8873 35.5137 17.8873 37.4211C17.8873 39.3285 16.3349 40.8802 14.4269 40.8802ZM42.5355 40.8802C40.6275 40.8802 39.0752 39.3285 39.0752 37.4211C39.0752 35.5137 40.6275 33.962 42.5355 33.962C44.4435 33.962 45.9958 35.5137 45.9958 37.4211C45.9958 39.3285 44.4435 40.8802 42.5355 40.8802ZM49.403 30.6625H48.4979C47.9989 30.6625 47.5929 30.2567 47.5929 29.7578V28.8531H49.4029V30.6625H49.403Z" fill="#442751"/>
<path d="M14.4267 35.7714C13.5167 35.7714 12.7764 36.5114 12.7764 37.4211C12.7764 38.3308 13.5167 39.0708 14.4267 39.0708C15.3367 39.0708 16.077 38.3308 16.077 37.4211C16.077 36.5114 15.3367 35.7714 14.4267 35.7714Z" fill="#442751"/>
<path d="M42.5351 35.7714C41.6251 35.7714 40.8848 36.5114 40.8848 37.4211C40.8848 38.3308 41.6251 39.0708 42.5351 39.0708C43.4451 39.0708 44.1854 38.3308 44.1854 37.4211C44.1854 36.5114 43.4451 35.7714 42.5351 35.7714Z" fill="#442751"/>
<path d="M33.1658 32.3656H21.241C20.8 32.3656 20.4424 32.7228 20.4424 33.1635C20.4424 33.6043 20.7999 33.9615 21.241 33.9615H33.1658C33.6068 33.9615 33.9643 33.6043 33.9643 33.1635C33.9643 32.7228 33.6069 32.3656 33.1658 32.3656Z" fill="#442751"/>
<path d="M12.723 28.9596H2.50169C2.06072 28.9596 1.70312 29.3169 1.70312 29.7576C1.70312 30.1984 2.06062 30.5556 2.50169 30.5556H12.723C13.164 30.5556 13.5216 30.1984 13.5216 29.7576C13.5216 29.3169 13.164 28.9596 12.723 28.9596Z" fill="#442751"/>
<path d="M27.7685 18.1243C27.4567 17.8126 26.951 17.8126 26.6392 18.1244L19.5379 25.223L15.8436 21.5302C15.5318 21.2184 15.0262 21.2184 14.7144 21.5302C14.4025 21.8419 14.4025 22.3473 14.7144 22.659L18.9733 26.9164C19.1292 27.0723 19.3336 27.1502 19.5379 27.1502C19.7422 27.1502 19.9467 27.0723 20.1024 26.9164L27.7684 19.2532C28.0803 18.9414 28.0803 18.436 27.7685 18.1243Z" fill="#442751"/>
</svg>
