<svg width="33" height="33" viewBox="0 0 33 33" fill="none" xmlns="http://www.w3.org/2000/svg">
<path d="M17.9455 15.0055V12.9956C17.9455 12.7287 17.729 12.5122 17.4621 12.5122H8.48926C8.22213 12.5122 8.00586 12.7287 8.00586 12.9956V15.0055C8.00586 15.2724 8.22213 15.4889 8.48926 15.4889H17.4621C17.729 15.4889 17.9455 15.2726 17.9455 15.0055ZM16.9787 14.5221H8.97266V13.479H16.9787V14.5221Z" fill="#442751"/>
<path d="M18.3652 27.9923H24.6033C24.8702 27.9923 25.0867 27.7758 25.0867 27.5089V25.4988C25.0867 25.2319 24.8702 25.0154 24.6033 25.0154H18.3652C18.0981 25.0154 17.8818 25.2319 17.8818 25.4988V27.5089C17.8818 27.7758 18.0981 27.9923 18.3652 27.9923ZM18.8486 25.9822H24.1199V27.0255H18.8486V25.9822Z" fill="#442751"/>
<path d="M24.6025 9.58398H8.48926C8.22213 9.58398 8.00586 9.80051 8.00586 10.0674C8.00586 10.3345 8.22213 10.5508 8.48926 10.5508H24.6025C24.8694 10.5508 25.0859 10.3345 25.0859 10.0674C25.0859 9.80051 24.8694 9.58398 24.6025 9.58398Z" fill="#442751"/>
<path d="M14.3361 17.6084C14.3361 17.3415 14.1196 17.125 13.8527 17.125H8.48926C8.22213 17.125 8.00586 17.3415 8.00586 17.6084C8.00586 17.8755 8.22213 18.0918 8.48926 18.0918H13.8527C14.1196 18.0918 14.3361 17.8755 14.3361 17.6084Z" fill="#442751"/>
<path d="M12.9755 19.5635H8.48926C8.22213 19.5635 8.00586 19.7797 8.00586 20.0469C8.00586 20.3138 8.22213 20.5303 8.48926 20.5303H12.9755C13.2427 20.5303 13.4589 20.3138 13.4589 20.0469C13.4589 19.7797 13.2427 19.5635 12.9755 19.5635Z" fill="#442751"/>
<path d="M12.9755 22.002H8.48926C8.22213 22.002 8.00586 22.2185 8.00586 22.4854C8.00586 22.7525 8.22213 22.9688 8.48926 22.9688H12.9755C13.2427 22.9688 13.4589 22.7525 13.4589 22.4854C13.4589 22.2185 13.2427 22.002 12.9755 22.002Z" fill="#442751"/>
<path d="M24.6026 22.002H22.3594C22.0922 22.002 21.876 22.2185 21.876 22.4854C21.876 22.7525 22.0922 22.9688 22.3594 22.9688H24.6026C24.8695 22.9688 25.086 22.7525 25.086 22.4854C25.086 22.2185 24.8695 22.002 24.6026 22.002Z" fill="#442751"/>
<path d="M24.6026 19.5635H22.3594C22.0922 19.5635 21.876 19.78 21.876 20.0469C21.876 20.3138 22.0922 20.5303 22.3594 20.5303H24.6026C24.8695 20.5303 25.086 20.3138 25.086 20.0469C25.086 19.78 24.8695 19.5635 24.6026 19.5635Z" fill="#442751"/>
<path d="M24.6026 17.125H22.3594C22.0922 17.125 21.876 17.3415 21.876 17.6084C21.876 17.8755 22.0922 18.0918 22.3594 18.0918H24.6026C24.8695 18.0918 25.086 17.8755 25.086 17.6084C25.086 17.3415 24.8695 17.125 24.6026 17.125Z" fill="#442751"/>
<path d="M26.5504 11.3717C26.8173 11.3717 27.0338 11.1552 27.0338 10.8883V0.483398C27.0338 0.216522 26.8173 0 26.5504 0C25.0181 0 24.8897 1.93359 24.0488 1.93359C23.2084 1.93359 23.0815 0 21.5475 0C20.0157 0 19.8868 1.93359 19.0467 1.93359C18.2035 1.93359 18.0821 0 16.5453 0C15.0135 0 14.8849 1.93359 14.0445 1.93359C13.2053 1.93359 13.0762 0 11.5437 0C10.0116 0 9.88323 1.93359 9.04282 1.93359C8.19965 1.93359 8.07905 0 6.54199 0C6.27486 0 6.05859 0.216522 6.05859 0.483398V32.5166C6.05859 32.7835 6.27486 33 6.54199 33C8.07401 33 8.20267 31.0664 9.04282 31.0664C9.88575 31.0664 10.0069 33 11.5437 33C13.0754 33 13.2041 31.0664 14.0445 31.0664C14.8877 31.0664 15.0088 33 16.5453 33C18.0773 33 18.2062 31.0664 19.0467 31.0664C19.8898 31.0664 20.0107 33 21.5475 33C23.0798 33 23.2082 31.0664 24.0488 31.0664C24.8895 31.0664 25.0164 33 26.5504 33C26.8173 33 27.0338 32.7835 27.0338 32.5166V12.693C27.0338 12.4259 26.8173 12.2096 26.5504 12.2096C26.2833 12.2096 26.067 12.4259 26.067 12.693V31.7892C25.5844 31.2557 25.2326 30.0996 24.0488 30.0996C22.5168 30.0996 22.3884 32.0332 21.5475 32.0332C20.7083 32.0332 20.5792 30.0996 19.0467 30.0996C17.5146 30.0996 17.3857 32.0332 16.5453 32.0332C15.7024 32.0332 15.5813 30.0996 14.0445 30.0996C12.5125 30.0996 12.3838 32.0332 11.5437 32.0332C10.7002 32.0332 10.5796 30.0996 9.04282 30.0996C7.85976 30.0996 7.50829 31.255 7.02539 31.789V1.21101C7.50728 1.74401 7.8595 2.90039 9.04308 2.90039C10.5748 2.90039 10.7035 0.966797 11.5437 0.966797C12.3871 0.966797 12.5077 2.90039 14.0445 2.90039C15.5765 2.90039 15.7052 0.966797 16.5456 0.966797C17.3887 0.966797 17.5098 2.90039 19.0467 2.90039C20.5787 2.90039 20.7071 0.966797 21.5477 0.966797C22.3884 0.966797 22.5153 2.90039 24.0491 2.90039C25.2326 2.90039 25.5846 1.74426 26.067 1.21076V10.8883C26.067 11.1552 26.2833 11.3717 26.5504 11.3717Z" fill="#442751"/>
<path d="M25.0859 5.49121C25.0859 5.22433 24.8694 5.00781 24.6025 5.00781H12.9755C12.7084 5.00781 12.4921 5.22433 12.4921 5.49121C12.4921 5.75834 12.7084 5.97461 12.9755 5.97461H24.1191V7.01794H8.97266V5.97461H11.1709C11.438 5.97461 11.6543 5.75834 11.6543 5.49121C11.6543 5.22433 11.438 5.00781 11.1709 5.00781H8.48926C8.22213 5.00781 8.00586 5.22433 8.00586 5.49121V7.50134C8.00586 7.76822 8.22213 7.98474 8.48926 7.98474H24.6025C24.8694 7.98474 25.0859 7.76822 25.0859 7.50134V5.49121Z" fill="#442751"/>
</svg>
