<svg width="32" height="32" viewBox="0 0 32 32" fill="none" xmlns="http://www.w3.org/2000/svg">
<g clip-path="url(#clip0)">
<path d="M10.7844 24.4938C10.7763 24.4538 10.7644 24.4144 10.7487 24.3763C10.7331 24.3388 10.7137 24.3025 10.6912 24.2688C10.6687 24.2344 10.6425 24.2025 10.6138 24.1738C10.585 24.145 10.5531 24.1188 10.5188 24.0963C10.485 24.0738 10.4488 24.0544 10.4106 24.0388C10.3731 24.0232 10.3337 24.0107 10.2937 24.0032C10.2131 23.9869 10.13 23.9869 10.05 24.0032C10.01 24.0107 9.97062 24.0232 9.9325 24.0388C9.895 24.0544 9.85875 24.0738 9.825 24.0963C9.79062 24.1188 9.75875 24.145 9.73 24.1738C9.70125 24.2025 9.675 24.2344 9.6525 24.2688C9.62938 24.3025 9.61063 24.3388 9.595 24.3763C9.57938 24.4144 9.56687 24.4538 9.55937 24.4938C9.55125 24.5338 9.54688 24.575 9.54688 24.6157C9.54688 24.6563 9.55125 24.6975 9.55937 24.7375C9.56687 24.7775 9.57938 24.8169 9.595 24.8544C9.61063 24.8925 9.62938 24.9288 9.6525 24.9625C9.675 24.9969 9.70125 25.0288 9.73 25.0575C9.75875 25.0863 9.79062 25.1125 9.825 25.135C9.85875 25.1576 9.895 25.177 9.9325 25.1926C9.97062 25.2082 10.01 25.2207 10.05 25.2282C10.09 25.2363 10.1313 25.2407 10.1719 25.2407C10.2125 25.2407 10.2537 25.2363 10.2937 25.2282C10.3337 25.2207 10.3731 25.2082 10.4106 25.1926C10.4488 25.177 10.485 25.1575 10.5188 25.135C10.5531 25.1125 10.585 25.0863 10.6138 25.0575C10.6425 25.0288 10.6687 24.9969 10.6912 24.9625C10.7137 24.9288 10.7331 24.8925 10.7487 24.8544C10.7644 24.8169 10.7763 24.7775 10.7844 24.7375C10.7925 24.6975 10.7969 24.6563 10.7969 24.6157C10.7969 24.575 10.7925 24.5338 10.7844 24.4938Z" fill="#442751"/>
<path d="M28.7496 24.6866C28.7471 24.6804 28.7446 24.6742 28.742 24.668C28.1667 23.322 26.8176 22.8245 25.221 23.3698L20.8668 24.5739C20.615 23.8115 19.9871 23.1628 19.0992 22.8333C19.0937 22.8313 19.0882 22.8293 19.0826 22.8274L14.2963 21.2029C13.8979 20.688 12.6501 19.3704 10.3136 19.3704C8.68081 19.3704 7.23637 20.4905 6.41 21.7114H0.625C0.279813 21.7114 0 21.9912 0 22.3364V30.2162C0 30.5614 0.279813 30.8412 0.625 30.8412H4.34106C4.68625 30.8412 4.96606 30.5614 4.96606 30.2162V29.6766H6.70875C7.05394 29.6766 7.33375 29.3968 7.33375 29.0516V28.8717C8.34962 28.9604 8.68375 29.153 9.61675 29.691C10.3342 30.1048 11.4187 30.7301 13.3716 31.6082C13.3806 31.6122 13.3898 31.6161 13.399 31.6197C13.7738 31.7672 14.5065 31.9988 15.4098 31.9988C16.0386 31.9988 16.7501 31.8865 17.4805 31.5554L27.1049 28.1094C27.1221 28.1033 27.1389 28.0964 27.1554 28.0888C28.0753 27.6656 29.4459 26.4729 28.7496 24.6866ZM3.71606 29.5912H1.25V22.9614H3.71606V29.5912ZM6.08375 28.4265H4.96606V22.9614H6.08375V28.4265ZM26.656 26.9424L17.0359 30.3868C17.0274 30.3898 17.016 30.3943 17.0077 30.3977C16.9992 30.4011 16.9908 30.4047 16.9825 30.4085C15.6427 31.0243 14.3691 30.6557 13.87 30.4616C11.9836 29.6128 10.9768 29.0322 10.2412 28.608C9.21844 28.0183 8.72563 27.734 7.33375 27.6191V22.5852C7.92619 21.6142 9.07506 20.6203 10.3137 20.6203C12.4378 20.6203 13.3379 22.0019 13.3733 22.0576C13.4496 22.1817 13.5669 22.2753 13.7048 22.3221L18.672 24.008C19.4653 24.3057 19.8846 24.9851 19.6919 25.6626C19.6029 25.9755 19.3974 26.235 19.1133 26.3933C18.8316 26.5502 18.506 26.589 18.1956 26.5032L12.5961 24.7287C12.2668 24.6244 11.9157 24.8066 11.8114 25.1357C11.7071 25.4647 11.8894 25.816 12.2184 25.9203L17.8277 27.6979C17.8337 27.6997 17.8396 27.7015 17.8456 27.7032C18.0696 27.7669 18.2976 27.7984 18.5242 27.7984C18.9391 27.7984 19.3494 27.6927 19.7218 27.4852C20.2976 27.1644 20.7139 26.6385 20.8942 26.0045C20.9086 25.9539 20.9213 25.9032 20.9324 25.8526L25.6251 24.5526C26.3028 24.3211 27.1925 24.2377 27.5886 25.15C27.9986 26.221 26.933 26.8102 26.656 26.9424Z" fill="#442751"/>
<path d="M22.4412 8.22132C22.4331 8.18132 22.4213 8.14194 22.405 8.10382C22.3894 8.06632 22.3706 8.03007 22.3475 7.99632C22.325 7.96194 22.2988 7.93007 22.27 7.90132C22.2413 7.87257 22.2094 7.84632 22.175 7.82382C22.1412 7.80132 22.105 7.78194 22.0675 7.76632C22.0294 7.75069 21.99 7.73819 21.9506 7.73069C21.87 7.71444 21.7869 7.71444 21.7062 7.73069C21.6662 7.73819 21.6269 7.75069 21.5894 7.76632C21.5512 7.78194 21.515 7.80132 21.4813 7.82382C21.4469 7.84632 21.415 7.87257 21.3862 7.90132C21.3575 7.93007 21.3313 7.96194 21.3088 7.99632C21.2863 8.03007 21.2669 8.06632 21.2512 8.10382C21.2356 8.14194 21.2231 8.18132 21.2156 8.22132C21.2075 8.26132 21.2031 8.30257 21.2031 8.34319C21.2031 8.38382 21.2075 8.42507 21.2156 8.46507C21.2231 8.50507 21.2356 8.54444 21.2512 8.58194C21.2669 8.62007 21.2863 8.65632 21.3088 8.69007C21.3313 8.72444 21.3575 8.75632 21.3862 8.78507C21.415 8.81382 21.4469 8.84007 21.4813 8.86257C21.515 8.88507 21.5512 8.90444 21.5894 8.92007C21.6269 8.93569 21.6662 8.94757 21.7062 8.95569C21.7462 8.96382 21.7875 8.96819 21.8281 8.96819C21.8687 8.96819 21.91 8.96382 21.9506 8.95569C21.99 8.94757 22.0294 8.93569 22.0675 8.92007C22.105 8.90444 22.1412 8.88507 22.175 8.86257C22.2094 8.84007 22.2413 8.81382 22.27 8.78507C22.2988 8.75632 22.325 8.72444 22.3475 8.69007C22.3706 8.65632 22.3894 8.62007 22.405 8.58194C22.4213 8.54444 22.4331 8.50507 22.4412 8.46507C22.4494 8.42507 22.4531 8.38382 22.4531 8.34319C22.4531 8.30257 22.4494 8.26132 22.4412 8.22132Z" fill="#442751"/>
<path d="M31.3758 2.1182H27.6597C27.3145 2.1182 27.0347 2.39801 27.0347 2.7432V3.28282H25.292C24.9468 3.28282 24.667 3.56264 24.667 3.90782V4.0877C23.6511 3.99901 23.317 3.80639 22.3841 3.26839C21.6666 2.85464 20.5821 2.22932 18.6292 1.35126C18.6201 1.34714 18.611 1.34332 18.6017 1.3397C17.966 1.08957 16.3 0.597449 14.5205 1.40389L12.0055 2.30439L9.88559 0.184512C9.64152 -0.0595508 9.24577 -0.0595508 9.00171 0.184512L2.04184 7.14433C1.81671 7.36951 1.77352 7.75995 2.04184 8.02826L13.9348 19.9212C14.1251 20.1116 14.5707 20.1691 14.8187 19.9212L21.1728 13.5672C21.338 13.5815 21.5094 13.5891 21.6871 13.5891C23.32 13.5891 24.7643 12.469 25.5906 11.2481H31.3758C31.721 11.2481 32.0008 10.9683 32.0008 10.6231V2.7432C32.0008 2.39801 31.721 2.1182 31.3758 2.1182ZM9.44359 1.51032L10.8681 2.93482C10.4446 3.1967 9.95509 3.33682 9.44359 3.33682C8.93202 3.33682 8.44252 3.19676 8.01909 2.93482L9.44359 1.51032ZM4.79221 9.01083L3.36771 7.58626L4.79221 6.16176C5.05409 6.5852 5.19421 7.07476 5.19421 7.58626C5.19421 8.09776 5.05415 8.58733 4.79221 9.01083ZM14.3768 18.5953L12.9525 17.1711C13.8221 16.6345 14.9313 16.6345 15.801 17.1711L14.3768 18.5953ZM16.7015 16.2707C15.3203 15.2688 13.4332 15.2688 12.0521 16.2707L5.69265 9.9112C6.18071 9.23995 6.44421 8.43364 6.44421 7.58626C6.44421 6.73882 6.18077 5.93258 5.69265 5.26132L7.11871 3.83532C7.78996 4.32339 8.59621 4.58689 9.44365 4.58689C10.2911 4.58689 11.0973 4.32339 11.7686 3.83532L13.1204 5.18714C12.8287 5.2302 12.5443 5.32632 12.279 5.47414C11.831 5.72376 11.4795 6.09758 11.2606 6.54983C10.5556 6.68039 9.90296 7.0217 9.39096 7.53364C8.0019 8.92276 8.0019 11.183 9.39102 12.5721C10.0855 13.2666 10.9978 13.6139 11.9102 13.6139C12.8225 13.6139 13.7349 13.2666 14.4295 12.5721C14.8813 12.1202 15.1979 11.5648 15.3565 10.9596L17.4667 11.6758C17.2291 12.7763 17.4725 13.934 18.1288 14.8434L16.7015 16.2707ZM12.9016 10.1261C12.9071 10.1281 12.9126 10.1301 12.9181 10.132L14.1679 10.5562C14.0735 10.9821 13.86 11.3738 13.5456 11.6882C12.6438 12.5898 11.1766 12.59 10.275 11.6882C9.37321 10.7865 9.37321 9.31933 10.275 8.41757C10.4925 8.19995 10.7491 8.02989 11.0288 7.91458C11.1442 8.8747 11.8355 9.73051 12.9016 10.1261ZM19.0293 13.9428C18.7881 13.5496 18.6516 13.101 18.63 12.643C18.9294 12.8595 19.2953 13.0715 19.7323 13.2398L19.0293 13.9428ZM24.667 10.374C24.0746 11.3451 22.9257 12.339 21.6871 12.339C21.4553 12.339 21.2381 12.3225 21.0351 12.2931C21.0343 12.293 21.0335 12.2929 21.0326 12.2928C19.6829 12.0967 18.9568 11.3296 18.7175 11.0258C18.7048 11.0071 18.6505 10.936 18.6424 10.9242C18.5696 10.7941 18.4502 10.6895 18.298 10.6378L13.3287 8.9512C12.5357 8.65357 12.1165 7.97451 12.3086 7.29726C12.3088 7.29682 12.3089 7.29639 12.309 7.29595C12.3092 7.29545 12.3093 7.29489 12.3095 7.29439C12.3988 6.98251 12.6039 6.72383 12.8874 6.56589C13.169 6.40895 13.4946 6.37001 13.8051 6.45608L19.4046 8.23051C19.7338 8.33495 20.085 8.15258 20.1893 7.82351C20.2935 7.49445 20.1113 7.1432 19.7823 7.03889L15.3288 5.62764L15.29 5.58876C15.2896 5.58839 15.2892 5.58795 15.2888 5.58757L12.9831 3.28195L14.9649 2.57232C14.9716 2.56989 14.9798 2.56682 14.9865 2.56414C14.9881 2.56345 14.9914 2.5622 14.993 2.56151C15.0015 2.55807 15.0099 2.55445 15.0182 2.55064C16.358 1.93489 17.6315 2.30345 18.1306 2.49757C20.0171 3.34639 21.024 3.92695 21.7596 4.35114C22.7823 4.94095 23.2751 5.22514 24.667 5.34008V10.374ZM27.0347 9.99801H25.917V4.53282H27.0347V9.99801ZM30.7508 9.99801H28.2847V3.3682H30.7508V9.99801Z" fill="#442751"/>
</g>
<defs>
<clipPath id="clip0">
<rect width="32" height="32" fill="white"/>
</clipPath>
</defs>
</svg>
