<svg width="33" height="33" viewBox="0 0 33 33" fill="none" xmlns="http://www.w3.org/2000/svg">
<g clip-path="url(#clip0)">
<path d="M32.8441 13.0391C32.4318 12.0014 31.2559 11.4942 30.2177 11.9064C30.1644 11.9276 30.1118 11.9511 30.0605 11.9767L28.5606 12.7275L25.4986 8.64703C25.4608 8.59659 25.4147 8.55291 25.3622 8.51792L22.0219 6.29181C21.9548 6.24707 21.8788 6.21744 21.7992 6.20499L14.5617 5.09193C14.3867 5.06501 14.2094 5.12289 14.084 5.24776L9.93361 9.38109C9.23658 10.0753 9.23443 11.2029 9.92888 11.8997C9.93048 11.9013 9.93201 11.9029 9.93361 11.9044C10.5984 12.5645 11.6602 12.5995 12.3671 11.9845L15.7303 9.04272L18.7143 9.89532L16.2169 15.381L12.3854 20.8522L7.8314 24.9488C7.00201 25.661 6.90716 26.9105 7.61957 27.7395C8.33197 28.5686 9.5819 28.6634 10.4113 27.9513L15.4285 23.8441L18.4276 20.8461L22.2312 23.6983L21.385 29.602C21.3057 30.154 21.4703 30.7133 21.8359 31.1346C22.2115 31.5641 22.7568 31.8069 23.3274 31.7986C24.2726 31.7999 25.0851 31.1285 25.2615 30.2002L26.7168 22.44C26.7529 22.2467 26.6843 22.0487 26.5364 21.9191L22.3665 18.275L24.1413 13.3964L27.4182 17.1402C27.5786 17.3232 27.8392 17.3809 28.0618 17.2827L31.8208 15.6209C32.8091 15.1832 33.2644 14.0347 32.8441 13.0391ZM31.3705 14.6019L27.9861 16.0978L24.3585 11.9534C24.1559 11.7221 23.8042 11.6989 23.5728 11.9014C23.5023 11.9632 23.4485 12.0417 23.4165 12.1298L21.1896 18.2516C21.1111 18.4674 21.1732 18.7092 21.346 18.8604L25.561 22.5474L24.1625 29.9954C24.079 30.4074 23.7104 30.699 23.2901 30.6855C22.8418 30.6854 22.4784 30.322 22.4786 29.8739C22.4786 29.8356 22.4813 29.7974 22.4867 29.7595L23.3775 23.5297C23.4064 23.3284 23.3231 23.1274 23.1604 23.0054L18.7065 19.6663C18.4849 19.5002 18.1748 19.5222 17.9789 19.718L14.6797 23.0199L9.70368 27.0898C9.33575 27.3946 8.79037 27.3434 8.48549 26.9756C8.18813 26.6169 8.22849 26.0871 8.57686 25.7775L13.1777 21.6381C13.2091 21.6099 13.2371 21.5782 13.2612 21.5434L17.1583 15.9782C17.178 15.9503 17.1949 15.9207 17.2089 15.8897L19.9926 9.76788C20.1198 9.48801 19.996 9.15813 19.716 9.03096C19.6911 9.01963 19.6654 9.01016 19.6391 9.00265L15.742 7.8896C15.5601 7.83694 15.364 7.88076 15.222 8.00591L11.6311 11.147C11.3611 11.3991 10.9377 11.3848 10.6855 11.115C10.4332 10.8451 10.4475 10.4219 10.7175 10.1697L14.6703 6.23448L21.5074 7.28632L24.6635 9.39111L27.9482 13.7671C28.1096 13.9823 28.4018 14.0514 28.6425 13.9313L30.5582 12.9712C30.7835 12.8579 31.0462 12.8444 31.2819 12.934C31.5343 13.0325 31.7314 13.2355 31.8225 13.4905C31.9958 13.9222 31.7959 14.4136 31.3705 14.6019Z" fill="#442751"/>
<path d="M10.5783 4.52844H3.34082V5.6419H10.5783V4.52844Z" fill="#442751"/>
<path d="M2.22674 4.52844H1.11328V5.6419H2.22674V4.52844Z" fill="#442751"/>
<path d="M6.68084 8.98059H5.56738V10.094H6.68084V8.98059Z" fill="#442751"/>
<path d="M4.45383 8.98059H0V10.094H4.45383V8.98059Z" fill="#442751"/>
<path d="M8.35049 13.4329H2.7832V14.5463H8.35049V13.4329Z" fill="#442751"/>
<path d="M10.5777 17.8851H1.11328V18.9986H10.5777V17.8851Z" fill="#442751"/>
<path d="M6.68039 22.3374H2.22656V23.4509H6.68039V22.3374Z" fill="#442751"/>
<path d="M1.11346 22.3374H0V23.4509H1.11346V22.3374Z" fill="#442751"/>
<path d="M5.01038 26.7896H1.11328V27.903H5.01038V26.7896Z" fill="#442751"/>
<path d="M27.8368 1.1897H25.3315C23.6404 1.1897 22.2695 2.56008 22.2695 4.2506C22.2695 5.94112 23.6404 7.3115 25.3315 7.3115C27.0227 7.3115 28.3935 5.94112 28.3935 4.2506V1.74622C28.3935 1.43888 28.1443 1.1897 27.8368 1.1897ZM27.2801 4.2506C27.2843 5.32205 26.4188 6.19406 25.347 6.19824C24.7459 6.2006 24.1777 5.92443 23.8083 5.45047C24.7351 4.53471 25.9773 4.00816 27.2801 3.97901V4.2506ZM27.2801 2.86596C25.8541 2.89191 24.4806 3.40822 23.3908 4.32796C23.3908 4.3018 23.383 4.27731 23.383 4.2506C23.383 3.17483 24.2554 2.30275 25.3315 2.30275H27.2801V2.86596Z" fill="#442751"/>
</g>
<defs>
<clipPath id="clip0">
<rect width="33" height="32.9881" fill="white"/>
</clipPath>
</defs>
</svg>
