<svg width="34" height="30" viewBox="0 0 34 30" fill="none" xmlns="http://www.w3.org/2000/svg">
<path d="M32.9753 21.4193C32.746 20.5842 32.0455 19.9627 31.1887 19.8342V7.28028H32.283C32.5852 7.28028 32.8302 7.03538 32.8302 6.73331V1.26359C32.8302 0.961256 32.5852 0.716614 32.283 0.716614H8.20755C7.90537 0.716614 7.66038 0.961256 7.66038 1.26359V6.73331C7.66038 7.03538 7.90537 7.28028 8.20755 7.28028H9.30188V18.2197H8.75471C7.39668 18.2165 6.06642 18.6057 4.92453 19.3404V16.5788C4.92453 16.2765 4.67953 16.0318 4.37736 16.0318H0.54717C0.244997 16.0318 0 16.2765 0 16.5788V29.1592C0 29.4613 0.244997 29.7062 0.54717 29.7062H4.37736C4.67953 29.7062 4.92453 29.4613 4.92453 29.1592V26.3979C6.06669 27.1321 7.39668 27.5212 8.75471 27.5183H17.7392C18.3617 27.5172 18.9813 27.4355 19.5827 27.2752L31.4294 24.1029C32.5951 23.7853 33.2857 22.5867 32.9753 21.4193ZM8.75471 1.81056H31.7358V6.18634H8.75471V1.81056ZM10.3962 7.28028H30.0943V19.9282L23.7439 21.6306C23.4823 21.0072 22.9488 20.539 22.2966 20.3604L14.924 18.3837C14.5088 18.2745 14.0813 18.2192 13.652 18.2197H10.3962V7.28028ZM3.83019 28.6122H1.09434V17.1258H3.83019V28.6122ZM31.1454 23.0461L19.3008 26.2184C18.7913 26.3544 18.2666 26.4235 17.7392 26.4243H8.75471C7.45198 26.4273 6.18371 26.0047 5.14334 25.2209L4.92453 25.0569V20.6811L5.14334 20.5169C6.18371 19.733 7.45198 19.3102 8.75471 19.3137H13.652C13.9862 19.3134 14.3194 19.3567 14.6429 19.4421L22.0132 21.4172C22.4487 21.5371 22.7674 21.9102 22.8171 22.3592C22.823 22.3816 22.8302 22.4038 22.839 22.4254C22.8326 22.4489 22.8278 22.4727 22.8246 22.497C22.8251 22.5859 22.8131 22.6746 22.7885 22.76C22.6597 23.2368 22.2277 23.5682 21.7337 23.569C21.6372 23.5698 21.5416 23.5575 21.4486 23.533L16.7977 22.2862C16.6069 22.2296 16.4004 22.2809 16.2583 22.4203C16.1164 22.5597 16.0611 22.7651 16.1143 22.9569C16.1674 23.1484 16.3205 23.2963 16.5142 23.3425L21.1652 24.5898C21.3508 24.6387 21.5424 24.6632 21.7348 24.663C22.7185 24.6624 23.5807 24.0046 23.8406 23.056C23.8711 22.9462 23.8917 22.834 23.9026 22.7208L30.5731 20.9327C30.6207 20.9207 30.6722 20.9084 30.7209 20.9004C31.2656 20.8301 31.7778 21.1744 31.9186 21.7048C31.9432 21.7972 31.9555 21.8926 31.9547 21.9882C31.9555 22.4833 31.6236 22.9171 31.1454 23.0461Z" fill="#442751"/>
<path d="M17.5101 9.46861H22.9818C23.2839 9.46861 23.5289 9.22361 23.5289 8.92144C23.5289 8.619 23.2839 8.37427 22.9818 8.37427H17.5101C17.2079 8.37427 16.9629 8.619 16.9629 8.92144C16.9629 9.22361 17.2079 9.46861 17.5101 9.46861Z" fill="#442751"/>
</svg>
