<svg width="31" height="33" viewBox="0 0 31 33" fill="none" xmlns="http://www.w3.org/2000/svg">
<path d="M26.8288 25.3286L26.087 24.741C28.0763 22.2317 29.1278 19.2085 29.1278 15.9982C29.1278 12.2348 27.6623 8.69734 25.0014 6.03743C22.3405 3.37739 18.8017 1.91245 15.0371 1.91245C12.1978 1.91245 9.46146 2.75211 7.12391 4.34056L6.5918 3.5581C9.08691 1.86249 12.0072 0.966309 15.0371 0.966309C19.0545 0.966309 22.831 2.52965 25.6708 5.36832C28.5105 8.20699 30.0744 11.9821 30.0744 15.9981C30.0744 19.424 28.952 22.6504 26.8288 25.3286Z" fill="#442751"/>
<path d="M3.51542 32.9549V25.6504C1.24715 22.9499 0 19.5294 0 15.9982C0 11.612 1.90924 7.45554 5.23814 4.59473L5.85512 5.31222C2.73564 7.99313 0.946481 11.888 0.946481 15.9982C0.946481 19.3621 2.15432 22.6187 4.3475 25.1681L4.4619 25.3011V31.0738C5.06651 30.5425 6.00517 29.6327 7.13792 28.2493L7.36501 27.9721L7.6935 28.1154C9.51245 28.9093 13.1043 30.084 15.0372 30.084C18.6739 30.084 22.1256 28.7041 24.7565 26.1984L25.4094 26.8834C22.6017 29.5575 18.9182 31.0301 15.0373 31.0301C13.059 31.0301 9.65442 29.9581 7.64371 29.1224C5.66298 31.4889 4.31267 32.4152 4.25411 32.4549L3.51542 32.9549Z" fill="#442751"/>
<path d="M17.0173 22.4957H13.0576V4.48059H17.0173V22.4957ZM14.0041 21.5496H16.0708V5.42673H14.0041V21.5496Z" fill="#442751"/>
<path d="M15.0375 27.516C13.9458 27.516 13.0576 26.6281 13.0576 25.5369C13.0576 24.4455 13.9458 23.5577 15.0375 23.5577C16.1291 23.5577 17.0173 24.4456 17.0173 25.5369C17.0173 26.6281 16.1291 27.516 15.0375 27.516ZM15.0375 24.5038C14.4677 24.5038 14.0041 24.9672 14.0041 25.5368C14.0041 26.1064 14.4677 26.5698 15.0375 26.5698C15.6073 26.5698 16.0708 26.1064 16.0708 25.5368C16.0708 24.9672 15.6072 24.5038 15.0375 24.5038Z" fill="#442751"/>
<path d="M22.8794 25.1121L22.2617 24.3952C24.7106 22.287 26.115 19.2265 26.115 15.9983H27.0614C27.0615 19.5022 25.5372 22.8241 22.8794 25.1121Z" fill="#442751"/>
<path d="M3.96015 15.9982H3.01367C3.01367 11.5967 5.41742 7.55178 9.28682 5.44202L9.74006 6.2726C6.17492 8.21654 3.96015 11.9432 3.96015 15.9982Z" fill="#442751"/>
<path d="M3.98878 17.0312H2.98438V17.9777H3.98878V17.0312Z" fill="#442751"/>
<path d="M3.98878 19.0394H2.98438V19.9859H3.98878V19.0394Z" fill="#442751"/>
<path d="M27.0903 14.0192H26.0859V14.9656H27.0903V14.0192Z" fill="#442751"/>
<path d="M27.0903 12.011H26.0859V12.9575H27.0903V12.011Z" fill="#442751"/>
</svg>
