<svg width="33" height="27" viewBox="0 0 33 27" fill="none" xmlns="http://www.w3.org/2000/svg">
<path d="M32.8389 14.7713L26.0112 7.94605C25.8583 7.79228 25.6764 7.67037 25.4761 7.58741C25.2757 7.50445 25.0609 7.46209 24.8441 7.46278H15.4V8.56238H18.15V16.8094H19.25V8.56238H24.8441C24.9164 8.56232 24.988 8.57652 25.0548 8.60416C25.1216 8.63181 25.1823 8.67235 25.2335 8.72347L26.1723 9.66198H23.65C23.3583 9.66198 23.0785 9.77783 22.8722 9.98405C22.6659 10.1903 22.55 10.47 22.55 10.7616V15.7098C22.55 16.0014 22.6659 16.2811 22.8722 16.4873C23.0785 16.6936 23.3583 16.8094 23.65 16.8094H31.9V21.2078C31.9 21.3536 31.8421 21.4935 31.7389 21.5966C31.6358 21.6997 31.4959 21.7576 31.35 21.7576H30.206C30.0745 20.8423 29.6173 20.005 28.9182 19.3994C28.2191 18.7937 27.3251 18.4604 26.4 18.4604C25.4749 18.4604 24.5809 18.7937 23.8818 19.3994C23.1827 20.005 22.7255 20.8423 22.594 21.7576H14.806C14.6745 20.8423 14.2173 20.005 13.5182 19.3994C12.8191 18.7937 11.9251 18.4604 11 18.4604C10.0749 18.4604 9.18087 18.7937 8.4818 19.3994C7.78272 20.005 7.32551 20.8423 7.194 21.7576H6.05C5.90413 21.7576 5.76424 21.6997 5.66109 21.5966C5.55795 21.4935 5.5 21.3536 5.5 21.2078V16.2596H4.4V21.2078C4.4 21.6453 4.57384 22.0648 4.88327 22.3741C5.19271 22.6834 5.61239 22.8572 6.05 22.8572H7.194C7.31405 23.6932 7.7067 24.4662 8.31105 25.0564H0V26.156H26.4C27.3248 26.1543 28.2182 25.8201 28.9169 25.2144C29.6157 24.6088 30.0732 23.7721 30.206 22.8572H31.35C31.7876 22.8572 32.2073 22.6834 32.5167 22.3741C32.8262 22.0648 33 21.6453 33 21.2078V15.16C33 15.0142 32.942 14.8744 32.8389 14.7713ZM8.25 22.3074C8.25 21.7637 8.41128 21.2322 8.71346 20.7802C9.01563 20.3281 9.44512 19.9757 9.94762 19.7677C10.4501 19.5596 11.0031 19.5052 11.5365 19.6112C12.0699 19.7173 12.5599 19.9791 12.9445 20.3636C13.3291 20.748 13.5911 21.2379 13.6972 21.7711C13.8033 22.3044 13.7488 22.8571 13.5407 23.3594C13.3325 23.8617 12.9801 24.2911 12.5278 24.5931C12.0756 24.8952 11.5439 25.0564 11 25.0564C10.2709 25.0556 9.57196 24.7656 9.05642 24.2503C8.54088 23.7349 8.25087 23.0362 8.25 22.3074ZM13.689 25.0564C14.2933 24.4662 14.686 23.6932 14.806 22.8572H22.594C22.7141 23.6932 23.1067 24.4662 23.7111 25.0564H13.689ZM26.4 25.0564C25.8561 25.0564 25.3244 24.8952 24.8722 24.5931C24.4199 24.2911 24.0675 23.8617 23.8593 23.3594C23.6512 22.8571 23.5967 22.3044 23.7028 21.7711C23.809 21.2379 24.0709 20.748 24.4555 20.3636C24.8401 19.9791 25.3301 19.7173 25.8635 19.6112C26.3969 19.5052 26.9499 19.5596 27.4524 19.7677C27.9549 19.9757 28.3844 20.3281 28.6865 20.7802C28.9887 21.2322 29.15 21.7637 29.15 22.3074C29.1491 23.0362 28.8591 23.7349 28.3436 24.2503C27.828 24.7656 27.1291 25.0556 26.4 25.0564ZM23.65 15.7098V10.7616H27.2723L31.9 15.3876V15.7098H23.65Z" fill="#442751"/>
<path d="M11.5502 21.7576H10.4502V22.8576H11.5502V21.7576Z" fill="#442751"/>
<path d="M26.9496 21.7576H25.8496V22.8576H26.9496V21.7576Z" fill="#442751"/>
<path d="M2.75 20.1082H0V21.2082H2.75V20.1082Z" fill="#442751"/>
<path d="M2.74961 17.9091H1.09961V19.0091H2.74961V17.9091Z" fill="#442751"/>
<path d="M2.75039 15.7097H1.65039V16.8097H2.75039V15.7097Z" fill="#442751"/>
<path d="M7.15 15.1601C8.56414 15.1601 9.94652 14.7409 11.1223 13.9555C12.2981 13.1702 13.2146 12.0539 13.7557 10.7479C14.2969 9.44184 14.4385 8.00473 14.1626 6.61826C13.8867 5.2318 13.2058 3.95825 12.2058 2.95867C11.2059 1.95908 9.93186 1.27836 8.5449 1.00257C7.15793 0.726788 5.7203 0.868331 4.41381 1.4093C3.10732 1.95027 1.99064 2.86638 1.20499 4.04176C0.41934 5.21715 0 6.59903 0 8.01266C0.00218349 9.9076 0.756186 11.7243 2.0966 13.0642C3.43701 14.4042 5.25437 15.1579 7.15 15.1601ZM7.15 1.96484C8.34658 1.96484 9.51628 2.31954 10.5112 2.98408C11.5061 3.64862 12.2816 4.59316 12.7395 5.69826C13.1974 6.80335 13.3172 8.01937 13.0838 9.19253C12.8503 10.3657 12.2741 11.4433 11.428 12.2891C10.5819 13.1349 9.50388 13.7109 8.3303 13.9443C7.15671 14.1776 5.94026 14.0579 4.83477 13.6001C3.72927 13.1424 2.78439 12.3672 2.11961 11.3726C1.45483 10.3781 1.1 9.2088 1.1 8.01266C1.10189 6.40926 1.73991 4.87207 2.87409 3.73829C4.00828 2.60452 5.54602 1.96673 7.15 1.96484Z" fill="#442751"/>
<path d="M7.1498 12.96C7.29566 12.96 7.43553 12.9021 7.53865 12.7989C7.89285 12.4449 10.9998 9.27086 10.9998 6.91221C10.9998 5.8915 10.5942 4.91259 9.87217 4.19083C9.15015 3.46908 8.17089 3.0636 7.1498 3.0636C6.12872 3.0636 5.14946 3.46908 4.42744 4.19083C3.70543 4.91259 3.2998 5.8915 3.2998 6.91221C3.2998 9.27086 6.40675 12.4449 6.76095 12.7989C6.86408 12.9021 7.00395 12.96 7.1498 12.96ZM7.1498 4.1632C7.87888 4.16408 8.57785 4.45398 9.09338 4.96933C9.60892 5.48468 9.89893 6.1834 9.89981 6.91221C9.89981 8.323 8.16895 10.503 7.1498 11.6136C6.13065 10.503 4.3998 8.323 4.3998 6.91221C4.40068 6.1834 4.69069 5.48468 5.20623 4.96933C5.72176 4.45398 6.42073 4.16408 7.1498 4.1632Z" fill="#442751"/>
<path d="M8.8 6.91296C8.8 6.58673 8.70323 6.26784 8.52192 5.9966C8.34062 5.72535 8.08293 5.51394 7.78143 5.3891C7.47993 5.26426 7.14817 5.2316 6.8281 5.29524C6.50803 5.35889 6.21403 5.51598 5.98327 5.74665C5.75252 5.97732 5.59537 6.27122 5.53171 6.59117C5.46804 6.91112 5.50071 7.24277 5.6256 7.54415C5.75048 7.84554 5.96197 8.10315 6.23331 8.28438C6.50465 8.46562 6.82366 8.56236 7.15 8.56236C7.58761 8.56236 8.00729 8.38858 8.31673 8.07926C8.62616 7.76994 8.8 7.3504 8.8 6.91296ZM6.6 6.91296C6.6 6.80421 6.63226 6.69792 6.69269 6.6075C6.75313 6.51709 6.83902 6.44662 6.93952 6.405C7.04002 6.36339 7.15061 6.3525 7.2573 6.37372C7.36399 6.39493 7.46199 6.4473 7.53891 6.52419C7.61583 6.60108 7.66821 6.69904 7.68943 6.80569C7.71065 6.91234 7.69976 7.02289 7.65813 7.12335C7.61651 7.22382 7.54601 7.30969 7.45556 7.3701C7.36512 7.43051 7.25878 7.46276 7.15 7.46276C7.00413 7.46276 6.86424 7.40483 6.76109 7.30172C6.65795 7.19862 6.6 7.05877 6.6 6.91296Z" fill="#442751"/>
<path d="M23.1004 17.9091H20.9004V19.0091H23.1004V17.9091Z" fill="#442751"/>
</svg>
