<svg width="31" height="24" viewBox="0 0 31 24" fill="none" xmlns="http://www.w3.org/2000/svg">
<path d="M24.9792 17.1383C24.1729 17.1383 23.4068 17.454 22.829 18.025C22.2511 18.6027 21.9285 19.355 21.9285 20.1611C21.9285 20.9671 22.2443 21.7194 22.829 22.2971C23.4136 22.8681 24.1729 23.1838 24.9792 23.1838C26.6323 23.1838 27.9762 21.8269 27.9762 20.1611C27.9762 18.4952 26.6323 17.1383 24.9792 17.1383ZM24.9792 21.8403C24.0519 21.8403 23.2724 21.0746 23.2724 20.1611C23.2724 19.2475 24.0519 18.4818 24.9792 18.4818C25.8931 18.4818 26.6323 19.2341 26.6323 20.1611C26.6323 21.088 25.8931 21.8403 24.9792 21.8403ZM25.7587 7.06925C25.6378 6.95506 25.4765 6.8946 25.3085 6.8946H21.8613C21.4918 6.8946 21.1894 7.19688 21.1894 7.56632V13.0744C21.1894 13.4439 21.4918 13.7461 21.8613 13.7461H27.3311C27.7007 13.7461 28.0031 13.4439 28.0031 13.0744V9.38668C28.0031 9.1986 27.9224 9.01724 27.7813 8.88961L25.7587 7.06925ZM26.6591 12.4027H22.5333V8.23133H25.0464L26.6591 9.68224V12.4027ZM8.56994 17.1383C7.76359 17.1383 6.99756 17.454 6.41967 18.025C5.84178 18.6027 5.51924 19.355 5.51924 20.1611C5.51924 20.9671 5.83506 21.7194 6.41967 22.2971C7.00428 22.8681 7.76359 23.1838 8.56994 23.1838C10.223 23.1838 11.5669 21.8269 11.5669 20.1611C11.5669 18.4952 10.223 17.1383 8.56994 17.1383ZM8.56994 21.8403C7.64264 21.8403 6.86316 21.0746 6.86316 20.1611C6.86316 19.2475 7.64264 18.4818 8.56994 18.4818C9.48381 18.4818 10.223 19.2341 10.223 20.1611C10.223 21.088 9.48381 21.8403 8.56994 21.8403ZM4.08797 17.9645H2.73732V16.1778C2.73732 15.8083 2.43494 15.506 2.06536 15.506C1.69578 15.506 1.3934 15.8083 1.3934 16.1778V18.6362C1.3934 19.0057 1.69578 19.308 2.06536 19.308H4.08797C4.45754 19.308 4.75993 19.0057 4.75993 18.6362C4.75993 18.2668 4.45754 17.9645 4.08797 17.9645ZM7.49481 14.3037C7.49481 13.9342 7.19242 13.6319 6.82285 13.6319H-1.32804C-1.69762 13.6319 -2 13.9342 -2 14.3037C-2 14.6731 -1.69762 14.9754 -1.32804 14.9754H6.82285C7.19242 14.9754 7.49481 14.6798 7.49481 14.3037ZM0.0360413 11.8788L8.18693 11.9258C8.55651 11.9258 8.85889 11.6302 8.86561 11.2608C8.87233 10.8846 8.56994 10.5823 8.20037 10.5823L0.0494807 10.5353C0.0427611 10.5353 0.0427611 10.5353 0.0427611 10.5353C-0.326818 10.5353 -0.6292 10.8309 -0.6292 11.2003C-0.635919 11.5765 -0.333537 11.8788 0.0360413 11.8788ZM1.40684 8.82915H9.55773C9.92731 8.82915 10.2297 8.52688 10.2297 8.15744C10.2297 7.78799 9.92731 7.48572 9.55773 7.48572H1.40684C1.03726 7.48572 0.734881 7.78799 0.734881 8.15744C0.734881 8.52688 1.03726 8.82915 1.40684 8.82915ZM30.7514 7.92233L25.9401 3.93904C25.8192 3.83828 25.6713 3.78455 25.5101 3.78455H19.8522V1.36636C19.8522 0.996915 19.5498 0.694641 19.1802 0.694641H2.06536C1.69578 0.694641 1.3934 0.996915 1.3934 1.36636V6.28334C1.3934 6.65279 1.69578 6.95506 2.06536 6.95506C2.43494 6.95506 2.73732 6.65279 2.73732 6.28334V2.03808H18.515V17.9645H13.0049C12.6353 17.9645 12.3329 18.2668 12.3329 18.6362C12.3329 19.0057 12.6353 19.308 13.0049 19.308H21.2095C21.5791 19.308 21.8815 19.0057 21.8815 18.6362C21.8815 18.2668 21.5791 17.9645 21.2095 17.9645H19.8589V5.12799H25.2749L29.6561 8.75527L29.609 17.9511H28.9102C28.5406 17.9511 28.2382 18.2534 28.2382 18.6228C28.2382 18.9923 28.5406 19.2945 28.9102 19.2945H30.2743C30.6439 19.2945 30.9462 18.999 30.9462 18.6295L31 8.44627C30.9933 8.24476 30.9059 8.04996 30.7514 7.92233Z" fill="#442751"/>
</svg>
