<svg width="33" height="33" viewBox="0 0 33 33" fill="none" xmlns="http://www.w3.org/2000/svg">
<path d="M32.124 11.3258L21.6745 0.876402C21.1104 0.312373 20.3582 0.00170898 19.5562 0.00170898C18.7544 0.00170898 18.0021 0.312244 17.438 0.876273L0.874693 17.4396C0.310664 18.0037 0 18.7559 0 19.5578C0 20.3597 0.310664 21.112 0.874693 21.676L2.16324 22.9646C2.16337 22.9646 2.16343 22.9647 2.16356 22.9649C2.16369 22.965 2.16382 22.9651 2.16395 22.9653L10.8239 31.6252H9.62479C9.24516 31.6252 8.93733 31.9329 8.93733 32.3126C8.93733 32.6923 9.24516 33.0001 9.62479 33.0001H13.4397C13.4406 33.0001 13.4414 33.0002 13.4423 33.0002C13.4432 33.0002 13.4441 33.0001 13.445 33.0001L23.3742 33.0002C23.7538 33.0002 24.0616 32.6924 24.0616 32.3128C24.0616 31.9331 23.7538 31.6253 23.3742 31.6253L16.0611 31.6252L32.1241 15.5622C33.292 14.3942 33.292 12.4937 32.124 11.3258ZM31.1518 14.59L14.5884 31.1534C14.2846 31.4571 13.8786 31.6245 13.4449 31.6252H13.4396C13.0061 31.6245 12.6001 31.4571 12.2965 31.1534L3.62194 22.4788L19.5287 6.57193C19.7971 6.30348 19.7971 5.86817 19.5287 5.59972C19.2601 5.33127 18.825 5.33127 18.5564 5.59978L2.64967 21.5066L1.84684 20.7038C1.54256 20.3995 1.37498 19.9926 1.37498 19.5579C1.37498 19.1232 1.54256 18.7162 1.8469 18.4118L18.4102 1.84855C18.7145 1.54427 19.1216 1.37669 19.5562 1.37669C19.9909 1.37669 20.3979 1.54427 20.7023 1.84861L24.4214 5.56769L8.51452 21.4747C8.24607 21.7431 8.24607 22.1784 8.51452 22.447C8.64877 22.5812 8.82473 22.6483 9.00062 22.6483C9.17651 22.6483 9.35247 22.5811 9.48673 22.4469L25.3936 6.53996L31.1518 12.2979C31.7836 12.9298 31.7836 13.9581 31.1518 14.59Z" fill="#442751"/>
<path d="M16.9389 19.8559C16.6704 19.5874 16.2353 19.5875 15.9666 19.8559L10.5568 25.2656C10.2884 25.534 10.2884 25.9693 10.5568 26.2379C10.6911 26.3721 10.867 26.4392 11.0429 26.4392C11.2188 26.4392 11.3948 26.3721 11.529 26.2379L16.9388 20.8281C17.2073 20.5596 17.2073 20.1243 16.9389 19.8559Z" fill="#442751"/>
<path d="M14.7199 24.9912L12.5011 27.21C12.2327 27.4784 12.2327 27.9137 12.5011 28.1822C12.6354 28.3164 12.8114 28.3836 12.9872 28.3836C13.1633 28.3836 13.3391 28.3164 13.4734 28.1822L15.6922 25.9635C15.9606 25.695 15.9606 25.2597 15.6922 24.9912C15.4237 24.7227 14.9886 24.7227 14.7199 24.9912Z" fill="#442751"/>
<path d="M16.7616 22.9496L16.4699 23.2412C16.2014 23.5096 16.2014 23.9449 16.4699 24.2135C16.6041 24.3477 16.7801 24.4149 16.956 24.4149C17.1319 24.4149 17.3078 24.3477 17.442 24.2135L17.7337 23.9219C18.0022 23.6534 18.0022 23.2182 17.7337 22.9497C17.4654 22.6812 17.03 22.6811 16.7616 22.9496Z" fill="#442751"/>
<path d="M26.2369 10.5571C26.108 10.4282 25.9331 10.3557 25.7508 10.3557C25.5684 10.3557 25.3936 10.4282 25.2647 10.5571L22.3478 13.4738C22.2189 13.6028 22.1465 13.7776 22.1465 13.9599C22.1465 14.1423 22.2189 14.3171 22.3478 14.446L24.2924 16.3904C24.4266 16.5247 24.6026 16.5917 24.7785 16.5917C24.9545 16.5917 25.1303 16.5246 25.2646 16.3904L28.1813 13.4738C28.4497 13.2053 28.4497 12.77 28.1813 12.5016L26.2369 10.5571ZM24.7784 14.9321L23.8062 13.9599L25.7507 12.0154L26.7229 12.9877L24.7784 14.9321Z" fill="#442751"/>
<path d="M20.6474 5.16842C20.8235 5.16842 20.9994 5.10126 21.1336 4.96694L21.4252 4.67516C21.6936 4.40665 21.6936 3.97133 21.4251 3.70295C21.1566 3.43456 20.7212 3.43463 20.4528 3.70314L20.1612 3.99492C19.8928 4.26343 19.8929 4.69875 20.1614 4.96713C20.2956 5.10139 20.4715 5.16842 20.6474 5.16842Z" fill="#442751"/>
<path d="M6.90998 23.0778L6.61833 23.3695C6.34988 23.6379 6.34988 24.0732 6.61833 24.3418C6.75258 24.476 6.92854 24.5431 7.10443 24.5431C7.28033 24.5431 7.45628 24.476 7.59054 24.3418L7.88219 24.0501C8.15064 23.7816 8.15064 23.3463 7.88219 23.0778C7.61368 22.8093 7.17849 22.8093 6.90998 23.0778Z" fill="#442751"/>
</svg>
