<svg width="16" height="16" viewBox="0 0 16 16" fill="none" xmlns="http://www.w3.org/2000/svg"><path d="M7.44721 2.22361 7.468 2.18204 7.48076 2.13736C7.51604 2.0139 7.6637 1.84735 8.00209 1.70341 8.32205 1.5673 8.70599 1.5 9 1.5 9.03206 1.5 9.16205 1.53892 9.31156 1.68844 9.46108 1.83795 9.5 1.96794 9.5 2V4v.5H10h0 0 0 0 0 0 0 0H10.0001h0 0 0 0 0 0 0 0H10.0002h0 0 0 0H10.0003h0 0 0H10.0004h0 0H10.0005h0H10.0006h0 0H10.0007h0H10.0008h0H10.0009h0H10.001h0H10.0011 10.0012h0H10.0013 10.0014 10.0015h0H10.0016 10.0017 10.0018 10.0019 10.002h0H10.0021 10.0022 10.0023 10.0024 10.0026 10.0027 10.0028 10.0029 10.003 10.0031 10.0033 10.0034 10.0035 10.0037 10.0038 10.004 10.0041 10.0043 10.0044 10.0046 10.0047 10.0049 10.0051 10.0053 10.0054 10.0056 10.0058 10.006 10.0062 10.0064 10.0066 10.0068 10.007 10.0072 10.0075 10.0077 10.0079 10.0081 10.0084 10.0086 10.0089 10.0091 10.0094 10.0096 10.0099 10.0102 10.0105 10.0108 10.011 10.0113 10.0116 10.0119 10.0122 10.0126 10.0129 10.0132 10.0135 10.0139 10.0142 10.0146 10.0149 10.0153 10.0156 10.016 10.0164 10.0167 10.0171 10.0175 10.0179 10.0183 10.0187 10.0192 10.0196 10.02 10.0204 10.0209 10.0213 10.0218 10.0222 10.0227 10.0232 10.0237 10.0242 10.0246 10.0251 10.0257 10.0262 10.0267 10.0272 10.0277 10.0283 10.0288 10.0294 10.0299 10.0305 10.0311 10.0317 10.0323 10.0329 10.0335 10.0341 10.0347 10.0353 10.036 10.0366 10.0373 10.0379 10.0386 10.0392 10.0399 10.0406 10.0413 10.042 10.0427 10.0435 10.0442 10.0449 10.0457 10.0464 10.0472 10.0479 10.0487 10.0495 10.0503 10.0511 10.0519 10.0527 10.0536 10.0544 10.0552 10.0561 10.057 10.0578 10.0587 10.0596 10.0605 10.0614 10.0623 10.0633 10.0642 10.0651 10.0661 10.067 10.068 10.069 10.07 10.071 10.072 10.073 10.074 10.0751 10.0761 10.0772 10.0783 10.0793 10.0804 10.0815 10.0826 10.0837 10.0849 10.086 10.0872 10.0883 10.0895 10.0907 10.0918 10.093 10.0942 10.0955 10.0967 10.0979 10.0992 10.1004 10.1017 10.103 10.1043 10.1056 10.1069 10.1082 10.1096 10.1109 10.1123 10.1136 10.115 10.1164 10.1178 10.1192 10.1207 10.1221 10.1235 10.125 10.1265 10.128 10.1294 10.131 10.1325 10.134 10.1355 10.1371 10.1387 10.1402 10.1418 10.1434 10.145 10.1466 10.1483 10.1499 10.1516 10.1533 10.1549 10.1566 10.1584 10.1601 10.1618 10.1636 10.1653 10.1671 10.1689 10.1707 10.1725 10.1743 10.1761 10.178 10.1798 10.1817 10.1836 10.1855 10.1874 10.1893 10.1913 10.1932 10.1952 10.1972 10.1992 10.2012 10.2032 10.2052 10.2073 10.2093 10.2114 10.2135 10.2156 10.2177 10.2198 10.222 10.2241 10.2263 10.2285 10.2307 10.2329 10.2351 10.2373 10.2396 10.2419 10.2441 10.2464 10.2487 10.2511 10.2534 10.2558 10.2581 10.2605 10.2629 10.2653 10.2678 10.2702 10.2726 10.2751 10.2776 10.2801 10.2826 10.2852 10.2877 10.2903 10.2928 10.2954 10.298 10.3007 10.3033 10.3059 10.3086 10.3113 10.314 10.3167 10.3194 10.3222 10.325 10.3277 10.3305 10.3333 10.3362 10.339 10.3419 10.3447 10.3476 10.3505 10.3534 10.3564 10.3593 10.3623 10.3653 10.3683 10.3713 10.3743 10.3774 10.3805 10.3835 10.3866 10.3898 10.3929 10.3961 10.3992 10.4024 10.4056 10.4088 10.4121 10.4153 10.4186 10.4219 10.4252 10.4285 10.4318 10.4352 10.4386 10.442 10.4454 10.4488 10.4522 10.4557 10.4592 10.4627 10.4662 10.4697 10.4733 10.4768 10.4804 10.484 10.4876 10.4913 10.4949 10.4986 10.5023 10.506 10.5098 10.5135 10.5173 10.5211 10.5249 10.5287 10.5325 10.5364 10.5403 10.5442 10.5481 10.552 10.556 10.5599 10.5639 10.5679 10.5719 10.576 10.5801 10.5841 10.5883 10.5924 10.5965 10.6007 10.6049 10.6091 10.6133 10.6175 10.6218 10.6261 10.6304 10.6347 10.639 10.6434 10.6477 10.6521 10.6566 10.661 10.6654 10.6699 10.6744 10.6789 10.6835 10.688 10.6926 10.6972 10.7018 10.7065 10.7111 10.7158 10.7205 10.7252 10.7299 10.7347 10.7395 10.7443 10.7491 10.754 10.7588 10.7637 10.7686 10.7735 10.7785 10.7835 10.7884 10.7935 10.7985 10.8035 10.8086 10.8137 10.8188 10.824 10.8291 10.8343 10.8395 10.8447 10.85 10.8553 10.8606 10.8659 10.8712 10.8766 10.8819 10.8873 10.8928 10.8982 10.9037 10.9091 10.9147 10.9202 10.9257 10.9313 10.9369 10.9425 10.9482 10.9539 10.9595 10.9653 10.971 10.9767 10.9825 10.9883 10.9942 11C11.517 4.5 12.1685 4.50591 12.6893 4.71424 12.9383 4.81385 13.1326 4.95099 13.2665 5.1365 13.3983 5.31887 13.5 5.58689 13.5 6 13.5 6.96516 13.3787 8.18667 13.1943 9.2928 13.0068 10.4177 12.7658 11.3504 12.5528 11.7764 12.3331 12.2157 12.1585 12.3481 12.0018 12.4108 11.7979 12.4923 11.5327 12.5 11 12.5 10.5378 12.5 9.06748 12.3793 7.5822 12.1318 6.84253 12.0085 6.11542 11.8564 5.51867 11.6773 5.22028 11.5878 4.96358 11.4943 4.75832 11.3985 4.65201 11.3489 4.5668 11.302 4.5 11.2593V11.2559 11.2496 11.2432 11.2369 11.2305 11.2241 11.2177 11.2113 11.2049 11.1985 11.1921 11.1857 11.1793 11.1729 11.1665 11.16 11.1536 11.1472 11.1407 11.1343 11.1278 11.1214 11.1149 11.1085 11.102 11.0955 11.089 11.0826 11.0761 11.0696 11.0631 11.0566 11.0501 11.0436 11.0371 11.0305 11.024 11.0175 11.011 11.0044 10.9979 10.9913 10.9848 10.9782 10.9717 10.9651 10.9586 10.952 10.9454 10.9389 10.9323 10.9257 10.9191 10.9125 10.9059 10.8993 10.8927 10.8861 10.8795 10.8729 10.8663 10.8596 10.853 10.8464 10.8397 10.8331 10.8265 10.8198 10.8132 10.8065 10.7998 10.7932 10.7865 10.7798 10.7732 10.7665 10.7598 10.7531 10.7464 10.7398 10.7331 10.7264 10.7197 10.713 10.7062 10.6995 10.6928 10.6861 10.6794 10.6727 10.6659 10.6592 10.6525 10.6457 10.639 10.6322 10.6255 10.6187 10.612 10.6052 10.5984 10.5917 10.5849 10.5781 10.5714 10.5646 10.5578 10.551 10.5442 10.5374 10.5307 10.5239 10.5171 10.5103 10.5035 10.4966 10.4898 10.483 10.4762 10.4694 10.4626 10.4557 10.4489 10.4421 10.4352 10.4284 10.4216 10.4147 10.4079 10.401 10.3942 10.3873 10.3805 10.3736 10.3667 10.3599 10.353 10.3461 10.3393 10.3324 10.3255 10.3186 10.3118 10.3049 10.298 10.2911 10.2842 10.2773 10.2704 10.2635 10.2566 10.2497 10.2428 10.2359 10.229 10.2221 10.2152 10.2082 10.2013 10.1944 10.1875 10.1805 10.1736 10.1667 10.1598 10.1528 10.1459 10.1389 10.132 10.1251 10.1181 10.1112 10.1042 10.0973 10.0903 10.0834 10.0764 10.0694 10.0625 10.0555 10.0486 10.0416 10.0346 10.0276 10.0207 10.0137 10.0067 9.99975 9.99277 9.98579 9.9788 9.97182 9.96484 9.95785 9.95086 9.94387 9.93688 9.92988 9.92289 9.91589 9.90889 9.90189 9.89489 9.88789 9.88088 9.87388 9.86687 9.85986 9.85285 9.84584 9.83883 9.83182 9.8248 9.81778 9.81077 9.80375 9.79673 9.78971 9.78268 9.77566 9.76863 9.76161 9.75458 9.74755 9.74052 9.73349 9.72646 9.71943 9.71239 9.70536 9.69832 9.69128 9.68425 9.67721 9.67017 9.66313 9.65609 9.64904 9.642 9.63496 9.62791 9.62086 9.61382 9.60677 9.59972 9.59267 9.58562 9.57857 9.57152 9.56447 9.55742 9.55036 9.54331 9.53626 9.5292 9.52215 9.51509 9.50803 9.50098 9.49392 9.48686 9.4798 9.47274 9.46568 9.45862 9.45156 9.4445 9.43744 9.43038 9.42332 9.41625 9.40919 9.40213 9.39507 9.388 9.38094 9.37387 9.36681 9.35975 9.35268 9.34562 9.33855 9.33149 9.32442 9.31736 9.31029 9.30323 9.29616 9.2891 9.28203 9.27497 9.2679 9.26084 9.25377 9.24671 9.23964 9.23258 9.22551 9.21845 9.21138 9.20432 9.19726 9.19019 9.18313 9.17607 9.169 9.16194 9.15488 9.14782 9.14075 9.13369 9.12663 9.11957 9.11251 9.10545 9.09839 9.09133 9.08428 9.07722 9.07016 9.0631 9.05605 9.04899 9.04194 9.03488 9.02783 9.02077 9.01372 9.00667 8.99962 8.99257 8.98552 8.97847 8.97142 8.96437 8.95733 8.95028 8.94324 8.93619 8.92915 8.9221 8.91506 8.90802 8.90098 8.89394 8.88691 8.87987 8.87283 8.8658 8.85876 8.85173 8.8447 8.83767 8.83064 8.82361 8.81658 8.80955 8.80253 8.79551 8.78848 8.78146 8.77444 8.76742 8.7604 8.75339 8.74637 8.73936 8.73234 8.72533 8.71832 8.71131 8.70431 8.6973 8.6903 8.68329 8.67629 8.66929 8.66229 8.6553 8.6483 8.64131 8.63431 8.62732 8.62033 8.61335 8.60636 8.59938 8.59239 8.58541 8.57843 8.57146 8.56448 8.55751 8.55053 8.54356 8.53659 8.52963 8.52266 8.5157 8.50874 8.50178 8.49482 8.48787 8.48091 8.47396 8.46701 8.46006 8.45312 8.44617 8.43923 8.43229 8.42535 8.41842 8.41149 8.40455 8.39763 8.3907 8.38377 8.37685 8.36993 8.36301 8.3561 8.34918 8.34227 8.33536 8.32846 8.32155 8.31465 8.30775 8.30085 8.29396 8.28707 8.28018 8.27329 8.26641 8.25952 8.25264 8.24577 8.23889 8.23202 8.22515 8.21828 8.21142 8.20455 8.1977 8.19084 8.18398 8.17713 8.17028 8.16344 8.1566 8.14976 8.14292 8.13608 8.12925 8.12242 8.1156 8.10877 8.10195 8.09513 8.08832 8.08151 8.0747 8.06789 8.06109 8.05429 8.04749 8.0407 8.03391 8.02712 8.02034 8.01355 8.00678 8 7.9904 7.98081 7.97123 7.96165 7.95208 7.94252 7.93296 7.92341 7.91387 7.90433 7.8948 7.88528 7.87576 7.86625 7.85675 7.84725 7.83777 7.82829 7.81881 7.80934 7.79989 7.79043 7.78099 7.77155 7.76212 7.7527 7.74329 7.73388 7.72448 7.71509 7.7057 7.69633 7.68696 7.6776 7.66825 7.6589 7.64957 7.64024 7.63092 7.62161 7.61231 7.60301 7.59373 7.58445 7.57518 7.56592 7.55666 7.54742 7.53819 7.52896 7.51974 7.51053 7.50133 7.49214 7.48296 7.47378 7.46462 7.45547 7.44632 7.43718 7.42806 7.41894 7.40983 7.40073 7.39164 7.38256 7.37349 7.36443 7.35537 7.34633 7.3373 7.32828 7.31926 7.31026 7.30127 7.29228 7.28331 7.27435 7.2654 7.25645 7.24752 7.2386 7.22969 7.22078 7.21189 7.20301 7.19414 7.18528 7.17643 7.16759 7.15877 7.14995 7.14114 7.13235 7.12356 7.11479 7.10603 7.09728 7.08853 7.07981 7.07109 7.06238 7.05369 7.045 7.03633 7.02767 7.01902 7.01038 7.00175 6.99314 6.98453 6.97594 6.96736 6.95879 6.95023 6.94169 6.93316 6.92464 6.91613 6.90763 6.89915 6.89068 6.88222 6.87377 6.86533 6.85691 6.8485 6.8401 6.83172 6.82334 6.81498 6.80664 6.7983 6.78998 6.78167 6.77337 6.76509 6.75682 6.74856 6.74032 6.73209 6.72387 6.71566 6.70747 6.69929 6.69113 6.68298 6.67484 6.66672 6.65861 6.65051 6.64242 6.63435 6.6263 6.61826 6.61023 6.60221 6.59421 6.58623 6.57825 6.57029 6.56235 6.55442 6.5465 6.5386 6.53071 6.52284 6.51498 6.50714 6.49931 6.4915 6.48369 6.47591 6.46814 6.46038 6.45264 6.44491 6.4372 6.42951 6.42182 6.41416 6.40651 6.39887 6.39125 6.38364 6.37605 6.36848 6.36092 6.35337 6.34585 6.33833 6.33083 6.32335 6.31589 6.30844 6.301 6.29358 6.28618 6.27879 6.27142 6.26407 6.25673 6.2494 6.2421 6.23481 6.22753 6.22027 6.21303 6.20581 6.1986 6.19141 6.18423 6.17707 6.16993 6.16281 6.1557 6.1486 6.14153 6.13447 6.12743 6.12041 6.1134 6.10641 6.09944 6.09248 6.08554 6.07862 6.07172 6.06483 6.05796 6.05111 6.04428 6.03746 6.03066 6.02388 6.01712 6.01037 6.00364 5.99693 5.99024 5.98357 5.97691 5.97027 5.96365 5.95705 5.95047 5.9439 5.93736 5.93083 5.92432 5.91783 5.91135 5.9049 5.89846 5.89204 5.88565 5.87927 5.8729 5.86656 5.86024 5.85393 5.84765 5.84138 5.83514 5.82891 5.8227 5.81651 5.81034 5.80419 5.79806 5.79194 5.78585 5.77978 5.77372 5.76769 5.76168 5.75568 5.74971 5.74375 5.73782 5.7319 5.726 5.72013 5.71427 5.70844 5.70262 5.69683 5.69105 5.6853 5.67957 5.67385 5.66816 5.66249 5.65683 5.6512 5.64559 5.64 5.63443 5.62888 5.62336 5.61785 5.61236 5.6069 5.60145 5.59603 5.59063 5.58525 5.57989 5.57455 5.56924 5.56394 5.55867 5.55341 5.54818 5.54297 5.53779 5.53262 5.52747 5.52235 5.51725 5.51217 5.50711 5.50208 5.49707 5.49207 5.48711 5.48216 5.47723 5.47233 5.46745 5.46259 5.45776 5.45295 5.44815 5.44339 5.43864 5.43392 5.42922 5.42454 5.41989 5.41525 5.41065 5.40606 5.4015 5.39696 5.39244 5.38795 5.38348 5.37903 5.3746 5.3702 5.36583 5.36147 5.35714 5.35283 5.34855 5.34429 5.34005 5.33584 5.33165 5.32749 5.32335 5.31923 5.31513 5.31106 5.30702 5.303 5.299 5.29503 5.29108 5.28715 5.28325 5.2806C4.53133 5.267 4.56859 5.25166 4.61259 5.23472 4.73641 5.18704 4.87077 5.14166 5.01874 5.09168 5.08888 5.06798 5.16207 5.04326 5.23865 5.01677 5.46052 4.94002 5.70866 4.84896 5.91416 4.73996 6.01761 4.68509 6.12845 4.61635 6.22518 4.5294 6.30997 4.45319 6.40625 4.34292 6.46222 4.1936L7.44721 2.22361z" stroke="#797983"/><path d="M4.5 5V4.5C4.5 4.22386 4.27614 4 4 4H2C1.72386 4 1.5 4.22386 1.5 4.5v7C1.5 11.7761 1.72386 12 2 12H4C4.27614 12 4.5 11.7761 4.5 11.5V11" stroke="#797983"/></svg>