<svg width="12" height="12" viewBox="0 0 12 12" fill="none" xmlns="http://www.w3.org/2000/svg"><path fill-rule="evenodd" clip-rule="evenodd" d="M1.50126 2.04364C1.52166 1.73365 1.7895 1.4989 2.09949 1.5193 6.59276 1.81505 10.1846 5.40691 10.4804 9.90021 10.5008 10.2102 10.266 10.478 9.95607 10.4984 9.64602 10.5188 9.3782 10.2841 9.3578 9.97408 9.09912 6.04391 5.95577 2.90056 2.0256 2.64187 1.71561 2.62147 1.48085 2.35363 1.50126 2.04364zM1.50005 9.74961C1.50005 9.33538 1.83584 8.99961 2.25005 8.99961c.4142100000000002.0.75.3357700000000001.75.75C3.00005 10.1638 2.66426 10.4996 2.25005 10.4996 1.83584 10.4996 1.50005 10.1638 1.50005 9.74961zM2.12935 5.28693C1.82089 5.25004 1.54093 5.4702 1.50404 5.77866 1.46714 6.08712 1.6873 6.36708 1.99576 6.40398 3.87724 6.62898 5.37062 8.12241 5.59563 10.0039 5.63252 10.3123 5.91248 10.5325 6.22094 10.4956 6.52941 10.4587 6.74956 10.1787 6.71267 9.87028 6.42601 7.47332 4.52628 5.57359 2.12935 5.28693z" fill="#afafb3"/></svg>