<svg width="12" height="12" viewBox="0 0 12 12" fill="none" xmlns="http://www.w3.org/2000/svg"><path fill-rule="evenodd" clip-rule="evenodd" d="M5.83114 2.45639C5.73178 2.56301 5.67769 2.70405 5.68026 2.84978 5.68283 2.9955 5.74186 3.13454 5.84492 3.2376 5.94799 3.34066 6.08702 3.39969 6.23275 3.40227 6.37847 3.40484 6.51951 3.35075 6.62614 3.25139l.9375-.9375C7.70299 2.17452 7.86844 2.06396 8.05054 1.98854 8.23264 1.91312 8.42779 1.8743 8.62489 1.8743 8.82199 1.8743 9.01714 1.91312 9.19924 1.98854 9.38134 2.06396 9.54679 2.17452 9.68614 2.31389 9.82549 2.45325 9.93604 2.6187 10.0115 2.80079 10.0869 2.98288 10.1257 3.17805 10.1257 3.37514 10.1257 3.57223 10.0869 3.76739 10.0115 3.94948 9.93604 4.13157 9.82549 4.29702 9.68614 4.43639l-1.875 1.875C7.67179 6.45085 7.50642 6.56149 7.3243 6.63697 7.1422 6.71246 6.94702 6.75132 6.74989 6.75132 6.55276 6.75132 6.35758 6.71246 6.17548 6.63697 5.99338 6.56149 5.82795 6.45085 5.68864 6.31139 5.58201 6.21203 5.44097 6.15793 5.29525 6.1605 5.14952 6.16308 5.01049 6.22211 4.90742 6.32516 4.80436 6.42823 4.74533 6.56727 4.74276 6.71299 4.74019 6.85872 4.79428 6.99975 4.89364 7.10639 5.1374 7.35017 5.42679 7.54356 5.74528 7.67549 6.06378 7.80741 6.40515 7.87529 6.74989 7.87529 7.09463 7.87529 7.436 7.80741 7.75452 7.67549 8.07297 7.54356 8.36239 7.35017 8.60614 7.10639L10.4811 5.23139C10.9734 4.73907 11.25 4.07136 11.25 3.37514 11.25 2.67891 10.9734 2.01119 10.4811 1.51889 9.98884 1.02657 9.32112.75 8.62489.75 7.92867.75 7.26095 1.02657 6.76864 1.51889L5.83114 2.45639zM2.31364 9.68639C2.17417 9.54704 2.06353 9.38166 1.98805 9.19956 1.91257 9.01746 1.87371 8.82224 1.87371 8.62514 1.87371 8.42804 1.91257 8.23281 1.98805 8.05071 2.06353 7.86861 2.17417 7.70316 2.31364 7.56389L4.18864 5.68889C4.32795 5.54942 4.49338 5.43878 4.67548 5.3633 4.85758 5.28781 5.05276 5.24895 5.24989 5.24895 5.44702 5.24895 5.6422 5.28781 5.8243 5.3633 6.0064 5.43878 6.17183 5.54942 6.31114 5.68889 6.41777 5.78825 6.55881 5.84234 6.70453 5.83977 6.85026 5.83719 6.98929 5.77816 7.09236 5.6751 7.19542 5.57204 7.25445 5.433 7.25702 5.28728 7.25959 5.14155 7.2055 5.00052 7.10614 4.89389 6.86239 4.6501 6.57299 4.45672 6.2545 4.32479 5.936 4.19286 5.59463 4.12494 5.24989 4.12494 4.90515 4.12494 4.56378 4.19286 4.24528 4.32479 3.92679 4.45672 3.6374 4.6501 3.39364 4.89389L1.51864 6.76888C1.02633 7.2612.749756 7.92891.749756 8.62514.749756 9.32136 1.02633 9.98909 1.51864 10.4814 2.01095 10.9737 2.67866 11.2503 3.37489 11.2503 4.07112 11.2503 4.73883 10.9737 5.23114 10.4814L6.16864 9.54389C6.268 9.43724 6.32209 9.29624 6.31952 9.15051 6.31695 9.00479 6.25792 8.86574 6.15486 8.76269 6.05179 8.65964 5.91276 8.60054 5.76703 8.59799 5.62131 8.59544 5.48027 8.64951 5.37364 8.74889l-.9375.9375C4.29683 9.82581 4.1314 9.93651 3.9493 10.012 3.7672 10.0875 3.57202 10.1263 3.37489 10.1263 3.17776 10.1263 2.98258 10.0875 2.80048 10.012 2.61838 9.93651 2.45295 9.82581 2.31364 9.68639z" fill="#afafb3"/></svg>