<svg width="12" height="12" viewBox="0 0 12 12" fill="none" xmlns="http://www.w3.org/2000/svg"><path fill-rule="evenodd" clip-rule="evenodd" d="M11.6784.429192C11.8748.522265 12 .720162 12 .937508L11.0827.501049V.501036L11.0833.500525C11.0835.500384 11.0832.500641 11.0824.501283L11.0716.509668C11.0604.518207 11.0413.53251 11.0143.551767 10.9601.590284 10.8742.648602 10.7561.720275 10.5198.863603 10.1549 1.06034 9.65827 1.25899 8.66692 1.65553 7.14491 2.0621 5.06558 2.06251 4.87888 1.94378 4.65729 1.875 4.41964 1.875H3c-1.65686.0-3 1.34314-3 3C0 6.13433.775935 7.21241 1.8758 7.65727 1.87527 7.66725 1.875 7.67737 1.875 7.6875 1.875 9.42698 2.23962 10.6355 2.48442 11.2505 2.68109 11.7445 3.15728 12 3.62274 12h.89737C5.03378 12 5.44127 11.7086 5.67991 11.357 5.91715 11.0075 6.03095 10.5399 5.91234 10.0849 5.7624 9.50985 5.62591 8.70922 5.62501 7.69763 7.42029 7.76258 8.75805 8.13097 9.65827 8.49105 10.1549 8.68965 10.5198 8.88637 10.7561 9.02977 10.8742 9.1014 10.9601 9.15975 11.0143 9.19823 11.0413 9.2175 11.0604 9.23182 11.0716 9.24038L11.0824 9.2487 11.0831 9.24938C11.2512 9.38573 11.4826 9.41355 11.6784 9.32085 11.8748 9.22778 12 9.02985 12 8.8125V.937508L11.0824.501289 11.0827.501049C11.2508.364373 11.4825.336368 11.6784.429192zM3.00157 7.875C3.0263 9.35153 3.33858 10.3544 3.52963 10.8343 3.53277 10.8422 3.53767 10.8493 3.54979 10.8569 3.56366 10.8656 3.58833 10.875 3.62274 10.875h.89737C4.58232 10.875 4.67143 10.8397 4.74909 10.7252 4.82818 10.6087 4.8504 10.4711 4.82373 10.3687 4.6604 9.74235 4.51686 8.90543 4.50138 7.8723 4.47437 7.8741 4.44711 7.875 4.41964 7.875H3.00157zM5.625 6.57191C7.57597 6.63765 9.0546 7.03788 10.0761 7.44649 10.3843 7.56975 10.6504 7.69365 10.875 7.80892V1.94105C10.6504 2.0564 10.3843 2.18025 10.0761 2.30353 9.0546 2.71213 7.57597 3.11237 5.625 3.17811V6.57191zM11.0824.501289 11.0821.501519 11.0824.501283V.501289zM1.125 4.875C1.125 3.83947 1.96447 3 3 3H4.41964C4.46402 3 4.5 3.03598 4.5 3.08036V6.66965C4.5 6.71402 4.46402 6.75 4.41964 6.75H3C1.96447 6.75 1.125 5.91053 1.125 4.875z" fill="#797983"/></svg>