<svg width="40" height="28" viewBox="0 0 40 28" fill="none" xmlns="http://www.w3.org/2000/svg">
<path d="M11 9C11 7.89543 11.8954 7 13 7H17C18.1046 7 19 7.89543 19 9V13C19 14.1046 18.1046 15 17 15H13C11.8954 15 11 14.1046 11 13V9Z" fill="#39393E"/>
<path d="M19 13C19 18 14 21 14 21C14 21 16 15 15 13C15 13 19 8.00005 19 13Z" fill="#39393E"/>
<path d="M21 9C21 7.89543 21.8954 7 23 7H27C28.1046 7 29 7.89543 29 9V13C29 14.1046 28.1046 15 27 15H23C21.8954 15 21 14.1046 21 13V9Z" fill="#39393E"/>
<path d="M29 13C29 18 24 21 24 21C24 21 26 15 25 13C25 13 29 8.00005 29 13Z" fill="#39393E"/>
</svg>
