<svg width="16" height="16" viewBox="0 0 16 16" fill="none" xmlns="http://www.w3.org/2000/svg"><path fill-rule="evenodd" clip-rule="evenodd" d="M2.64645 7.8534C2.45118 7.65814 2.45118 7.34156 2.64645 7.1463L5.82843 3.96432C6.02369 3.76906 6.34027 3.76906 6.53553 3.96432 6.7308 4.15958 6.7308 4.47616 6.53553 4.67142L4.20711 6.99985H10.5021C11.8835 6.99985 13 8.11982 13 9.49985V12.4999C13 12.776 12.7761 12.9999 12.5 12.9999 12.2239 12.9999 12 12.776 12 12.4999V9.49985C12 8.67075 11.3298 7.99985 10.5021 7.99985H4.20711L6.53553 10.3283C6.7308 10.5235 6.7308 10.8401 6.53553 11.0354 6.34027 11.2306 6.02369 11.2306 5.82843 11.0354L2.64645 7.8534z" fill="#797983"/></svg>