<svg width="16" height="16" viewBox="0 0 16 16" fill="none" xmlns="http://www.w3.org/2000/svg"><path fill-rule="evenodd" clip-rule="evenodd" d="M11.1 4.875C11.1 5.39277 10.697 5.8125 10.2 5.8125 9.70296 5.8125 9.3 5.39277 9.3 4.875 9.3 4.35723 9.70296 3.9375 10.2 3.9375 10.697 3.9375 11.1 4.35723 11.1 4.875zM12 4.875C12 5.91053 11.1941 6.75 10.2 6.75 9.68634 6.75 9.22296 6.52589 8.89501 6.16642L6.54245 7.52786C6.58001 7.6787 6.6 7.83692 6.6 8 6.6 8.16309 6.58001 8.32132 6.54244 8.47217L8.89499 9.83362C9.22296 9.47412 9.68634 9.25 10.2 9.25 11.1941 9.25 12 10.0894 12 11.125 12 12.1606 11.1941 13 10.2 13 9.20586 13 8.4 12.1606 8.4 11.125 8.4 10.9619 8.41999 10.8038 8.45754 10.6529L6.10496 9.29144C5.77702 9.65088 5.31363 9.875 4.8 9.875 3.80589 9.875 3 9.03553 3 8 3 6.96447 3.80589 6.125 4.8 6.125 5.31364 6.125 5.77703 6.34911 6.10498 6.70856L8.45755 5.34713C8.41999 5.19629 8.4 5.03807 8.4 4.875 8.4 3.83947 9.20586 3 10.2 3 11.1941 3 12 3.83947 12 4.875zM11.1 11.125C11.1 11.6427 10.697 12.0625 10.2 12.0625 9.70296 12.0625 9.3 11.6427 9.3 11.125 9.3 10.6073 9.70296 10.1875 10.2 10.1875 10.697 10.1875 11.1 10.6073 11.1 11.125zM5.7 8C5.7 8.51777 5.29706 8.9375 4.8 8.9375 4.30294 8.9375 3.9 8.51777 3.9 8 3.9 7.48223 4.30294 7.0625 4.8 7.0625 5.29706 7.0625 5.7 7.48223 5.7 8z" fill="#797983"/></svg>