<svg width="18" height="14" viewBox="0 0 18 14" fill="none" xmlns="http://www.w3.org/2000/svg"><path d="M17.1429 1.7612C16.5011 2.04142 15.8566 2.25296 15.1423 2.32439 15.8566 1.90131 16.4286 1.19801 16.7132.423287 15.9989.846363 15.2846 1.12658 14.5006 1.26944 13.7863.566144 12.8571.143066 11.8583.143066 9.92745.143066 8.35658 1.68977 8.35658 3.58812 8.35658 3.87109 8.35658 4.15131 8.42913 4.36285 5.49944 4.22274 2.92969 2.88482 1.21373.774935.856585 1.26944.714286 1.90131.714286 2.53318.714286 3.73098 1.35603 4.78592 2.28516 5.41779 1.71317 5.34636 1.14397 5.20625.714286 4.99472c0 0 0 0 0 .07141999999999982C.714286 6.75296 1.92801 8.15955 3.49888 8.44252 3.21429 8.5112 2.92969 8.58263 2.57254 8.58263 2.3577 8.58263 2.14286 8.58263 1.92801 8.5112 2.3577 9.91779 3.64397 10.9041 5.21484 10.9041 4.00112 11.8189 2.5 12.3793.856585 12.3793.571986 12.3793.284599 12.3793.0 12.3106 1.57087 13.2942 3.42913 13.8574 5.35714 13.8574 11.8583 13.8574 15.3571 8.58263 15.3571 4.0112 15.3571 3.87109 15.3571 3.73098 15.3571 3.58812 16.0714 3.09636 16.6434 2.46449 17.1429 1.7612z" fill="#797983"/></svg>