<svg width="15" height="14" viewBox="0 0 15 14" fill="none" xmlns="http://www.w3.org/2000/svg"><path d="M14.7197.331598C14.4662.11354 14.0682.0823399 13.6566.249998H13.6559C13.2231.426227 1.40306 5.57047.921878 5.78064.83436 5.8115.0700138 6.10087.148746 6.74545.219031 7.32659.833347 7.56728.908362 7.59505L3.91337 8.63905C4.11274 9.31242 4.84769 11.7968 5.01022 12.3275 5.11159 12.6584 5.27683 13.0931 5.56642 13.1826 5.82052 13.282 6.07328 13.1912 6.23682 13.0609L8.07403 11.3319 11.0398 13.6787 11.1105 13.7216C11.3119 13.8121 11.5048 13.8574 11.689 13.8574 11.8312 13.8574 11.9677 13.8303 12.0982 13.7761 12.5425 13.591 12.7203 13.1614 12.7388 13.1127L14.9542 1.42909C15.0893.805085 14.9014.487598 14.7197.331598zM6.56358 9.05665 5.54986 11.7995 4.53614 8.37094 12.308 2.54235 6.56358 9.05665z" fill="#797983"/></svg>