<svg width="20" height="11" viewBox="0 0 20 11" fill="none" xmlns="http://www.w3.org/2000/svg"><path d="M18.3064 10.7144 15.8703 10.708C15.8703 10.708 15.818 10.7144 15.7331 10.7144 15.5372 10.7144 15.1322 10.663 14.6555 10.3416 13.7999 9.75657 12.9835 8.30371 12.3369 8.30371 12.2912 8.30371 12.252 8.31014 12.2128 8.323 11.6511 8.49657 11.4813 9.04942 11.4813 9.72442 11.4813 9.96228 11.3115 10.0716 10.8543 10.0716H9.59378C8.18305 10.0716 6.81803 10.0394 5.2832 8.38728 3.02341 5.95085.9073 1.618.9073 1.618.9073 1.618.789739 1.36728.913832 1.21942 1.03139 1.08442 1.3057 1.07157 1.4102 1.07157 1.43633 1.07157 1.44939 1.07157 1.44939 1.07157H4.06187C4.06187 1.07157 4.30352 1.11657 4.47986 1.24514 4.63008 1.35443 4.70845 1.55371 4.70845 1.55371 4.70845 1.55371 5.15258 2.40228 5.70773 3.36014 6.64169 4.94157 7.14459 5.46871 7.5038 5.46871 7.56258 5.46871 7.62137 5.45585 7.68015 5.42371 8.2157 5.13443 8.05896 2.79443 8.05896 2.79443 8.05896 2.79443 8.06549 1.94585 7.78465 1.573 7.56912 1.27728 7.15765 1.19371 6.97478 1.168 6.83109 1.14871 7.06621.814426 7.37971.66014 7.78464.467283 8.45736.428711 9.26722.428711H9.6591C10.4232.441568 10.4428.518711 10.7433.589425 11.6446.801568 11.3376 1.63085 11.3376 3.61728 11.3376 4.25371 11.2201 5.14728 11.6838 5.44942 11.7164 5.46871 11.7621 5.48157 11.8209 5.48157 12.1214 5.48157 12.7679 5.10228 13.7999 3.38585 14.3746 2.40871 14.8187 1.438 14.8187 1.438 14.8187 1.438 14.9167 1.26443 15.0669 1.17443 15.2106 1.09085 15.2106 1.09085 15.4 1.09085H15.4196C15.6286 1.09085 17.7055 1.07157 18.1627 1.07157H18.215C18.6525 1.07157 19.051 1.078 19.1228 1.34157 19.2273 1.74014 18.8028 2.45371 17.6859 3.93228 15.8441 6.35585 15.6351 6.17585 17.1634 7.57728 18.6264 8.91442 18.9269 9.56371 18.9791 9.64728 19.5865 10.6373 18.3064 10.7144 18.3064 10.7144z" fill="#797983"/></svg>