<svg width="26" height="26" fill="none" xmlns="http://www.w3.org/2000/svg"><g clip-path="url(#clip0)" fill="#fff"><path d="M13.738 16.237l.888 1.775h7.713l-.887-1.775h-7.714zM12.302 16.237H4.589L3.7 18.012h7.713l.888-1.775z"/><path d="M13.464 17.673v3.89h-.888v-3.89l-.613 1.227H5.476V26h7.1v-3.106h.888V26h7.1v-7.1h-6.487l-.613-1.227zm-4.438 7.44H6.364v-.888h2.662v.887zm0-1.776H6.364v-.887h2.662v.887zm1.775 1.775h-.887v-.887h.887v.887zM10.97 6.592l2.05-.523 2.05.523.16-2.201 1.089-1.86-1.926-.833L13.02 0l-1.373 1.698-1.926.833 1.089 1.86.16 2.2zM4.136 7.497l.645-1.1L3.64 5.9l-.825-1.02-.825 1.02-1.143.495.645 1.101.095 1.314 1.228-.313 1.227.313.095-1.314zM21.999 8.81l1.227-.312 1.228.313.095-1.314.645-1.1-1.143-.496-.825-1.02-.825 1.02-1.142.495.645 1.101.095 1.314zM4.786 9.95a9.85 9.85 0 0 1 2.23 2.045l1.758 2.196-.363-2.908A5.7 5.7 0 0 0 6.186 7.45l-.425-.319-1.3 2.601.325.218zM17.63 11.283l-.364 2.908 1.758-2.197a9.849 9.849 0 0 1 2.23-2.045l.325-.217-1.3-2.601-.425.32a5.698 5.698 0 0 0-2.224 3.832zM14.795 14.462h.887v-1.86c0-2.13.751-4.206 2.117-5.844l-.683-.567a10.035 10.035 0 0 0-2.321 6.412v1.86zM17.902 4.7h.887v.887h-.887v-.888zM19.233 2.924h.887v.888h-.887v-.888zM10.357 14.462h.888v-1.86c0-2.338-.825-4.615-2.322-6.411l-.682.567a9.146 9.146 0 0 1 2.116 5.845v1.86zM7.251 4.7h.888v.887H7.25v-.888zM5.92 2.924h.887v.888H5.92v-.888zM12.576 6.918h.887v.888h-.887v-.888zM12.576 8.693h.887v5.769h-.887V8.693zM24.114 11.356H25v.887h-.887v-.887zM24.114 13.13H25v.888h-.887v-.887zM25.001 12.243h.888v.888H25v-.888z"/><path d="M23.226 12.243h.888v.888h-.888v-.888zM23.67.262h.888v.887h-.888V.262zM23.67 2.037h.888v.888h-.888v-.888zM24.558 1.149h.887v.888h-.887v-.888zM22.783 1.149h.887v.888h-.887v-.888zM1.039 13.13h.887v.888H1.04v-.887zM1.039 14.906h.887v.887H1.04v-.887zM1.926 14.018h.888v.888h-.888v-.888zM.15 14.018h.888v.888H.151v-.888zM1.039.262h.887v.887H1.04V.262zM1.039 2.037h.887v.888H1.04v-.888zM1.926 1.149h.888v.888h-.888v-.888zM.15 1.149h.888v.888H.151v-.888z"/></g><defs><clipPath id="clip0"><path fill="#fff" d="M0 0h26v26H0z"/></clipPath></defs></svg>