<svg width="64" height="54" fill="none" xmlns="http://www.w3.org/2000/svg"><rect y="20.872" width="50.319" height="29.455" rx="7.364" fill="#E9D7F0"/><rect x="38.046" y="40.509" width="6.136" height="2.455" rx="1.227" fill="#DEC9E7"/><rect x="30.682" y="40.509" width="6.136" height="2.455" rx="1.227" fill="#DEC9E7"/><path fill="#FDF8FF" d="M0 28.145h50v5H0z"/><circle opacity=".5" cx="8.592" cy="41.735" r="3.682" fill="#fff"/><circle cx="14.727" cy="41.735" r="4.295" fill="#fff" stroke="#E9D7F0" stroke-width="1.227"/><rect x="21.919" y=".009" width="50.319" height="29.455" rx="7.364" transform="rotate(35.272 21.92 .009)" fill="#D77BFC"/><rect x="41.64" y="38.009" width="6.136" height="2.455" rx="1.227" transform="rotate(35.272 41.64 38.009)" fill="#fff"/><rect x="35.629" y="33.757" width="6.136" height="2.455" rx="1.227" transform="rotate(35.272 35.629 33.757)" fill="#fff"/><path fill="#fff" d="m17.655 6.012 41.268 29.19-2.834 4.007L14.82 10.02z"/><circle opacity=".5" cx="16.883" cy="22.003" r="3.682" transform="rotate(35.272 16.883 22.003)" fill="#fff"/><circle cx="21.893" cy="25.545" r="4.295" transform="rotate(35.272 21.893 25.545)" fill="#fff" stroke="#D77BFC" stroke-width="1.227"/></svg>