<svg width="56" height="56" fill="none" xmlns="http://www.w3.org/2000/svg"><path d="m54.055 20.23-3.515-.733A24.25 24.25 0 0 0 41.805 8.82c.247-.363.332-.813.238-1.244a1.6 1.6 0 0 0-.743-1.024 25.779 25.779 0 0 0-26.02 0 1.591 1.591 0 0 0-.505 2.268 24.262 24.262 0 0 0-8.738 10.677l-3.515.733c-.91.19-1.562.993-1.562 1.923v8.818c0 .96.694 1.778 1.639 1.938l3.874.65a1.961 1.961 0 0 0 2.288-1.936v-2.849a19.525 19.525 0 0 1 8.586-16.165l.059.088.002.002a1.59 1.59 0 0 0 2.104.479 17.927 17.927 0 0 1 17.553 0c.72.413 1.639.205 2.107-.48l.059-.087v-.002a19.526 19.526 0 0 1 8.588 16.168v5.101a20.269 20.269 0 0 1-5.637 9.525 20.234 20.234 0 0 1-9.802 5.136 2.932 2.932 0 0 0-2.181-.98H26.38a2.946 2.946 0 1 0 0 5.89h3.82-.002a2.936 2.936 0 0 0 2.642-1.666 23.51 23.51 0 0 0 18.452-18.424l2.686-.45h.002a1.966 1.966 0 0 0 1.639-1.938v-8.818c0-.93-.652-1.733-1.564-1.923Z" fill="#F1C2C2"/><path d="M26.812 14.293a14.404 14.404 0 0 0-11.587 8.365 14.407 14.407 0 0 0 1.317 14.232 28.11 28.11 0 0 1-3.797 6.661 1.446 1.446 0 0 0 1.435 2.303 32.891 32.891 0 0 0 9.575-3.556c2.408.822 4.992.984 7.485.47a14.42 14.42 0 0 0 8.496-23.004 14.417 14.417 0 0 0-12.924-5.47v-.001Zm-6.604 17.183a2.704 2.704 0 0 1-1.916-4.62 2.707 2.707 0 1 1 1.916 4.62Zm8.153 0h.002a2.71 2.71 0 0 1-2.5-1.674 2.706 2.706 0 1 1 2.5 1.674h-.002Zm8.162 0a2.702 2.702 0 0 1-2.503-1.67 2.706 2.706 0 1 1 5.206-1.035 2.703 2.703 0 0 1-2.703 2.705Z" fill="#FB8282"/></svg>