<svg width="56" height="55" fill="none" xmlns="http://www.w3.org/2000/svg"><g clip-path="url(#a)"><circle cx="12.056" cy="12.14" r="9.22" fill="#fff"/><circle cx="43.262" cy="40.508" r="9.22" fill="#fff"/><path fill-rule="evenodd" clip-rule="evenodd" d="M42.69 28.983a12.632 12.632 0 1 0 8.927 3.7 12.569 12.569 0 0 0-8.927-3.7Zm-3.768 15.693v-6.14c.036-.45-.275-.626-.77-.608h-1.189v-1.657h2.562v-2.057h1.44v2.075h1.274v-2.075h1.45v2.102c.32 0 .5.023.792.041 1.32.077 2.251.288 2.823 1.576.162.351.246.733.248 1.12.007.423-.119.838-.36 1.184a2.178 2.178 0 0 1-1.058.9c3.453.451 2.818 5.345-.797 5.727-.306.032-.9.072-1.648.095v2.098h-1.44v-2.071h-1.284v2.07H39.52v-2.07H36.96l.355-1.603h1.144c.37.054.495-.207.45-.675l.014-.032Zm4.776-6.469v2.413c1.724-.418 1.612-1.967 0-2.413Zm0 3.894v2.985a1.97 1.97 0 0 0 .329-.067c1.751-.33 2.152-2.368.063-2.832a2.242 2.242 0 0 0-.392-.086Zm-1.45 3.04v-3.094h-.733v3.093h.733Zm0-4.417v-2.638h-.733v2.638h.733ZM12.627 0a12.632 12.632 0 1 0 8.928 3.7A12.568 12.568 0 0 0 12.625 0Zm1.283 6.091c.421.07.832.193 1.22.37l.081-.041a1.247 1.247 0 0 1 1.463.265c.13.151.222.33.27.522a6.335 6.335 0 0 1 0 2.103c-.048.193-.14.371-.27.522-.513.684-1.724.45-2.061-.36-.06-.144-.1-.295-.117-.45a2.457 2.457 0 0 0-.703-.356 3.205 3.205 0 0 0-.959-.135 4.209 4.209 0 0 0-.958.095c-1.05.26-1.626 1.35-.379 1.827.274.1.556.176.842.23l1.4.302c.536.099 1.06.25 1.567.45.397.16.764.387 1.085.67.351.317.628.708.81 1.144.182.46.272.95.266 1.445a3.64 3.64 0 0 1-.243 1.35 3.95 3.95 0 0 1-.734 1.171 4.205 4.205 0 0 1-1.18.9 5.967 5.967 0 0 1-1.4.491v.824c.009.212-.022.424-.09.626-.056.15-.145.285-.26.396a1.17 1.17 0 0 1-.415.297 1.35 1.35 0 0 1-1.017 0 1.169 1.169 0 0 1-.415-.297 1.192 1.192 0 0 1-.26-.396 1.84 1.84 0 0 1-.086-.626v-.828a8.211 8.211 0 0 1-1.41-.473c-.114.091-.24.168-.373.23a1.166 1.166 0 0 1-.486.117 1.435 1.435 0 0 1-.545-.095 1.167 1.167 0 0 1-.693-.815 2.75 2.75 0 0 1-.081-.707v-1.35a2.76 2.76 0 0 1 .08-.711 1.233 1.233 0 0 1 2.252-.347c.18.306.189.716.45.972.594.478 1.34.727 2.102.703a2.917 2.917 0 0 0 1.837-.568c.14-.102.255-.235.338-.387a1.01 1.01 0 0 0-.653-1.463 5.742 5.742 0 0 0-.9-.243l-1.59-.32a6.185 6.185 0 0 1-1.508-.481 3.6 3.6 0 0 1-1.08-.793 3.421 3.421 0 0 1 .063-4.56c.299-.334.656-.612 1.053-.82.366-.19.757-.33 1.162-.413v-.226a1.928 1.928 0 0 1 .085-.63 1.269 1.269 0 0 1 2.373 0c.057.205.08.418.067.63v.239Z" fill="#70CC8A"/><path opacity=".5" d="M37.257 10.353c10.088 0 11.506 5.673 10.872 14.901h-4.642c0-5.352 1.364-10.876-7.712-10.304v3.327c0 1.314-.405 1.584-1.35.63l-5.407-5.2c-.63-.608-.725-1.017-.063-1.643L34.43 6.86c1.018-.964 1.35-.72 1.35.684v2.81h1.477Z" fill="#9ABEA4"/><path d="M17.966 43.956C7.878 43.956 6.46 38.29 7.094 29.06h4.65c0 5.353-1.363 10.876 7.708 10.305v-3.31c0-1.318.405-1.588 1.35-.63l5.403 5.182c.63.608.724 1.017.063 1.643l-5.475 5.204c-1.022.964-1.35.72-1.35-.684v-2.814h-1.477Z" fill="#9ABEA4"/></g><defs><clipPath id="a"><path fill="#fff" d="M0 0h55.319v54.238H0z"/></clipPath></defs></svg>