<svg width="53" height="53" fill="none" xmlns="http://www.w3.org/2000/svg"><path d="M35.07 27c-1.507 0-3.023.34-4.364.994-.008 0-.008.008-.017.008A10.002 10.002 0 0 0 25 37.07v.041a.71.71 0 0 1 .009.133v.083c.14 5.416 4.637 9.805 10.061 9.805 5.549 0 10.062-4.514 10.062-10.062 0-5.556-4.514-10.07-10.062-10.07Zm5.176 8.82-5.01 5.01a1.766 1.766 0 0 1-1.26.513c-.463 0-.918-.165-1.266-.513l-2.808-2.816a1.79 1.79 0 0 1 0-2.526 1.78 1.78 0 0 1 2.518 0l1.557 1.557 3.743-3.751a1.79 1.79 0 0 1 2.526 0 1.79 1.79 0 0 1 0 2.526Z" fill="#6D63FF"/><path d="M22.351 18.946c4.953 0 8.977-4.025 8.977-8.969C31.337 5.025 27.304 1 22.351 1c-4.944 0-8.968 4.025-8.968 8.969 0 4.952 4.033 8.977 8.968 8.977ZM22.425 37.314c0-.538.025-1.06.1-1.582a13.44 13.44 0 0 1 5.076-9.126 13.601 13.601 0 0 1 3.57-2.029 15.5 15.5 0 0 0-8.803-2.757c-8.538 0-15.486 6.947-15.486 15.486v.207c0 .977.795 1.78 1.78 1.78h13.912a12.667 12.667 0 0 1-.14-1.69 3.098 3.098 0 0 1-.009-.29Z" fill="#C9C6F3"/></svg>