<svg width="13" height="12" viewBox="0 0 13 12" fill="none" xmlns="http://www.w3.org/2000/svg"><path d="M6.44721 1.22361 6.468 1.18204 6.48076 1.13736C6.51604 1.0139 6.6637.847347 7.00209.703406 7.32205.567301 7.70599.5 8 .5 8.03206.5 8.16205.538918 8.31156.688436 8.46108.837954 8.5.967944 8.5 1V3v.5H9 9 9.00001h0H9.00002 9.00003h0H9.00004h0H9.00005 9.00006 9.00007 9.00008 9.00009 9.0001 9.00012 9.00013 9.00015 9.00016 9.00018 9.0002 9.00022 9.00024 9.00027 9.00029 9.00032 9.00035 9.00038 9.00041 9.00044 9.00048 9.00051 9.00055 9.00059 9.00063 9.00068 9.00073 9.00077 9.00082 9.00088 9.00093 9.00099 9.00105 9.00111 9.00117 9.00124 9.00131 9.00138 9.00145 9.00153 9.00161 9.00169 9.00178 9.00186 9.00195 9.00205 9.00214 9.00224 9.00234 9.00245 9.00256 9.00267 9.00278 9.0029 9.00302 9.00314 9.00327 9.0034 9.00354 9.00367 9.00381 9.00396 9.00411 9.00426 9.00442 9.00458 9.00474 9.00491 9.00508 9.00525 9.00543 9.00561 9.0058 9.00599 9.00619 9.00639 9.00659 9.0068 9.00701 9.00723 9.00745 9.00768 9.00791 9.00814 9.00838 9.00863 9.00887 9.00913 9.00939 9.00965 9.00992 9.01019 9.01047 9.01075 9.01104 9.01133 9.01163 9.01193 9.01224 9.01256 9.01287 9.0132 9.01353 9.01386 9.01421 9.01455 9.0149 9.01526 9.01562 9.01599 9.01637 9.01675 9.01714 9.01753 9.01793 9.01833 9.01874 9.01916 9.01958 9.02001 9.02044 9.02089 9.02133 9.02179 9.02225 9.02271 9.02319 9.02367 9.02415 9.02465 9.02515 9.02565 9.02617 9.02668 9.02721 9.02775 9.02829 9.02883 9.02939 9.02995 9.03052 9.03109 9.03168 9.03227 9.03286 9.03347 9.03408 9.0347 9.03533 9.03596 9.0366 9.03725 9.03791 9.03858 9.03925 9.03993 9.04062 9.04132 9.04202 9.04273 9.04345 9.04418 9.04492 9.04566 9.04641 9.04717 9.04794 9.04872 9.04951 9.0503 9.0511 9.05191 9.05273 9.05356 9.0544 9.05524 9.0561 9.05696 9.05783 9.05871 9.0596 9.0605 9.06141 9.06233 9.06325 9.06419 9.06513 9.06608 9.06705 9.06802 9.069 9.06999 9.07099 9.072 9.07302 9.07405 9.07508 9.07613 9.07719 9.07826 9.07933 9.08042 9.08152 9.08262 9.08374 9.08487 9.086 9.08715 9.08831 9.08947 9.09065 9.09184 9.09304 9.09424 9.09546 9.09669 9.09793 9.09918 9.10044 9.10171 9.103 9.10429 9.10559 9.10691 9.10823 9.10957 9.11092 9.11227 9.11364 9.11502 9.11642 9.11782 9.11923 9.12066 9.12209 9.12354 9.125 9.12647 9.12795 9.12945 9.13095 9.13247 9.134 9.13554 9.13709 9.13865 9.14023 9.14182 9.14341 9.14503 9.14665 9.14829 9.14993 9.15159 9.15326 9.15495 9.15665 9.15835 9.16008 9.16181 9.16356 9.16531 9.16709 9.16887 9.17067 9.17247 9.1743 9.17613 9.17798 9.17984 9.18171 9.1836 9.1855 9.18741 9.18934 9.19127 9.19323 9.19519 9.19717 9.19916 9.20117 9.20318 9.20522 9.20726 9.20932 9.21139 9.21348 9.21558 9.21769 9.21982 9.22196 9.22412 9.22628 9.22847 9.23066 9.23287 9.2351 9.23734 9.23959 9.24186 9.24414 9.24644 9.24875 9.25107 9.25341 9.25576 9.25813 9.26052 9.26291 9.26532 9.26775 9.27019 9.27265 9.27512 9.27761 9.28011 9.28262 9.28515 9.2877 9.29026 9.29284 9.29543 9.29804 9.30066 9.3033 9.30595 9.30862 9.3113 9.314 9.31671 9.31944 9.32219 9.32495 9.32773 9.33052 9.33333 9.33616 9.339 9.34185 9.34473 9.34761 9.35052 9.35344 9.35638 9.35933 9.3623 9.36529 9.36829 9.37131 9.37434 9.37739 9.38046 9.38355 9.38665 9.38977 9.3929 9.39605 9.39922 9.40241 9.40561 9.40883 9.41206 9.41532 9.41859 9.42188 9.42518 9.4285 9.43184 9.4352 9.43857 9.44196 9.44537 9.4488 9.45224 9.4557 9.45918 9.46267 9.46619 9.46972 9.47327 9.47684 9.48042 9.48403 9.48765 9.49129 9.49494 9.49862 9.50231 9.50602 9.50975 9.5135 9.51727 9.52105 9.52486 9.52868 9.53252 9.53638 9.54025 9.54415 9.54807 9.552 9.55595 9.55992 9.56391 9.56792 9.57195 9.576 9.58006 9.58415 9.58825 9.59237 9.59652 9.60068 9.60486 9.60906 9.61328 9.61752 9.62178 9.62605 9.63035 9.63467 9.63901 9.64336 9.64774 9.65214 9.65655 9.66099 9.66545 9.66992 9.67442 9.67893 9.68347 9.68803 9.6926 9.6972 9.70182 9.70646 9.71111 9.71579 9.72049 9.72521 9.72995 9.73471 9.73949 9.74429 9.74912 9.75396 9.75882 9.76371 9.76861 9.77354 9.77849 9.78346 9.78845 9.79346 9.79849 9.80355 9.80862 9.81372 9.81884 9.82397 9.82914 9.83432 9.83952 9.84475 9.84999 9.85526 9.86055 9.86586 9.8712 9.87655 9.88193 9.88733 9.89275 9.8982 9.90366 9.90915 9.91466 9.92019 9.92575 9.93132 9.93692 9.94254 9.94819 9.95385 9.95954 9.96525 9.97099 9.97675 9.98252 9.98833 9.99415 10C10.517 3.5 11.1685 3.50591 11.6893 3.71424 11.9383 3.81385 12.1326 3.95099 12.2665 4.1365 12.3983 4.31887 12.5 4.58689 12.5 5 12.5 5.96516 12.3787 7.18667 12.1943 8.2928 12.0068 9.4177 11.7658 10.3504 11.5528 10.7764 11.3331 11.2157 11.1585 11.3481 11.0018 11.4108 10.7979 11.4923 10.5327 11.5 10 11.5 9.53779 11.5 8.06748 11.3793 6.5822 11.1318 5.84253 11.0085 5.11542 10.8564 4.51867 10.6773 4.22028 10.5878 3.96358 10.4943 3.75832 10.3985 3.65201 10.3489 3.5668 10.302 3.5 10.2593V10.2559 10.2496 10.2432 10.2369 10.2305 10.2241 10.2177 10.2113 10.2049 10.1985 10.1921 10.1857 10.1793 10.1729 10.1665 10.16 10.1536 10.1472 10.1407 10.1343 10.1278 10.1214 10.1149 10.1085 10.102 10.0955 10.089 10.0826 10.0761 10.0696 10.0631 10.0566 10.0501 10.0436 10.0371 10.0305 10.024 10.0175 10.011 10.0044 9.99789 9.99134 9.9848 9.97825 9.97169 9.96513 9.95857 9.952 9.94543 9.93885 9.93227 9.92569 9.9191 9.91251 9.90591 9.89931 9.89271 9.8861 9.87949 9.87287 9.86625 9.85963 9.853 9.84637 9.83973 9.83309 9.82645 9.8198 9.81315 9.8065 9.79984 9.79318 9.78651 9.77984 9.77317 9.7665 9.75982 9.75313 9.74644 9.73975 9.73306 9.72636 9.71966 9.71296 9.70625 9.69953 9.69282 9.6861 9.67938 9.67265 9.66592 9.65919 9.65246 9.64572 9.63897 9.63223 9.62548 9.61873 9.61197 9.60521 9.59845 9.59168 9.58492 9.57814 9.57137 9.56459 9.55781 9.55103 9.54424 9.53745 9.53066 9.52386 9.51706 9.51026 9.50345 9.49664 9.48983 9.48302 9.4762 9.46938 9.46256 9.45573 9.4489 9.44207 9.43524 9.4284 9.42156 9.41472 9.40787 9.40102 9.39417 9.38732 9.38046 9.3736 9.36674 9.35988 9.35301 9.34614 9.33927 9.3324 9.32552 9.31864 9.31176 9.30487 9.29799 9.2911 9.2842 9.27731 9.27041 9.26351 9.25661 9.24971 9.2428 9.2359 9.22898 9.22207 9.21516 9.20824 9.20132 9.1944 9.18747 9.18054 9.17362 9.16669 9.15975 9.15282 9.14588 9.13894 9.132 9.12506 9.11811 9.11116 9.10421 9.09726 9.09031 9.08335 9.0764 9.06944 9.06248 9.05552 9.04855 9.04158 9.03462 9.02765 9.02067 9.0137 9.00672 8.99975 8.99277 8.98579 8.9788 8.97182 8.96484 8.95785 8.95086 8.94387 8.93688 8.92988 8.92289 8.91589 8.90889 8.90189 8.89489 8.88789 8.88088 8.87388 8.86687 8.85986 8.85285 8.84584 8.83883 8.83182 8.8248 8.81778 8.81077 8.80375 8.79673 8.78971 8.78268 8.77566 8.76863 8.76161 8.75458 8.74755 8.74052 8.73349 8.72646 8.71943 8.71239 8.70536 8.69832 8.69128 8.68425 8.67721 8.67017 8.66313 8.65609 8.64904 8.642 8.63496 8.62791 8.62086 8.61382 8.60677 8.59972 8.59267 8.58562 8.57857 8.57152 8.56447 8.55742 8.55036 8.54331 8.53626 8.5292 8.52215 8.51509 8.50803 8.50098 8.49392 8.48686 8.4798 8.47274 8.46568 8.45862 8.45156 8.4445 8.43744 8.43038 8.42332 8.41625 8.40919 8.40213 8.39507 8.388 8.38094 8.37387 8.36681 8.35975 8.35268 8.34562 8.33855 8.33149 8.32442 8.31736 8.31029 8.30323 8.29616 8.2891 8.28203 8.27497 8.2679 8.26084 8.25377 8.24671 8.23964 8.23258 8.22551 8.21845 8.21138 8.20432 8.19726 8.19019 8.18313 8.17607 8.169 8.16194 8.15488 8.14782 8.14075 8.13369 8.12663 8.11957 8.11251 8.10545 8.09839 8.09133 8.08428 8.07722 8.07016 8.0631 8.05605 8.04899 8.04194 8.03488 8.02783 8.02077 8.01372 8.00667 7.99962 7.99257 7.98552 7.97847 7.97142 7.96437 7.95733 7.95028 7.94324 7.93619 7.92915 7.9221 7.91506 7.90802 7.90098 7.89394 7.88691 7.87987 7.87283 7.8658 7.85876 7.85173 7.8447 7.83767 7.83064 7.82361 7.81658 7.80955 7.80253 7.79551 7.78848 7.78146 7.77444 7.76742 7.7604 7.75339 7.74637 7.73936 7.73234 7.72533 7.71832 7.71131 7.70431 7.6973 7.6903 7.68329 7.67629 7.66929 7.66229 7.6553 7.6483 7.64131 7.63431 7.62732 7.62033 7.61335 7.60636 7.59938 7.59239 7.58541 7.57843 7.57146 7.56448 7.55751 7.55053 7.54356 7.53659 7.52963 7.52266 7.5157 7.50874 7.50178 7.49482 7.48787 7.48091 7.47396 7.46701 7.46006 7.45312 7.44617 7.43923 7.43229 7.42535 7.41842 7.41149 7.40455 7.39763 7.3907 7.38377 7.37685 7.36993 7.36301 7.3561 7.34918 7.34227 7.33536 7.32846 7.32155 7.31465 7.30775 7.30085 7.29396 7.28707 7.28018 7.27329 7.26641 7.25952 7.25264 7.24577 7.23889 7.23202 7.22515 7.21828 7.21142 7.20455 7.1977 7.19084 7.18398 7.17713 7.17028 7.16344 7.1566 7.14976 7.14292 7.13608 7.12925 7.12242 7.1156 7.10877 7.10195 7.09513 7.08832 7.08151 7.0747 7.06789 7.06109 7.05429 7.04749 7.0407 7.03391 7.02712 7.02034 7.01355 7.00678 7 6.9904 6.98081 6.97123 6.96165 6.95208 6.94252 6.93296 6.92341 6.91387 6.90433 6.8948 6.88528 6.87576 6.86625 6.85675 6.84725 6.83777 6.82829 6.81881 6.80934 6.79989 6.79043 6.78099 6.77155 6.76212 6.7527 6.74329 6.73388 6.72448 6.71509 6.7057 6.69633 6.68696 6.6776 6.66825 6.6589 6.64957 6.64024 6.63092 6.62161 6.61231 6.60301 6.59373 6.58445 6.57518 6.56592 6.55666 6.54742 6.53819 6.52896 6.51974 6.51053 6.50133 6.49214 6.48296 6.47378 6.46462 6.45547 6.44632 6.43718 6.42806 6.41894 6.40983 6.40073 6.39164 6.38256 6.37349 6.36443 6.35537 6.34633 6.3373 6.32828 6.31926 6.31026 6.30127 6.29228 6.28331 6.27435 6.2654 6.25645 6.24752 6.2386 6.22969 6.22078 6.21189 6.20301 6.19414 6.18528 6.17643 6.16759 6.15877 6.14995 6.14114 6.13235 6.12356 6.11479 6.10603 6.09728 6.08853 6.07981 6.07109 6.06238 6.05369 6.045 6.03633 6.02767 6.01902 6.01038 6.00175 5.99314 5.98453 5.97594 5.96736 5.95879 5.95023 5.94169 5.93316 5.92464 5.91613 5.90763 5.89915 5.89068 5.88222 5.87377 5.86533 5.85691 5.8485 5.8401 5.83172 5.82334 5.81498 5.80664 5.7983 5.78998 5.78167 5.77337 5.76509 5.75682 5.74856 5.74032 5.73209 5.72387 5.71566 5.70747 5.69929 5.69113 5.68298 5.67484 5.66672 5.65861 5.65051 5.64242 5.63435 5.6263 5.61826 5.61023 5.60221 5.59421 5.58623 5.57825 5.57029 5.56235 5.55442 5.5465 5.5386 5.53071 5.52284 5.51498 5.50714 5.49931 5.4915 5.48369 5.47591 5.46814 5.46038 5.45264 5.44491 5.4372 5.42951 5.42182 5.41416 5.40651 5.39887 5.39125 5.38364 5.37605 5.36848 5.36092 5.35337 5.34585 5.33833 5.33083 5.32335 5.31589 5.30844 5.301 5.29358 5.28618 5.27879 5.27142 5.26407 5.25673 5.2494 5.2421 5.23481 5.22753 5.22027 5.21303 5.20581 5.1986 5.19141 5.18423 5.17707 5.16993 5.16281 5.1557 5.1486 5.14153 5.13447 5.12743 5.12041 5.1134 5.10641 5.09944 5.09248 5.08554 5.07862 5.07172 5.06483 5.05796 5.05111 5.04428 5.03746 5.03066 5.02388 5.01712 5.01037 5.00364 4.99693 4.99024 4.98357 4.97691 4.97027 4.96365 4.95705 4.95047 4.9439 4.93736 4.93083 4.92432 4.91783 4.91135 4.9049 4.89846 4.89204 4.88565 4.87927 4.8729 4.86656 4.86024 4.85393 4.84765 4.84138 4.83514 4.82891 4.8227 4.81651 4.81034 4.80419 4.79806 4.79194 4.78585 4.77978 4.77372 4.76769 4.76168 4.75568 4.74971 4.74375 4.73782 4.7319 4.726 4.72013 4.71427 4.70844 4.70262 4.69683 4.69105 4.6853 4.67957 4.67385 4.66816 4.66249 4.65683 4.6512 4.64559 4.64 4.63443 4.62888 4.62336 4.61785 4.61236 4.6069 4.60145 4.59603 4.59063 4.58525 4.57989 4.57455 4.56924 4.56394 4.55867 4.55341 4.54818 4.54297 4.53779 4.53262 4.52747 4.52235 4.51725 4.51217 4.50711 4.50208 4.49707 4.49207 4.48711 4.48216 4.47723 4.47233 4.46745 4.46259 4.45776 4.45295 4.44815 4.44339 4.43864 4.43392 4.42922 4.42454 4.41989 4.41525 4.41065 4.40606 4.4015 4.39696 4.39244 4.38795 4.38348 4.37903 4.3746 4.3702 4.36583 4.36147 4.35714 4.35283 4.34855 4.34429 4.34005 4.33584 4.33165 4.32749 4.32335 4.31923 4.31513 4.31106 4.30702 4.303 4.299 4.29503 4.29108 4.28715 4.28325 4.2806C3.53133 4.267 3.56859 4.25166 3.61259 4.23472 3.73641 4.18704 3.87077 4.14166 4.01874 4.09168 4.08888 4.06798 4.16207 4.04326 4.23865 4.01677 4.46052 3.94002 4.70866 3.84896 4.91416 3.73996 5.01761 3.68509 5.12845 3.61635 5.22518 3.5294 5.30997 3.45319 5.40625 3.34292 5.46222 3.1936L6.44721 1.22361z" stroke="#797983"/><path d="M3.5 4V3.5C3.5 3.22386 3.27614 3 3 3H1C.723858 3 .5 3.22386.5 3.5v7C.5 10.7761.723858 11 1 11H3C3.27614 11 3.5 10.7761 3.5 10.5V10" stroke="#797983"/></svg>