<svg width="28" height="32" viewBox="0 0 28 32" fill="none" xmlns="http://www.w3.org/2000/svg">
<path d="M16.2045 13.7801C16.1969 13.7597 16.1881 13.7397 16.1781 13.7205L14.928 11.3112C14.7912 11.0476 14.4667 10.9446 14.2027 11.0815C13.939 11.2183 13.8361 11.543 13.973 11.8068L15.2078 14.1866C15.8641 15.9679 15.7921 17.8985 15.0038 19.6266C14.2111 21.3643 12.7889 22.6894 10.9994 23.3577C10.2718 23.6295 9.50915 23.7801 8.73258 23.8056C7.95602 23.7801 7.1934 23.6295 6.46565 23.3577C4.67615 22.6894 3.25402 21.3644 2.46127 19.6266C1.67302 17.8985 1.6009 15.9678 2.2574 14.1866L8.73252 1.70613L13.1199 10.1625C13.2568 10.4262 13.5813 10.5291 13.8452 10.3923C14.109 10.2554 14.2118 9.93075 14.075 9.667L9.21015 0.290188C9.11758 0.111875 8.9334 0 8.73252 0C8.53158 0 8.34746 0.111875 8.25496 0.290188L1.2869 13.7205C1.27696 13.7398 1.26815 13.7597 1.26052 13.7801C0.491583 15.8388 0.570271 18.0737 1.4824 20.0731C2.3944 22.0723 4.03046 23.5968 6.08921 24.3656C6.9324 24.6806 7.81627 24.8541 8.71615 24.8816C8.72158 24.8818 8.72708 24.8818 8.73258 24.8818C8.73802 24.8818 8.74352 24.8818 8.7489 24.8816C9.64883 24.8541 10.5327 24.6806 11.3758 24.3656C13.4345 23.5968 15.0706 22.0723 15.9826 20.0731C16.8947 18.0739 16.9735 15.8389 16.2045 13.7801Z" fill="#442751"/>
<path d="M26.9901 17.3835C26.9825 17.3631 26.9736 17.3432 26.9637 17.3239L25.7381 14.9617C25.6013 14.6981 25.2768 14.5952 25.0128 14.7319C24.749 14.8688 24.6462 15.1935 24.783 15.4572L25.993 17.7894C26.5995 19.4622 25.7432 21.3219 24.0726 21.9457C23.7442 22.0682 23.4004 22.1367 23.0503 22.1492C22.7002 22.1367 22.3562 22.0683 22.0279 21.9457C21.2137 21.6417 20.5668 21.0389 20.2062 20.2483C19.85 19.4673 19.8152 18.5953 20.1077 17.7894L23.0503 12.1177L24.0252 13.9969C24.1622 14.2606 24.4867 14.3634 24.7505 14.2267C25.0143 14.0898 25.1171 13.7651 24.9803 13.5014L23.5278 10.7018C23.4353 10.5236 23.2511 10.4116 23.0502 10.4116C22.8493 10.4116 22.6652 10.5235 22.5727 10.7018L19.1369 17.3239C19.1269 17.3432 19.1181 17.3631 19.1105 17.3835C18.7058 18.4668 18.7473 19.6428 19.2272 20.6949C19.7071 21.7469 20.568 22.5491 21.6515 22.9537C22.0952 23.1194 22.5603 23.2107 23.0337 23.2252C23.0392 23.2254 23.0447 23.2254 23.0502 23.2254C23.0557 23.2254 23.0612 23.2254 23.0669 23.2251C23.5403 23.2107 24.0053 23.1194 24.4491 22.9536C26.6853 22.1186 27.8252 19.6198 26.9901 17.3835Z" fill="#442751"/>
<path d="M20.123 27.8052L17.8337 23.3926C17.7412 23.2144 17.557 23.1024 17.3562 23.1024C17.1552 23.1024 16.9711 23.2143 16.8787 23.3926L14.5891 27.8052C14.579 27.8245 14.5702 27.8444 14.5625 27.8648C13.9716 29.4477 14.7785 31.2164 16.3614 31.8075C16.6755 31.9247 17.0045 31.9893 17.3396 31.9996C17.3451 31.9998 17.3506 31.9999 17.3562 31.9999C17.3617 31.9999 17.3672 31.9998 17.3728 31.9996C17.7076 31.9893 18.0367 31.9247 18.351 31.8075C19.9338 31.2163 20.7407 29.4476 20.1495 27.8647C20.1418 27.8444 20.133 27.8245 20.123 27.8052ZM17.9747 30.7995C17.7758 30.8737 17.5677 30.9154 17.356 30.9237C17.1442 30.9154 16.9362 30.8737 16.7375 30.7996C15.7201 30.4196 15.1968 29.2898 15.5599 28.27L17.356 24.8086L19.1518 28.27C19.5151 29.2897 18.9918 30.4195 17.9747 30.7995Z" fill="#442751"/>
</svg>
