<svg width="30" height="30" viewBox="0 0 30 30" fill="none" xmlns="http://www.w3.org/2000/svg">
<path d="M28.219 25.3007L25.0256 25.9623C24.8511 26 24.6755 26.0315 24.5 26.0626V21.805C26.4829 20.6034 27.8857 18.6382 28.3801 16.3702L28.9155 13.957C29.1572 13.8905 29.3772 13.7621 29.5539 13.5843C29.8403 13.3055 30.0012 12.9222 30 12.5223C30 11.6925 29.3284 11.0196 28.5 11.0196H17V1.50268C16.9959 0.674542 16.3267 0.0041578 15.5 0C14.8667 0.00269034 14.3032 0.403551 14.092 1.00179H11.5C10.6548 1.00521 9.813 1.11111 8.99293 1.31729C8.94142 1.32218 8.89063 1.33514 8.84303 1.35593C6.56007 1.95832 4.54616 3.31303 3.1255 5.2019C3.07619 5.2425 3.03493 5.29215 3.00465 5.34864C3.00002 5.35647 3.0005 5.36601 2.9966 5.37457C1.78737 7.04674 1.09987 9.04053 1.02101 11.1038C0.803972 11.1742 0.606951 11.2955 0.446062 11.4574C0.158953 11.737 -0.00193555 12.1215 1.75772e-05 12.5223C0.00221484 13.1895 0.444353 13.775 1.08449 13.959L1.62013 16.3732C2.07155 18.4386 3.27711 20.2607 5.00001 21.4819V25.9672L4.97145 25.9618L1.78615 25.3017C1.68556 25.2802 1.58278 25.2696 1.48 25.2701C0.721941 25.2694 0.0861991 25.8437 0.00880663 26.5992C-0.0683417 27.3547 0.437517 28.0463 1.17995 28.1997L4.77052 28.9466C8.13575 29.6454 11.5632 29.9983 15 30C18.4373 29.9993 21.8657 29.6468 25.2314 28.9481L28.822 28.2019C29.6211 28.0351 30.134 27.2507 29.9675 26.4502C29.801 25.6495 29.0181 25.1359 28.219 25.3027V25.3007ZM15 1.50268C15 1.22606 15.2239 1.00179 15.5 1.00179C15.6348 1.0013 15.7637 1.05682 15.856 1.15513C15.9492 1.24636 16.0012 1.37207 16 1.50268V11.0196H15V1.50268ZM11.5 2.00357H14V9.61724L9.79664 2.16328C10.3584 2.05885 10.9285 2.00528 11.5 2.00357ZM8.78248 2.40125L13.2166 10.2654L4.21657 5.43229C5.40919 3.99565 6.99708 2.94152 8.78248 2.40125ZM3.61061 6.24208L12.509 11.0196H2.01296C2.10402 9.31152 2.65602 7.66038 3.61061 6.24208ZM1.50002 13.0232C1.22389 13.0232 1.00002 12.7989 1.00002 12.5223C0.999528 12.3873 1.05495 12.2582 1.15309 12.1657C1.24416 12.0723 1.36965 12.0202 1.50002 12.0214H28.5C28.7761 12.0214 29 12.2457 29 12.5223C29.0005 12.6573 28.9451 12.7865 28.8469 12.8789C28.7559 12.9723 28.6304 13.0244 28.5 13.0232H1.50002ZM2.59596 16.1557L2.12355 14.025H27.8765L27.404 16.1557C26.9541 18.2205 25.6531 19.998 23.8225 21.0485C23.7898 21.0629 23.759 21.0813 23.7305 21.1026C22.613 21.7201 21.3569 22.0425 20.0806 22.0393H9.91749C8.4485 22.0429 7.01075 21.6142 5.78297 20.8061C5.75416 20.7824 5.72291 20.7619 5.68947 20.745C4.11061 19.6679 3.00343 18.0255 2.59596 16.1557ZM21.5 26.5502C17.0183 27.1473 12.4758 27.1252 8.00001 26.4847V22.8207C8.62892 22.9665 9.27198 23.0403 9.91749 23.0411H20.0825C20.5574 23.0406 21.0315 23.0012 21.5 22.9229V26.5502ZM28.6184 27.2189L25.029 27.9654C18.4138 29.3423 11.5867 29.3423 4.97145 27.9654L1.3821 27.2189C1.14064 27.17 0.975847 26.9452 1.00173 26.6999C1.0276 26.4544 1.23561 26.269 1.48195 26.2719C1.51564 26.2712 1.54909 26.2746 1.58205 26.2819L4.76906 26.9421C4.98244 26.9876 5.19606 27.0286 5.40944 27.0692C5.68068 27.1213 5.94264 26.9433 5.99464 26.6716C5.99806 26.6403 5.99977 26.6089 6.00001 26.5774V22.0894C6.32374 22.256 6.65773 22.4015 7.00001 22.5257V26.8479C7.00099 26.9012 7.00563 26.9543 7.01344 27.0071C7.04738 27.2192 7.21339 27.3852 7.42506 27.419C9.92555 27.7993 12.4509 27.9901 14.98 27.9898C17.3521 27.9893 19.7212 27.822 22.0701 27.4889C22.2837 27.4576 22.4521 27.2908 22.4861 27.0773C22.4941 27.0242 22.4988 26.9707 22.5 26.9169V22.6903C22.8406 22.5898 23.1746 22.468 23.5 22.3259V26.6725C23.5 26.9492 23.7239 27.1734 24 27.1734C24.0308 27.1727 24.0615 27.1698 24.092 27.1649L28.4204 26.2819C28.5635 26.2519 28.7122 26.2888 28.8245 26.382C28.9363 26.4722 29.001 26.6087 29 26.7528C28.9983 26.9787 28.8393 27.1729 28.6184 27.2189Z" fill="#442751"/>
</svg>
