<svg width="30" height="30" viewBox="0 0 30 30" fill="none" xmlns="http://www.w3.org/2000/svg">
<path d="M27.5934 16.1016H25.7618V1.34766C25.7614 0.99035 25.6193 0.647784 25.3667 0.395131C25.114 0.142477 24.7714 0.00037226 24.4141 9.73782e-10L22.3556 9.73782e-10C22.0129 0.000549388 21.6832 0.13144 21.4334 0.366123C21.1836 0.600807 21.0324 0.921712 21.0105 1.26375L20.7569 5.3243C20.5526 5.19445 20.3444 5.07188 20.1326 4.95656L18.5859 0.28125C18.5589 0.199403 18.5068 0.128163 18.4369 0.0776679C18.3671 0.0271725 18.2831 -5.94001e-06 18.1969 9.73782e-10H11.8031C11.7169 -5.94001e-06 11.6329 0.0271725 11.5631 0.0776679C11.4932 0.128163 11.4411 0.199403 11.4141 0.28125L9.86718 4.95656C9.65546 5.07188 9.44734 5.19445 9.24281 5.3243L8.98945 1.26375C8.96755 0.921712 8.81638 0.600807 8.56659 0.366123C8.3168 0.13144 7.98711 0.000549388 7.64437 9.73781e-10L5.58585 9.73782e-10C5.22855 0.00037226 4.88598 0.142477 4.63333 0.395131C4.38067 0.647784 4.23857 0.99035 4.2382 1.34766V16.1016H2.40656C1.92499 16.1021 1.4633 16.2937 1.12278 16.6342C0.782257 16.9747 0.590707 17.4364 0.590149 17.918V25.1953C0.590707 25.6769 0.782257 26.1386 1.12278 26.4791C1.4633 26.8196 1.92499 27.0112 2.40656 27.0117H4.2382V27.9492C4.23882 28.4929 4.45508 29.0142 4.83954 29.3987C5.224 29.7831 5.74527 29.9994 6.28898 30H23.711C24.2547 29.9994 24.776 29.7831 25.1604 29.3987C25.5449 29.0142 25.7612 28.4929 25.7618 27.9492V27.0117H27.5934C28.075 27.0112 28.5367 26.8196 28.8772 26.4791C29.2177 26.1386 29.4093 25.6769 29.4098 25.1953V17.9175C29.4092 17.436 29.2176 16.9744 28.877 16.634C28.5365 16.2936 28.0749 16.1021 27.5934 16.1016ZM27.5934 16.9219C27.8575 16.9221 28.1108 17.0271 28.2975 17.2139C28.4843 17.4006 28.5893 17.6539 28.5895 17.918V19.0629H25.7618V16.9219H27.5934ZM28.5895 20.7232H25.7618V19.8827H28.5895V20.7232ZM21.8294 1.31484C21.838 1.18101 21.8971 1.05543 21.9948 0.963583C22.0925 0.871741 22.2215 0.820518 22.3556 0.820312H24.4141C24.5539 0.820499 24.688 0.876118 24.7868 0.974973C24.8857 1.07383 24.9413 1.20785 24.9415 1.34766V10.2968C24.2128 8.55219 23.0421 7.02752 21.5449 5.87297L21.8294 1.31484ZM16.7032 3.78844C15.5022 3.5971 14.2776 3.60923 13.0807 3.8243L13.4531 2.69531H16.5469L16.9202 3.8243C16.8476 3.81141 16.7754 3.79992 16.7032 3.78844ZM9.81327 5.93672C11.388 4.97036 13.2015 4.46329 15.0491 4.47269C16.8966 4.48209 18.7048 5.00759 20.2697 5.98992L19.3125 12.4453C19.2849 12.6256 19.1939 12.7902 19.0558 12.9094C18.9177 13.0286 18.7416 13.0946 18.5592 13.0955H11.4405C11.2582 13.0945 11.0821 13.0285 10.9441 12.9093C10.806 12.7901 10.7151 12.6256 10.6875 12.4453L9.7303 5.98992C9.75796 5.97258 9.78515 5.95312 9.81327 5.93672ZM10.8935 4.46625L12.0996 0.820312H17.9004L19.1065 4.46625C18.6982 4.29702 18.2797 4.15338 17.8535 4.03617L17.2315 2.15625C17.2045 2.07435 17.1523 2.00306 17.0824 1.95255C17.0125 1.90205 16.9284 1.87491 16.8422 1.875H13.1578C13.0716 1.87491 12.9875 1.90205 12.9176 1.95255C12.8477 2.00306 12.7955 2.07435 12.7685 2.15625L12.1465 4.03617C11.7203 4.15338 11.3018 4.29702 10.8935 4.46625ZM5.05851 1.34766C5.05869 1.20785 5.11431 1.07383 5.21317 0.974973C5.31203 0.876118 5.44605 0.820499 5.58585 0.820312H7.64437C7.77847 0.820518 7.90748 0.871741 8.00519 0.963583C8.10291 1.05543 8.16203 1.18101 8.17054 1.31484L8.45507 5.87297C6.95778 7.02745 5.78714 8.55214 5.05851 10.2968V1.34766ZM1.41046 19.8827H4.2382V20.7227H1.41046V19.8827ZM2.40656 16.9219H4.2382V19.0629H1.41046V17.9175C1.41083 17.6535 1.51591 17.4004 1.70265 17.2137C1.88939 17.0271 2.14253 16.9221 2.40656 16.9219ZM2.40656 26.1919C2.14245 26.1916 1.88923 26.0866 1.70248 25.8999C1.51573 25.7131 1.41071 25.4599 1.41046 25.1958V21.543H4.2382V26.1914L2.40656 26.1919ZM24.9415 27.9497C24.9411 28.2759 24.8113 28.5887 24.5807 28.8193C24.35 29.05 24.0372 29.1798 23.711 29.1802H6.28898C5.96275 29.1798 5.64999 29.05 5.41932 28.8193C5.18864 28.5887 5.05888 28.2759 5.05851 27.9497V14.4141C5.06669 12.8852 5.42409 11.3785 6.10341 10.0088C6.78273 8.63917 7.76601 7.44285 8.9782 6.51117L9.87562 12.5662C9.93303 12.9408 10.1222 13.2825 10.409 13.53C10.6959 13.7775 11.0617 13.9146 11.4405 13.9165H18.5594C18.9383 13.9146 19.3041 13.7775 19.5909 13.53C19.8778 13.2825 20.067 12.9408 20.1244 12.5662L21.0218 6.51117C22.234 7.44285 23.2173 8.63917 23.8966 10.0088C24.5759 11.3785 24.9333 12.8852 24.9415 14.4141V27.9492V27.9497ZM27.5934 26.1919H25.7618V21.543H28.5895V25.1953C28.5893 25.4594 28.4843 25.7126 28.2975 25.8994C28.1108 26.0861 27.8575 26.1912 27.5934 26.1914V26.1919Z" fill="#442751"/>
<path d="M21.4399 16.416H8.56009C8.2028 16.4164 7.86027 16.5586 7.60763 16.8112C7.35499 17.0639 7.21287 17.4064 7.21243 17.7637V25.664C7.21287 26.0213 7.35499 26.3638 7.60763 26.6164C7.86027 26.8691 8.2028 27.0112 8.56009 27.0116H21.4399C21.7972 27.0112 22.1397 26.8691 22.3924 26.6164C22.645 26.3638 22.7872 26.0213 22.7876 25.664V17.7637C22.7872 17.4064 22.645 17.0639 22.3924 16.8112C22.1397 16.5586 21.7972 16.4164 21.4399 16.416ZM8.03368 17.7637C8.03387 17.6239 8.08949 17.4898 8.18834 17.391C8.2872 17.2921 8.42122 17.2365 8.56103 17.2363H21.4399C21.5797 17.2365 21.7138 17.2921 21.8126 17.391C21.9115 17.4898 21.9671 17.6239 21.9673 17.7637V20.7227H8.03274L8.03368 17.7637ZM18.2813 21.543H19.3845V23.7304H18.2813V21.543ZM21.4399 26.1913H8.56009C8.42029 26.1911 8.28626 26.1355 8.18741 26.0367C8.08855 25.9378 8.03293 25.8038 8.03274 25.664V21.543H17.4609V24.1405C17.4609 24.1944 17.4715 24.2478 17.4921 24.2975C17.5127 24.3473 17.5429 24.3925 17.581 24.4306C17.6191 24.4687 17.6643 24.4989 17.7141 24.5195C17.7639 24.5401 17.8172 24.5507 17.8711 24.5507H19.7946C19.8485 24.5507 19.9018 24.5401 19.9516 24.5195C20.0014 24.4989 20.0466 24.4687 20.0847 24.4306C20.1228 24.3925 20.153 24.3473 20.1736 24.2975C20.1942 24.2478 20.2048 24.1944 20.2048 24.1405V21.543H21.9673V25.664C21.9671 25.8038 21.9115 25.9378 21.8126 26.0367C21.7138 26.1355 21.5797 26.1911 21.4399 26.1913Z" fill="#442751"/>
<path d="M14.2188 11.0735H15.7812C16.3821 11.0735 16.9584 10.8348 17.3833 10.4099C17.8082 9.98501 18.0469 9.40872 18.0469 8.80782C18.0469 8.20692 17.8082 7.63063 17.3833 7.20572C16.9584 6.78082 16.3821 6.54211 15.7812 6.54211H14.2188C13.6179 6.54211 13.0416 6.78082 12.6167 7.20572C12.1918 7.63063 11.9531 8.20692 11.9531 8.80782C11.9531 9.40872 12.1918 9.98501 12.6167 10.4099C13.0416 10.8348 13.6179 11.0735 14.2188 11.0735ZM14.2188 7.36243H15.7812C16.1645 7.36243 16.5322 7.51471 16.8032 7.78577C17.0743 8.05684 17.2266 8.42448 17.2266 8.80782C17.2266 9.19116 17.0743 9.5588 16.8032 9.82986C16.5322 10.1009 16.1645 10.2532 15.7812 10.2532H14.2188C13.8355 10.2532 13.4678 10.1009 13.1968 9.82986C12.9257 9.5588 12.7734 9.19116 12.7734 8.80782C12.7734 8.42448 12.9257 8.05684 13.1968 7.78577C13.4678 7.51471 13.8355 7.36243 14.2188 7.36243Z" fill="#442751"/>
</svg>
