<svg width="12" height="9" viewBox="0 0 12 9" fill="none" xmlns="http://www.w3.org/2000/svg">
<path fill-rule="evenodd" clip-rule="evenodd" d="M11.7799 0.220072C11.9203 0.360692 11.9992 0.551322 11.9992 0.750072C11.9992 0.948822 11.9203 1.13944 11.7799 1.28007L4.52985 8.53007C4.38922 8.67047 4.1986 8.74937 3.99985 8.74937C3.8011 8.74937 3.61047 8.67047 3.46985 8.53007L0.219851 5.28007C0.087371 5.13789 0.015251 4.94985 0.018671 4.75554C0.022101 4.56124 0.100811 4.37586 0.238231 4.23844C0.375641 4.10103 0.561031 4.02232 0.755331 4.01889C0.949631 4.01546 1.13767 4.08759 1.27985 4.22007L3.99985 6.94007L10.7199 0.220072C10.8605 0.0796223 11.0511 0.000732422 11.2499 0.000732422C11.4486 0.000732422 11.6393 0.0796223 11.7799 0.220072Z" fill="#797983"/>
</svg>
