<svg width="17" height="14" viewBox="0 0 17 14" fill="none" xmlns="http://www.w3.org/2000/svg">
<path fill-rule="evenodd" clip-rule="evenodd" d="M0.5 7.23913L3.86623 8.26087C4.48442 7.46196 5.42468 6.95652 6.48442 6.95652H6.58831L8.43766 4.26087V4.21739C8.43766 1.8913 10.2429 0 12.4688 0C14.6948 0 16.5 1.8913 16.5 4.21739C16.5 6.5462 14.6948 8.43478 12.4688 8.43478H12.4065L9.85065 10.3696C9.85325 10.4049 9.85065 10.4429 9.85065 10.4783C9.85065 12.4266 8.34675 14 6.48442 14C4.75974 14 3.35974 12.6413 3.15974 10.8913L0.5 10.087V7.23913ZM9.66364 4.21739C9.66364 2.59783 10.9234 1.28261 12.4688 1.28261C14.0143 1.28261 15.274 2.59783 15.274 4.21739C15.274 5.83696 14.0143 7.15217 12.4688 7.15217C10.9234 7.15217 9.66364 5.83696 9.66364 4.21739ZM5.05065 8.63043C5.44545 8.29348 5.93636 8.08696 6.48442 8.08696C7.75195 8.08696 8.77013 9.15217 8.77013 10.4783C8.77013 11.8043 7.75195 12.8696 6.48442 12.8696C5.47922 12.8696 4.63247 12.2038 4.32338 11.2609L6.08961 11.7826C6.21429 11.8261 6.34675 11.8478 6.48442 11.8478C7.20649 11.8478 7.79351 11.2337 7.79351 10.4783C7.79351 9.84239 7.38312 9.30435 6.81688 9.15217H6.77532C6.76234 9.14946 6.74675 9.13315 6.73377 9.13043L5.05065 8.63043Z" fill="white"/>
<path d="M12.4688 2.17391C13.5442 2.17391 14.4221 3.09239 14.4221 4.21739C14.4221 5.34239 13.5442 6.26087 12.4688 6.26087C11.3961 6.26087 10.5156 5.34239 10.5156 4.21739C10.5156 3.09239 11.3961 2.17391 12.4688 2.17391Z" fill="white"/>
</svg>
