<svg width="16" height="10" viewBox="0 0 16 10" fill="none" xmlns="http://www.w3.org/2000/svg"><path d="M8.00004 7C9.10461 7 10 6.10457 10 5 10 3.89543 9.10461 3 8.00004 3 6.89548 3 6.00004 3.89543 6.00004 5 6.00004 6.10457 6.89548 7 8.00004 7z" fill="#797983"/><path fill-rule="evenodd" clip-rule="evenodd" d="M8.00004.0C6.56839.0 5.27229.613524 4.16592 1.39282 3.05898 2.17252 2.09735 3.15064 1.33754 3.93675.766394 4.52765.766395 5.47235 1.33754 6.06325 2.09735 6.84936 3.05899 7.82748 4.16592 8.60718 5.27229 9.38648 6.5684 10 8.00004 10 9.43169 10 10.7278 9.38648 11.8342 8.60718 12.9411 7.82748 13.9027 6.84936 14.6626 6.06325 15.2337 5.47235 15.2337 4.52765 14.6626 3.93675 13.9027 3.15064 12.9411 2.17252 11.8342 1.39282 10.7278.613524 9.43169.0 8.00004.0zM2.05656 4.63173C2.81881 3.84311 3.72137 2.92912 4.74178 2.21037 5.76274 1.49123 6.8571 1 8.00004 1 9.14299 1 10.2374 1.49123 11.2583 2.21037 12.2787 2.92912 13.1813 3.84311 13.9435 4.63173 14.14 4.83504 14.14 5.16496 13.9435 5.36827 13.1813 6.15689 12.2787 7.07088 11.2583 7.78963 10.2374 8.50877 9.14299 9 8.00004 9 6.8571 9 5.76274 8.50877 4.74178 7.78963 3.72137 7.07088 2.81881 6.15689 2.05656 5.36827 1.86005 5.16496 1.86005 4.83504 2.05656 4.63173z" fill="#797983"/></svg>