<svg width="16" height="16" viewBox="0 0 16 16" fill="none" xmlns="http://www.w3.org/2000/svg">
<path fill-rule="evenodd" clip-rule="evenodd" d="M3.9375 8C3.93749 7.23649 4.15265 6.48844 4.55829 5.8416C4.96394 5.19476 5.54366 4.67533 6.23098 4.34286C6.9183 4.01039 7.6854 3.87834 8.44433 3.96184C9.20326 4.04535 9.92331 4.34104 10.5219 4.815L4.815 10.5219C4.24548 9.80481 3.93611 8.91572 3.9375 8ZM5.47812 11.185C6.25918 11.8035 7.24027 12.1134 8.23488 12.0558C9.22949 11.9983 10.1683 11.5773 10.8728 10.8728C11.5773 10.1683 11.9983 9.22949 12.0558 8.23488C12.1134 7.24027 11.8035 6.25918 11.185 5.47812L5.47812 11.185ZM8 3C6.67392 3 5.40215 3.52678 4.46447 4.46447C3.52678 5.40215 3 6.67392 3 8C3 9.32606 3.52678 10.5979 4.46447 11.5356C5.40215 12.4732 6.67392 13 8 13C9.32606 13 10.5979 12.4732 11.5356 11.5356C12.4732 10.5979 13 9.32606 13 8C13 6.67392 12.4732 5.40215 11.5356 4.46447C10.5979 3.52678 9.32606 3 8 3Z" fill="#797983"/>
</svg>
