<svg width="16" height="16" viewBox="0 0 16 16" fill="none" xmlns="http://www.w3.org/2000/svg">
<path fill-rule="evenodd" clip-rule="evenodd" d="M7.99999 3.9375C7.37693 3.9375 6.81535 4.19739 6.41635 4.61596C6.23773 4.80335 5.94102 4.81046 5.75363 4.63183C5.56624 4.45321 5.55914 4.15649 5.73776 3.96911C6.30633 3.37264 7.11003 3 7.99999 3C9.72589 3 11.125 4.39911 11.125 6.125V7.60851C11.125 7.86739 10.9151 8.07726 10.6563 8.07726C10.3973 8.07726 10.1875 7.86739 10.1875 7.60851V6.125C10.1875 4.91688 9.20811 3.9375 7.99999 3.9375ZM5.61398 5.69344L3.74371 4.33909C3.53403 4.18725 3.24096 4.23414 3.08912 4.44382C2.93729 4.6535 2.98418 4.94657 3.19386 5.09841L4.87502 6.31581V7.96701C4.87502 7.99786 4.86589 8.02802 4.84878 8.05369L3.78433 9.65038C3.68046 9.80619 3.62503 9.98925 3.62503 10.1765C3.62503 10.7004 4.04968 11.125 4.57352 11.125H11.5162L12.2563 11.6609C12.466 11.8127 12.7591 11.7659 12.9109 11.5562C13.0627 11.3465 13.0158 11.0534 12.8061 10.9016L11.9471 10.2795C11.9442 10.2774 11.9413 10.2753 11.9384 10.2733L5.62359 5.70039C5.62042 5.69804 5.61722 5.69571 5.61398 5.69344ZM10.2216 10.1875L5.81251 6.99469V7.96701C5.81251 8.18295 5.7486 8.39405 5.62882 8.57372L4.56437 10.1704C4.56316 10.1722 4.56252 10.1743 4.56252 10.1765C4.56252 10.1789 4.56291 10.18 4.56319 10.1806C4.56361 10.1816 4.56441 10.1829 4.56574 10.1842C4.56708 10.1856 4.56841 10.1864 4.56938 10.1868C4.57004 10.1871 4.57113 10.1875 4.57352 10.1875H10.2216ZM7.99999 13C8.63754 13 9.1636 12.5227 9.24035 11.9059C9.25102 11.8203 9.18003 11.75 9.09374 11.75H6.90625C6.81996 11.75 6.74898 11.8203 6.75963 11.9059C6.83639 12.5227 7.36246 13 7.99999 13Z" fill="#797983"/>
</svg>
