<svg width="12" height="12" viewBox="0 0 12 12" fill="none" xmlns="http://www.w3.org/2000/svg"><path fill-rule="evenodd" clip-rule="evenodd" d="M1.19361 2.03434 1.78547 5.43753H5.43736C5.74801 5.43753 5.99985 5.68937 5.99985 6.00003 5.99985 6.31069 5.74801 6.56253 5.43736 6.56253H1.78547L1.19361 9.9657 10.4469 6.00003 1.19361 2.03434zM.741408 6.00003.0476035 2.01065C-.00848494 1.68815.0958714 1.35851.327343 1.12704.618182.836206 1.05679.751734 1.43484.913756L11.4866 5.22165C11.7979 5.3551 11.9998 5.66126 11.9998 6.00003 11.9998 6.33879 11.7979 6.64496 11.4866 6.77841L1.43484 11.0863C1.05679 11.2484.618182 11.1638.327343 10.8731.0958714 10.6415-.0084851 10.3119.0476035 9.9894L.741408 6.00003z" fill="#797983"/></svg>