<svg width="16" height="16" viewBox="0 0 16 16" fill="none" xmlns="http://www.w3.org/2000/svg"><path fill-rule="evenodd" clip-rule="evenodd" d="M1.5 8C1.5 6.27609 2.18482 4.62279 3.40381 3.40381 4.62279 2.18482 6.27609 1.5 8 1.5 9.72391 1.5 11.3772 2.18482 12.5962 3.40381 13.8152 4.62279 14.5 6.27609 14.5 8 14.5 9.72391 13.8152 11.3772 12.5962 12.5962 11.3772 13.8152 9.72391 14.5 8 14.5 6.27609 14.5 4.62279 13.8152 3.40381 12.5962 2.18482 11.3772 1.5 9.72391 1.5 8zM8 0C5.87827.0 3.84344.842855 2.34315 2.34315.842855 3.84344.0 5.87827.0 8 0 10.1217.842855 12.1566 2.34315 13.6569 3.84344 15.1571 5.87827 16 8 16 10.1217 16 12.1566 15.1571 13.6569 13.6569 15.1571 12.1566 16 10.1217 16 8 16 5.87827 15.1571 3.84344 13.6569 2.34315 12.1566.842855 10.1217.0 8 0zM5 8C5.26522 8 5.51957 7.89464 5.70711 7.70711 5.89464 7.51957 6 7.26522 6 7 6 6.73478 5.89464 6.48043 5.70711 6.29289 5.51957 6.10536 5.26522 6 5 6 4.73478 6 4.48043 6.10536 4.29289 6.29289 4.10536 6.48043 4 6.73478 4 7 4 7.26522 4.10536 7.51957 4.29289 7.70711 4.48043 7.89464 4.73478 8 5 8zm7-1C12 7.26522 11.8946 7.51957 11.7071 7.70711 11.5196 7.89464 11.2652 8 11 8 10.7348 8 10.4804 7.89464 10.2929 7.70711 10.1054 7.51957 10 7.26522 10 7 10 6.73478 10.1054 6.48043 10.2929 6.29289 10.4804 6.10536 10.7348 6 11 6 11.2652 6 11.5196 6.10536 11.7071 6.29289 11.8946 6.48043 12 6.73478 12 7zM5.32 9.636C5.48134 9.52303 5.68064 9.47806 5.87486 9.51081 6.06908 9.54355 6.24262 9.65138 6.358 9.811L6.365 9.82C6.46785 9.93795 6.58549 10.0421 6.715 10.13 6.979 10.308 7.398 10.5 8 10.5 8.602 10.5 9.02 10.308 9.285 10.129 9.41451 10.0411 9.53215 9.93695 9.635 9.819L9.642 9.811C9.75737 9.64895 9.93239 9.53937 10.1285 9.50637 10.3247 9.47336 10.526 9.51963 10.688 9.635 10.85 9.75037 10.9596 9.92539 10.9926 10.1215 11.0256 10.3177 10.9794 10.519 10.864 10.681L10.25 10.25C10.864 10.68 10.864 10.681 10.863 10.681V10.682L10.862 10.684 10.86 10.687 10.855 10.694 10.841 10.713C10.7848 10.7883 10.7233 10.8594 10.657 10.926 10.4963 11.0924 10.3187 11.2415 10.127 11.371 9.49722 11.7894 8.75607 12.0086 8 12 7.054 12 6.348 11.692 5.874 11.37 5.62319 11.2003 5.39676 10.9971 5.201 10.766 5.1867 10.7486 5.1727 10.7309 5.159 10.713L5.145 10.693 5.14 10.687 5.138 10.684V10.682H5.137L5.75 10.25 5.136 10.68C5.02196 10.5172 4.97718 10.3159 5.01149 10.1201 5.04581 9.92439 5.1564 9.75027 5.319 9.636H5.32z" fill="#afafb3"/></svg>