<svg width="22" height="32" viewBox="0 0 22 32" fill="none" xmlns="http://www.w3.org/2000/svg">
<path fill-rule="evenodd" clip-rule="evenodd" d="M21.5024 6.25951C21.5022 6.25267 21.5019 6.24584 21.5014 6.239C21.4995 6.2119 21.4968 6.18529 21.4914 6.15892C21.4914 6.15892 21.4914 6.15892 21.4914 6.15868C21.486 6.13231 21.4785 6.10619 21.4699 6.0808C21.4677 6.07445 21.4655 6.0681 21.4631 6.06176C21.4541 6.03759 21.4438 6.0139 21.4321 5.99096C21.4314 5.98973 21.4309 5.98851 21.4301 5.98729C21.4174 5.96337 21.4028 5.94066 21.3869 5.91845C21.383 5.91283 21.3789 5.90746 21.3747 5.90184C21.3579 5.87987 21.3403 5.85863 21.3205 5.83886L15.6648 0.183105C15.645 0.16333 15.6237 0.145752 15.6018 0.128906C15.5962 0.124756 15.5905 0.120361 15.5849 0.116455C15.5627 0.100586 15.5403 0.0859373 15.5166 0.0734862C15.5149 0.0725096 15.5132 0.0720214 15.5117 0.0710448C15.4892 0.0593261 15.4658 0.0493163 15.4421 0.0402831C15.4355 0.0378417 15.4292 0.0356444 15.4223 0.0334472C15.3969 0.0249023 15.3713 0.017334 15.3447 0.0119629C15.3445 0.0119629 15.3442 0.0119629 15.3442 0.0119629C15.3181 0.00683592 15.2915 0.00390624 15.2646 0.00195312C15.2578 0.00170898 15.2509 0.0012207 15.2441 0.000976561C15.237 0.000732424 15.2299 0 15.2229 0H1.0625C0.717285 0 0.4375 0.279785 0.4375 0.624999V27.3764C0.4375 27.7216 0.717285 28.0014 1.0625 28.0014H10.4721V31.3749C10.4721 31.6022 10.5957 31.8117 10.7947 31.9218C10.9939 32.0319 11.2368 32.0253 11.4294 31.9045L13.8098 30.4111L16.1902 31.9045C16.2915 31.968 16.4069 31.9999 16.5224 31.9999C16.6264 31.9999 16.7307 31.9741 16.8249 31.9221C17.0239 31.812 17.1474 31.6025 17.1474 31.3749V28.0014H20.8784C21.2236 28.0014 21.5034 27.7216 21.5034 27.3764V6.28075C21.5034 6.27367 21.5026 6.26659 21.5024 6.25951ZM15.8479 2.13403L19.3696 5.65575H15.8479V2.13403ZM10.1638 19.3044C10.1199 19.185 10.0483 18.99 10.0466 18.9101C10.0954 18.8496 10.2649 18.7424 10.3686 18.677C10.5913 18.5363 10.8437 18.3767 11.0268 18.1272C11.2116 17.875 11.2868 17.5837 11.3532 17.3269C11.3823 17.2146 11.4292 17.0332 11.4692 16.9646C11.4912 16.9599 11.5373 16.9533 11.624 16.9533C11.6936 16.9533 11.7715 16.9572 11.854 16.9614C11.9487 16.966 12.0464 16.9709 12.1484 16.9709C12.3735 16.9709 12.5552 16.9455 12.7199 16.8906C13.0078 16.7949 13.238 16.6096 13.4411 16.446C13.5534 16.3557 13.7414 16.2043 13.8069 16.195C13.8784 16.2043 14.0661 16.3557 14.1784 16.446C14.3816 16.6096 14.612 16.7949 14.8999 16.8906C15.0647 16.9455 15.2461 16.9709 15.4714 16.9709C15.5732 16.9709 15.6711 16.966 15.7656 16.9614C15.8481 16.9572 15.926 16.9533 15.9958 16.9533C16.0825 16.9533 16.1284 16.9597 16.1506 16.9646C16.1906 17.0332 16.2375 17.2146 16.2663 17.3269C16.3327 17.5837 16.4082 17.875 16.593 18.1272C16.7758 18.3767 17.0283 18.5361 17.2512 18.677C17.3547 18.7426 17.5241 18.8496 17.573 18.9101C17.5713 18.99 17.4997 19.185 17.456 19.3044C17.363 19.5576 17.2578 19.8447 17.2578 20.1628C17.2578 20.4809 17.363 20.768 17.4558 21.0214C17.4997 21.1408 17.5713 21.3359 17.573 21.4157C17.5241 21.4763 17.3547 21.5832 17.2512 21.6489C17.0283 21.7895 16.7758 21.9492 16.593 22.1987C16.4082 22.4509 16.3327 22.7421 16.2663 22.999C16.2375 23.111 16.1904 23.2927 16.1506 23.3613C16.1284 23.3659 16.0825 23.3725 15.9958 23.3725C15.926 23.3725 15.8481 23.3686 15.7656 23.3645C15.6711 23.3598 15.5732 23.3549 15.4714 23.3549C15.2461 23.3549 15.0647 23.3803 14.8999 23.4353C14.612 23.531 14.3816 23.7165 14.1784 23.8798C14.0678 23.9692 13.8833 24.1174 13.8098 24.1306C13.7363 24.1174 13.552 23.9692 13.4414 23.8798C13.238 23.7165 13.0078 23.531 12.7199 23.4353C12.5552 23.3803 12.3735 23.3549 12.1484 23.3549C12.0466 23.3549 11.9487 23.3598 11.854 23.3645C11.7717 23.3686 11.6938 23.3725 11.624 23.3725C11.5373 23.3725 11.4914 23.3659 11.4692 23.3613C11.4292 23.2927 11.3823 23.1113 11.3532 22.999C11.2871 22.7421 11.2116 22.4509 11.0268 22.1987C10.844 21.9492 10.5915 21.7895 10.3686 21.6489C10.2651 21.5835 10.0957 21.4763 10.0469 21.4157C10.0486 21.3361 10.1201 21.1408 10.1638 21.0214C10.2568 20.7683 10.362 20.4812 10.362 20.163C10.362 19.8447 10.2566 19.5576 10.1638 19.3044ZM15.8974 30.2451L14.1421 29.1437C13.9389 29.0165 13.6806 29.0165 13.4775 29.1437L11.7221 30.2451V24.6206C11.7886 24.6186 11.8537 24.6162 11.917 24.613C11.9997 24.6086 12.0779 24.6047 12.1484 24.6047C12.2593 24.6047 12.3066 24.6149 12.3249 24.621C12.3994 24.6459 12.5425 24.7612 12.6574 24.8537C12.9492 25.0886 13.3122 25.3808 13.8098 25.3808C14.3073 25.3808 14.6704 25.0886 14.9621 24.8537C15.0771 24.7612 15.2202 24.6459 15.2944 24.6213C15.313 24.6152 15.3603 24.6049 15.4712 24.6049C15.5417 24.6049 15.6198 24.6088 15.7026 24.613C15.7658 24.6162 15.831 24.6188 15.8972 24.6206V30.2451H15.8974ZM17.1474 26.7514V24.1169C17.3332 23.8645 17.4109 23.5656 17.4765 23.3117C17.511 23.1784 17.5581 22.996 17.601 22.9377C17.6438 22.8791 17.8027 22.7788 17.9187 22.7055C18.2263 22.5112 18.6091 22.2692 18.7612 21.8117C18.9116 21.3603 18.7551 20.9338 18.6294 20.591C18.5722 20.4355 18.5075 20.259 18.5075 20.1628C18.5075 20.0666 18.5722 19.8903 18.6294 19.7348C18.7551 19.3921 18.9116 18.9653 18.7612 18.5139C18.6091 18.0566 18.2263 17.8147 17.9187 17.6203C17.8027 17.5471 17.6438 17.4465 17.601 17.3884C17.5581 17.3298 17.511 17.1474 17.4765 17.0141C17.3867 16.6662 17.2749 16.2331 16.8921 15.9524C16.5874 15.7292 16.2346 15.7033 15.9956 15.7033C15.8945 15.7033 15.7968 15.7082 15.7026 15.7131C15.6198 15.7173 15.5417 15.7212 15.4714 15.7212C15.3603 15.7212 15.313 15.7109 15.2946 15.7048C15.2204 15.6801 15.0774 15.5649 14.9624 15.4721C14.6704 15.2375 14.3073 14.9453 13.8098 14.9453C13.3125 14.9453 12.9492 15.2375 12.6574 15.4721C12.5425 15.5647 12.3994 15.6801 12.3252 15.7048C12.3069 15.7109 12.2593 15.7212 12.1484 15.7212C12.0781 15.7212 11.9997 15.7173 11.917 15.7129C11.8227 15.7082 11.7253 15.7033 11.624 15.7033C11.3852 15.7033 11.0324 15.7292 10.728 15.9524C10.3449 16.2331 10.2329 16.6662 10.143 17.0141C10.1086 17.1474 10.0615 17.3298 10.0188 17.3882C9.97581 17.4465 9.81687 17.5471 9.70091 17.6203C9.39329 17.8147 9.01072 18.0566 8.85838 18.5139C8.70799 18.9655 8.86448 19.3921 8.99022 19.7348C9.04735 19.8903 9.11204 20.0666 9.11204 20.1628C9.11204 20.259 9.04735 20.4355 8.99022 20.591C8.86448 20.9338 8.70799 21.3603 8.85838 21.812C9.01072 22.2692 9.39354 22.5112 9.70091 22.7055C9.81712 22.7788 9.97581 22.8794 10.0188 22.9377C10.0615 22.996 10.1086 23.1784 10.143 23.3117C10.2087 23.5656 10.2866 23.8647 10.4724 24.1169V26.7514H1.6875V1.25H14.5979V6.28075C14.5979 6.62596 14.8777 6.90575 15.2229 6.90575H20.2534V26.7514H17.1474Z" fill="#442751"/>
<path fill-rule="evenodd" clip-rule="evenodd" d="M4.11646 6.90576H12.1687C12.5137 6.90576 12.7937 6.62598 12.7937 6.28076C12.7937 5.93555 12.5137 5.65576 12.1687 5.65576H4.11646C3.77124 5.65576 3.49146 5.93555 3.49146 6.28076C3.49146 6.62598 3.77148 6.90576 4.11646 6.90576Z" fill="#442751"/>
<path fill-rule="evenodd" clip-rule="evenodd" d="M17.8943 8.81055H4.11646C3.77124 8.81055 3.49146 9.09033 3.49146 9.43555C3.49146 9.78076 3.77124 10.0605 4.11646 10.0605H17.8943C18.2395 10.0605 18.5193 9.78076 18.5193 9.43555C18.5193 9.09033 18.2395 8.81055 17.8943 8.81055Z" fill="#442751"/>
<path fill-rule="evenodd" clip-rule="evenodd" d="M15.3943 11.9653H4.11646C3.77124 11.9653 3.49146 12.2454 3.49146 12.5903C3.49146 12.9355 3.77124 13.2153 4.11646 13.2153H15.3943C15.7395 13.2153 16.0193 12.9355 16.0193 12.5903C16.0193 12.2454 15.7395 11.9653 15.3943 11.9653Z" fill="#442751"/>
<path fill-rule="evenodd" clip-rule="evenodd" d="M17.8943 11.9653C17.55 11.9653 17.2693 12.2461 17.2693 12.5903C17.2693 12.9346 17.55 13.2153 17.8943 13.2153C18.2388 13.2153 18.5193 12.9346 18.5193 12.5903C18.5193 12.2461 18.2388 11.9653 17.8943 11.9653Z" fill="#442751"/>
</svg>
