<svg width="32" height="32" viewBox="0 0 32 32" fill="none" xmlns="http://www.w3.org/2000/svg">
<g clip-path="url(#clip0)">
<path d="M26.9789 5.26246C25.9884 5.13722 25.0204 4.91749 24.1022 4.60963C23.8566 4.52735 23.5909 4.65968 23.5087 4.90504C23.4264 5.15064 23.5587 5.41627 23.8041 5.49855C24.7809 5.82618 25.8094 6.05958 26.8614 6.19264C28.4391 6.39235 29.5651 7.8484 29.3712 9.43825C29.1171 11.5232 28.6517 14.6353 27.8783 17.6206C27.0358 20.8724 26.047 23.1348 24.9393 24.3453C22.6647 26.8309 19.8128 29.034 17.8211 30.4444C16.7745 31.1856 15.3683 31.1856 14.3219 30.4444C12.3302 29.034 9.47835 26.8309 7.20369 24.3453C6.09602 23.1348 5.10701 20.8724 4.26472 17.6206C3.49128 14.6353 3.02595 11.5232 2.77155 9.43825C2.57795 7.8484 3.70368 6.39235 5.28157 6.19264C9.82967 5.61744 12.8441 3.33228 14.5721 1.5166C14.9659 1.10303 15.4984 0.875002 16.0714 0.875002C16.6444 0.875002 17.1769 1.10303 17.5709 1.5166C18.8158 2.82471 20.2547 3.89137 21.8478 4.68702C22.0792 4.80274 22.3609 4.70875 22.4767 4.47706C22.5921 4.24537 22.4982 3.96387 22.2667 3.8484C20.7711 3.10132 19.4198 2.09937 18.2499 0.870363C17.6773 0.268799 16.9037 -0.0625 16.0714 -0.0625C15.2391 -0.0625 14.4654 0.268799 13.8929 0.870363C12.2699 2.57569 9.43807 4.72193 5.16389 5.26246C3.07551 5.52662 1.58478 7.45094 1.84089 9.55178C2.27741 13.1323 3.60652 21.8033 6.51204 24.9783C8.84261 27.525 11.7508 29.7725 13.7799 31.2095C14.4652 31.6949 15.2682 31.9376 16.0714 31.9376C16.8744 31.9373 17.6776 31.6949 18.3629 31.2095C20.392 29.7725 23.3002 27.525 25.6307 24.9783C28.5365 21.8033 29.8654 13.1323 30.3019 9.55178C30.558 7.45094 29.0673 5.52662 26.9789 5.26246Z" fill="#442751"/>
<path d="M15.0139 4.34082C12.6426 6.39283 9.87426 7.73585 6.78612 8.33253C5.8452 8.51441 5.20994 9.40406 5.33983 10.3582C5.55833 11.9624 6.00511 14.9627 6.541 17.031C7.51781 20.802 8.46239 22.2378 8.93847 22.7578C10.5034 24.4678 13.4072 26.7527 14.9988 27.9624C15.3147 28.2024 15.6931 28.3223 16.0715 28.3223C16.45 28.3223 16.8284 28.2024 17.1443 27.9624C18.7358 26.7527 21.6397 24.4678 23.2046 22.7578C23.6807 22.2378 24.6253 20.802 25.6021 17.031C26.1382 14.9622 26.5847 11.9622 26.8035 10.3582C26.9334 9.40406 26.2979 8.51441 25.357 8.33253C22.2688 7.73585 19.5005 6.39283 17.1292 4.34082C16.5261 3.81909 15.6169 3.81909 15.0139 4.34082ZM25.8745 10.2315C25.6587 11.8152 25.2185 14.7737 24.6946 16.7959C23.707 20.6079 22.7752 21.8384 22.5132 22.125C20.9412 23.8426 17.8381 26.2574 16.5769 27.2159C16.2793 27.4422 15.8638 27.4422 15.5662 27.2159C14.3049 26.2574 11.2019 23.8423 9.63012 22.125C9.36791 21.8384 8.43602 20.6079 7.44847 16.7959C6.92479 14.7742 6.4846 11.8154 6.26878 10.2315C6.20579 9.77027 6.51122 9.34059 6.96385 9.25294C10.2156 8.62476 13.1304 7.2107 15.6274 5.04981C15.7539 4.94019 15.9128 4.88526 16.0715 4.88526C16.2302 4.88526 16.3892 4.94019 16.5156 5.04981C19.0127 7.2107 21.9275 8.62476 25.1792 9.25294C25.6319 9.34059 25.9373 9.77027 25.8745 10.2315Z" fill="#442751"/>
<path d="M13.4719 14.5667C13.1193 14.2796 11.9294 13.6868 11.0773 14.8125C10.2255 15.938 10.9706 16.9199 11.3232 17.2071L12.6825 18.313C12.8832 18.4763 13.1786 18.4463 13.342 18.2454C13.5053 18.0445 13.475 17.7493 13.2743 17.5857L11.915 16.4798C11.7568 16.3509 11.4111 15.9312 11.8046 15.4041C12.1982 14.8772 12.7219 15.1648 12.8801 15.2937L15.6948 17.584C15.8806 17.7351 16.1503 17.7219 16.3205 17.5532L20.4394 13.4729C20.739 13.176 21.2238 13.1785 21.5207 13.478C21.8173 13.7774 21.8149 14.2625 21.5156 14.5591L16.6096 19.4195C16.2211 19.794 15.7934 19.638 15.589 19.4693L14.8102 18.8357C14.6093 18.6724 14.3141 18.7027 14.1506 18.9033C13.9872 19.104 14.0175 19.3994 14.2184 19.5628L14.9972 20.1966C15.2997 20.4427 15.6811 20.5784 16.0712 20.5784C16.5231 20.5784 16.9487 20.4033 17.2695 20.0855L22.1752 15.2254C22.842 14.5647 22.8471 13.4849 22.1865 12.8181C21.5261 12.1516 20.4462 12.1465 19.7795 12.8069L15.9597 16.5911L13.4719 14.5667Z" fill="#442751"/>
</g>
<defs>
<clipPath id="clip0">
<rect width="32" height="32" fill="white"/>
</clipPath>
</defs>
</svg>
