<svg width="27" height="27" viewBox="0 0 27 27" fill="none" xmlns="http://www.w3.org/2000/svg">
<path d="M25.9807 1.0197C25.301 0.339796 24.4864 0 23.5374 0H3.46304C2.51378 0 1.69948 0.33992 1.01957 1.0197C0.339797 1.69929 0 2.51372 0 3.4628V23.537C0 24.486 0.339735 25.3006 1.01957 25.9802C1.69948 26.66 2.51396 27 3.46304 27H23.5372C24.486 27 25.3008 26.66 25.9805 25.9802C26.6604 25.3006 26.9999 24.486 26.9999 23.537V3.4628C26.9998 2.51353 26.6604 1.69954 25.9807 1.0197ZM9.69464 9.72936C10.7551 8.70412 12.0296 8.19126 13.5179 8.19126C15.0177 8.19126 16.2979 8.70412 17.3586 9.72936C18.4193 10.7548 18.9493 11.9942 18.9493 13.4472C18.9493 14.9001 18.4193 16.1396 17.3586 17.1647C16.2979 18.1904 15.0181 18.7032 13.5179 18.7032C12.0296 18.7032 10.7553 18.1899 9.69464 17.1647C8.63393 16.1394 8.10364 14.9001 8.10364 13.4472C8.10364 11.9942 8.63393 10.7548 9.69464 9.72936ZM23.9418 22.8166C23.9418 23.1211 23.836 23.3758 23.6252 23.581C23.4139 23.7861 23.1623 23.8886 22.8691 23.8886H4.07836C3.77372 23.8886 3.51864 23.7861 3.31374 23.581C3.10853 23.3763 3.00602 23.1211 3.00602 22.8166V11.4256H5.48446C5.25019 12.164 5.13303 12.9317 5.13303 13.7284C5.13303 15.9789 5.95324 17.8975 7.59386 19.4857C9.23466 21.0733 11.2092 21.8675 13.5178 21.8675C15.0412 21.8675 16.4474 21.504 17.7369 20.7775C19.026 20.0506 20.0449 19.0635 20.7954 17.8153C21.5455 16.5672 21.9205 15.2048 21.9205 13.7284C21.9205 12.9317 21.8029 12.1642 21.5686 11.4256H23.9419L23.9418 22.8166ZM23.9418 7.11892C23.9418 7.45878 23.8246 7.74593 23.5898 7.98026C23.3556 8.21478 23.0686 8.33188 22.7286 8.33188H19.6701C19.3304 8.33188 19.043 8.21471 18.8087 7.98026C18.5744 7.74593 18.4573 7.45878 18.4573 7.11892V4.2188C18.4573 3.89064 18.5744 3.6065 18.8087 3.3662C19.0431 3.12602 19.3305 3.00577 19.6701 3.00577H22.7286C23.0686 3.00577 23.3556 3.12596 23.5898 3.3662C23.8245 3.6065 23.9418 3.89064 23.9418 4.2188V7.11892Z" fill="#442751"/>
</svg>
