<svg width="36" height="22" viewBox="0 0 36 22" fill="none" xmlns="http://www.w3.org/2000/svg">
<path d="M29.8725 12.5421C29.2905 11.8071 29.457 11.4801 29.8725 10.8231C29.88 10.8156 34.6845 4.17662 35.1795 1.92512L35.1825 1.92362C35.4285 1.10312 35.1825 0.500122 33.993 0.500122H30.057C29.055 0.500122 28.593 1.01762 28.3455 1.59662C28.3455 1.59662 26.3415 6.39362 23.5065 9.50312C22.5915 10.4016 22.1685 10.6896 21.669 10.6896C21.423 10.6896 21.0405 10.4016 21.0405 9.58112V1.92362C21.0405 0.939622 20.76 0.500122 19.9305 0.500122H13.7415C13.113 0.500122 12.7395 0.959122 12.7395 1.38662C12.7395 2.31962 14.157 2.53412 14.304 5.15912V10.8546C14.304 12.1026 14.0775 12.3321 13.575 12.3321C12.237 12.3321 8.9895 7.51562 7.065 2.00312C6.6765 0.933622 6.297 0.501622 5.2875 0.501622H1.35C0.2265 0.501622 0 1.01912 0 1.59812C0 2.62112 1.338 7.70762 6.222 14.4276C9.477 19.0146 14.061 21.5001 18.231 21.5001C20.7375 21.5001 21.0435 20.9481 21.0435 19.9986C21.0435 15.6156 20.817 15.2016 22.0725 15.2016C22.6545 15.2016 23.6565 15.4896 25.9965 17.7021C28.671 20.3256 29.1105 21.5001 30.6075 21.5001H34.5435C35.6655 21.5001 36.234 20.9481 35.907 19.8591C35.1585 17.5686 30.1005 12.8571 29.8725 12.5421Z" fill="#442751"/>
</svg>
