<svg width="21" height="21" viewBox="0 0 21 21" fill="none" xmlns="http://www.w3.org/2000/svg">
<path d="M16.5965 13.0087C16.1666 12.5611 15.648 12.3217 15.0984 12.3217C14.5532 12.3217 14.0302 12.5566 13.5826 13.0043L12.182 14.4004C12.0668 14.3384 11.9515 14.2808 11.8407 14.2232C11.6812 14.1434 11.5305 14.068 11.402 13.9882C10.09 13.155 8.89776 12.0691 7.75425 10.6641C7.20023 9.96381 6.82793 9.37433 6.55756 8.77598C6.921 8.44357 7.25785 8.09786 7.58583 7.76544C7.70993 7.64134 7.83403 7.51281 7.95814 7.38871C8.8889 6.45795 8.8889 5.25239 7.95814 4.32163L6.74815 3.11164C6.61075 2.97424 6.46892 2.83241 6.33595 2.69058C6.07002 2.41579 5.79079 2.13212 5.5027 1.86619C5.07278 1.4407 4.55864 1.21466 4.01792 1.21466C3.47719 1.21466 2.95419 1.4407 2.51097 1.86619C2.50654 1.87063 2.50654 1.87063 2.50211 1.87506L0.99516 3.3953C0.42784 3.96262 0.10429 4.65404 0.0333745 5.45627C-0.0729981 6.75047 0.30817 7.95603 0.600695 8.74496C1.31871 10.6818 2.3913 12.4769 3.99132 14.4004C5.93262 16.7185 8.26839 18.549 10.9366 19.8387C11.956 20.3218 13.3167 20.8936 14.8369 20.9911C14.93 20.9955 15.0275 21 15.1161 21C16.14 21 16.9998 20.6321 17.6735 19.9008C17.6779 19.8919 17.6868 19.8875 17.6912 19.8786C17.9217 19.5994 18.1876 19.3468 18.4669 19.0764C18.6574 18.8947 18.8525 18.7041 19.0431 18.5047C19.4818 18.0481 19.7123 17.5163 19.7123 16.9711C19.7123 16.4215 19.4774 15.8941 19.0298 15.4509L16.5965 13.0087ZM18.1832 17.6758C18.1788 17.6758 18.1788 17.6803 18.1832 17.6758C18.0104 17.862 17.8331 18.0304 17.6425 18.2166C17.3544 18.4914 17.0619 18.7794 16.7871 19.103C16.3394 19.5817 15.812 19.8077 15.1206 19.8077C15.0541 19.8077 14.9832 19.8077 14.9167 19.8033C13.6003 19.7191 12.377 19.2049 11.4596 18.7661C8.95095 17.5517 6.74815 15.8276 4.91765 13.6425C3.40627 11.8209 2.39573 10.1367 1.72647 8.32833C1.31428 7.22472 1.16358 6.36487 1.23007 5.55378C1.27439 5.03521 1.47384 4.60529 1.84171 4.23742L3.35309 2.72604C3.57026 2.52216 3.80074 2.41135 4.02678 2.41135C4.30601 2.41135 4.53205 2.57978 4.67388 2.72161C4.67831 2.72604 4.68274 2.73047 4.68718 2.7349C4.95754 2.98754 5.21461 3.24904 5.48497 3.52827C5.62237 3.6701 5.7642 3.81193 5.90603 3.95819L7.11602 5.16818C7.58583 5.63799 7.58583 6.07235 7.11602 6.54216C6.98749 6.67069 6.86338 6.79922 6.73485 6.92333C6.36255 7.30449 6.00797 7.65907 5.62237 8.00478C5.61351 8.01365 5.60464 8.01808 5.60021 8.02694C5.21904 8.40811 5.28996 8.78042 5.36974 9.03305C5.37417 9.04635 5.3786 9.05964 5.38303 9.07294C5.69772 9.83528 6.14094 10.5533 6.81463 11.4087L6.81906 11.4131C8.04235 12.9201 9.33212 14.0946 10.7549 14.9944C10.9366 15.1096 11.1227 15.2027 11.3 15.2913C11.4596 15.3711 11.6103 15.4464 11.7388 15.5262C11.7565 15.5351 11.7743 15.5484 11.792 15.5572C11.9427 15.6326 12.0845 15.668 12.2308 15.668C12.5986 15.668 12.8291 15.4376 12.9045 15.3622L14.4203 13.8464C14.571 13.6957 14.8103 13.514 15.0895 13.514C15.3643 13.514 15.5904 13.6869 15.7278 13.8375C15.7322 13.842 15.7322 13.842 15.7366 13.8464L18.1788 16.2886C18.6353 16.7406 18.6353 17.206 18.1832 17.6758Z" fill="#331F3C"/>
<path d="M11.349 4.99532C12.5102 5.19034 13.5651 5.73993 14.4072 6.58205C15.2493 7.42417 15.7945 8.47903 15.9939 9.64026C16.0427 9.93279 16.2953 10.1367 16.5834 10.1367C16.6188 10.1367 16.6499 10.1322 16.6853 10.1278C17.0133 10.0746 17.2305 9.76437 17.1773 9.43638C16.938 8.03138 16.2731 6.75047 15.2582 5.7355C14.2432 4.72053 12.9623 4.0557 11.5573 3.81636C11.2293 3.76317 10.9235 3.98035 10.8659 4.3039C10.8082 4.62745 11.021 4.94214 11.349 4.99532Z" fill="#331F3C"/>
<path d="M20.9753 9.26354C20.5808 6.94994 19.4905 4.84465 17.8151 3.16928C16.1398 1.49391 14.0345 0.403587 11.7209 0.00912211C11.3973 -0.0484964 11.0915 0.173113 11.0339 0.496663C10.9807 0.824646 11.1979 1.13047 11.5259 1.18809C13.5913 1.53823 15.4749 2.51774 16.973 4.01139C18.4711 5.50947 19.4462 7.39316 19.7963 9.45856C19.8451 9.75108 20.0977 9.95497 20.3858 9.95497C20.4213 9.95497 20.4523 9.95053 20.4878 9.9461C20.8113 9.89735 21.0329 9.58709 20.9753 9.26354Z" fill="#331F3C"/>
</svg>
