<svg width="17" height="17" viewBox="0 0 17 17" fill="none" xmlns="http://www.w3.org/2000/svg">
<path d="M16.8526 16.133L12.7214 12.0018C13.8296 10.7277 14.5005 9.06541 14.5005 7.24856C14.5005 3.24922 11.2475 0 7.25198 0C3.25264 0 0.00341797 3.25299 0.00341797 7.24856C0.00341797 11.2441 3.25641 14.4971 7.25198 14.4971C9.06883 14.4971 10.7311 13.8262 12.0052 12.718L16.1365 16.8492C16.2345 16.9472 16.3664 17 16.4945 17C16.6227 17 16.7546 16.951 16.8526 16.8492C17.0486 16.6532 17.0486 16.329 16.8526 16.133ZM1.01739 7.24856C1.01739 3.81087 3.81428 1.01774 7.24821 1.01774C10.6859 1.01774 13.479 3.81463 13.479 7.24856C13.479 10.6825 10.6859 13.4831 7.24821 13.4831C3.81428 13.4831 1.01739 10.6863 1.01739 7.24856Z" fill="#442751"/>
</svg>
