<svg width="21" height="21" viewBox="0 0 21 21" fill="none" xmlns="http://www.w3.org/2000/svg">
<g clip-path="url(#clip0)">
<path d="M20.6405 3.75613C20.4493 1.96523 19.0349 0.550507 17.2439 0.359528C12.7523 -0.119843 8.24767 -0.119843 3.75629 0.359528C1.96523 0.550667 0.550667 1.96523 0.359528 3.75613C-0.119843 8.24751 -0.119843 12.7523 0.359528 17.2437C0.550667 19.0348 1.96523 20.4493 3.75613 20.6405C8.24751 21.1198 12.7523 21.1198 17.2439 20.6405C19.0349 20.4493 20.4493 19.0348 20.6405 17.2437C21.1198 12.7523 21.1198 8.24767 20.6405 3.75613Z" fill="url(#paint0_radial)"/>
<path d="M19.4983 4.5157C19.3287 2.9265 18.0736 1.6712 16.4842 1.50153C12.4987 1.07631 8.50126 1.07631 4.5157 1.50153C2.9265 1.6712 1.6712 2.9265 1.50153 4.5157C1.07631 8.50126 1.07631 12.4987 1.50153 16.4841C1.6712 18.0734 2.9265 19.3287 4.5157 19.4983C8.50126 19.9236 12.4987 19.9236 16.4841 19.4983C18.0734 19.3287 19.3287 18.0734 19.4983 16.4841C19.9236 12.4987 19.9236 8.50126 19.4983 4.5157Z" fill="url(#paint1_linear)"/>
<path d="M0.314697 16.8086C0.329117 16.9538 0.344017 17.0989 0.359558 17.2441C0.550697 19.035 1.96526 20.4495 3.75632 20.6407C8.24769 21.12 12.7525 21.12 17.2439 20.6407C19.035 20.4495 20.4494 19.035 20.6405 17.2441C20.656 17.0989 20.6709 16.9538 20.6855 16.8086H0.314697Z" fill="url(#paint2_linear)"/>
<path d="M20.6404 17.2439C20.8981 14.8305 21.017 12.4133 20.9977 9.99645L16.1976 5.19634C15.5979 4.51174 14.722 4.08444 13.6928 4.04743C11.5762 3.97116 9.4528 3.97501 7.33585 4.04775C5.57762 4.10831 4.34811 5.29007 4.03281 7.02699C3.97721 7.33364 3.94389 7.6443 3.90015 7.9532V13.0452C3.92434 13.2103 3.95991 13.3745 3.97096 13.5405C4.04146 14.5969 4.47565 15.5018 5.17083 16.114L10.0555 20.9986C12.4527 21.0154 14.85 20.8962 17.2438 20.6406C19.0349 20.4495 20.4493 19.035 20.6404 17.2439Z" fill="url(#paint3_linear)"/>
<path d="M20.6406 17.2437C20.4496 19.0345 19.0347 20.4493 17.244 20.6403C14.8505 20.8957 12.4527 21.0151 10.0558 20.9982L5.17847 16.1209C5.74387 16.6158 6.48087 16.9172 7.33611 16.9494C9.45258 17.0289 11.5764 17.0268 13.6929 16.9505C15.6072 16.8813 16.9924 15.4645 17.0522 13.5502C17.1159 11.5177 17.1159 9.4799 17.0522 7.44739C17.0249 6.56427 16.7149 5.78722 16.2009 5.19922L20.998 9.99628C21.0169 12.4128 20.898 14.8304 20.6406 17.2437Z" fill="url(#paint4_linear)"/>
<path d="M12.978 8.22587C12.3631 7.55632 11.4808 7.13623 10.5001 7.13623C8.64252 7.13623 7.13647 8.64227 7.13647 10.4998C7.13647 11.4805 7.55656 12.3628 8.22611 12.9778L16.0083 20.76C16.4203 20.7241 16.8322 20.6842 17.2438 20.6403C19.0348 20.4492 20.4494 19.0346 20.6405 17.2435C20.6844 16.8319 20.7243 16.42 20.7602 16.0081L12.978 8.22587Z" fill="url(#paint5_linear)"/>
<path d="M20.9593 12.7619L14.6961 6.49889C14.55 6.30711 14.3198 6.18262 14.0601 6.18262C13.6182 6.18262 13.2598 6.54086 13.2598 6.9829C13.2598 7.24261 13.3843 7.47285 13.576 7.61896L20.8473 14.8904C20.8967 14.1811 20.934 13.4715 20.9593 12.7619Z" fill="url(#paint6_linear)"/>
<path d="M3.90015 7.9532C3.94389 7.6443 3.97721 7.33364 4.03281 7.02699C4.34795 5.29007 5.57762 4.10831 7.33585 4.04775C9.4528 3.97501 11.5762 3.97116 13.6928 4.04743C15.6064 4.11632 16.9923 5.53328 17.0521 7.44756C17.1157 9.48023 17.1157 11.5179 17.0521 13.5506C16.9923 15.4648 15.6069 16.8816 13.6929 16.9507C11.5763 17.0271 9.45248 17.029 7.33601 16.9496C5.42205 16.8776 4.09898 15.4575 3.97096 13.5403C3.95991 13.3745 3.92434 13.2101 3.90015 13.0451C3.90015 11.3477 3.90015 9.65039 3.90015 7.9532ZM10.5017 15.8162C11.4704 15.8162 12.44 15.8452 13.4074 15.8095C14.9242 15.7532 15.8572 14.848 15.8926 13.3327C15.9365 11.4445 15.9365 9.55377 15.8926 7.66545C15.8572 6.15044 14.9236 5.22406 13.4074 5.19186C11.4831 5.15116 9.55662 5.15148 7.63225 5.19186C6.12765 5.22342 5.19198 6.13105 5.15112 7.6294C5.09921 9.54144 5.09921 11.4568 5.15112 13.3689C5.19198 14.8671 6.12765 15.7537 7.63241 15.8095C8.58762 15.845 9.54524 15.8162 10.5017 15.8162Z" fill="url(#paint7_linear)"/>
<path d="M3.90015 7.9532C3.94389 7.6443 3.97721 7.33364 4.03281 7.02699C4.34795 5.29007 5.57762 4.10831 7.33585 4.04775C9.4528 3.97501 11.5762 3.97116 13.6928 4.04743C15.6064 4.11632 16.9923 5.53328 17.0521 7.44756C17.1157 9.48023 17.1157 11.5179 17.0521 13.5506C16.9923 15.4648 15.6069 16.8816 13.6929 16.9507C11.5763 17.0271 9.45248 17.029 7.33601 16.9496C5.42205 16.8776 4.09898 15.4575 3.97096 13.5403C3.95991 13.3745 3.92434 13.2101 3.90015 13.0451C3.90015 11.3477 3.90015 9.65039 3.90015 7.9532ZM10.5017 15.8162C11.4704 15.8162 12.44 15.8452 13.4074 15.8095C14.9242 15.7532 15.8572 14.848 15.8926 13.3327C15.9365 11.4445 15.9365 9.55377 15.8926 7.66545C15.8572 6.15044 14.9236 5.22406 13.4074 5.19186C11.4831 5.15116 9.55662 5.15148 7.63225 5.19186C6.12765 5.22342 5.19198 6.13105 5.15112 7.6294C5.09921 9.54144 5.09921 11.4568 5.15112 13.3689C5.19198 14.8671 6.12765 15.7537 7.63241 15.8095C8.58762 15.845 9.54524 15.8162 10.5017 15.8162Z" fill="white"/>
<path d="M10.5001 7.13672C8.64252 7.13672 7.13647 8.6426 7.13647 10.5002C7.13647 12.3579 8.64252 13.8638 10.5001 13.8638C12.3578 13.8638 13.8637 12.3579 13.8637 10.5002C13.8637 8.6426 12.3578 7.13672 10.5001 7.13672ZM10.5001 12.7057C9.28194 12.7057 8.29453 11.7183 8.29453 10.5002C8.29453 9.28203 9.28194 8.29461 10.5001 8.29461C11.7182 8.29461 12.7056 9.28203 12.7056 10.5002C12.7056 11.7183 11.7182 12.7057 10.5001 12.7057Z" fill="white"/>
<path d="M14.8602 6.98339C14.8602 7.42527 14.5019 7.78352 14.0601 7.78352C13.6182 7.78352 13.2598 7.42527 13.2598 6.98339C13.2598 6.54135 13.6182 6.18311 14.0601 6.18311C14.5019 6.18311 14.8602 6.54135 14.8602 6.98339Z" fill="white"/>
</g>
<defs>
<radialGradient id="paint0_radial" cx="0" cy="0" r="1" gradientUnits="userSpaceOnUse" gradientTransform="translate(4.30488 18.3523) scale(23.1593)">
<stop stop-color="#FAE100"/>
<stop offset="0.0544" stop-color="#FADC04"/>
<stop offset="0.1167" stop-color="#FBCE0E"/>
<stop offset="0.1829" stop-color="#FCB720"/>
<stop offset="0.2514" stop-color="#FE9838"/>
<stop offset="0.3054" stop-color="#FF7950"/>
<stop offset="0.4922" stop-color="#FF1C74"/>
<stop offset="1" stop-color="#6C1CD1"/>
</radialGradient>
<linearGradient id="paint1_linear" x1="8.05432" y1="9.1243" x2="-27.5222" y2="-10.8875" gradientUnits="userSpaceOnUse">
<stop stop-color="#A1B5D8" stop-opacity="0"/>
<stop offset="0.3094" stop-color="#90A2BD" stop-opacity="0.309804"/>
<stop offset="0.7554" stop-color="#7C8B9C" stop-opacity="0.756863"/>
<stop offset="1" stop-color="#748290"/>
</linearGradient>
<linearGradient id="paint2_linear" x1="10.5" y1="18.5379" x2="10.5" y2="21.8112" gradientUnits="userSpaceOnUse">
<stop stop-color="#FAE100" stop-opacity="0"/>
<stop offset="0.3068" stop-color="#FCA800" stop-opacity="0.305882"/>
<stop offset="0.6275" stop-color="#FE7300" stop-opacity="0.627451"/>
<stop offset="0.8685" stop-color="#FF5200" stop-opacity="0.866667"/>
<stop offset="1" stop-color="#FF4500"/>
</linearGradient>
<linearGradient id="paint3_linear" x1="9.30529" y1="9.27578" x2="4.10813" y2="4.07861" gradientUnits="userSpaceOnUse">
<stop stop-color="#833AB4" stop-opacity="0"/>
<stop offset="1" stop-color="#833AB4"/>
</linearGradient>
<linearGradient id="paint4_linear" x1="14.3924" y1="19.207" x2="11.7985" y2="6.97815" gradientUnits="userSpaceOnUse">
<stop stop-color="#833AB4" stop-opacity="0"/>
<stop offset="1" stop-color="#833AB4"/>
</linearGradient>
<linearGradient id="paint5_linear" x1="15.3795" y1="15.3793" x2="4.96055" y2="4.9603" gradientUnits="userSpaceOnUse">
<stop stop-color="#833AB4" stop-opacity="0"/>
<stop offset="1" stop-color="#833AB4"/>
</linearGradient>
<linearGradient id="paint6_linear" x1="16.1522" y1="9.07508" x2="12.7069" y2="5.62973" gradientUnits="userSpaceOnUse">
<stop stop-color="#833AB4" stop-opacity="0"/>
<stop offset="1" stop-color="#833AB4"/>
</linearGradient>
<linearGradient id="paint7_linear" x1="14.6696" y1="6.35963" x2="6.17457" y2="14.8546" gradientUnits="userSpaceOnUse">
<stop stop-color="#833AB4"/>
<stop offset="0.0922" stop-color="#9C3495"/>
<stop offset="0.2927" stop-color="#DC2546"/>
<stop offset="0.392" stop-color="#FD1D1D"/>
<stop offset="0.5589" stop-color="#FC6831"/>
<stop offset="0.6887" stop-color="#FC9B40"/>
<stop offset="0.7521" stop-color="#FCAF45"/>
<stop offset="0.7806" stop-color="#FDB750"/>
<stop offset="0.8656" stop-color="#FECB6A"/>
<stop offset="0.9415" stop-color="#FFD87A"/>
<stop offset="1" stop-color="#FFDC80"/>
</linearGradient>
<clipPath id="clip0">
<rect width="21" height="21" fill="white"/>
</clipPath>
</defs>
</svg>
