<svg width="21" height="21" viewBox="0 0 21 21" fill="none" xmlns="http://www.w3.org/2000/svg">
<path d="M10.5 21C16.299 21 21 16.299 21 10.5C21 4.70101 16.299 0 10.5 0C4.70101 0 0 4.70101 0 10.5C0 16.299 4.70101 21 10.5 21Z" fill="#6F3FAA"/>
<path d="M15.0552 5.76004C12.4994 5.14275 9.93913 4.42071 7.31815 5.33807C5.62117 5.97443 5.62117 7.81283 5.69188 9.36839C5.69188 9.79261 5.19694 10.3583 5.40904 10.8532C5.83326 12.2674 6.18682 13.6815 7.67166 14.3886C7.8838 14.53 7.67166 14.8128 7.81308 15.0249C7.74237 15.0249 7.60095 15.0956 7.60095 15.1664C7.60095 15.5053 7.75304 16.0237 7.65202 16.3579L12.164 20.8679C16.8024 20.1292 20.4277 16.3534 20.9378 11.6427L15.0552 5.76004Z" fill="#512D84"/>
<path d="M16.0545 7.37952L16.0511 7.36566C15.7706 6.23145 14.5057 5.01444 13.3442 4.76125L13.3311 4.75854C11.4523 4.40015 9.54734 4.40015 7.66898 4.75854L7.65549 4.76125C6.49434 5.01444 5.22946 6.23154 4.94854 7.36566L4.94542 7.37952C4.5986 8.96342 4.5986 10.5698 4.94542 12.1537L4.94854 12.1675C5.21752 13.2533 6.38815 14.4144 7.50636 14.7337V15.9998C7.50636 16.4581 8.06479 16.6831 8.38233 16.3524L9.66509 15.0191C9.94334 15.0346 10.2217 15.0433 10.5 15.0433C11.4457 15.0433 12.3918 14.9538 13.331 14.7747L13.3441 14.772C14.5057 14.5188 15.7705 13.3017 16.0511 12.1676L16.0545 12.1537C16.4013 10.5698 16.4013 8.9635 16.0545 7.37952ZM15.0394 11.924C14.852 12.664 13.8917 13.5839 13.1287 13.7538C12.1297 13.9438 11.1228 14.025 10.117 13.9971C10.0969 13.9966 10.0777 14.0044 10.0638 14.0187C9.92103 14.1652 9.12721 14.9802 9.12721 14.9802L8.13103 16.0026C8.05818 16.0786 7.93021 16.0269 7.93021 15.9221V13.8247C7.93021 13.7901 7.90548 13.7607 7.87144 13.7539C7.87123 13.7538 7.87107 13.7538 7.87086 13.7538C7.10781 13.5838 6.1478 12.6639 5.96015 11.924C5.64798 10.4923 5.64798 9.0409 5.96015 7.60921C6.1478 6.86925 7.10781 5.94935 7.87086 5.77938C9.6155 5.44756 11.3844 5.44756 13.1287 5.77938C13.8921 5.94935 14.8521 6.86925 15.0394 7.60921C15.3519 9.04094 15.3519 10.4923 15.0394 11.924Z" fill="white"/>
<path d="M12.1599 12.8922C12.0426 12.8566 11.9308 12.8327 11.827 12.7896C10.7511 12.3433 9.76096 11.7674 8.9767 10.8847C8.53069 10.3828 8.18161 9.81605 7.88654 9.21632C7.7466 8.93192 7.62868 8.6364 7.50846 8.34273C7.39887 8.07498 7.56031 7.79837 7.73027 7.59657C7.88978 7.4072 8.09507 7.26234 8.31737 7.15549C8.49087 7.07215 8.66199 7.12022 8.78872 7.26726C9.06263 7.58521 9.3143 7.9194 9.51798 8.28797C9.64328 8.51466 9.60891 8.79177 9.38181 8.94603C9.3266 8.98351 9.27632 9.02756 9.22493 9.06989C9.17981 9.10701 9.1374 9.1445 9.10647 9.19474C9.04999 9.28666 9.04729 9.39515 9.08363 9.4951C9.36364 10.2646 9.83561 10.863 10.6102 11.1854C10.7341 11.2369 10.8586 11.2969 11.0014 11.2803C11.2405 11.2524 11.318 10.99 11.4855 10.853C11.6493 10.7191 11.8587 10.7173 12.0351 10.829C12.2116 10.9407 12.3826 11.0605 12.5526 11.1817C12.7196 11.3007 12.8857 11.417 13.0397 11.5526C13.1877 11.683 13.2387 11.854 13.1553 12.0309C13.0028 12.355 12.7807 12.6245 12.4604 12.7966C12.3699 12.8451 12.2619 12.8608 12.1599 12.8922C12.0426 12.8566 12.2619 12.8608 12.1599 12.8922Z" fill="white"/>
<path d="M10.5029 6.78474C11.9101 6.82419 13.0659 7.75808 13.3136 9.14933C13.3558 9.3864 13.3708 9.62872 13.3896 9.86936C13.3975 9.97054 13.3402 10.0667 13.231 10.068C13.1182 10.0694 13.0675 9.97497 13.0601 9.87387C13.0456 9.67363 13.0356 9.47245 13.008 9.27394C12.8623 8.22562 12.0264 7.35834 10.983 7.17225C10.826 7.14424 10.6653 7.1369 10.5062 7.1202C10.4057 7.10966 10.274 7.10359 10.2518 6.97858C10.2331 6.87378 10.3215 6.79036 10.4213 6.78498C10.4484 6.78338 10.4756 6.78465 10.5029 6.78474C11.9102 6.82419 10.4756 6.78465 10.5029 6.78474Z" fill="white"/>
<path d="M12.6414 9.55731C12.639 9.5749 12.6378 9.61621 12.6275 9.65509C12.5902 9.79635 12.3759 9.81402 12.3267 9.67149C12.312 9.62921 12.3098 9.58106 12.3098 9.53553C12.3093 9.23751 12.2445 8.93974 12.0942 8.68039C11.9397 8.41383 11.7036 8.18985 11.4268 8.05421C11.2593 7.97226 11.0783 7.92128 10.8948 7.89097C10.8147 7.87768 10.7336 7.86968 10.653 7.85844C10.5554 7.84486 10.5032 7.78264 10.5079 7.68642C10.5122 7.59627 10.5781 7.53134 10.6763 7.53696C10.9993 7.55525 11.3112 7.62514 11.5984 7.77715C12.1822 8.08636 12.5157 8.57437 12.6131 9.22607C12.6175 9.25564 12.6246 9.28484 12.6268 9.31445C12.6323 9.38754 12.6358 9.46076 12.6414 9.55731C12.639 9.57482 12.6358 9.46076 12.6414 9.55731Z" fill="white"/>
<path d="M11.7662 9.52336C11.6484 9.52549 11.5854 9.46027 11.5733 9.3524C11.5649 9.27718 11.5581 9.20089 11.5402 9.12764C11.5048 8.98338 11.4282 8.84976 11.3068 8.76137C11.2496 8.71966 11.1846 8.68926 11.1167 8.66957C11.0303 8.6446 10.9406 8.65149 10.8545 8.63041C10.761 8.60748 10.7092 8.53168 10.7239 8.44395C10.7373 8.36405 10.815 8.30171 10.9023 8.30806C11.4479 8.34744 11.8378 8.6295 11.8935 9.27181C11.8975 9.31713 11.902 9.36499 11.892 9.40843C11.8747 9.48254 11.8197 9.51975 11.7662 9.52336C11.6484 9.52545 11.8197 9.51975 11.7662 9.52336Z" fill="white"/>
<path d="M16.0546 7.37984L16.0512 7.36598C15.8939 6.73019 15.4273 6.06845 14.843 5.56494L14.053 6.265C14.5227 6.63926 14.9252 7.15774 15.0395 7.60949C15.3521 9.04122 15.3521 10.4926 15.0395 11.9243C14.8522 12.6643 13.8918 13.5842 13.1288 13.7542C12.1299 13.9441 11.123 14.0253 10.1171 13.9975C10.0971 13.9969 10.0779 14.0047 10.064 14.019C9.9212 14.1655 9.12738 14.9805 9.12738 14.9805L8.13119 16.003C8.05835 16.0789 7.93038 16.0273 7.93038 15.9224V13.825C7.93038 13.7904 7.90565 13.761 7.87161 13.7542C7.8714 13.7542 7.87124 13.7542 7.87103 13.7542C7.43737 13.6576 6.94031 13.3187 6.55738 12.9084L5.77686 13.6C6.26433 14.1303 6.89306 14.559 7.5064 14.7341V16.0002C7.5064 16.4585 8.06483 16.6835 8.38237 16.3528L9.66514 15.0195C9.94339 15.035 10.2217 15.0437 10.5001 15.0437C11.4458 15.0437 12.3919 14.9542 13.3311 14.7751L13.3442 14.7724C14.5057 14.5192 15.7706 13.3022 16.0511 12.168L16.0546 12.1541C16.4014 10.5701 16.4014 8.96382 16.0546 7.37984Z" fill="#D1D1D1"/>
<path d="M12.1598 12.8924C12.2618 12.8609 12.0425 12.8567 12.1598 12.8924V12.8924Z" fill="white"/>
<path d="M13.0397 11.5528C12.8857 11.4172 12.7195 11.3009 12.5526 11.1819C12.3826 11.0607 12.2116 10.9409 12.0351 10.8291C11.8587 10.7175 11.6494 10.7193 11.4855 10.8532C11.318 10.9902 11.2406 11.2525 11.0014 11.2805C10.8586 11.2971 10.7341 11.237 10.6102 11.1855C10.1336 10.9873 9.77204 10.6841 9.49875 10.3013L8.91797 10.816C8.9377 10.8389 8.95652 10.8623 8.97658 10.8849C9.76088 11.7676 10.751 12.3434 11.8268 12.7898C11.9306 12.8329 12.0425 12.8568 12.1598 12.8924C12.0425 12.8567 12.2618 12.861 12.1598 12.8924C12.2618 12.861 12.3698 12.8452 12.4603 12.7967C12.7807 12.6246 13.0027 12.3551 13.1553 12.0311C13.2387 11.8542 13.1877 11.6832 13.0397 11.5528Z" fill="#D1D1D1"/>
<path d="M10.5034 6.78516C10.5046 6.78516 10.5058 6.78528 10.5069 6.78528C10.585 6.78807 11.8552 6.82305 10.5034 6.78516Z" fill="white"/>
<path d="M12.5213 7.62207L12.2737 7.84154C12.6628 8.22012 12.9311 8.72186 13.0078 9.27402C13.0354 9.47261 13.0455 9.67371 13.06 9.87395C13.0673 9.97514 13.118 10.0695 13.2309 10.0682C13.3401 10.0668 13.3974 9.97075 13.3895 9.86952C13.3707 9.62892 13.3557 9.38652 13.3135 9.14949C13.2051 8.54049 12.9226 8.01914 12.5213 7.62207Z" fill="#D1D1D1"/>
<path d="M12.613 9.22598C12.5421 8.75111 12.3451 8.36359 12.0179 8.06836L11.771 8.28718C11.8987 8.4005 12.0091 8.5336 12.0942 8.68039C12.2445 8.93974 12.3093 9.23751 12.3098 9.53553C12.3099 9.58106 12.312 9.62921 12.3267 9.67158C12.376 9.81419 12.5902 9.79651 12.6275 9.65517C12.6379 9.61621 12.6391 9.5749 12.6414 9.55739C12.6391 9.57499 12.6357 9.46088 12.6414 9.55739C12.6357 9.46088 12.6323 9.38763 12.6267 9.31445C12.6246 9.28472 12.6175 9.25552 12.613 9.22598Z" fill="#D1D1D1"/>
<path d="M12.6413 9.55734C12.6357 9.46079 12.6389 9.57486 12.6413 9.55734V9.55734Z" fill="white"/>
<path d="M11.7661 9.52325C11.768 9.52313 11.7697 9.52218 11.7715 9.52197C11.7665 9.52197 11.7589 9.5221 11.751 9.52239C11.7561 9.52251 11.7608 9.52329 11.7661 9.52325Z" fill="white"/>
<path d="M11.7661 9.52381C11.7608 9.52389 11.7562 9.52311 11.7511 9.52295C11.7256 9.52365 11.6993 9.525 11.7661 9.52381Z" fill="white"/>
<path d="M11.7715 9.52197C11.7697 9.52218 11.7679 9.52313 11.7661 9.52325C11.78 9.5223 11.7788 9.52197 11.7715 9.52197Z" fill="white"/>
<path d="M11.5177 8.51172L11.2664 8.73452C11.2802 8.74292 11.2938 8.7517 11.307 8.76126C11.4283 8.84965 11.5049 8.98328 11.5403 9.12753C11.5583 9.20078 11.5649 9.27699 11.5734 9.35229C11.585 9.45536 11.6435 9.51873 11.7512 9.52243C11.7591 9.52222 11.7668 9.52206 11.7717 9.52202C11.8235 9.51627 11.8755 9.47993 11.8921 9.40824C11.9021 9.36488 11.8975 9.31694 11.8936 9.27162C11.8623 8.91252 11.7266 8.66614 11.5177 8.51172Z" fill="#D1D1D1"/>
</svg>
