<svg width="21" height="21" viewBox="0 0 21 21" fill="none" xmlns="http://www.w3.org/2000/svg">
<path d="M0 21L1.44826 15.75C0.506912 14.1207 0 12.3103 0 10.4276C0 4.70691 4.70691 0 10.4638 0C16.2207 0 21 4.70691 21 10.4276C21 16.1482 16.2207 21 10.4638 21C8.65344 21 6.91552 20.4207 5.35861 19.5517L0 21Z" fill="#EDEDED"/>
<path d="M5.64822 17.6687L5.97409 17.8497C7.31374 18.6825 8.87065 19.1894 10.5 19.1894C15.243 19.1894 19.1896 15.2428 19.1896 10.4273C19.1896 5.61176 15.243 1.81006 10.4637 1.81006C5.68443 1.81006 1.8103 5.64797 1.8103 10.4273C1.8103 12.0928 2.281 13.7221 3.14996 15.098L3.36721 15.4238L2.53447 18.4652L5.64822 17.6687Z" fill="#55CD6C"/>
<path d="M7.67581 5.57577L6.98789 5.53955C6.77063 5.53955 6.55341 5.61198 6.40859 5.75681C6.08272 6.04646 5.53963 6.58955 5.3948 7.31372C5.14137 8.39994 5.53963 9.70338 6.48102 11.0068C7.42241 12.3102 9.23276 14.4102 12.4189 15.3154C13.4327 15.6051 14.2293 15.424 14.881 15.0258C15.3879 14.6999 15.7138 14.193 15.8224 13.6499L15.931 13.143C15.9672 12.9982 15.8948 12.8171 15.75 12.7447L13.4689 11.6947C13.3241 11.6223 13.1431 11.6585 13.0345 11.8033L12.1293 12.9619C12.0568 13.0344 11.9482 13.0706 11.8396 13.0344C11.2241 12.8171 9.16033 11.9482 8.03789 9.77577C8.00168 9.66716 8.00168 9.55851 8.07411 9.48612L8.94307 8.50855C9.0155 8.39994 9.05168 8.25511 9.0155 8.14646L7.9655 5.79303C7.92924 5.68438 7.82063 5.57577 7.67581 5.57577Z" fill="#FEFEFE"/>
</svg>
