<svg width="201" height="201" viewBox="0 0 201 201" fill="none" xmlns="http://www.w3.org/2000/svg">
<g id="ico_bitcoin" filter="url(#filter0_d_1_239)">
<rect id="Rectangle" x="31.0247" y="38.4214" width="113.478" height="113.478" rx="56.7391" transform="rotate(-15 31.0247 38.4214)" fill="#FF7D00"/>
<path id="Shape" fill-rule="evenodd" clip-rule="evenodd" d="M114.327 73.6308C116.854 71.2968 117.964 68.081 116.319 63.66C114.079 57.616 108.336 56.9269 101.63 58.0891L99.325 49.4908L94.2525 50.85L96.4945 59.2229C95.1598 59.5805 93.8066 59.9721 92.4598 60.3631L90.2008 51.9369L85.1327 53.2943L87.4352 61.8911C86.3431 62.2086 85.2704 62.5196 84.2172 62.8018L84.2104 62.7764L77.213 64.6482L78.7115 70.2371C78.7115 70.2371 82.438 69.1606 82.3952 69.2478C84.4494 68.6989 85.4499 69.7501 85.9274 70.761L88.5537 80.5562L92.2406 94.3159C92.3289 95.0069 92.2338 96.1743 90.7982 96.5611C90.8795 96.6029 87.1082 97.5491 87.1082 97.5491L87.7767 104.069L94.3767 102.3C95.1834 102.085 95.9831 101.88 96.773 101.678L96.7742 101.678C97.1884 101.572 97.6 101.466 98.0086 101.36L100.343 110.055L105.41 108.699L103.103 100.094C104.505 99.7503 105.854 99.4025 107.168 99.0485L109.461 107.613L114.533 106.254L112.21 97.5721C120.601 94.7821 125.976 90.9659 124.504 82.5031C123.319 75.6895 119.489 73.5326 114.327 73.6308ZM95.2652 66.1859L95.2652 66.1859C98.7876 65.1382 106.003 62.9919 107.49 68.5353C108.941 73.9561 101.348 75.8525 97.8669 76.7219C97.5505 76.8009 97.2681 76.8714 97.0295 76.9354L94.2295 66.4855C94.5189 66.4079 94.8687 66.3039 95.2652 66.1859ZM98.4435 82.2101L101.529 93.7327C101.812 93.6565 102.147 93.5721 102.521 93.4775C106.691 92.4247 115.806 90.1234 114.206 84.1584C112.57 78.0579 103.896 80.6129 99.6719 81.8573C99.2021 81.9957 98.7874 82.1178 98.4435 82.2101Z" fill="white"/>
</g>
<defs>
<filter id="filter0_d_1_239" x="0.537712" y="0.555618" width="199.956" height="199.956" filterUnits="userSpaceOnUse" color-interpolation-filters="sRGB">
<feFlood flood-opacity="0" result="BackgroundImageFix"/>
<feColorMatrix in="SourceAlpha" type="matrix" values="0 0 0 0 0 0 0 0 0 0 0 0 0 0 0 0 0 0 127 0" result="hardAlpha"/>
<feOffset dy="21.9915"/>
<feGaussianBlur stdDeviation="21.6124"/>
<feColorMatrix type="matrix" values="0 0 0 0 1 0 0 0 0 0.490196 0 0 0 0 0 0 0 0 0.2 0"/>
<feBlend mode="normal" in2="BackgroundImageFix" result="effect1_dropShadow_1_239"/>
<feBlend mode="normal" in="SourceGraphic" in2="effect1_dropShadow_1_239" result="shape"/>
</filter>
</defs>
</svg>
