<svg width="16" height="16" viewBox="0 0 16 16" fill="none" xmlns="http://www.w3.org/2000/svg">
<path fill-rule="evenodd" clip-rule="evenodd" d="M8.56874 10.2767C8.17499 10.6705 7.53653 10.6705 7.14278 10.2767L5.00871 8.14259C4.61496 7.74884 4.61496 7.11038 5.00871 6.71663C5.40247 6.32288 6.04093 6.32288 6.43468 6.71663L7.8558 8.13775L13.6476 2.34597C12.1984 0.898361 10.1995 0 8.00007 0C5.79904 0 3.79875 0.899705 2.34926 2.3492C0.899705 3.79869 0 5.79891 0 8C0 10.201 0.899705 12.2013 2.3492 13.6508C3.79875 15.1003 5.79897 16 8.00007 16C10.2011 16 12.2014 15.1003 13.6509 13.6508C15.1004 12.2013 16.0001 10.2011 16.0001 7.99993C16.0001 6.5253 15.5958 5.14122 14.8934 3.95203L8.56874 10.2767Z" fill="#72C77B"/>
</svg>
