<svg width="21" height="12" viewBox="0 0 21 12" fill="none" xmlns="http://www.w3.org/2000/svg"><path d="M20.0396 12 17.2419 11.9925C17.2419 11.9925 17.1819 12 17.0844 12 16.8593 12 16.3943 11.94 15.8467 11.565 14.8642 10.8825 13.9266 9.1875 13.184 9.1875 13.1315 9.1875 13.0865 9.195 13.0415 9.21 12.3964 9.4125 12.2014 10.0575 12.2014 10.845 12.2014 11.1225 12.0064 11.25 11.4814 11.25H10.0337C8.41358 11.25 6.84595 11.2125 5.08329 9.285 2.48806 6.4425.057843 1.3875.057843 1.3875.057843 1.3875-.0771688 1.095.0653439.9225.200356.765.515384.75.635395.75.665397.75.680398.75.680398.75H3.68066C3.68066.75 3.95819.8025 4.16071.9525 4.33322 1.08 4.42323 1.3125 4.42323 1.3125 4.42323 1.3125 4.93328 2.3025 5.57083 3.42 6.64343 5.265 7.22098 5.88 7.63352 5.88 7.70102 5.88 7.76853 5.865 7.83603 5.8275 8.45109 5.49 8.27107 2.76 8.27107 2.76 8.27107 2.76 8.27857 1.77 7.95604 1.335 7.70852.99 7.23598.8925 7.02596.8625 6.86095.84 7.13097.45 7.491.27 7.95604.0450004 8.72861.0 9.65869.0H10.1087C10.9863.015 11.0088.105 11.3538.1875 12.3889.435 12.0364 1.4025 12.0364 3.72 12.0364 4.4625 11.9014 5.505 12.4339 5.8575 12.4714 5.88 12.524 5.895 12.5915 5.895 12.9365 5.895 13.6791 5.4525 14.8642 3.45 15.5242 2.31 16.0343 1.1775 16.0343 1.1775 16.0343 1.1775 16.1468.975 16.3193.87 16.4843.7725 16.4843.772501 16.7018.772501H16.7243C16.9643.772501 19.3496.75 19.8746.75H19.9346C20.4372.75 20.8947.7575 20.9772 1.065 21.0972 1.53 20.6097 2.3625 19.3271 4.0875 17.2119 6.915 16.9718 6.705 18.727 8.34 20.4072 9.9 20.7522 10.6575 20.8122 10.755 21.5097 11.91 20.0396 12 20.0396 12z" fill="#797983"/></svg>