<svg width="18" height="14" viewBox="0 0 18 14" fill="none" xmlns="http://www.w3.org/2000/svg"><path d="M18 1.65184C17.3262 1.9379 16.6494 2.15385 15.8994 2.22676 16.6494 1.79487 17.25 1.07692 17.5488.286058 16.7988.717949 16.0488 1.00401 15.2256 1.14984 14.4756.431891 13.5.0 12.4512.0 10.4238.0 8.77441 1.57893 8.77441 3.51683 8.77441 3.80569 8.77441 4.09175 8.85059 4.30769 5.77441 4.16466 3.07617 2.79888 1.27441.645032.899414 1.14984.75 1.79487.75 2.4399.75 3.66266 1.42383 4.73958 2.39941 5.38462 1.79883 5.3117 1.20117 5.16867.75 4.95272c0 0 0 0 0 .07291999999999987C.75 6.7476 2.02441 8.18349 3.67383 8.47236 3.375 8.54247 3.07617 8.61539 2.70117 8.61539 2.47559 8.61539 2.25 8.61539 2.02441 8.54247 2.47559 9.97837 3.82617 10.9852 5.47559 10.9852 4.20117 11.9191 2.625 12.4912.899414 12.4912.600586 12.4912.298829 12.4912.0 12.4211 1.64941 13.4251 3.60059 14 5.625 14c6.8262.0 10.5-5.38461 10.5-10.05128.0-.14303.0-.28606.0-.43188999999999966C16.875 3.01482 17.4756 2.36979 18 1.65184z" fill="#797983"/></svg>