<svg width="32" height="32" viewBox="0 0 32 32" fill="none" xmlns="http://www.w3.org/2000/svg">
<g clip-path="url(#clip0)">
<path d="M21.0215 17.0227C21.2804 17.0227 21.4902 16.8128 21.4902 16.554C21.4902 16.2951 21.2804 16.0852 21.0215 16.0852C20.7626 16.0852 20.5527 16.2951 20.5527 16.554C20.5527 16.8128 20.7626 17.0227 21.0215 17.0227Z" fill="#442751"/>
<path d="M10.678 23.8965C9.02307 23.8965 7.67676 25.2429 7.67676 26.8977C7.67676 28.5525 9.02307 29.8989 10.678 29.8989C12.3329 29.8989 13.6793 28.5525 13.6793 26.8977C13.6792 25.2428 12.3329 23.8965 10.678 23.8965ZM10.678 28.9614C9.54007 28.9614 8.61426 28.0355 8.61426 26.8976C8.61426 25.7597 9.54007 24.8339 10.678 24.8339C11.8159 24.8339 12.7418 25.7597 12.7418 26.8976C12.7417 28.0356 11.8159 28.9614 10.678 28.9614Z" fill="#442751"/>
<path d="M10.6777 25.6113C9.96854 25.6113 9.3916 26.1883 9.3916 26.8975C9.3916 27.6068 9.96854 28.1837 10.6777 28.1837C11.387 28.1837 11.9639 27.6068 11.9639 26.8975C11.9639 26.1883 11.387 25.6113 10.6777 25.6113ZM10.6777 27.2461C10.4855 27.2461 10.3291 27.0898 10.3291 26.8975C10.3291 26.7051 10.4855 26.5488 10.6777 26.5488C10.87 26.5488 11.0264 26.7051 11.0264 26.8975C11.0264 27.0898 10.87 27.2461 10.6777 27.2461Z" fill="#442751"/>
<path d="M1.23075 4.40162H6.59025L8.73637 6.54781C8.87975 6.69112 9.10056 6.72706 9.28306 6.63275L12.9172 10.2669H6.74406C6.48513 10.2669 6.27531 10.4768 6.27531 10.7357V12.9331C6.27531 13.1919 6.48513 13.4018 6.74406 13.4018H6.78819V18.4833C6.78819 19.6742 7.75712 20.6432 8.94812 20.6432H14.6529L12.6313 22.6648C9.56856 21.2454 6.01531 23.4862 6.01531 26.8976C6.01531 29.4682 8.10675 31.5597 10.6774 31.5597C14.0403 31.5597 16.2949 28.0889 14.9474 25.0262H22.8905C23.1494 25.0262 23.3592 24.8163 23.3592 24.5574C23.3592 24.2986 23.1494 24.0887 22.8905 24.0887H15.7652L16.438 23.4159H26.0662L26.7391 24.0887H25.078C24.8191 24.0887 24.6092 24.2986 24.6092 24.5574C24.6092 24.8163 24.8191 25.0262 25.078 25.0262H26.5709C26.5623 25.1136 26.5674 25.1284 26.5659 25.6537C26.5659 25.984 26.7207 26.2787 26.9616 26.4693C24.9401 28.2347 26.2042 31.5597 28.8672 31.5597C31.53 31.5597 32.7943 28.2348 30.7728 26.4693C31.3216 26.0352 31.1293 25.4194 31.1686 25.1281C31.1686 24.555 30.7023 24.0887 30.1291 24.0887H30.0857C29.8829 23.3932 29.5565 23.3569 26.9279 20.6431H29.3272C30.5182 20.6431 31.4871 19.6742 31.4871 18.4832V13.4018H31.5312C31.7902 13.4018 32 13.1919 32 12.9331V10.7357C32 10.4768 31.7902 10.2669 31.5312 10.2669H31.4764C31.4104 8.832 31.0415 7.45625 30.3911 6.202L30.4171 6.187C30.6413 6.05756 30.7181 5.77087 30.5886 5.54669C30.4592 5.32244 30.1724 5.24562 29.9483 5.37512L29.9203 5.39125C29.7588 5.14112 29.5852 4.89687 29.3997 4.65919C29.2404 4.45506 28.9458 4.41875 28.7418 4.578C28.5377 4.73725 28.5013 5.03181 28.6606 5.23594C28.8191 5.43912 28.968 5.64756 29.1072 5.86075L22.8817 9.45506L26.4761 3.22931C27.2022 3.70362 27.2008 3.83444 27.4638 3.83444C27.9045 3.83444 28.1038 3.27594 27.7561 2.999C27.4937 2.79 27.2233 2.59562 26.9456 2.41612L26.9856 2.34687C27.1151 2.12269 27.0382 1.836 26.8141 1.70656C26.5898 1.57706 26.3031 1.65387 26.1737 1.87812L26.135 1.94519C24.8808 1.29444 23.5046 0.925748 22.0673 0.860248C22.0429 0.624248 21.8435 0.440186 21.6011 0.440186H19.4037C19.1448 0.440186 18.935 0.650061 18.935 0.908936V10.2669H16.5518L11.1004 4.81562C11.1917 4.63919 11.1634 4.41687 11.0154 4.26887L8.39719 1.65075C8.09294 1.34637 7.68819 1.17875 7.25775 1.17875H1.23075C0.552125 1.17875 0 1.73087 0 2.40956V3.17087C0 3.8495 0.552125 4.40162 1.23075 4.40162ZM19.5569 14.5979C19.3708 14.7376 19.2052 14.9032 19.0655 15.0893C18.6949 14.7187 10.5658 6.58969 9.96169 5.98556L10.4531 5.49419C10.7342 5.77525 18.0221 13.0631 19.5569 14.5979ZM23.4003 17.1155C23.8162 15.3538 22.2278 13.7572 20.4595 14.1747L19.6866 13.4018H24.6092V18.3244L23.4003 17.1155ZM19.5145 16.5537C19.5145 15.7229 20.1904 15.047 21.0212 15.047C21.8521 15.047 22.5279 15.7229 22.5279 16.5537C22.5279 17.3845 21.8521 18.0604 21.0212 18.0604C20.1904 18.0604 19.5145 17.3845 19.5145 16.5537ZM21.5831 18.9327L22.356 19.7056H20.1483L20.8612 18.9927C21.1046 19.0086 21.3476 18.9884 21.5831 18.9327ZM7.21281 11.2044H13.8547L15.1146 12.4643H7.21281V11.2044ZM13.6661 19.7057V17.5791C13.6661 17.3202 13.4563 17.1103 13.1973 17.1103C12.9384 17.1103 12.7286 17.3202 12.7286 17.5791V19.7057H8.94812C8.27413 19.7057 7.72569 19.1573 7.72569 18.4833V13.4018H12.7286V15.3916C12.7286 15.6504 12.9384 15.8603 13.1973 15.8603C13.4563 15.8603 13.6661 15.6504 13.6661 15.3916V13.4018H16.0521L18.6422 15.9919C18.5865 16.2279 18.5664 16.4709 18.5822 16.7138L15.5904 19.7056H13.6661V19.7057ZM18.8837 17.7382C19.106 18.1378 19.4372 18.4689 19.8368 18.6912C18.9221 19.6059 15.8238 22.7042 14.4163 24.1118C14.1463 23.7497 13.8253 23.4287 13.4632 23.1587C14.0429 22.579 18.2491 18.3729 18.8837 17.7382ZM10.6774 30.6222C8.62369 30.6222 6.95281 28.9513 6.95281 26.8976C6.95281 24.8438 8.62362 23.1729 10.6774 23.1729C12.7313 23.1729 14.4021 24.8438 14.4021 26.8976C14.4021 28.9513 12.7312 30.6222 10.6774 30.6222ZM17.3755 22.4784L19.2108 20.6432H23.2935L25.1287 22.4784H17.3755ZM29.2148 26.6932V27.8804C29.2148 28.072 29.0589 28.2279 28.8673 28.2279C28.6756 28.2279 28.5198 28.0721 28.5198 27.8804V26.6932H29.2148ZM28.8673 30.6222C27.784 30.6222 26.9027 29.7409 26.9027 28.6577C26.9027 28.0769 27.1599 27.5381 27.5823 27.1717V27.8804C27.5823 28.5889 28.1587 29.1654 28.8673 29.1654C29.5758 29.1654 30.1523 28.589 30.1523 27.8804V27.1717C30.5746 27.5381 30.8318 28.0769 30.8318 28.6577C30.8318 29.7409 29.9505 30.6222 28.8673 30.6222ZM30.2311 25.1281V25.6537C30.2311 25.7099 30.1854 25.7556 30.1291 25.7556C30.1291 25.7556 28.5239 25.7556 27.6053 25.7556C27.5491 25.7556 27.5034 25.7099 27.5034 25.6537V25.1281C27.5034 25.0719 27.5491 25.0262 27.6053 25.0262H30.1291C30.1854 25.0262 30.2311 25.0719 30.2311 25.1281ZM29.0439 24.0887H28.0649C27.4915 23.5153 23.0068 19.0306 22.4857 18.5095C22.6718 18.3698 22.8374 18.2042 22.9771 18.0181C23.7725 18.8137 29.0187 24.0587 29.0439 24.0887ZM30.5496 18.4832C30.5496 19.1572 30.0013 19.7056 29.3272 19.7056H25.9904L25.5467 19.2619V13.4018H30.5496V18.4832H30.5496ZM30.5378 10.2669H23.3504L29.578 6.6715C30.1474 7.783 30.4733 8.99906 30.5378 10.2669ZM22.0698 8.98631V1.799C23.3389 1.86331 24.5546 2.18906 25.6656 2.75837L22.0698 8.98631ZM19.8725 1.37769H21.1323V10.2669H19.8725V1.37769ZM31.0625 11.2044V12.4643H18.7491L17.4893 11.2044H31.0625ZM0.9375 2.40956C0.9375 2.24787 1.06906 2.11625 1.23075 2.11625H7.25775C7.43781 2.11625 7.607 2.18637 7.73425 2.31362L10.021 4.60031L9.06787 5.55344C7.07525 3.62519 7.12538 3.46412 6.78444 3.46412H1.23075C1.06906 3.46412 0.9375 3.33256 0.9375 3.17087V2.40956Z" fill="#442751"/>
</g>
<defs>
<clipPath id="clip0">
<rect width="32" height="32" fill="white"/>
</clipPath>
</defs>
</svg>
