<svg width="32" height="32" viewBox="0 0 32 32" fill="none" xmlns="http://www.w3.org/2000/svg">
<g clip-path="url(#clip0)">
<path d="M23.5187 0.1375C23.4312 0.05 23.3106 0 23.1875 0H11.3125C11.1887 0 11.0681 0.05 10.9812 0.1375C10.8937 0.224375 10.8438 0.344938 10.8438 0.46875V2.58375C10.8438 2.8425 11.0538 3.05312 11.3125 3.05312C11.5706 3.05312 11.7812 2.8425 11.7812 2.58375V0.9375H22.7188V10.0006H16.9375C16.8781 10.0006 16.8181 10.0125 16.7638 10.0344L14.2812 11.0262V10.4694C14.2812 10.3462 14.2313 10.2256 14.1438 10.1381C14.0569 10.0506 13.9356 10.0006 13.8125 10.0006H11.7812V4.45875C11.7812 4.20062 11.5706 3.99062 11.3125 3.99062C11.0538 3.99062 10.8438 4.20062 10.8438 4.45875V10.4694C10.8438 10.5931 10.8937 10.7138 10.9812 10.8013C11.0681 10.8881 11.1887 10.9381 11.3124 10.9381H13.3437V11.7188C13.3437 11.8744 13.4206 12.0194 13.5493 12.1069C13.6274 12.1594 13.7181 12.1875 13.8124 12.1875C13.8724 12.1875 13.9312 12.1762 13.9862 12.1538L17.0274 10.9381H23.1875C23.3106 10.9381 23.4312 10.8881 23.5187 10.8013C23.6062 10.7138 23.6562 10.5932 23.6562 10.4694V0.46875C23.6562 0.344938 23.6062 0.224375 23.5187 0.1375Z" fill="#442751"/>
<path d="M28.8124 26.6878H27.4064L27.4069 25.65C28.5548 24.647 29.2812 23.1735 29.2812 21.5333V19.735C29.6474 17.8926 29.4794 16.5263 28.7811 15.6745C28.3409 15.1375 27.7952 14.9328 27.4062 14.8562V12.7816C27.4062 12.5227 27.1964 12.3128 26.9374 12.3128C26.7596 12.3128 26.5773 12.3118 26.3918 12.3109C26.1979 12.3098 26.0003 12.3088 25.8005 12.3088C23.5391 12.3088 21.0003 12.4519 19.4922 14.1602C18.4074 15.389 18.0317 17.2038 18.3436 19.708V21.5334C18.3436 23.174 19.0704 24.6479 20.2188 25.6508V26.6879H18.8125C17.5201 26.6879 16.4688 27.7393 16.4688 29.0317V31.5314C16.4688 31.7903 16.6786 32.0002 16.9375 32.0002H18.8125H21.9375H30.6874C30.9464 32.0002 31.1562 31.7903 31.1562 31.5314V29.034C31.1562 29.0331 31.1562 29.0324 31.1562 29.0315C31.1562 27.7392 30.1048 26.6878 28.8124 26.6878ZM20.1951 14.7806C21.4449 13.3648 23.7439 13.2462 25.8006 13.2462C25.9987 13.2462 26.1946 13.2473 26.3869 13.2483C26.4143 13.2484 26.4416 13.2485 26.4688 13.2487V15.2815C26.4688 15.4109 26.52 15.5347 26.6143 15.6233C26.7087 15.712 26.8333 15.7578 26.9622 15.7496C27.0049 15.7471 27.6229 15.7404 28.0562 16.2688C28.3761 16.6591 28.5358 17.258 28.5322 18.0344L28.3284 17.627C28.2253 17.4205 27.9868 17.3198 27.7669 17.39C27.739 17.3989 24.9616 18.2779 23.3595 18.2779C21.8228 18.2779 20.4323 17.4447 20.4189 17.4367C20.2129 17.3105 19.9446 17.362 19.7996 17.5553L19.1809 18.3802C19.1431 16.7953 19.4827 15.5875 20.1951 14.7806ZM19.2812 21.5333V19.809L20.3075 18.4407C20.8855 18.7281 22.0578 19.2154 23.3595 19.2154C24.7479 19.2154 26.8149 18.6515 27.6669 18.4003L28.3438 19.754V21.5333C28.3438 24.0308 26.3111 26.0628 23.8125 26.0628C21.3139 26.0628 19.2812 24.0308 19.2812 21.5333ZM26.4691 26.3103L26.4688 26.9055L25.0294 27.8654L24.2812 27.4917V26.98C25.0697 26.9127 25.811 26.6775 26.4691 26.3103ZM23.3438 26.98V27.4642L22.3299 27.8697L21.1564 26.9312V26.3106C21.8143 26.6777 22.5554 26.9128 23.3438 26.98ZM21.4688 31.0627H19.2813V30.1252H21.4688V31.0627ZM30.2187 29.0315V31.0627H22.4062V29.6564C22.4062 29.3975 22.1964 29.1877 21.9375 29.1877H18.8126C18.5537 29.1877 18.3439 29.3975 18.3439 29.6564V31.0627H17.4064V29.0315C17.4064 28.2562 18.0373 27.6253 18.8126 27.6253H20.5233L21.9578 28.7723C21.9619 28.7757 21.9666 28.7778 21.9708 28.781C21.984 28.7908 21.9976 28.8 22.0116 28.8083C22.0201 28.8134 22.0286 28.8183 22.0372 28.8228C22.0506 28.8296 22.0644 28.8355 22.0783 28.841C22.0876 28.8447 22.0968 28.8487 22.1063 28.8517C22.1217 28.8567 22.1375 28.8603 22.1534 28.8637C22.1614 28.8653 22.1691 28.8677 22.1771 28.869C22.2013 28.8729 22.2257 28.8752 22.2506 28.8752C22.2669 28.8752 22.2832 28.874 22.2997 28.8723C22.3026 28.872 22.3055 28.8714 22.3084 28.871C22.3213 28.8695 22.3341 28.8673 22.347 28.8647C22.3523 28.8635 22.3574 28.8622 22.3627 28.8608C22.3728 28.8583 22.3828 28.8556 22.3928 28.8523C22.3993 28.8503 22.4058 28.848 22.4123 28.8457C22.4163 28.8442 22.4205 28.8431 22.4245 28.8415L23.7911 28.2948L24.8537 28.8256C24.8609 28.8292 24.8683 28.8318 24.8756 28.835C24.8841 28.8387 24.8924 28.8427 24.9009 28.8458C24.9127 28.8502 24.9244 28.8535 24.9363 28.8568C24.9419 28.8583 24.9475 28.8605 24.9532 28.8618C24.9698 28.8658 24.9864 28.8687 25.0031 28.8709C25.0046 28.871 25.0059 28.8714 25.0072 28.8717C25.0258 28.8738 25.0443 28.8751 25.0627 28.8751C25.0848 28.8751 25.1066 28.8735 25.1283 28.8704C25.1378 28.869 25.1471 28.8664 25.1566 28.8645C25.1685 28.862 25.1806 28.86 25.1922 28.8567C25.2017 28.8538 25.2111 28.85 25.2205 28.8467C25.2322 28.8425 25.2438 28.8385 25.2551 28.8335C25.2634 28.8297 25.2714 28.8251 25.2795 28.8209C25.2917 28.8145 25.3038 28.8081 25.3154 28.8007C25.3179 28.799 25.3207 28.798 25.3232 28.7963L27.0794 27.6253H28.8125C29.5874 27.6253 30.2179 28.2553 30.2188 29.03C30.2188 29.0305 30.2187 29.031 30.2187 29.0315Z" fill="#442751"/>
<path d="M13.1874 26.6876H11.1564L11.1567 26.1219C12.6598 25.1466 13.6562 23.4541 13.6562 21.5331V20.5001L14.2797 20.7228C14.331 20.7411 14.3843 20.7501 14.4374 20.7501C14.5328 20.7501 14.6274 20.7209 14.7074 20.6646C14.8321 20.5768 14.9062 20.4339 14.9062 20.2814C14.9062 17.4682 14.3646 15.3793 13.2963 14.0728C12.4187 12.9995 11.2124 12.4553 9.71081 12.4553C7.9605 12.4553 6.32025 13.2073 5.73744 13.5062L4.63894 12.9832C4.49944 12.9168 4.33619 12.9233 4.20262 13.0007C4.01462 13.1095 2.37831 14.1853 2.71869 18.4238V21.5331C2.71869 23.4543 3.71531 25.147 5.21869 26.1223V26.6876H3.1875C1.89513 26.6876 0.84375 27.739 0.84375 29.0314V31.5313C0.84375 31.7902 1.05362 32 1.3125 32H15.0624C15.3212 32 15.5311 31.7902 15.5311 31.5313V29.0338C15.5311 29.0329 15.5312 29.0323 15.5312 29.0314C15.5312 27.739 14.4798 26.6876 13.1874 26.6876ZM4.51381 13.9619L5.5485 14.4546C5.68731 14.5208 5.85006 14.5143 5.98344 14.4378C6.00169 14.4273 7.8285 13.3928 9.71087 13.3928C12.3948 13.3928 13.8219 15.4846 13.958 19.6124L5.84513 16.7149C5.794 16.6967 5.74069 16.6877 5.6875 16.6877C5.61544 16.6877 5.54363 16.7043 5.47788 16.7372L3.61544 17.6684C3.54713 15.32 4.19662 14.3114 4.51381 13.9619ZM3.65625 21.5331V18.696L5.71825 17.6651L12.7188 20.1653V21.5331C12.7188 24.0307 10.6861 26.0626 8.1875 26.0626C5.68894 26.0626 3.65625 24.0307 3.65625 21.5331ZM10.219 26.6088L10.2187 27.1561V27.1563V27.1563C10.2187 28.2764 9.30744 29.1876 8.18744 29.1876C7.06744 29.1876 6.15619 28.2764 6.15619 27.1563V26.6089C6.78456 26.861 7.47006 27.0001 8.18744 27.0001C8.905 27.0001 9.59056 26.8609 10.219 26.6088ZM14.5936 29.0314V31.0625H14.5936H1.78125V29.0314C1.78125 28.256 2.41206 27.6251 3.1875 27.6251H5.25612C5.48163 29.0401 6.71006 30.1251 8.1875 30.1251C9.66494 30.1251 10.8934 29.0401 11.1189 27.6251H13.1875C13.9624 27.6251 14.5928 28.2551 14.5937 29.0298C14.5937 29.0303 14.5936 29.0309 14.5936 29.0314Z" fill="#442751"/>
<path d="M18.6862 2.46927C18.3024 2.08614 17.7924 1.87489 17.25 1.87427C16.7069 1.87489 16.1968 2.08614 15.8138 2.46927C15.43 2.85302 15.2188 3.36302 15.2188 3.90552C15.2188 4.16427 15.4288 4.37427 15.6875 4.37427C15.9456 4.37427 16.1562 4.16427 16.1562 3.90552V3.90483C16.1569 3.61296 16.2706 3.33921 16.4769 3.13296C16.6831 2.92671 16.9574 2.81233 17.25 2.81171C17.5419 2.81233 17.8163 2.92671 18.0224 3.13296C18.2293 3.33921 18.3431 3.61352 18.3438 3.90546C18.3431 4.19796 18.2294 4.47227 18.0224 4.67852C17.8176 4.88333 17.5456 4.99739 17.2559 4.99952C17.2539 4.99946 17.2519 4.99921 17.2499 4.99921C16.9911 4.99921 16.7812 5.20977 16.7812 5.46858V6.71858C16.7812 6.97671 16.9911 7.18733 17.2499 7.18733C17.5081 7.18733 17.7187 6.97671 17.7187 6.71858V5.88221H17.7188C18.082 5.79677 18.4156 5.61233 18.6862 5.34177C19.0693 4.95864 19.2806 4.44864 19.2812 3.90552C19.2806 3.36296 19.0693 2.85296 18.6862 2.46927Z" fill="#442751"/>
<path d="M17.25 7.5C16.9912 7.5 16.7812 7.70994 16.7812 7.96875V8.59313C16.7812 8.85188 16.9912 9.06188 17.25 9.06188C17.5081 9.06188 17.7188 8.85188 17.7188 8.59313V7.96875C17.7188 7.70994 17.5081 7.5 17.25 7.5Z" fill="#442751"/>
</g>
<defs>
<clipPath id="clip0">
<rect width="32" height="32" fill="white"/>
</clipPath>
</defs>
</svg>
