<svg width="32" height="28" viewBox="0 0 32 28" fill="none" xmlns="http://www.w3.org/2000/svg">
<path d="M22.7354 15.2456H18.3872C17.1972 15.2456 16.2295 16.2133 16.2295 17.4033V20.738C16.2295 21.9281 17.1972 22.8958 18.3872 22.8958H22.7354C23.9254 22.8958 24.8932 21.9281 24.8932 20.738V17.4033C24.8932 16.2133 23.9254 15.2456 22.7354 15.2456ZM23.3239 20.738C23.3239 21.065 23.0558 21.3265 22.7354 21.3265H18.3872C18.0603 21.3265 17.7988 21.0584 17.7988 20.738V17.4033C17.7988 17.0764 18.0668 16.8149 18.3872 16.8149H22.7354C23.0623 16.8149 23.3239 17.083 23.3239 17.4033V20.738Z" fill="#442751"/>
<path d="M32 9.18434C32 9.04703 31.9673 8.91625 31.8954 8.79856L27.1353 0.429129C26.998 0.1872 26.7364 0.0302734 26.4553 0.0302734H5.53821C5.25705 0.0302734 4.99551 0.180662 4.85819 0.429129L0.104618 8.79856C0.0392317 8.91625 0 9.04703 0 9.18434C0 11.0609 1.13118 12.6694 2.74622 13.3821V27.1852C2.74622 27.6167 3.09931 27.9698 3.53085 27.9698H7.86596C7.8725 27.9698 7.87904 27.9698 7.88557 27.9698H13.9665C13.973 27.9698 13.9796 27.9698 13.9861 27.9698H28.4626C28.8942 27.9698 29.2472 27.6167 29.2472 27.1852V13.4802C29.2472 13.4475 29.2472 13.4214 29.2407 13.3952C30.8623 12.6825 32 11.0675 32 9.18434ZM5.99591 1.60608H25.9975L29.718 8.15124H2.28198L5.99591 1.60608ZM22.774 9.71397C22.5255 11.1263 21.2897 12.1986 19.8055 12.1986C18.3212 12.1986 17.0854 11.1263 16.8369 9.71397H22.774ZM15.1696 9.71397C14.9211 11.1263 13.6853 12.1986 12.2011 12.1986C10.7168 12.1986 9.481 11.1263 9.22599 9.71397H15.1696ZM1.62158 9.71397H7.56518C7.31671 11.1263 6.07438 12.1986 4.59011 12.1986C3.10584 12.2052 1.87005 11.1263 1.62158 9.71397ZM13.1819 26.4005H8.67021V17.933C8.67021 17.3184 9.16714 16.8149 9.78831 16.8149H12.0703C12.6849 16.8149 13.1884 17.3118 13.1884 17.933V26.4005H13.1819ZM27.678 26.4005H14.7511V17.933C14.7511 16.4553 13.548 15.2456 12.0638 15.2456H9.78177C8.30405 15.2456 7.0944 16.4487 7.0944 17.933V26.4071H4.31549V13.7679C4.40703 13.7744 4.49857 13.7744 4.59011 13.7744C6.17246 13.7744 7.57172 12.9702 8.39559 11.7475C9.21945 12.9702 10.6187 13.7744 12.2011 13.7744C13.7834 13.7744 15.1761 12.9702 16.0065 11.7475C16.8304 12.9702 18.2297 13.7744 19.8055 13.7744C21.3878 13.7744 22.7805 12.9702 23.6044 11.7475C24.4283 12.9702 25.8275 13.7744 27.4099 13.7744C27.5014 13.7744 27.5864 13.7679 27.678 13.7679V26.4005ZM27.4099 12.2052C25.9256 12.2052 24.6898 11.1328 24.4414 9.72051H30.385C30.13 11.1263 28.8942 12.2052 27.4099 12.2052Z" fill="#442751"/>
</svg>
