<svg width="22" height="22" viewBox="0 0 22 22" fill="none" xmlns="http://www.w3.org/2000/svg">
<g clip-path="url(#clip0)">
<path d="M0.766195 6.65008C1.18944 6.65008 1.53239 6.30703 1.53239 5.88388V2.61703L6.46719 7.55082C6.61686 7.70038 6.8129 7.77516 7.00894 7.77516C7.20509 7.77516 7.40124 7.70038 7.5508 7.55071C7.85002 7.25149 7.85002 6.76634 7.55069 6.46721L2.61569 1.53333H5.88325C6.30639 1.53333 6.64944 1.19028 6.64944 0.767133C6.64944 0.343989 6.3065 0.000938416 5.88325 0.000938416H0.766195C0.342949 0.000938416 0 0.343989 0 0.767133V5.88399C0 6.30703 0.342949 6.65008 0.766195 6.65008Z" fill="#442751"/>
<path d="M21.2337 15.3507C20.8104 15.3507 20.4675 15.6937 20.4675 16.1169V19.3838L15.3808 14.2971C15.0814 13.9979 14.5964 13.9979 14.2972 14.2971C13.9979 14.5963 13.9979 15.0815 14.2972 15.3806L19.3838 20.4672H16.117C15.6938 20.4672 15.3508 20.8103 15.3508 21.2334C15.3508 21.6565 15.6938 21.9996 16.117 21.9996H21.2338C21.657 21.9996 22 21.6565 22 21.2334V16.1169C21.9999 15.6937 21.6568 15.3507 21.2337 15.3507Z" fill="#442751"/>
<path d="M6.61908 14.2971L1.53288 19.3837V16.1168C1.53288 15.6937 1.18993 15.3507 0.766683 15.3507C0.343437 15.3507 0.000488281 15.6937 0.000488281 16.1168V21.2336C0.000488281 21.6567 0.343437 21.9998 0.766683 21.9998H5.88323C6.30637 21.9998 6.64942 21.6567 6.64942 21.2336C6.64942 20.8105 6.30647 20.4674 5.88323 20.4674H2.61638L7.70269 15.3806C8.00191 15.0814 8.00191 14.5962 7.70258 14.297C7.40356 13.9979 6.91841 13.9979 6.61908 14.2971Z" fill="#442751"/>
<path d="M21.2339 0.000205994H16.1171C15.6939 0.000205994 15.3509 0.343257 15.3509 0.766401C15.3509 1.18954 15.6939 1.5326 16.1171 1.5326H19.3841L14.45 6.46699C14.1508 6.76622 14.1508 7.25137 14.4501 7.55059C14.5997 7.70016 14.7958 7.77494 14.9918 7.77494C15.1879 7.77494 15.384 7.70005 15.5337 7.55049L20.4678 2.6161V5.88315C20.4678 6.30629 20.8107 6.64934 21.234 6.64934C21.6572 6.64934 22.0002 6.30629 22.0002 5.88315V0.766401C22.0001 0.343155 21.657 0.000205994 21.2339 0.000205994Z" fill="#442751"/>
</g>
<defs>
<clipPath id="clip0">
<rect width="22" height="22" fill="white"/>
</clipPath>
</defs>
</svg>
