<svg width="16" height="16" viewBox="0 0 16 16" fill="none" xmlns="http://www.w3.org/2000/svg">
<path d="M8.26676 15.7322L8.26676 10.3838C9.58338 10.2323 10.5279 9.04219 10.3764 7.72556C10.2489 6.61755 9.37478 5.74343 8.26676 5.61595L8.26676 0.267607C8.26676 0.12036 8.14738 0.000976464 8.00013 0.000976458C7.85289 0.000976451 7.7335 0.12036 7.7335 0.267607L7.7335 5.61595C6.41688 5.76746 5.47237 6.9576 5.62389 8.27422C5.7514 9.38224 6.62548 10.2564 7.7335 10.3838L7.7335 15.7322C7.7335 15.8794 7.85288 15.9988 8.00013 15.9988C8.14738 15.9988 8.26676 15.8794 8.26676 15.7322ZM6.13372 7.99989C6.13372 6.9691 6.96934 6.13348 8.00013 6.13348C9.03093 6.13348 9.86655 6.9691 9.86655 7.99989C9.86655 9.03069 9.03093 9.86631 8.00013 9.86631C6.96984 9.86511 6.13492 9.03019 6.13372 7.99989Z" fill="#FFEFEA"/>
<path d="M4.80054 13.5991C4.79877 12.3779 3.88106 11.3522 2.66749 11.2152L2.66749 0.267607C2.66749 0.12036 2.54811 0.000976464 2.40086 0.000976458C2.25362 0.000976451 2.13423 0.12036 2.13423 0.267607L2.13423 11.2152C0.817143 11.3624 -0.131196 12.5495 0.0160512 13.8666C0.163298 15.1837 1.3504 16.1321 2.66749 15.9848C3.88239 15.849 4.801 14.8216 4.80054 13.5991ZM0.534448 13.5991C0.534448 12.5683 1.37007 11.7327 2.40086 11.7327C3.43166 11.7327 4.26728 12.5683 4.26728 13.5991C4.26728 14.6299 3.43165 15.4655 2.40086 15.4655C1.37057 15.4643 0.535648 14.6294 0.534448 13.5991Z" fill="#FFEFEA"/>
<path d="M11.1986 2.40078C11.2003 3.62205 12.1181 4.64771 13.3316 4.78473L13.3316 15.7323C13.3316 15.8796 13.451 15.9989 13.5983 15.9989C13.7455 15.9989 13.8649 15.8796 13.8649 15.7323L13.8649 4.78473C15.182 4.63745 16.1303 3.45037 15.9831 2.13325C15.8359 0.816129 14.6487 -0.132176 13.3316 0.0150711C12.1168 0.150919 11.1981 1.17831 11.1986 2.40078ZM15.4647 2.40078C15.4647 3.43158 14.629 4.2672 13.5983 4.2672C12.5675 4.2672 11.7318 3.43157 11.7318 2.40078C11.7318 1.36999 12.5675 0.534367 13.5983 0.534368C14.6286 0.535534 15.4635 1.37045 15.4647 2.40078Z" fill="#FFEFEA"/>
</svg>
