<svg width="40" height="40" viewBox="0 0 40 40" fill="none" xmlns="http://www.w3.org/2000/svg"><g clip-path="url(#clip0)"><path d="M28.9871 14.0892C28.0782 13.7289 27.1174 13.5482 26.15 13.5554 23.0216 13.5554 20.8122 15.2695 20.7965 17.7301 20.777 19.5379 22.3666 20.5566 23.5691 21.1606 24.8029 21.7816 25.2154 22.1729 25.2115 22.728 25.2037 23.5723 24.2261 23.9551 23.3169 23.9551 22.0675 23.9551 21.3851 23.7658 20.3351 23.2915L19.946 23.0938 19.5022 25.9265C20.2628 26.2711 21.6334 26.5667 23.049 26.5922 26.3749 26.5922 28.5492 24.8887 28.5746 22.2707 28.6019 20.8267 27.7416 19.7356 25.9311 18.8339 24.8302 18.2491 24.1479 17.8577 24.1479 17.2644 24.1479 16.7391 24.7325 16.1776 25.9545 16.1776 26.7678 16.1562 27.5761 16.3222 28.3263 16.6647L28.6195 16.8071 29.0634 14.0701 28.9871 14.0892zM37.1054 13.7851H34.6613C33.9007 13.7851 33.3278 14.0126 32.9954 14.8335L28.295 26.4157H31.6209L32.2857 24.5165 36.3448 24.5208C36.4406 24.9653 36.7339 26.4157 36.7339 26.4157H39.6668L37.1054 13.7851zM16.2975 13.6787H19.467L17.4843 26.3157H14.3188l1.9787-12.6412V13.6787zM8.25158 20.6438 8.58006 22.3983 11.6772 13.7851H15.0344L10.0465 26.3987H6.69714L3.95978 15.7183C3.91544 15.5422 3.81132 15.3909 3.66844 15.295 2.68182 14.7407 1.63643 14.32.555664 14.0424L.59868 13.7766H5.69996C6.39212 13.8063 6.94937 14.0424 7.13512 14.8463L8.24962 20.6501V20.6438H8.25158zM33.1949 21.9326 34.458 18.3979C34.4423 18.4362 34.718 17.6685 34.8783 17.1942L35.0954 18.2852 35.8286 21.9304H33.1929V21.9326H33.1949z" fill="#e0e0e0"/></g><defs><clipPath id="clip0"><path d="M0 0h39.1111v39.1111H0z" fill="#fff" transform="translate(0.555664 0.518555)"/></clipPath></defs></svg>