<svg width="35" height="34" viewBox="0 0 35 34" fill="none" xmlns="http://www.w3.org/2000/svg"><path d="M32.9165 13.7559C32.9865 11.7282 32.5431 9.71562 31.6273 7.9051 31.006 7.1622 30.1436 6.66086 29.1906 6.48843 25.2488 6.13076 21.2906 5.98416 17.3331 6.04927 13.39 5.98121 9.44613 6.12307 5.51813 6.47427 4.74154 6.61553 4.02286 6.97979 3.44979 7.5226 2.17479 8.69843 2.03313 10.7101 1.89146 12.4101 1.68592 15.4666 1.68592 18.5335 1.89146 21.5901 1.93244 22.5469 2.07491 23.4967 2.31646 24.4234 2.48728 25.1389 2.83287 25.8009 3.32229 26.3501 3.89926 26.9217 4.63467 27.3066 5.43313 27.4551 8.48734 27.8321 11.5648 27.9883 14.6415 27.9226 19.5998 27.9934 23.949 27.9226 29.0915 27.5259 29.9095 27.3866 30.6656 27.0011 31.259 26.4209 31.6556 26.0241 31.9518 25.5385 32.1231 25.0043 32.6298 23.4496 32.8786 21.8226 32.8598 20.1876 32.9165 19.3943 32.9165 14.6059 32.9165 13.7559zM14.1315 21.0376V12.2684L22.5181 16.6743C20.1665 17.9776 17.064 19.4509 14.1315 21.0376z" fill="#fff"/></svg>