<svg width="40" height="32" viewBox="0 0 40 32" fill="none" xmlns="http://www.w3.org/2000/svg"><g clip-path="url(#clip0)"><path d="M14.5869 6.48193H25.1515V25.8145H14.5869V6.48193z" fill="#bdbdbd"/><path d="M15.2577 16.1484C15.2577 12.2205 17.0687 8.73642 19.8524 6.48204 17.8067 4.84255 15.2243 3.85205 12.407 3.85205 5.73263 3.85205.333008 9.35117.333008 16.1484.333008 22.9455 5.73263 28.4447 12.4069 28.4447 15.2241 28.4447 17.8065 27.4542 19.8524 25.8146 17.0687 23.5944 15.2577 20.0763 15.2577 16.1484z" fill="#828282"/><path d="M39.4051 16.1484C39.4051 22.9455 34.0055 28.4447 27.3312 28.4447 24.514 28.4447 21.9316 27.4542 19.8857 25.8146 22.703 23.5604 24.4805 20.0763 24.4805 16.1484 24.4805 12.2205 22.6694 8.73642 19.8857 6.48204 21.9314 4.84255 24.514 3.85205 27.3312 3.85205 34.0055 3.85205 39.4052 9.3854 39.4052 16.1484H39.4051z" fill="#e0e0e0"/></g><defs><clipPath id="clip0"><path d="M0 0h39.1111v30.963H0z" fill="#fff" transform="translate(0.333008 0.592773)"/></clipPath></defs></svg>