<svg width="34" height="34" viewBox="0 0 34 34" fill="none" xmlns="http://www.w3.org/2000/svg"><path d="M24.5647 7.73492C24.2284 7.73492 23.8998 7.83462 23.6202 8.02142 23.3406 8.20822 23.1227 8.47372 22.9941 8.78436 22.8654 9.09499 22.8317 9.43681 22.8973 9.76657 22.9629 10.0963 23.1248 10.3993 23.3626 10.637 23.6003 10.8748 23.9033 11.0367 24.233 11.1023 24.5628 11.1678 24.9046 11.1342 25.2152 11.0055 25.5259 10.8768 25.7914 10.659 25.9782 10.3794 26.165 10.0998 26.2647 9.77115 26.2647 9.43492 26.2647 8.98405 26.0856 8.55165 25.7668 8.23284 25.4479 7.91403 25.0155 7.73492 24.5647 7.73492zM31.0813 11.1633C31.0538 9.98784 30.8336 8.82491 30.4297 7.72075 30.0695 6.77602 29.5088 5.92056 28.7863 5.21325 28.0848 4.48711 27.2274 3.93 26.2788 3.58409 25.1776 3.16781 24.0134 2.94263 22.8363 2.91825 21.3347 2.83325 20.853 2.83325 16.9997 2.83325 13.1463 2.83325 12.6647 2.83325 11.163 2.91825 9.98597 2.94263 8.82174 3.16781 7.72051 3.58409 6.77372 3.9335 5.917 4.49013 5.21301 5.21325 4.48686 5.91475 3.92976 6.77221 3.58384 7.72075 3.16757 8.82199 2.94239 9.98622 2.91801 11.1633 2.83301 12.6649 2.83301 13.1466 2.83301 16.9999 2.83301 20.8533 2.83301 21.3349 2.91801 22.8366 2.94239 24.0136 3.16757 25.1779 3.58384 26.2791 3.92976 27.2276 4.48686 28.0851 5.21301 28.7866 5.917 29.5097 6.77372 30.0663 7.72051 30.4158 8.82174 30.832 9.98597 31.0572 11.163 31.0816 12.6647 31.1666 13.1463 31.1666 16.9997 31.1666 20.853 31.1666 21.3347 31.1666 22.8363 31.0816 24.0134 31.0572 25.1776 30.832 26.2788 30.4158 27.2274 30.0698 28.0848 29.5127 28.7863 28.7866 29.512 28.0819 30.0732 27.2257 30.4297 26.2791 30.8336 25.1749 31.0538 24.012 31.0813 22.8366 31.0813 21.3349 31.1663 20.8533 31.1663 16.9999 31.1663 13.1466 31.1663 12.6649 31.0813 11.1633zM28.5313 22.6666C28.521 23.5658 28.3582 24.4568 28.0497 25.3016 27.8235 25.9181 27.4602 26.4752 26.9872 26.9308 26.5277 27.399 25.9717 27.7615 25.358 27.9933 24.5133 28.3017 23.6223 28.4646 22.723 28.4749 21.3063 28.5458 20.7822 28.5599 17.0563 28.5599 13.3305 28.5599 12.8063 28.5599 11.3897 28.4749 10.4559 28.4924 9.52618 28.3486 8.64134 28.0499 8.05453 27.8064 7.5241 27.4447 7.08301 26.9874 6.6128 26.5323 6.25404 25.9748 6.03467 25.3583 5.6888 24.5014 5.49697 23.5902 5.46801 22.6666 5.46801 21.2499 5.38301 20.7258 5.38301 16.9999 5.38301 13.2741 5.38301 12.7499 5.46801 11.3333 5.47436 10.4139 5.64219 9.50284 5.96384 8.64159 6.21324 8.04363 6.59605 7.5106 7.08301 7.08325 7.51341 6.59616 8.04533 6.2093 8.64134 5.94992 9.50487 5.63831 10.415 5.47545 11.333 5.46825 12.7497 5.46825 13.2738 5.38325 16.9997 5.38325 20.7255 5.38325 21.2497 5.38325 22.6663 5.46825 23.5656 5.47857 24.4566 5.64143 25.3013 5.94992 25.9451 6.18884 26.5229 6.57729 26.9872 7.08325 27.4514 7.51842 27.8142 8.05046 28.0497 8.64159 28.3645 9.50424 28.5275 10.4149 28.5313 11.3333 28.6022 12.7499 28.6163 13.2741 28.6163 16.9999 28.6163 20.7258 28.6022 21.2499 28.5313 22.6666zM16.9997 9.73242C15.5629 9.73522 14.1592 10.1638 12.9659 10.9641 11.7727 11.7644 10.8434 12.9004 10.2955 14.2286 9.7476 15.5568 9.6057 17.0176 9.88772 18.4264 10.1697 19.8352 10.863 21.1288 11.8799 22.1438 12.8969 23.1588 14.1919 23.8495 15.6012 24.1288 17.0106 24.4081 18.4711 24.2633 19.7983 23.7128 21.1254 23.1624 22.2596 22.2309 23.0575 21.0361 23.8555 19.8412 24.2813 18.4367 24.2813 16.9999 24.2832 16.0438 24.096 15.0968 23.7306 14.2133 23.3652 13.3298 22.8286 12.5272 22.1519 11.8518 21.4752 11.1764 20.6716 10.6415 19.7874 10.2777 18.9032 9.91401 17.9558 9.72868 16.9997 9.73242zM16.9997 21.7174C16.0666 21.7174 15.1546 21.4407 14.3788 20.9224 13.603 20.404 12.9983 19.6672 12.6413 18.8052 12.2842 17.9432 12.1908 16.9947 12.3728 16.0796 12.5548 15.1645 13.0041 14.3239 13.6639 13.6641 14.3237 13.0044 15.1642 12.5551 16.0793 12.3731 16.9944 12.191 17.943 12.2845 18.805 12.6415 19.667 12.9986 20.4038 13.6032 20.9221 14.379 21.4405 15.1548 21.7172 16.0669 21.7172 16.9999 21.7172 17.6194 21.5952 18.2329 21.3581 18.8052 21.121 19.3776 20.7735 19.8976 20.3355 20.3357 19.8974 20.7738 19.3773 21.1212 18.805 21.3583 18.2326 21.5954 17.6192 21.7174 16.9997 21.7174z" fill="#fff"/></svg>