<svg width="26" height="30" viewBox="0 0 26 30" fill="none" xmlns="http://www.w3.org/2000/svg">
<path d="M16.2345 30C15.5923 30 14.9645 29.8076 14.4306 29.4471C13.8966 29.0865 13.4805 28.5741 13.2347 27.9746C12.989 27.375 12.9247 26.7153 13.05 26.0788C13.1753 25.4424 13.4845 24.8577 13.9386 24.3989C14.3927 23.94 14.9712 23.6275 15.601 23.5009C16.2309 23.3743 16.8837 23.4393 17.477 23.6876C18.0703 23.936 18.5774 24.3565 18.9342 24.8961C19.2909 25.4356 19.4814 26.07 19.4814 26.7189C19.4814 27.5891 19.1393 28.4237 18.5304 29.039C17.9215 29.6543 17.0956 30 16.2345 30ZM16.2345 24.3753C15.7758 24.3753 15.3274 24.5128 14.946 24.7703C14.5646 25.0278 14.2673 25.3938 14.0918 25.8221C13.9163 26.2503 13.8703 26.7215 13.9598 27.1762C14.0493 27.6308 14.2702 28.0484 14.5945 28.3761C14.9189 28.7039 15.3321 28.9271 15.782 29.0175C16.2319 29.108 16.6982 29.0615 17.122 28.8842C17.5458 28.7068 17.908 28.4064 18.1628 28.021C18.4177 27.6356 18.5537 27.1825 18.5537 26.7189C18.5537 26.0974 18.3093 25.5013 17.8744 25.0617C17.4395 24.6222 16.8496 24.3753 16.2345 24.3753Z" fill="#442751"/>
<path d="M2.31921 30C1.86051 30 1.41212 29.8625 1.03073 29.605C0.649335 29.3475 0.352076 28.9815 0.17654 28.5532C0.00100488 28.125 -0.0449232 27.6538 0.044564 27.1991C0.134051 26.7445 0.354935 26.3269 0.679282 25.9992C1.00363 25.6714 1.41687 25.4482 1.86676 25.3578C2.31664 25.2673 2.78295 25.3138 3.20673 25.4911C3.63051 25.6685 3.99273 25.9689 4.24756 26.3543C4.5024 26.7397 4.63842 27.1928 4.63842 27.6564C4.63842 27.9641 4.57843 28.2689 4.46188 28.5532C4.34533 28.8376 4.1745 29.0959 3.95914 29.3136C3.74378 29.5312 3.48811 29.7038 3.20673 29.8216C2.92535 29.9394 2.62377 30 2.31921 30ZM2.31921 26.2502C2.04399 26.2502 1.77496 26.3327 1.54612 26.4872C1.31729 26.6417 1.13893 26.8613 1.03361 27.1182C0.928287 27.3752 0.900731 27.6579 0.954423 27.9307C1.00812 28.2035 1.14065 28.454 1.33525 28.6507C1.52986 28.8473 1.77781 28.9813 2.04774 29.0355C2.31767 29.0898 2.59746 29.0619 2.85173 28.9555C3.10599 28.8491 3.32332 28.6688 3.47622 28.4376C3.62913 28.2064 3.71074 27.9345 3.71074 27.6564C3.71074 27.2834 3.56413 26.9258 3.30317 26.6621C3.04221 26.3983 2.68827 26.2502 2.31921 26.2502Z" fill="#442751"/>
<path d="M0.463843 28.1251C0.340824 28.1251 0.222844 28.0757 0.135857 27.9878C0.0488695 27.8999 4.91671e-07 27.7807 4.91671e-07 27.6564V23.9066C-9.186e-05 23.8425 0.0128267 23.779 0.0379578 23.7202C0.0630889 23.6613 0.0998984 23.6083 0.146111 23.5644L24.7297 0.128176C24.8192 0.0427101 24.9387 -0.00332855 25.0618 0.000187567C25.1848 0.00370369 25.3015 0.0564866 25.3861 0.146925C25.4707 0.237363 25.5162 0.358048 25.5127 0.48243C25.5093 0.606813 25.457 0.724704 25.3675 0.81017L0.927685 24.1081V27.6564C0.927685 27.7807 0.878816 27.8999 0.791828 27.9878C0.704841 28.0757 0.586861 28.1251 0.463843 28.1251Z" fill="#442751"/>
<path d="M11.1322 17.1101H1.85537C1.73235 17.1101 1.61437 17.0607 1.52738 16.9728C1.44039 16.8849 1.39153 16.7657 1.39153 16.6413C1.39153 16.517 1.44039 16.3978 1.52738 16.3099C1.61437 16.222 1.73235 16.1726 1.85537 16.1726H10.9003L18.0388 6.51688C18.0754 6.46733 18.1212 6.42554 18.1737 6.39389C18.2263 6.36225 18.2845 6.34137 18.345 6.33245C18.4055 6.32352 18.4672 6.32673 18.5264 6.34189C18.5857 6.35705 18.6415 6.38386 18.6905 6.42079C18.7396 6.45773 18.7809 6.50406 18.8122 6.55714C18.8435 6.61022 18.8642 6.66902 18.873 6.73017C18.8819 6.79132 18.8787 6.85364 18.8637 6.91355C18.8487 6.97346 18.8222 7.0298 18.7856 7.07935L11.5033 16.9226C11.4601 16.9808 11.4041 17.028 11.3396 17.0606C11.2752 17.0931 11.2042 17.1101 11.1322 17.1101Z" fill="#442751"/>
<path d="M14.3211 25.1464C14.2583 25.1464 14.196 25.1336 14.1382 25.1086C14.0804 25.0836 14.0282 25.047 13.9849 25.001L7.06433 17.6163C7.01945 17.5723 6.98385 17.5196 6.95966 17.4613C6.93547 17.403 6.92318 17.3404 6.92355 17.2772C6.92391 17.214 6.93691 17.1516 6.96177 17.0936C6.98663 17.0356 7.02284 16.9833 7.06821 16.9398C7.11359 16.8963 7.16719 16.8626 7.22581 16.8406C7.28442 16.8186 7.34684 16.8088 7.4093 16.8117C7.47176 16.8147 7.53298 16.8304 7.58928 16.858C7.64558 16.8855 7.69579 16.9242 7.7369 16.9718L14.6574 24.3566C14.7201 24.423 14.7621 24.5066 14.7782 24.5969C14.7943 24.6873 14.7838 24.7804 14.748 24.8648C14.7121 24.9491 14.6526 25.021 14.5767 25.0715C14.5009 25.122 14.412 25.1488 14.3211 25.1487V25.1464Z" fill="#442751"/>
<path d="M3.71074 9.27537C3.64069 9.27695 3.57119 9.26248 3.50747 9.23303C3.44375 9.20359 3.38746 9.15994 3.34283 9.10536C3.29819 9.05078 3.26637 8.9867 3.24976 8.91791C3.23314 8.84913 3.23216 8.77743 3.24689 8.70821C3.76997 6.24204 5.11474 4.03196 7.05649 2.44728C8.99824 0.8626 11.4194 -0.000694478 13.9153 0.00165272C17.0485 0.00165272 19.8872 1.22034 21.9096 3.43272C21.989 3.52473 22.0297 3.6444 22.0231 3.76628C22.0165 3.88816 21.9631 4.00264 21.8743 4.08537C21.7855 4.1681 21.6683 4.21255 21.5475 4.20928C21.4268 4.206 21.312 4.15526 21.2277 4.06784C19.384 2.04998 16.7864 0.939102 13.9153 0.939102C11.7555 0.938678 9.65398 1.64679 7.92667 2.95696C6.19937 4.26713 4.93965 6.10855 4.33692 8.20433L8.24711 7.42391C8.30784 7.40914 8.3709 7.40692 8.43249 7.41739C8.49409 7.42785 8.55297 7.45077 8.60558 7.48479C8.6582 7.5188 8.70347 7.56321 8.73869 7.61534C8.77391 7.66747 8.79835 7.72625 8.81054 7.78815C8.82273 7.85006 8.82242 7.91382 8.80963 7.9756C8.79684 8.03738 8.77184 8.09592 8.73611 8.14769C8.70039 8.19947 8.65469 8.24343 8.60174 8.27692C8.5488 8.31041 8.48971 8.33276 8.42801 8.34261L3.78959 9.26599C3.76362 9.27139 3.73724 9.27453 3.71074 9.27537Z" fill="#442751"/>
<path d="M14.1472 11.251C14.0738 11.2509 14.0014 11.2333 13.9361 11.1995L4.54797 6.36925C4.44222 6.31057 4.36326 6.21256 4.32783 6.09602C4.29241 5.97948 4.30331 5.85358 4.35823 5.74503C4.41315 5.63648 4.50776 5.55383 4.62198 5.5146C4.73621 5.47537 4.86107 5.48266 4.97006 5.53492L13.0873 9.70891L9.09594 1.85543C9.03966 1.74479 9.02917 1.61609 9.0668 1.49764C9.10442 1.37919 9.18706 1.2807 9.29655 1.22383C9.40603 1.16695 9.5334 1.15636 9.65061 1.19438C9.76783 1.2324 9.86529 1.31591 9.92158 1.42655L14.56 10.5667C14.5967 10.6382 14.6145 10.7181 14.6117 10.7986C14.6089 10.8791 14.5857 10.9575 14.5442 11.0263C14.5027 11.095 14.4444 11.1519 14.3748 11.1912C14.3053 11.2306 14.2269 11.2512 14.1472 11.251Z" fill="#442751"/>
<path d="M14.1472 11.251H14.073C14.0117 11.2419 13.9529 11.2205 13.8999 11.1881C13.847 11.1556 13.801 11.1128 13.7647 11.0621C13.7284 11.0115 13.7025 10.954 13.6885 10.893C13.6745 10.8321 13.6728 10.7689 13.6833 10.7073L15.3068 0.559364C15.3382 0.449692 15.4082 0.355388 15.5036 0.29416C15.599 0.232931 15.7132 0.208988 15.8248 0.226826C15.9364 0.244663 16.0377 0.303055 16.1097 0.391038C16.1817 0.479021 16.2195 0.590544 16.2159 0.704669L14.5925 10.8526C14.5762 10.9612 14.5227 11.0606 14.4413 11.1334C14.36 11.2062 14.2558 11.2478 14.1472 11.251Z" fill="#442751"/>
<path d="M10.2045 14.7665C10.0874 14.766 9.97466 14.7208 9.88912 14.6399L6.41031 11.3588C6.32556 11.2728 6.27716 11.1569 6.27528 11.0355C6.2734 10.9141 6.3182 10.7967 6.40024 10.7081C6.48228 10.6194 6.59517 10.5663 6.71514 10.5601C6.83511 10.5538 6.9528 10.5948 7.04345 10.6745L10.5223 13.9556C10.5902 14.0199 10.6375 14.1033 10.6578 14.1951C10.6782 14.2869 10.6708 14.3828 10.6365 14.4703C10.6022 14.5578 10.5427 14.6328 10.4657 14.6856C10.3886 14.7384 10.2976 14.7666 10.2045 14.7665Z" fill="#442751"/>
</svg>
