<svg width="32" height="30" viewBox="0 0 32 30" fill="none" xmlns="http://www.w3.org/2000/svg">
<path d="M2.61249 0C1.7643 0 0.9249 0.322196 0.283355 0.960938C0.200239 1.02699 0.132152 1.10955 0.083521 1.20326C0.03489 1.29696 0.00680429 1.39972 0.0010905 1.50483C-0.00462328 1.60995 0.0121626 1.71507 0.0503568 1.81337C0.088551 1.91166 0.147298 2.00093 0.222778 2.07536C0.298257 2.1498 0.388779 2.20773 0.488456 2.2454C0.588133 2.28306 0.694733 2.29961 0.801324 2.29398C0.907915 2.28835 1.01211 2.26065 1.10713 2.21269C1.20216 2.16473 1.28588 2.09759 1.35286 2.01562C2.06148 1.31009 3.1635 1.3101 3.87212 2.01562L25.476 23.5195C24.7833 24.2092 24.359 25.1576 24.359 26.2031C24.359 28.2942 26.0733 30 28.1736 30C30.2738 30 32 28.2942 32 26.2031C32 24.1121 30.2738 22.3945 28.1736 22.3945C27.6752 22.3945 27.209 22.5007 26.7713 22.6758L19.8433 15.7852H23.444C25.0659 15.7852 26.3911 14.4704 26.3911 12.8672C26.3911 11.264 25.0659 9.9375 23.444 9.9375H13.973L4.95351 0.960938C4.31197 0.322196 3.46068 0 2.61249 0ZM15.8624 1.24219C13.821 1.24219 12.1429 2.90117 12.1429 4.93359C12.1429 6.96602 13.821 8.625 15.8624 8.625C17.9038 8.625 19.57 6.96602 19.57 4.93359C19.57 2.90117 17.9038 1.24219 15.8624 1.24219ZM15.8624 2.74219C17.0857 2.74219 18.0608 3.71571 18.0608 4.93359C18.0608 6.15148 17.0857 7.125 15.8624 7.125C14.6392 7.125 13.664 6.15148 13.664 4.93359C13.664 3.71571 14.6392 2.74219 15.8624 2.74219ZM7.98376 8.25C7.80514 8.27499 7.64134 8.36178 7.52162 8.49488C7.4019 8.62797 7.33404 8.79869 7.33018 8.97656C7.33011 8.98256 7.3302 8.98337 7.33018 8.98828C7.33012 9.00302 7.33018 9.01845 7.33018 9.02344C7.3299 9.03515 7.3299 9.04688 7.33018 9.05859V18.7031C7.33018 20.3691 8.69742 21.7383 10.3842 21.7383H20.1404C20.291 21.7394 20.4384 21.6964 20.5642 21.6148C20.69 21.5332 20.7883 21.4166 20.8469 21.2799C20.9054 21.1431 20.9215 20.9923 20.893 20.8465C20.8646 20.7007 20.7929 20.5665 20.6871 20.4609L8.66111 8.50781C8.64985 8.49174 8.63796 8.4761 8.62546 8.46094C8.54225 8.37935 8.44102 8.31785 8.3297 8.28125C8.21837 8.24466 8.09997 8.23396 7.98376 8.25ZM8.85125 10.8164L18.3223 20.2383H10.3842C9.52291 20.2383 8.85125 19.5741 8.85125 18.7031V10.8164ZM15.4822 11.4375H23.444C24.2426 11.4375 24.87 12.0605 24.87 12.8672C24.87 13.6738 24.2426 14.2852 23.444 14.2852H18.346L15.4822 11.4375ZM9.30281 22.3945C7.20257 22.3945 5.47638 24.1121 5.47638 26.2031C5.47638 28.2942 7.20257 30 9.30281 30C11.4031 30 13.1174 28.2942 13.1174 26.2031C13.1174 24.1121 11.4031 22.3945 9.30281 22.3945ZM9.30281 23.9062C10.5849 23.9062 11.5963 24.9267 11.5963 26.2031C11.5963 27.4796 10.5849 28.5 9.30281 28.5C8.0207 28.5 6.98556 27.4796 6.98556 26.2031C6.98556 24.9267 8.0207 23.9062 9.30281 23.9062ZM28.1736 23.9062C29.4557 23.9062 30.4789 24.9267 30.4789 26.2031C30.4789 27.4796 29.4557 28.5 28.1736 28.5C26.8914 28.5 25.8682 27.4796 25.8682 26.2031C25.8682 24.9267 26.8914 23.9062 28.1736 23.9062Z" fill="#442751"/>
</svg>
